<?xml version="1.0" encoding="UTF-8" standalone="no"?>
<!-- Created with Inkscape (http://www.inkscape.org/) -->

<svg
   version="1.1"
   id="svg2"
   xml:space="preserve"
   width="7199.9922"
   height="4800.0098"
   viewBox="0 0 7199.9922 4800.0098"
   sodipodi:docname="ac29059f6c0a36df17044e5dd9c694dd.eps"
   xmlns:inkscape="http://www.inkscape.org/namespaces/inkscape"
   xmlns:sodipodi="http://sodipodi.sourceforge.net/DTD/sodipodi-0.dtd"
   xmlns="http://www.w3.org/2000/svg"
   xmlns:svg="http://www.w3.org/2000/svg"><defs
     id="defs6" /><sodipodi:namedview
     id="namedview4"
     pagecolor="#ffffff"
     bordercolor="#666666"
     borderopacity="1.0"
     inkscape:pageshadow="2"
     inkscape:pageopacity="0.0"
     inkscape:pagecheckerboard="0" /><g
     id="g8"
     inkscape:groupmode="layer"
     inkscape:label="ink_ext_XXXXXX"
     transform="matrix(1.3333333,0,0,-1.3333333,0,4800.0096)"><g
       id="g10"
       transform="scale(0.1)"><g
         id="g12"
         transform="scale(3.31288)"><path
           d="M 0,0 H 16300 V 10866.7 H 0 V 0"
           style="fill:#ffffff;fill-opacity:1;fill-rule:evenodd;stroke:none"
           id="path14" /></g><g
         id="g16"
         transform="scale(3.30313)"><path
           d="m 48.1433,2840.01 c 207.9967,16.77 1090.4467,88.94 875.7227,88.94 -241.943,0 -225.422,5947.71 -183.341,6063.42 42.07,115.71 94.672,168.32 94.672,168.32 0,0 5285.393,-1003.48 5337.983,-1119.21 52.61,-115.71 241.95,-3850.18 168.32,-3976.42 -73.65,-126.22 -5280.87,-1136.11 -5280.87,-1009.87 0,126.25 -31.56,305.08 31.56,326.12 63.11,21.04 5028.4,852.07 5028.4,852.07 0,0 -4986.33,-831.03 -5017.88,-715.32 -31.56,115.71 -235.952,5242.88 -99.2,5284.96 136.75,42.08 4948.76,-887.77 4948.76,-950.89 0,-63.12 94.69,-241.95 0,-241.95 -94.67,0 -4576.05,725.86 -4628.66,704.82 -52.59,-21.05 -31.55,-1167.69 -31.55,-1167.69 l 2387.97,-126.24 c 0,0 -473.4,-147.25 -473.4,-799.48 0,-652.2 568.09,-641.7 862.63,-599.62 193.94,27.67 1200.05,684.99 1924.54,1151.7 375.62,241.95 675.57,432.65 747.44,457.81 0,0 161.49,74.56 295.91,7.35 134.32,-67.2 459.95,-279.06 480.6,-217.06 20.71,62 -20.65,201.59 -41.32,93.03 -20.65,-108.53 -108.51,-775.2 -108.51,-775.2 0,0 1105.99,5.17 1126.63,20.64 20.68,15.47 15.53,1152.52 -56.85,1100.87 -72.33,-51.74 258.42,-1044.01 217.1,-1049.19 -41.36,-5.18 -1534.97,15.53 -1571.18,-46.5 -36.18,-62.03 -247.71,-2629.99 -142.5,-2735.19 105.2,-105.18 1830.41,-140.24 1830.41,-140.24 0,0 -140.29,2700.05 -105.2,2728.08 35.06,28.07 140.26,105.18 147.28,84.14 7,-21.04 399.75,-2426.49 371.68,-2475.6 -28.06,-49.1 -245.46,-266.47 -308.55,-266.47 -63.13,0 -259.52,1311.42 -273.53,1255.33 -14.05,-56.1 -161.33,-1185.24 -1059,-806.54 -897.66,378.7 -413.73,1521.86 126.24,1563.94 540.01,42.08 974.84,-315.58 855.59,-540 -119.22,-224.43 -56.1,1108.07 14.04,1192.23 70.12,84.13 -988.81,161.27 -1016.88,294.54 -28.06,133.27 0,420.78 0,420.78 0,0 -189.36,224.39 -105.2,315.58 84.16,91.19 546.99,-245.43 441.82,-336.62 -105.2,-91.19 -280.55,63.12 -280.55,63.12 0,0 336.62,-112.23 357.66,-21.04 21.04,91.19 -413.73,308.56 -343.61,413.76 70.11,105.2 568.06,-133.21 575.06,-266.47 7.02,-133.27 -224.43,-189.37 -133.24,-98.18 91.16,91.12 119.22,126.24 259.45,147.28 140.32,21.04 -56.07,413.76 -273.5,392.72 -217.37,-21.04 -35.06,-329.6 252.46,-364.72 287.58,-35.05 161.36,266.54 28.06,343.68 -133.23,77.11 -252.45,154.28 -280.52,91.18 -28.03,-63.12 554.05,-231.44 547.03,-189.36 -6.99,42.08 -336.62,280.49 -525.99,252.46 -189.33,-28.07 -420.78,-147.26 -427.77,-98.21 -7.03,49.1 224.42,175.35 406.73,175.35 182.38,0 343.65,-168.3 518.99,-133.27 175.32,35.09 224.43,140.29 196.36,182.37 -28.03,42.08 -413.78,154.26 -511.93,196.34 -98.21,42.08 -231.45,133.27 -455.88,133.27 -224.42,0 -554.8,-0.05 -999.29,-228.29 C 6342.35,7692.1 4002.6,7024.58 3687.02,6884.32 c -315.58,-140.29 -525.99,-806.51 -322.6,-1002.9 203.38,-196.32 918.73,-287.51 1080,-217.37 161.33,70.09 722.38,385.7 722.38,385.7 0,0 42.08,-995.84 0,-1094.05 -42.08,-98.15 -2412.51,-420.79 -2412.51,-420.79 0,0 -84.16,2005.77 -56.1,2047.85 28.06,42.08 617.15,154.28 462.84,112.2 -154.28,-42.05 -1739.21,-70.12 -1739.21,-70.12 l 70.1,-2440.56 4502.43,659.25 c 0,0 -84.17,1977.67 -28.07,1809.38 56.1,-168.33 168.33,-2552.8 168.33,-2552.8 0,0 546.99,28.07 420.78,-112.22 -126.24,-140.23 -5428.13,-1065.96 -5428.13,-1065.96 0,0 -112.22,-98.18 -112.22,-154.31 0,-56.07 4811.01,-1220.27 4811.01,-1220.27 0,0 56.07,420.78 28.01,294.54 -28.01,-126.21 -112.17,-280.49 70.14,-252.46 182.34,28.07 4474.3,1739.26 4488.4,1823.43 14,84.16 84.1,28.03 14,84.16 -70.1,56.1 -1220.27,140.23 -1220.27,140.23 -237.59,-21.89 357.45,-117.31 869.67,-154.28 -52.2,-49.38 -862.77,-299.17 -869.67,-322.57 -42.08,0 -1655.06,182.31 -1697.15,168.29 -42.08,-14.04 -1486.8,-448.84 -1458.73,-490.93 28.06,-42.08 1430.67,-336.62 1472.75,-336.62 42.05,0 1781.28,575.1 1486.74,547.03 -294.54,-28.06 -3015.59,-1065.99 -3071.72,-1080.04 -56.1,-13.98 -4502.39,869.63 -4460.31,883.65 42.08,14.05 4993.32,1009.89 4993.32,1009.89 0,0 1725.21,-168.32 1627.03,-224.42 -98.21,-56.07 -3829.13,-1136.11 -3927.34,-1122.09 -98.18,14.05 -1837.42,378.7 -1879.5,378.7 -42.08,0 -1009.87,-84.16 -1009.87,-84.16 0,0 4263.95,-1051.97 4362.1,-1023.88 98.24,28.07 4600.65,1697.15 4600.65,1697.15 l 6055.7,-14.02"
           style="fill:none;stroke:#332f2f;stroke-width:36.3322;stroke-linecap:round;stroke-linejoin:round;stroke-miterlimit:10;stroke-dasharray:none;stroke-opacity:1"
           id="path18" /></g></g></g></svg>
