<svg width="440" height="333" viewBox="0 0 440 333" fill="none" xmlns="http://www.w3.org/2000/svg">
<g clip-path="url(#clip0_16_82)">
<path d="M0.384613 245.353C52.2594 245.353 104.134 245.353 130.107 245.275C156.08 245.197 156.151 245.041 155.382 244.516C154.613 243.991 153.003 243.099 144.026 240.998C135.049 238.897 118.704 235.588 110.211 233.49C101.718 231.392 101.077 230.504 100.115 226.55C99.1543 222.595 97.8724 215.575 97.7118 208.514C97.5517 201.452 98.5133 194.351 99.4106 189.831C100.308 185.312 101.141 183.375 103.032 182.528C104.923 181.68 107.872 181.922 116.942 183.738C126.011 185.554 141.202 188.943 149.919 190.719C158.636 192.494 160.88 192.656 163.155 192.535C165.431 192.414 167.738 192.01 169.212 192.091C170.686 192.171 171.327 192.736 169.244 193.382C167.161 194.027 162.354 194.754 159.63 194.915C156.906 195.077 156.265 194.673 147.611 193.019C138.958 191.364 122.293 188.459 113.608 187.289C104.923 186.119 104.218 186.684 103.481 188.661C102.744 190.638 101.974 194.027 101.43 197.578C100.885 201.129 100.564 204.841 100.885 209.522C101.206 214.203 102.167 219.851 102.872 223.322C103.577 226.792 104.025 228.083 112.358 230.585C120.691 233.086 136.907 236.799 145.625 238.816C154.342 240.834 155.559 241.156 163.38 240.147C171.199 239.139 185.621 236.799 192.832 235.548C200.043 234.297 200.043 234.135 195.684 227.881C191.325 221.627 182.609 209.28 177.705 203.066C172.802 196.852 171.712 196.772 169.116 196.772C166.52 196.772 162.418 196.852 160.175 197.134C157.931 197.417 157.546 197.901 156.457 199.798C155.367 201.694 153.572 205.003 152.547 208.311C151.522 211.62 151.265 214.929 151.553 218.682C151.842 222.434 152.675 226.631 153.508 230.02C154.342 233.41 155.175 235.992 155.559 237.364C155.944 238.736 155.88 238.897 162.547 237.969C169.213 237.041 182.609 235.023 189.243 233.611C195.876 232.199 195.748 231.392 193.954 231.109C192.159 230.827 188.698 231.069 182.48 231.997C176.263 232.925 167.289 234.539 161.873 235.265C156.457 235.992 154.599 235.83 145.72 234.014C136.843 232.199 120.947 228.729 112.807 226.832C104.667 224.936 104.282 224.613 105.147 224.21C106.013 223.806 108.128 223.322 116.845 224.774C125.563 226.227 140.881 229.616 148.413 231.23C155.944 232.844 155.688 232.683 162.033 231.916C168.379 231.15 181.327 229.778 187.8 229.091C194.274 228.405 192.736 226.469 191.582 226.388C190.428 226.307 188.121 226.146 181.967 226.59C175.814 227.034 165.815 228.083 160.367 228.648C154.919 229.213 154.021 229.294 145.4 227.76C136.779 226.227 120.435 223.079 112.006 220.981C103.577 218.883 103.064 217.834 104.346 217.39C105.628 216.946 108.705 217.108 116.717 218.601C124.729 220.094 137.677 222.918 146.811 224.21C155.944 225.5 161.264 225.258 166.007 224.814C170.751 224.371 174.917 223.725 178.763 223.281C182.609 222.837 186.134 222.595 187.031 222.03C187.928 221.465 186.198 220.578 180.141 220.497C174.084 220.416 163.7 221.143 157.162 221.264C150.624 221.385 147.932 220.9 139.696 219.529C131.459 218.157 117.678 215.897 110.66 213.961C103.641 212.023 103.385 210.409 105.981 209.805C108.577 209.199 114.025 209.603 122.966 211.096C131.908 212.589 144.343 215.171 152.547 216.382C160.752 217.592 164.726 217.431 169.212 217.027C173.699 216.623 178.698 215.978 180.75 215.09C182.801 214.203 181.904 213.073 178.538 212.629C175.173 212.185 169.34 212.427 162.931 212.226C156.521 212.023 149.534 211.378 143.157 210.531C136.779 209.683 131.01 208.634 124.633 207.101C118.255 205.568 111.269 203.55 107.551 201.977C103.833 200.403 103.385 199.273 104.699 198.95C106.013 198.628 109.089 199.111 114.345 200.282C119.601 201.452 127.036 203.308 134.472 204.478C141.907 205.648 149.342 206.132 155.912 206.254C162.482 206.375 168.186 206.132 170.911 205.406C173.635 204.68 173.379 203.469 170.045 202.864C166.712 202.259 160.303 202.259 152.002 201.774C143.702 201.291 133.51 200.322 125.466 198.829C117.422 197.336 111.525 195.319 108.128 193.664C104.731 192.01 103.833 190.719 103.93 188.459C104.025 186.199 105.115 182.972 106.141 181.358C107.166 179.744 108.128 179.744 111.846 179.622C115.564 179.501 122.037 179.259 124.665 178.936C127.293 178.614 126.075 178.21 122.454 177.322C118.832 176.435 112.807 175.063 109.57 173.651C106.333 172.239 105.884 170.786 105.532 167.759C105.18 164.733 104.923 160.134 105.34 155.857C105.756 151.579 106.846 147.625 109.538 146.253C112.23 144.881 116.525 146.092 124.761 148.029C132.998 149.965 145.176 152.628 152.099 153.839C159.021 155.049 160.687 154.807 164.117 154.444C167.546 154.081 172.737 153.597 174.564 153.879C176.391 154.162 174.853 155.211 171.552 155.977C168.25 156.744 163.187 157.228 158.316 156.946C153.444 156.663 148.765 155.614 141.362 154.081C133.959 152.548 123.832 150.53 118.063 149.804C112.294 149.077 110.884 149.642 109.922 150.732C108.961 151.821 108.448 153.435 108.224 156.341C107.999 159.246 108.064 163.442 108.833 166.226C109.602 169.011 111.076 170.383 114.602 171.794C118.127 173.207 123.703 174.659 130.53 176.193C137.356 177.726 145.432 179.34 150.24 180.389C155.047 181.438 156.585 181.922 158.219 181.882C159.854 181.842 161.585 181.277 161.296 180.752C161.008 180.228 158.7 179.744 157.162 178.573C155.624 177.403 154.855 175.547 154.598 172.723C154.342 169.898 154.598 166.105 155.271 163.402C155.944 160.698 157.034 159.085 156.553 158.479C156.072 157.874 154.021 158.277 146.874 157.188C139.727 156.098 127.485 153.516 120.466 152.669C113.448 151.821 111.653 152.709 112.839 153.799C114.025 154.888 118.191 156.179 125.114 157.43C132.036 158.681 141.715 159.891 147.003 160.9C152.291 161.909 153.188 162.716 153.124 163.241C153.06 163.765 152.034 164.007 146.041 163.2C140.048 162.393 129.088 160.537 121.941 159.81C114.794 159.085 111.461 159.488 112.326 160.497C113.192 161.505 118.255 163.119 125.178 164.33C132.1 165.54 140.881 166.347 145.817 167.154C150.752 167.962 151.842 168.769 151.649 169.454C151.457 170.141 149.983 170.705 143.253 170.18C136.523 169.656 124.537 168.042 119.152 168.123C113.769 168.204 114.986 169.979 118.416 171.19C121.845 172.4 127.485 173.046 133.03 173.772C138.574 174.498 144.022 175.305 148.317 176.032C152.611 176.758 155.752 177.403 157.162 177.121C158.572 176.838 158.252 175.628 157.739 174.095C157.226 172.561 156.521 170.705 156.521 169.01C156.521 167.316 157.226 165.782 158.091 163.926C158.957 162.07 159.982 159.891 161.585 157.995C163.187 156.098 165.366 154.484 167.866 153.597C170.366 152.709 173.186 152.548 174.468 152.023C175.75 151.499 175.494 150.611 173.539 150.409C171.584 150.207 167.93 150.692 165.494 150.893C163.059 151.095 161.841 151.014 154.694 149.683C147.547 148.351 134.472 145.769 127.677 144.195C120.883 142.621 120.37 142.057 119.633 138.143C118.896 134.228 117.934 126.966 118.287 121.196C118.64 115.426 120.306 111.148 121.973 108.405C123.639 105.661 125.306 104.45 127.389 103.845C129.472 103.24 131.972 103.24 144.279 102.917C156.586 102.594 178.698 101.948 189.883 101.706C201.068 101.464 201.325 101.626 208.952 102.958C216.58 104.289 231.579 106.791 239.078 108.364C246.577 109.938 246.577 110.584 244.622 111.189C242.667 111.794 238.757 112.359 225.329 113.61C211.9 114.861 188.954 116.797 177.353 117.524C165.751 118.25 165.494 117.766 160.399 115.99C155.303 114.215 145.369 111.148 139.407 109.494C133.446 107.84 131.459 107.598 129.536 107.799C127.613 108.001 125.754 108.647 124.344 111.027C122.934 113.408 121.973 117.524 121.62 121.599C121.268 125.674 121.524 129.71 121.812 132.655C122.101 135.601 122.422 137.457 123.928 138.506C125.434 139.555 128.126 139.797 135.113 141.209C142.099 142.621 153.38 145.204 160.207 146.415C167.033 147.625 169.405 147.463 168.86 147.019C168.315 146.576 164.853 145.85 162.482 143.711C160.111 141.572 158.829 138.022 158.54 134.673C158.252 131.324 158.957 128.176 159.918 125.917C160.88 123.657 162.097 122.285 163.572 121.478C165.046 120.671 166.777 120.429 179.564 119.42C192.352 118.412 216.195 116.636 228.021 116.192C239.847 115.749 239.655 116.636 237.828 117.403C236.001 118.169 232.54 118.815 220.393 119.944C208.247 121.075 187.416 122.689 175.814 122.89C164.212 123.092 161.841 121.882 157.643 120.106C153.444 118.33 147.419 115.99 141.843 114.175C136.266 112.359 131.139 111.068 128.543 110.987C125.947 110.906 125.882 112.036 128.191 113.247C130.498 114.458 135.177 115.749 141.811 118.33C148.445 120.913 157.034 124.787 163.027 126.441C169.02 128.095 172.417 127.53 182.513 126.603C192.608 125.674 209.401 124.383 219.4 123.697C229.4 123.011 232.604 122.931 233.918 123.375C235.232 123.818 234.655 124.787 233.181 125.674C231.706 126.562 229.335 127.369 217.766 128.378C206.196 129.386 185.429 130.597 173.987 131.243C162.546 131.889 160.431 131.969 157.354 131.082C154.278 130.194 150.24 128.337 144.727 126.118C139.215 123.899 132.228 121.317 128.222 120.389C124.216 119.461 123.191 120.187 124.28 121.115C125.37 122.043 128.575 123.173 133.67 125.23C138.766 127.288 145.753 130.275 150.368 132.252C154.983 134.229 157.226 135.197 160.175 135.439C163.123 135.681 166.777 135.197 171.135 135.036C175.494 134.874 180.557 135.036 183.314 135.399C186.07 135.762 186.519 136.327 183.858 137.013C181.198 137.699 175.43 138.506 170.59 138.909C165.751 139.313 161.841 139.313 158.284 138.546C154.726 137.78 151.522 136.246 146.297 134.431C141.074 132.614 133.83 130.517 129.6 129.951C125.37 129.386 124.152 130.355 124.633 131.364C125.114 132.373 127.293 133.422 131.716 134.915C136.139 136.408 142.804 138.344 148.092 139.797C153.38 141.249 157.29 142.218 160.463 142.621C163.636 143.025 166.071 142.863 171.007 142.541C175.943 142.218 183.378 141.734 186.807 141.048C190.236 140.362 189.659 139.475 188.73 137.9C187.8 136.327 186.519 134.067 186.134 132.857C185.749 131.646 186.262 131.485 190.813 132.131C195.364 132.776 203.953 134.229 210.619 135.883C217.285 137.537 222.028 139.393 225.81 141.128C229.592 142.863 232.412 144.477 242.668 158.48C252.923 172.482 270.614 198.87 278.882 211.459C287.15 224.048 285.996 222.837 283.21 221.305C280.421 219.771 275.999 217.915 268.979 216.866C261.96 215.817 252.346 215.575 246.096 215.696C239.847 215.817 236.963 216.301 235.424 216.382C233.886 216.462 233.694 216.139 227.156 204.68C220.618 193.22 207.735 170.625 200.395 158.116C193.056 145.608 191.261 143.187 190.589 142.581C189.916 141.976 190.364 143.187 191.037 144.397C191.71 145.608 192.608 146.818 193.056 147.423C193.505 148.029 187.352 148.029 185.589 148.19C183.826 148.351 180.301 148.674 179.404 149.642C178.506 150.611 180.237 152.225 189.147 164.492C198.056 176.758 214.144 199.677 222.829 210.974C231.515 222.273 232.797 221.95 239.879 221.788C246.962 221.627 259.846 221.627 268.558 222.319C277.271 223.01 281.811 224.393 283.175 225.028C284.541 225.662 282.728 225.548 278.241 225.605C273.754 225.662 266.592 225.89 258.388 226.775C250.185 227.659 240.939 229.2 235.183 230.085C229.427 230.969 227.161 231.197 225.257 230.512C223.354 229.828 221.812 228.23 214.425 218.13C207.037 208.029 193.803 189.426 185.803 177.643C177.804 165.859 175.039 160.895 172.864 158.669C170.688 156.444 169.101 156.957 167.352 158.949C165.602 160.941 163.689 164.411 162.701 166.307C161.713 168.203 161.649 168.527 170.206 181.318C178.763 194.109 195.941 219.367 204.722 232.078C213.504 244.788 213.888 244.949 215.17 243.013C216.452 241.075 218.631 237.041 220.009 234.983C221.387 232.925 221.964 232.844 221.355 234.378C220.746 235.911 218.951 239.058 218.663 240.915C218.375 242.77 219.593 243.335 230.008 242.448C240.424 241.56 260.038 239.219 269.973 237.525C279.909 235.83 280.165 234.781 280.901 233.288C281.639 231.795 282.857 229.858 283.69 229.576C284.522 229.294 284.972 230.665 285.067 232.239C285.164 233.813 284.908 235.588 284.202 237.687C283.496 239.785 282.342 242.206 281.415 243.093C280.486 243.981 279.779 243.335 278.785 242.246C277.793 241.156 276.511 239.623 272.215 239.623C267.922 239.623 260.614 241.156 251.737 242.609C242.859 244.062 232.412 245.433 225.361 246.281C218.31 247.128 214.657 247.451 212.702 247.451C210.747 247.451 210.491 247.129 201.517 234.014C192.543 220.9 174.853 194.996 166.2 181.68C157.546 168.365 157.931 167.639 159.149 168.607C160.367 169.576 162.418 172.239 171.263 184.787C180.109 197.337 195.748 219.771 205.107 231.311C214.465 242.851 217.541 243.497 228.246 242.73C238.95 241.964 257.281 239.785 266.896 239.018C276.511 238.251 277.408 238.897 278.241 239.946C279.073 240.995 279.844 242.448 292.216 241.439C304.585 240.43 328.558 236.96 340.286 234.902C352.016 232.844 351.504 232.199 348.235 232.158C344.967 232.118 338.941 232.683 327.981 234.216C317.019 235.749 301.125 238.251 293.143 238.978C285.164 239.704 285.099 238.655 285.452 237.001C285.805 235.346 286.573 233.086 292.151 231.028C297.727 228.97 308.11 227.114 318.431 225.379C328.749 223.644 339.006 222.03 344.069 221.748C349.133 221.465 349.003 222.514 348.524 224.331C348.041 226.146 347.209 228.729 346.823 230.222C346.441 231.714 346.505 232.118 347.209 229.132C347.915 226.146 349.259 219.771 349.613 216.664C349.966 213.557 349.324 213.719 338.779 216.26C328.237 218.802 307.789 223.725 297.854 225.783C287.92 227.841 288.497 227.034 292.022 224.976C295.547 222.918 302.022 219.609 311.123 216.462C320.226 213.315 331.953 210.329 339.229 208.876C346.505 207.424 349.324 207.504 350.863 207.545C352.402 207.585 352.658 207.585 344.131 194.955C335.608 182.326 318.302 157.067 309.04 144.437C299.778 131.808 298.56 131.808 293.752 133.623C288.944 135.439 280.548 139.071 272.921 141.29C265.293 143.509 258.435 144.316 253.372 145.002C248.308 145.688 245.039 146.253 242.699 146.939C240.36 147.625 238.95 148.432 239.238 149.763C239.527 151.095 241.514 152.951 246.225 159.286C250.936 165.621 258.371 176.435 265.165 186.563C271.959 196.691 278.114 206.132 281.83 211.943C285.549 217.753 286.829 219.933 287.697 222.878C288.562 225.823 289.009 229.536 291.863 233.086C294.714 236.638 299.969 240.027 324.936 241.278C349.901 242.528 394.578 241.641 439.252 240.753" stroke="#333333"/>
</g>
<defs>
<clipPath id="clip0_16_82">
<rect width="440" height="332.111" fill="white" transform="translate(0 0.831055)"/>
</clipPath>
</defs>
</svg>
