<?xml version="1.0" encoding="UTF-8"?>
<!-- Generator: Adobe Illustrator 28.2.0, SVG Export Plug-In . SVG Version: 6.00 Build 0)  -->
<svg xmlns="http://www.w3.org/2000/svg" xmlns:xlink="http://www.w3.org/1999/xlink" version="1.1" id="Layer_1" x="0px" y="0px" viewBox="0 0 1500 302.2" style="enable-background:new 0 0 1500 302.2;" xml:space="preserve">
<style type="text/css">
	.st0{fill:#F5931E;}
	.st1{fill:#1D75B9;}
</style>
<g>
	<path class="st0" d="M408.9,122c0,28.4,0,56.8,0,85.3c0,5.4,0,10.7-3,15.5c-1.4,2.3-3,4.5-5.9,4.9c-10.6,1.5-18.6,7.6-25.9,14.9   c-12.5,12.5-24.9,25-37.5,37.4c-3,3-6.2,7.5-11.1,5.3c-4.5-2.1-3.6-7.2-3.6-11.4c0-8.6,0.1-17.3,0-25.9   c-0.1-12.6-7.3-19.9-19.9-19.9c-29.1-0.1-58.1,0-87.2,0c-13.1,0-20.8-7.5-20.8-20.6c0-57.8,0.2-115.6,0-173.4c0-11.9,8-21,21-20.9   c58.1,0.4,116.2,0.2,174.4,0.2c12.4,0,19.5,7.1,19.5,19.6C408.9,62.6,408.9,92.3,408.9,122z M305.3,69.5c0.1,0,0.2,0,0.2,0   c-11.6,0-23.2,0.2-34.9,0.2c-6,0-5.7,0-6.2,6.2c-0.4,4.7,1,7,5.8,6.9c4.5-0.1,5.1,2.5,5.1,6.4c-0.2,19.9-0.1,39.9-0.1,59.8   c0,7.9,0,8-7.7,9.5c-1.6,0.3-3.1,0.5-3.1,2.6c0,3.4,0,6.8,0.8,10.1c0,0.2,0.9,0,1.3,0c12.4,0,24.8,0,37.2-0.1   c1.2,0,2.4,0.1,2.9-1.6c2.1-6.3-0.4-10.6-6.8-11.9c-0.5-0.1-0.9-0.2-1.4-0.2c-2.2,0.1-3-0.7-3-3c0.1-7.4,0.1-14.8,0-22.1   c-0.1-3.1,1.3-3.7,4-3.6c6.7,0.1,13.5,0,20.3,0c11.8,0,11.7,0,11.8-11.8c0-3.3-1.1-3.8-4.1-3.8c-9.3,0.2-18.5,0-27.8,0.1   c-2.6,0-4.2-0.4-4.1-3.5c0.1-7.2,0.1-14.4,0-21.7c0-2.4,0.9-3.3,3.4-3.3c9.1,0.1,18.2,0.1,27.3,0c2.1,0,3.1,0.7,3.3,2.9   c0.3,3-1.2,7.2,1.3,8.8c2.3,1.4,6.1,0.4,9.2,0.5c0.8,0,1.6-0.1,2.4,0c2.4,0.3,3.3-0.6,3.2-3.1c-0.2-7.1-0.1-14.1,0-21.2   c0-2.6-0.7-3.5-3.5-3.5C330,69.6,317.5,69.5,305.3,69.5z"></path>
	<path class="st1" d="M12,146.2c0-26.2,0-52.4,0-78.7c0-11.9,7.4-19.4,19.3-19.4c50.1,0,100.2,0.1,150.3-0.1c4,0,4.8,1.1,4.8,5   c-0.1,51.3,0,102.7-0.1,154c0,11.5,4.2,20.4,14.6,25.8c2.4,1.2,1.9,2.3,0.4,3.8c-3.8,3.7-8.2,5.6-13.5,5.6c-25.3-0.1-50.6,0-75.9,0   c-14.4,0-21.5,7.6-21.2,22.1c0.2,6.7,0.1,13.5,0,20.3c0,3.1,0.1,6.9-3.1,8.3c-3.6,1.6-6.9-0.1-9.7-3c-10.6-10.7-21.3-21.4-31.9-32   c-7.4-7.4-15.2-14.1-26-15.9c-2.5-0.4-4-2.3-5.1-4.5c-2-4.2-2.9-8.5-2.9-13.2C12,198.4,12,172.3,12,146.2z M62.8,144.7   c0,1.9-0.1,3.8,0,5.7c1.4,36.1,34,56.7,68.3,42.3c10.2-4.3,18-10.5,15.3-23.3c0-0.2,0-0.3,0-0.5c-0.1-9.2,0.5-7.2-7.6-7.3   c-7.5-0.1-7.5,0-8.8,7.4c-0.5,3-0.1,6.2-3.3,8.4c-12.6,8.7-31.9,4.8-38.8-8.8c-7.5-14.8-7.4-30.4-0.9-45.5   c6.4-14.6,24-19.5,38-11.5c2.7,1.6,4.2,3.6,4.7,6.6c0.5,3.3-0.4,8,2.2,9.6c2.7,1.6,7,0.4,10.6,0.6c2.8,0.2,4-0.6,3.9-3.6   c-0.2-4.4,0-8.8,0-13.2c0-2.1-0.7-3.9-2.2-5.5c-15.1-15.4-43.7-18.2-61.3-5.5C67.9,111.3,62.4,126.7,62.8,144.7z"></path>
	<g>
		<path class="st1" d="M594.3,106c0,4.2-0.1,8.5,0,12.7c0.1,2.9-0.5,4.3-3.8,4.2c-6-0.2-11.9-0.1-17.9,0c-2.3,0-3.4-0.7-3.6-3.1    c-0.5-4.7-1.6-9.3-2-14c-0.3-4.1-2.4-6.4-5.6-8.5c-23.1-15-53.6-5.7-63.7,20.9c-8.3,22.1-8.3,45.1,1.7,66.9    c10.6,23,40.5,30.8,61.8,17c3.4-2.2,5.5-4.8,5.8-9c0.4-4.1,1.5-8.1,1.7-12.1c0.2-4.3,2.2-5.1,5.9-4.8c5.5,0.3,11,0.2,16.5,0    c2.5-0.1,3.3,0.9,3.2,3.3c-0.1,8.9-0.1,17.9,0,26.9c0,2.4-1.2,3.8-2.7,5.2c-18.2,17.8-40.4,23.8-65.2,21.9    c-36.2-2.8-61.7-31.8-65.9-65.5c-2.5-20.1-2.3-40.1,6.2-59.1c14-31.1,43.8-47.5,77.6-43.3c17.7,2.2,33.2,8.8,46.3,21    c2.6,2.4,3.9,4.9,3.6,8.6C594,98.8,594.3,102.4,594.3,106C594.3,106,594.3,106,594.3,106z"></path>
		<path class="st1" d="M715.1,176.9c0,9.7,0.1,19.5-0.1,29.2c-0.1,3.2,0.9,4.7,4.1,4.5c5.4-0.2,6.7-0.3,6.7,7.6    c0.3,4.5,0.8,9.1-1,12.3c-2.5,2.8-8.3,0.8-12.6,0.9c-6.7,0.2-13.5-0.3-20.2,0.2c-4.1,0.3-5.7-1.4-6.5-4.9c-0.3-1.2-0.9-2.4-1-3.6    c-0.6-3.5-1.7-3.2-4-1.1c-12.2,11.2-26.7,13.9-42.5,10.4c-16.4-3.6-26.3-16.3-26.8-34c-0.5-16.2,9.4-28.6,26.2-33.4    c12.9-3.7,26-3.7,39.2-3.5c4.3,0.1,5.6-1.2,5.2-5.3c-0.3-3.1,0-6.3-0.2-9.4c-0.7-8-5.9-13.6-13.8-14.8c-4.2-0.7-8.5-0.5-12.7,0.1    c-8.3,1.3-10.6,3.2-11.2,11.4c-0.3,5-2.4,5.8-6.6,5.6c-5.3-0.3-10.7-0.2-16-0.1c-2.5,0.1-3.3-0.8-3.2-3.2c0.1-7.2,0.1-14.4,0-21.7    c0-2.1,0.9-3.2,2.5-4.1c22.1-13,45.3-17.2,69.8-7.8c16,6.1,24.9,19.8,24.9,36.9C715,158.4,715,167.7,715.1,176.9    C715,176.9,715,176.9,715.1,176.9z M670.5,179.6c-5.1,0.1-11.8-0.4-17.9,2.8c-5.5,2.8-8.5,7.5-8.7,13.6c-0.2,5.2,1.9,9.8,7,11.8    c8.1,3.3,15.9,1.4,23.4-2.7c6.5-3.5,7.9-8.8,7.6-15.6C681.4,179.6,681.8,179.6,670.5,179.6z"></path>
		<path class="st1" d="M902.2,180.3c-10.7,0-21.4,0.2-32-0.1c-4.1-0.1-4.7,1.4-4.1,4.9c3.2,17.3,16.5,25.8,35.8,23    c7.5-1.1,14.7-3.4,21.3-7.1c2.7-1.5,4.1-1.3,5.3,1.7c2,5,4.1,9.8,6.3,14.7c1,2.1,0.3,3.1-1.4,4.2c-21,12.8-43.5,16.5-66.8,8.2    c-20.8-7.5-31.7-24.2-34.4-45.6c-2.1-16.3-1.3-32.6,6.5-47.8c12.3-23.9,33.1-31.5,57.2-28.4c27.8,3.5,41.1,24.3,42.4,50.4    c0.3,6.1-0.1,12.2,0.1,18.4c0.1,3.2-1.2,3.6-3.9,3.5C923.9,180.2,913,180.3,902.2,180.3z M885.8,158.5    C885.8,158.5,885.8,158.5,885.8,158.5c4.1,0,8.2,0,12.2,0c9.3,0,9.3,0,7.5-9.4c-2.6-13.5-14.6-20-26.9-14.5    c-6.2,2.8-13.2,14.9-12.7,21.9c0.2,2.2,1.5,2,2.9,2C874.5,158.5,880.1,158.5,885.8,158.5z"></path>
		<path class="st1" d="M1024.5,180.3c-10.7,0-21.4,0.2-32-0.1c-4-0.1-4.4,1.5-3.7,4.6c2.9,14,12.1,24.2,28.5,23.7    c10.3-0.3,19.9-2.6,28.8-7.5c2.6-1.4,3.9-1.4,5,1.7c1.7,4.7,3.9,9.3,6.1,13.7c1.3,2.7,0.7,4-1.8,5.6c-15.6,9.8-32.7,13-50.9,11.4    c-30.7-2.7-50.1-28.3-50.2-57.6c0-12.8,0.7-25.4,6-37.3c14.8-32.7,59.7-42.5,85.2-18.5c10.5,9.9,14.7,22.7,15.4,36.8    c0.4,6.6,0,13.2,0.3,19.8c0.1,3-1,3.7-3.8,3.6C1046.5,180.2,1035.5,180.3,1024.5,180.3z M1008.7,158.5c3.6,0,7.2,0,10.8,0    c10.7,0,10.8-0.1,8.5-10.6c-1.8-8.3-7.3-13.7-15-14.7c-9.1-1.2-16.1,2.1-20.1,9.7c-2,3.7-3.2,7.8-4,12c-0.5,2.6,0.1,3.8,2.9,3.7    C997.4,158.4,1003,158.5,1008.7,158.5z"></path>
		<path class="st1" d="M786.8,126.2c3.1-4.8,5.4-8.5,8.5-11.6c7.4-7.3,16.2-8.2,25.8-6.6c1.9,0.3,2.6,1.2,2.4,3.2    c-1,8.4-2,16.8-2.9,25.2c-0.2,2.3-1.7,2.2-3.3,2.2c-4.6,0-9.1-0.2-13.7,0c-5.4,0.2-10,2.4-13.5,6.6c-1.6,2-2.5,4.1-2.5,6.9    c0.1,17.4,0.1,34.9,0,52.3c0,3,1,3.9,3.7,4.6c3.9,1,9.3,0.1,11.2,3.4c1.8,2.9,0.5,7.6,0.6,11.5c0,1.1-0.1,2.2,0.1,3.3    c0.5,3.3-0.8,4.3-4.1,4.3c-19-0.1-38-0.1-57,0c-2.7,0-3.6-0.7-3.5-3.4c0.2-4.5,0.1-9.1,0-13.7c-0.1-2.4,0.8-3.5,3.1-3.6    c0.2,0,0.3-0.1,0.4-0.1c4-0.9,9.3-0.6,11.5-3.1c2.6-3,0.8-8.4,0.8-12.8c0.1-19.2-0.1-38.3,0.1-57.5c0-3.6-1.1-5.2-4.6-5.4    c-1.1-0.1-2.1-0.5-3.2-0.7c-9.9-1.9-9.9-1.9-9.9-12.2c0-9.8,0-9.8,9.8-9.8c11.5,0,22.9,0.1,34.4-0.1c3.2-0.1,4.5,0.8,4.6,4.1    C785.8,117.3,786.4,121,786.8,126.2z"></path>
		<path class="st1" d="M1127.4,125.6c2.8-4.4,5.1-8.4,8.7-11.5c7.5-6.6,16.1-7.7,25.6-5.8c2.3,0.5,2.2,1.8,2,3.4    c-0.9,8.1-2,16.2-2.8,24.3c-0.2,2.3-1.1,2.9-3.3,2.8c-4.7-0.1-9.4-0.3-14.1,0c-9.9,0.6-15.7,6.8-15.7,16.6    c0,16.2,0.1,32.3-0.1,48.5c0,3.3,0.9,4.6,4.1,5.3c3.8,0.8,8.8,0,11,3c2.2,2.9,0.6,7.6,0.6,11.5c0.2,7.8,0.1,7.8-7.5,7.8    c-17.4,0-34.9-0.2-52.3,0.1c-4.1,0.1-5.3-1.3-4.7-5c0-0.3,0-0.6,0-0.9c0.1-4.5-1.3-10,0.7-13.4c2-3.3,8-2.3,12.2-3.5    c2.3-0.6,3-1.5,3-3.8c-0.1-22.9-0.1-45.8,0-68.8c0-2.7-1.1-3.7-3.4-4c-0.9-0.1-1.9-0.1-2.8-0.4c-3.7-1.2-8.9,0-10.9-3    c-1.7-2.7-0.5-7.3-0.5-11.1c0-8.3,0-8.3,8.5-8.3c11.3,0,22.6,0,33.9,0c6.1,0,6.1,0,6.4,6.3C1126.2,118.9,1126.2,122,1127.4,125.6z    "></path>
	</g>
	<g>
		<path class="st0" d="M1262.7,72.1c20.3,0,40.5,0.1,60.8-0.1c3.8,0,4.9,1.4,4.8,5c-0.1,12.1-0.1,24.2,0,36.3c0,3.2-1,4-4.1,3.9    c-6-0.2-11.9-0.2-17.9,0c-2.7,0.1-4-0.7-4-3.6c-0.1-3.9-0.9-7.8-0.8-11.7c0.2-4-1.5-4.5-4.9-4.4c-14.6,0.2-29.2,0.2-43.8,0    c-3.8-0.1-4.9,1.1-4.9,4.7c0.2,12.1,0.3,24.2,0.1,36.3c-0.1,3.7,1.3,4.4,4.6,4.4c16-0.1,32,0.1,48.1-0.2c3.9-0.1,4.8,1.2,4.6,4.8    c-0.2,5.6-0.2,11.3,0,16.9c0.1,3.2-1.1,3.9-4.1,3.9c-16.2-0.1-32.3,0-48.5-0.2c-3.6,0-4.6,1-4.5,4.5c0.2,12.1,0.1,24.2-0.1,36.3    c-0.1,3.4,1.1,5,4.4,5c0.6,0,1.2,0.3,1.8,0.4c11.2,2.3,11.2,2.3,11.2,13.9c0,8.2,0,8.2-8.2,8.2c-17.4,0-34.9,0-52.3,0    c-7.5,0-7.5-0.1-7.5-7.3c0-2.4,0.3-4.8-0.1-7.1c-0.8-5,1.6-6.3,6.1-7c11.5-1.6,11.4-1.8,11.4-13.2c0-33.4-0.1-66.9,0.1-100.3    c0-4.9-1.6-6.5-6.2-7.1c-11.4-1.5-11.4-1.7-11.4-12.8c0-9.3,0-9.3,9.5-9.3C1225.6,72.2,1244.2,72.2,1262.7,72.1    C1262.7,72.2,1262.7,72.2,1262.7,72.1z"></path>
		<path class="st0" d="M1430.4,174.2c0-11.5-0.1-22,0.1-32.6c0.1-3.4-1.1-4.4-4.3-4.2c-3.6,0.2-7.2,0-10.8,0c-2,0-2.7-0.7-2.7-2.8    c0.1-6,0.1-11.9,0-17.9c0-2.1,0.8-2.7,2.8-2.7c3.8,0.1,7.5-0.2,11.3,0.1c2.9,0.2,3.9-0.8,3.8-3.7c-0.2-7.4,0-14.8-0.2-22.1    c-0.1-2.9,0.6-4.1,3.9-4.1c8.3,0.2,16.6,0.2,24.9-0.1c3.7-0.1,4.5,1.3,4.4,4.6c-0.2,6.9,0.1,13.8-0.1,20.7    c-0.1,3.4,0.8,4.8,4.4,4.6c4.7-0.3,9.4,0,14.1-0.1c2.2-0.1,3.1,0.7,3,3c-0.1,5.6-0.1,11.3,0.1,16.9c0.1,2.9-1.2,3.5-3.7,3.5    c-4.7-0.1-9.4,0.1-14.1,0c-2.7-0.1-3.9,0.5-3.9,3.6c0.1,19.6,0,39.2,0.1,58.8c0.1,9.8,4.7,13.6,16.1,12c5.7-0.8,7,0.8,7.1,5.8    c0.1,5,1.5,9.9,1.3,14.9c-0.1,1.4,0,2.7-1.9,3.1c-13.5,3.2-26.9,4.8-39.9-1.9c-9.1-4.7-13.1-13-14.7-22.7    C1429.5,198.6,1431,185.9,1430.4,174.2z"></path>
		<path class="st0" d="M1388.6,163.2c0,14.9,0.1,29.8-0.1,44.7c0,3.5,0.8,5.3,4.6,6.1c3.7,0.8,9-0.1,10.8,3.1    c1.6,2.8,0.3,7.3,0.3,11.1c0,8.1,0,8.1-8.1,8.1c-17.4,0-34.8-0.1-52.3,0.1c-3.3,0-4.6-0.8-4.4-4.2c0.2-4.1,0.2-8.2,0-12.2    c-0.1-2.6,0.6-4.3,3.5-4.4c0.3,0,0.6-0.1,0.9-0.2c11.6-2.5,11.6-2.5,11.6-14.3c0-19.3-0.1-38.6,0.1-57.9c0-4-0.6-5.5-5.2-6.4    c-2.2-0.5-4.3-0.8-6.4-1.3c-5.9-1.5-6.3-3.2-6.1-7.6c0.2-3.6,0.2-7.2,0-10.8c-0.1-2,0.4-2.7,2.6-2.7c15.1,0.1,30.1,0.1,45.2,0    c2.2,0,2.8,0.4,2.8,2.9c-0.2,15.4-0.1,30.7-0.1,46.1C1388.5,163.2,1388.5,163.2,1388.6,163.2z"></path>
		<path class="st0" d="M1372.2,60.5c4.4,0,8.8,0.1,13.2-0.1c2.5-0.1,3.2,0.8,3.2,3.2c-0.1,6.3-0.1,12.5,0.1,18.8    c0.1,2.4-1,3.1-3.1,3.1c-8.9,0-17.9-0.1-26.8,0c-2.3,0-3.4-0.8-3.3-3.3c0.2-6.1,0.2-12.2,0-18.3c-0.1-2.8,1-3.5,3.6-3.4    C1363.4,60.7,1367.8,60.5,1372.2,60.5C1372.2,60.5,1372.2,60.5,1372.2,60.5z"></path>
	</g>
</g>
</svg>
