<svg width="119" height="22" viewBox="0 0 119 22" fill="none" xmlns="http://www.w3.org/2000/svg">
<path d="M14.8391 19.5361H11.2808V12.2698H4.61323V19.5361H1.04338V2.70028H4.61323V9.29874H11.2808V2.70028H14.8391V19.5361ZM19.0999 19.5361V2.70028H22.6697V19.5361H19.0999ZM36.8455 14.8608C36.8455 15.8588 36.6037 16.7263 36.12 17.4633C35.6363 18.2003 34.93 18.7684 34.0011 19.1676C33.0799 19.5668 31.959 19.7664 30.6386 19.7664C30.0551 19.7664 29.4832 19.7281 28.9227 19.6513C28.37 19.5745 27.8364 19.4632 27.3221 19.3173C26.8154 19.1638 26.3317 18.9757 25.8711 18.7531V15.4366C26.6695 15.7897 27.4986 16.1083 28.3585 16.3924C29.2183 16.6764 30.0705 16.8184 30.9149 16.8184C31.4984 16.8184 31.9667 16.7417 32.3198 16.5881C32.6807 16.4346 32.9417 16.2235 33.1029 15.9548C33.2641 15.6861 33.3447 15.379 33.3447 15.0335C33.3447 14.6113 33.2027 14.2505 32.9187 13.9511C32.6346 13.6516 32.2431 13.3714 31.7441 13.1104C31.2527 12.8494 30.6961 12.5692 30.0743 12.2698C29.6828 12.0855 29.2567 11.8629 28.7961 11.6019C28.3354 11.3332 27.8978 11.0069 27.4833 10.623C27.0687 10.2392 26.7271 9.77472 26.4584 9.22964C26.1974 8.67689 26.0669 8.01666 26.0669 7.24895C26.0669 6.24325 26.2972 5.38342 26.7578 4.66945C27.2184 3.95548 27.8748 3.41041 28.727 3.03423C29.5868 2.65038 30.6002 2.45845 31.7671 2.45845C32.6423 2.45845 33.4752 2.56209 34.266 2.76937C35.0644 2.96898 35.8974 3.26071 36.7649 3.64456L35.6133 6.41983C34.8379 6.10507 34.1431 5.86324 33.529 5.69434C32.9148 5.51777 32.2891 5.42948 31.6519 5.42948C31.2067 5.42948 30.8266 5.50242 30.5119 5.64828C30.1971 5.78647 29.9591 5.98607 29.7979 6.24709C29.6367 6.50044 29.5561 6.796 29.5561 7.1338C29.5561 7.53301 29.6712 7.8708 29.9016 8.14717C30.1395 8.41587 30.4927 8.67689 30.961 8.93024C31.437 9.18358 32.0281 9.47915 32.7344 9.81694C33.5942 10.2238 34.3274 10.6499 34.9339 11.0952C35.5481 11.5328 36.0202 12.051 36.3503 12.6498C36.6804 13.2409 36.8455 13.9779 36.8455 14.8608ZM46.3919 19.5361H42.8221V5.67131H38.2504V2.70028H50.9637V5.67131H46.3919V19.5361Z" fill="#0C1B36"/>
<path d="M76.3961 19.5361V2.70028H79.9659V16.5881H86.7947V19.5361H76.3961ZM100.038 19.5361L98.817 15.5287H92.6792L91.4585 19.5361H87.6123L93.5544 2.63118H97.9188L103.884 19.5361H100.038ZM97.9649 12.5346L96.7442 8.61931C96.6674 8.35829 96.5638 8.02434 96.4333 7.61745C96.3105 7.20289 96.1838 6.78449 96.0533 6.36225C95.9304 5.93233 95.8306 5.55999 95.7539 5.24523C95.6771 5.55999 95.5696 5.95153 95.4314 6.41983C95.3009 6.88045 95.1743 7.31805 95.0514 7.73261C94.9286 8.14717 94.8403 8.44274 94.7866 8.61931L93.5774 12.5346H97.9649ZM106.014 2.70028H111.254C113.496 2.70028 115.192 3.01504 116.344 3.64456C117.495 4.27408 118.071 5.37958 118.071 6.96106C118.071 7.59826 117.968 8.17404 117.76 8.68841C117.561 9.20277 117.269 9.62501 116.885 9.95513C116.501 10.2852 116.033 10.5002 115.48 10.6V10.7152C116.041 10.8303 116.547 11.0299 117 11.314C117.453 11.5903 117.814 11.9972 118.083 12.5346C118.359 13.0643 118.497 13.7706 118.497 14.6535C118.497 15.6746 118.248 16.5497 117.749 17.2791C117.25 18.0084 116.536 18.5688 115.607 18.9604C114.686 19.3442 113.588 19.5361 112.313 19.5361H106.014V2.70028ZM109.584 9.36783H111.657C112.693 9.36783 113.411 9.20661 113.81 8.88417C114.21 8.55406 114.409 8.0704 114.409 7.4332C114.409 6.78833 114.171 6.3277 113.695 6.05133C113.227 5.76728 112.482 5.62525 111.461 5.62525H109.584V9.36783ZM109.584 12.2007V16.5881H111.91C112.985 16.5881 113.734 16.3808 114.156 15.9663C114.578 15.5517 114.789 14.9951 114.789 14.2965C114.789 13.882 114.697 13.5173 114.513 13.2025C114.329 12.8878 114.018 12.6421 113.58 12.4655C113.15 12.289 112.555 12.2007 111.795 12.2007H109.584Z" fill="#0C1B36"/>
<g clip-path="url(#clip0_542_5119)">
<path d="M73.6763 10.6925L73.1581 -0.348633L63.8656 5.03455L73.6763 10.6925ZM57.728 20.3188L68.016 23.1846V14.3608L57.728 20.3188ZM57.8618 13.3088V1.63978L49.4707 8.45101L57.8606 13.3076L57.8618 13.3088Z" fill="#FFB25B"/>
<path d="M58.4667 7.43897V-1.38477L68.7546 1.48096L58.4667 7.43897Z" fill="#F0824D"/>
<path d="M68.6205 8.49121V20.1602L77.0104 13.3478L68.6205 8.49121Z" fill="#F0824D"/>
<path d="M52.8062 11.1064L53.3231 22.1488L62.6169 16.7656L52.8062 11.1064Z" fill="#F0824D"/>
</g>
<defs>
<clipPath id="clip0_542_5119">
<rect x="53.1843" y="0.664062" width="20.3352" height="20.3352" rx="10.1676" fill="white"/>
</clipPath>
</defs>
</svg>
