<?xml version="1.0" standalone="no"?>
<!DOCTYPE svg PUBLIC "-//W3C//DTD SVG 20010904//EN"
 "http://www.w3.org/TR/2001/REC-SVG-20010904/DTD/svg10.dtd">
<svg version="1.0" xmlns="http://www.w3.org/2000/svg"
 width="7396.000000pt" height="5230.000000pt" viewBox="0 0 7396.000000 5230.000000"
 preserveAspectRatio="xMidYMid meet">
<metadata>
Created by potrace 1.16, written by Peter Selinger 2001-2019
</metadata>
<g transform="translate(0.000000,5230.000000) scale(0.100000,-0.100000)"
fill="#000000" stroke="none">
<path d="M37485 43964 c-287 -20 -375 -29 -533 -50 -1050 -140 -1974 -553
-2802 -1251 -140 -119 -493 -470 -616 -613 -510 -594 -915 -1267 -1219 -2025
-119 -297 -241 -683 -287 -905 -12 -58 -24 -108 -27 -112 -3 -3 -67 0 -141 8
-561 57 -1280 29 -1885 -72 -1865 -313 -3301 -1306 -4175 -2887 -84 -152 -94
-166 -110 -155 -10 7 -60 45 -112 84 -719 545 -1716 903 -2778 999 -244 22
-734 30 -950 16 -1310 -89 -2599 -672 -3525 -1596 -922 -920 -1466 -2139
-1609 -3605 -160 -1630 199 -2904 1134 -4031 139 -166 520 -546 700 -696 665
-554 1455 -995 2362 -1317 471 -167 990 -298 1356 -341 95 -12 419 -14 1735
-15 l1617 0 0 -4185 0 -4185 -1432 0 c-1345 0 -1435 -1 -1467 -18 -19 -9 -44
-30 -55 -45 l-21 -28 -3 -2990 -2 -2989 -1868 0 c-1993 0 -1972 0 -2112 -48
-334 -116 -580 -439 -669 -879 -21 -101 -21 -111 -21 -3112 l0 -3011 -566 -2
-566 -3 -34 -37 -34 -38 0 -390 0 -390 -7275 0 c-6404 0 -7279 -2 -7305 -15
-46 -24 -70 -62 -70 -112 0 -55 24 -98 66 -118 29 -13 835 -15 7391 -15 7256
0 7358 0 7387 19 56 37 55 35 56 454 l0 387 475 0 475 0 0 -175 0 -175 34 -38
34 -37 5809 -2 5808 -3 33 20 c57 35 62 62 62 326 0 258 -5 285 -58 321 -25
17 -82 18 -974 23 -520 3 -949 8 -952 11 -3 3 -9 1353 -14 3000 -7 2765 -9
2996 -24 3025 -37 69 124 64 -2032 64 l-1946 0 0 345 0 345 1883 -2 1882 -3
90 -28 c176 -54 324 -140 398 -231 21 -25 52 -76 70 -113 l32 -68 5 -2875 c5
-2657 6 -2877 22 -2898 42 -61 -26 -57 1011 -60 l947 -2 0 -591 c0 -642 0
-636 56 -674 28 -20 60 -20 1652 -23 1788 -3 1671 -7 1712 60 19 32 20 49 20
461 l0 427 1158 0 c1143 0 1157 0 1190 20 63 39 62 21 62 757 0 628 -1 670
-18 702 -10 19 -34 43 -53 53 -32 17 -132 18 -2541 18 -1738 0 -2530 3 -2584
11 -183 25 -365 87 -510 172 -119 70 -280 229 -346 343 -80 137 -130 282 -165
474 -15 88 -17 374 -20 3805 -3 2599 -1 3747 7 3835 54 629 382 1053 920 1190
202 51 75 50 3302 50 3373 0 3068 -7 3108 74 20 42 20 55 20 1079 l0 1037 275
0 275 0 0 -1041 c0 -1141 -3 -1084 58 -1126 26 -17 149 -18 2887 -23 l2860 -5
80 -23 c163 -47 329 -140 442 -245 196 -183 306 -441 333 -782 8 -89 10 -1279
8 -3780 -3 -3442 -4 -3655 -21 -3745 -122 -653 -423 -984 -1004 -1107 -71 -15
-365 -17 -3350 -20 l-3273 -3 0 600 0 600 3510 0 c3864 0 3559 -5 3600 62 20
33 20 39 20 3854 l0 3821 -23 34 c-13 19 -38 39 -57 46 -51 17 -13199 17
-13250 0 -19 -7 -44 -27 -57 -46 l-23 -34 0 -3821 c0 -3013 3 -3826 13 -3845
6 -13 25 -34 40 -45 l28 -21 2790 -3 2789 -2 0 -1416 c0 -1555 -4 -1456 60
-1489 26 -13 246 -15 1885 -15 l1855 0 0 -600 c0 -659 -1 -643 60 -675 26 -13
356 -15 2999 -13 l2971 3 32 33 33 32 5 3243 5 3242 23 75 c13 41 48 126 78
189 49 100 66 124 143 202 71 72 102 95 171 128 150 72 129 71 1028 71 881 0
849 -2 885 59 16 27 17 270 17 3916 0 3646 -1 3889 -17 3916 -9 16 -31 35 -49
44 -28 13 -600 15 -5178 15 l-5146 0 0 290 0 290 5445 0 5445 0 0 -4215 c0
-3787 2 -4219 15 -4246 9 -16 30 -39 48 -49 31 -19 56 -20 863 -20 928 0 868
4 1019 -73 59 -30 101 -61 160 -121 91 -92 140 -179 178 -311 l22 -80 3 -2932
2 -2933 -1850 0 -1850 0 0 390 0 390 1545 0 c1699 0 1587 -4 1620 60 13 26 15
309 15 2480 l0 2450 -34 38 -34 37 -1907 0 -1907 0 -34 -37 -34 -38 0 -3226
c0 -3003 1 -3228 17 -3254 9 -16 30 -36 47 -45 28 -14 273 -16 2784 -13 l2754
3 34 37 34 38 0 235 0 235 260 0 260 0 0 -220 c0 -247 6 -275 62 -310 l33 -20
9561 0 9561 0 34 23 c22 15 39 38 49 65 13 37 13 47 0 84 -8 22 -28 51 -43 62
l-28 21 -9485 3 -9484 2 0 229 c0 221 -1 229 -23 262 -13 19 -38 39 -57 46
-51 17 -855 18 -889 0 -13 -6 -34 -25 -45 -40 -20 -27 -21 -43 -24 -263 l-3
-234 -2575 0 -2574 0 0 3050 0 3050 1715 0 1715 0 0 -2275 0 -2275 -1543 -2
c-1455 -3 -1544 -4 -1570 -21 -64 -42 -62 -17 -65 -612 -3 -599 -3 -602 57
-642 l34 -23 2017 0 2017 0 34 23 c19 13 39 38 46 57 15 44 18 5868 3 6022
-25 256 -120 461 -287 618 -123 116 -262 193 -415 230 -79 19 -118 20 -840 20
l-758 0 -2 4231 -3 4231 -37 34 -38 34 -5535 0 -5535 0 0 385 0 385 2265 0
c2500 0 2306 -5 2339 64 15 31 16 268 16 2900 l0 2866 2025 0 2025 0 2 -2460
3 -2460 33 -32 32 -33 3650 -3 3650 -2 0 -5499 0 -5500 -517 -4 c-431 -3 -531
-7 -593 -20 -287 -63 -487 -194 -628 -410 -126 -193 -192 -472 -177 -747 3
-63 9 -1046 13 -2185 5 -1622 10 -2075 19 -2092 7 -12 25 -31 39 -42 26 -21
36 -21 461 -21 476 0 477 0 508 60 13 26 15 281 15 2220 l0 2190 1405 0 1405
0 0 -2485 c0 -2203 2 -2489 15 -2515 31 -60 31 -60 521 -60 l446 0 34 34 34
34 0 2518 c0 2182 -2 2531 -15 2611 -61 377 -276 678 -602 842 -150 76 -98 71
-789 71 l-624 0 0 5983 c0 4765 -3 5987 -13 6007 -7 13 -28 35 -46 47 l-34 23
-3573 0 -3574 0 0 1965 0 1965 548 0 c602 0 601 0 945 74 1256 272 2518 841
3502 1581 321 240 553 444 855 751 539 547 939 1103 1285 1789 496 982 768
2057 836 3302 7 132 9 384 6 670 -5 463 -15 640 -57 997 -283 2401 -1518 4279
-3602 5477 -240 137 -688 360 -953 472 -750 318 -1561 549 -2360 674 -170 26
-198 28 -495 27 -1152 -2 -2491 -243 -3480 -627 -490 -190 -946 -427 -1309
-680 -46 -32 -86 -56 -89 -53 -3 4 -29 70 -57 149 -80 220 -168 420 -297 677
-747 1494 -1892 2536 -3303 3005 -404 134 -801 216 -1267 261 -152 14 -743 27
-863 18z m875 -279 c1062 -108 1938 -458 2720 -1086 653 -525 1205 -1231 1620
-2070 149 -301 251 -553 372 -914 29 -88 68 -119 139 -112 39 3 63 16 140 74
1063 795 2673 1282 4549 1374 308 15 512 8 720 -26 1400 -224 2751 -754 3815
-1495 958 -667 1690 -1503 2175 -2485 225 -454 378 -870 505 -1372 306 -1204
333 -2699 74 -3998 -249 -1243 -762 -2317 -1543 -3229 -154 -181 -450 -482
-636 -649 -1079 -966 -2498 -1663 -4057 -1994 l-178 -37 -655 -6 c-714 -5
-676 -2 -718 -62 -16 -21 -17 -187 -20 -2144 -2 -1685 0 -2130 10 -2160 8 -24
26 -47 47 -61 l34 -23 3573 0 3574 0 0 -5978 c0 -5779 1 -5978 18 -6012 39
-73 7 -70 768 -70 l682 0 88 -45 c169 -84 291 -208 374 -380 58 -119 85 -220
100 -370 6 -73 10 -906 10 -2457 l0 -2348 -270 0 -270 0 0 2475 c0 2691 4
2517 -55 2563 l-28 22 -1582 0 -1582 0 -28 -22 c-59 -46 -55 102 -55 -2263 l0
-2175 -260 0 -260 0 -4 1983 c-3 1090 -8 2034 -11 2097 -15 270 59 530 196
683 103 116 276 201 462 226 48 7 290 11 621 11 l543 0 34 23 c18 12 39 34 46
47 19 37 19 11343 0 11380 -7 13 -28 35 -46 47 l-34 23 -3638 0 -3639 0 0
2443 c0 2305 -1 2444 -18 2477 -10 20 -32 42 -52 52 -33 17 -160 18 -2215 18
-2055 0 -2182 -1 -2215 -18 -20 -10 -42 -32 -52 -52 -17 -33 -18 -193 -18
-2902 l0 -2868 -2269 0 -2268 0 -27 -21 c-57 -45 -56 -38 -56 -539 l0 -460
-275 0 -275 0 0 740 0 740 2225 0 c2447 0 2267 -5 2300 60 13 26 15 324 15
2627 0 2058 -3 2603 -13 2623 -7 13 -28 35 -46 47 l-34 23 -4032 0 -4032 0
-34 -23 c-18 -12 -39 -34 -46 -47 -10 -20 -13 -738 -13 -3490 0 -3413 0 -3465
20 -3497 10 -17 29 -38 42 -45 19 -11 338 -13 1706 -16 l1682 -2 0 -290 0
-290 -2040 0 -2040 0 0 3803 c0 3796 0 3802 -20 3835 -41 67 215 62 -3111 62
-2804 0 -3024 -1 -3056 -17 -24 -11 -42 -30 -54 -57 -18 -40 -19 -187 -19
-4698 l0 -4658 -1446 0 -1446 0 -39 -39 -39 -39 0 -2596 0 -2596 -295 0 -295
0 0 2905 0 2905 1450 0 1450 0 38 34 37 34 2 4364 c3 4362 3 4363 -17 4396
-41 66 80 62 -1774 62 -1830 0 -1748 -2 -2056 56 -973 184 -2092 663 -2904
1244 -312 224 -501 384 -766 649 -652 653 -1065 1371 -1280 2225 -87 348 -129
687 -137 1111 -17 904 130 1766 432 2525 67 171 235 519 325 675 216 376 471
713 780 1029 888 909 2103 1474 3365 1567 200 14 719 6 935 -15 728 -73 1366
-250 1965 -547 328 -162 628 -354 849 -543 113 -97 142 -108 210 -78 42 19 46
26 134 198 398 782 921 1416 1567 1898 870 651 1966 1029 3235 1117 346 24
886 12 1207 -26 153 -19 197 -19 233 0 41 21 50 43 71 169 114 675 537 1652
1027 2371 357 525 798 1002 1259 1362 130 102 437 307 587 393 657 376 1424
600 2256 660 187 13 796 4 980 -15z m-5900 -22085 c0 -3412 2 -3804 15 -3831
9 -16 30 -39 48 -49 31 -20 67 -20 2155 -20 l2122 0 0 -965 0 -965 -2935 0
c-2003 0 -2967 -3 -3033 -11 -392 -43 -693 -177 -932 -418 -194 -195 -323
-426 -395 -709 -59 -233 -55 41 -55 -4097 0 -2592 3 -3827 10 -3885 48 -382
179 -664 416 -890 186 -178 408 -291 708 -357 l121 -28 2488 -2 2487 -3 0
-515 0 -515 -1152 0 c-1078 0 -1155 -1 -1188 -18 -70 -34 -70 -36 -70 -509 l0
-423 -1460 0 -1460 0 -2 610 -3 610 -33 32 -32 33 -955 3 -955 2 0 2778 c0
3085 5 2847 -69 2997 -112 227 -315 373 -654 473 l-92 27 -1902 3 -1903 2 0
2505 0 2505 1430 0 c1554 0 1473 -3 1518 55 l22 28 0 4673 0 4674 2870 0 2870
0 0 -3800z m8880 1370 l0 -2430 -2212 -1 c-1687 0 -2221 -3 -2248 -12 -19 -7
-44 -27 -57 -46 l-23 -34 0 -823 0 -824 -1595 0 -1595 0 0 3300 0 3300 3865 0
3865 0 0 -2430z m-3730 -4720 l0 -290 -275 0 -275 0 0 290 0 290 275 0 275 0
0 -290z m10400 -4265 l0 -3715 -729 0 c-787 0 -823 -2 -974 -55 -268 -93 -487
-335 -597 -660 -64 -189 -60 46 -60 -3381 l0 -3124 -2795 0 -2795 0 0 604 c0
597 0 604 -21 630 -47 60 92 56 -1929 56 l-1850 0 0 1415 c0 1556 4 1457 -60
1490 -26 13 -344 15 -2810 15 l-2780 0 0 3655 0 3655 6445 0 6445 0 0 -3655 0
-3655 -3522 0 c-3466 0 -3523 0 -3552 -19 -58 -38 -55 -2 -56 -844 l0 -777 34
-38 34 -37 3289 -3 c2350 -2 3324 0 3413 8 781 69 1265 556 1380 1385 8 57 11
1142 10 3829 0 4077 3 3837 -55 4053 -116 436 -411 748 -840 888 -213 70 25
65 -3016 65 l-2749 0 0 965 0 965 5070 0 5070 0 0 -3715z m-25370 -3630 l0
-345 -1880 0 c-2078 0 -1919 5 -1960 -63 -20 -32 -20 -71 -20 -2687 0 -2616 0
-2655 20 -2687 10 -18 33 -39 49 -48 27 -13 441 -15 4056 -15 l4025 0 0 -300
0 -300 -4350 0 -4350 0 0 3004 0 3004 29 116 c51 199 121 339 229 456 101 110
220 176 356 199 28 5 894 9 1924 10 l1872 1 0 -345z m852 -95 l3 -440 33 -32
32 -33 1964 -3 1963 -2 7 -2998 c7 -2777 9 -2999 24 -3026 9 -16 28 -37 42
-48 24 -17 70 -18 978 -25 l952 -6 0 -84 0 -83 -5630 0 -5630 0 0 85 0 85
4445 2 4445 3 32 33 33 32 3 478 c2 465 2 478 -18 510 -11 18 -36 40 -55 48
-30 12 -578 14 -4055 14 l-4020 0 0 2490 0 2490 1896 2 1896 3 34 37 34 38 0
435 0 435 295 0 294 0 3 -440z"/>
</g>
</svg>
