<svg id="eumcgtJEUB51" xmlns="http://www.w3.org/2000/svg" xmlns:xlink="http://www.w3.org/1999/xlink" viewBox="0 0 3999.998 3999.998" shape-rendering="geometricPrecision" text-rendering="geometricPrecision" project-id="f9fb549bdc084a40baca81571dc3fe3a" export-id="fe228c3b7e9c453081bc53fecaddf69f" cached="false"><g transform="matrix(1.33333 0 0-1.33333 0 4000)"><g transform="matrix(.1 0 0 0.1 0 0)"><g transform="matrix(1.84049 0 0 1.84049 0.000001 0.000001)"><path class="path" d="M16300,0L0,0v16300h16300v-16300" fill="#fff"/></g><g transform="matrix(1.78549 0 0 1.78549 0.000001 0)"><path d="M488.049,1594.74h3440.031c778.06,10.53,680.14,446.88,1012.89,541.98c460.21,131.45,669.98-436.46,43.52-503.78-626.47-67.32-887.26,843.3-526.93,1338.4c264.4,363.32,991.43,264.58,842.35,82.05-149.09-182.58-437.48,519.24-158.34,774.41c343.7,314.09,1050.45,81.66,864.34-118.9-186.05-200.62-440.95,481.71,256.63,549.31c343.88,33.38,486.81-277.29,733.8,366.91c705.18,1839.32,838.43,5196.61,654.83,5950.98-50.35,206.8-208.9,281.6-541.08,226.7-251.36-41.5-692.53-305.1-692.53-305.1s-41.55,147.1-45.36,284.8c-15.18,550.7,440.49,1111.1,849.06,1207c41.79,9.9,130.61,12.9,165.39,45.7c174.63,165-58.64,945.9,85.47,1726.3c144.1,780.4,460.99,1497.7,759.4,1505.9c277.4,7.7,606.22-442.8,809.36-1407.1c37.24-176.7,70.23-370.7,97.9-582.3c34.22-261.5-108.82,108.3-308.38,396.3-118.34,170.8-293.87,305.2-515.71,299.1-313.14-8.6-559.96-269.5-551.33-582.6c8.62-313.1,269.45-560,582.58-551.4c228.51,6.3,436.07,141.5,506.14,344.3c19.66,56.8,27.83,129,24.81,239.1-2.75,100.4,231.03-395.3,268.66-489.4c20.45-51,55.84-380.1,64.41-487.1c26.6-332.6,46.1-570.9-18.15-698-84.96-168-194.4,453.4,205.49,326c399.84-127.4,899-607.8,914.2-1158.5c4.3-153.4-30.2-275.3-30.2-275.3s-464.11,228.4-707.68,255c-334.7,36.5-562.15-46.2-527.76-256.2c26.1-159.4-1269.79-225-1273.43-92.1s1148.93,123.6,1285.02,10.6c136.16-113,363.21-415.8,302.89-493.5-60.32-77.69-353.46-275.79-988.75-277.02-635.23-1.17-743.66,69.11-867.71,258.52-151.95,231.8-2.08,225.5,54.21,100c87.65-195.43-15.23-408.59-87.65-747.32-50.91-238.08,138.22-500.65,102.04-485.64-190.92,79.2,332.52,349.21,284.35,362.87-60.65,17.2-88.99-231.31-48.56-411.09c63.29-281.27,327.37-369.03,273.09-388.69-126.4-45.87-24.25,191.43,61.11,297.35c98.12,121.75,411.65,321.42,311.57,328.14-157.78,10.64,154.63-805.72,70.62-756.49-86.36,50.63,296.84,124.9,405.66,526.24c70.62,260.6,13.61,720.48-80.93,649.63-100.31-75.22,329.71-407.51,349.15-514.31c42.28-232.37,220.66,680.31-51.47,828.79-140.36,76.56-30.58-4863.43,461.49-5346.94c492.04-483.5,391.15,456.24,994.94,100.43c603.8-355.81,284.1-1033.61,102.1-829.3s602.2,454.67,894.2,156.65c446.4-455.45-56.1-1011.76-201.5-826.21-145.4,185.49,577,318.45,831.8-71.3c376.5-575.92,92.3-1373.68-532.7-1293.76s-355.6,403.64,31.1,340.19c477.7-78.41,234.3-434.9,1011.9-461.17h3559.6" fill="none" stroke="#000" stroke-width="33.6042" stroke-linecap="round" stroke-linejoin="round" stroke-miterlimit="10"/></g></g></g></svg>
