<svg width="101" height="70" viewBox="0 0 101 70" fill="none" xmlns="http://www.w3.org/2000/svg">
<g clip-path="url(#clip0_16_257)">
<path d="M9.83191 47.1504C9.83191 47.1504 11.2191 42.1422 15.4363 42.8259C19.6535 43.5097 19.1725 44.7849 22.7054 45.099C26.2382 45.4132 78.5364 45.2747 81.3388 44.7756C84.1407 44.2767 83.78 37.2079 81.2 36.8475C78.6194 36.4872 22.212 36.4563 20.905 36.789C19.598 37.1216 18.4142 38.5877 18.2662 40.7438C18.1182 42.8998 20.1528 44.4892 22.2983 44.6247C24.444 44.7603 26.2135 43.3373 26.1148 43.1094C26.0162 42.8814 24.8385 41.8095 24.8385 41.6063C24.8385 41.4029 25.4243 39.6596 24.4132 39.0313C23.402 38.403 22.1688 38.9389 21.8977 40.1893C21.6263 41.4399 22.6868 42.0398 23.624 41.8539C24.5612 41.6679 24.8693 40.8732 24.555 39.9862C24.2405 39.0991 22.8472 38.9327 22.3477 39.9923C21.8483 41.0518 22.9027 41.674 23.5069 41.4769C24.111 41.2797 25.9977 43.5745 25.9607 43.7315C25.9237 43.8885 25.5815 44.8125 25.2764 44.8219C24.9712 44.8311 25.1654 44.3228 26.386 44.5816C27.6069 44.8404 28.4484 44.905 28.5687 44.6001C28.6889 44.2952 28.4392 37.1709 28.6057 37.023C28.772 36.8752 30.8313 36.8384 30.8313 36.1236C30.8313 35.409 30.483 32.3014 30.8992 32.2181C31.3154 32.135 33.0509 34.6945 35.0239 34.1401C36.9967 33.5856 35.4122 31.7192 32.5824 31.1092C29.7524 30.4994 29.9373 26.3228 32.1383 25.3248C34.3395 24.327 37.3174 25.7869 37.4098 26.3413C37.5023 26.8958 37.6257 28.3988 37.1817 28.3249C36.7378 28.251 35.48 26.9451 33.914 27.2777C32.348 27.6103 32.7303 29.4215 34.7525 30.247C36.7749 31.0724 38.0079 30.7397 38.3038 32.2797C38.5998 33.8197 38.5136 35.52 36.1214 35.8281C33.7291 36.136 31.3615 36.2715 31.9042 35.7788C32.4467 35.2858 41.2632 35.9266 44.0994 35.9266C46.9354 35.9266 48.4276 36.0374 48.5754 35.7418C48.7234 35.446 48.5137 33.3393 48.3535 33.2407C48.1932 33.1422 43.4774 33.5856 43.317 33.3023C43.1569 33.0189 43.1507 30.5179 43.3726 30.4316C43.5945 30.3454 47.5397 30.5425 47.6754 30.37C47.8109 30.1977 47.7615 28.867 47.7122 28.793C47.6631 28.7191 43.6192 28.9532 43.5946 28.7314C43.5699 28.5098 43.0342 27.2108 43.3919 27.0383C43.7496 26.8658 47.9289 27.1123 47.9782 26.9028C48.0276 26.6933 48.1385 24.8577 47.9535 24.7098C47.7686 24.5619 40.4687 24.3278 40.1234 24.7098C39.7782 25.0916 39.5369 35.1874 40.0302 35.409C40.5234 35.6308 52.7247 35.9143 54.9629 35.7295C57.2009 35.5446 59.5867 33.9183 59.772 30.5364C59.9568 27.1544 58.9096 24.5896 54.5999 24.2755C50.2902 23.9613 49.3769 27.6165 49.2105 30.3885C49.044 33.1606 50.6347 35.6204 54.186 35.3238C57.7374 35.0272 57.4852 27.5281 56.4126 26.3453C55.34 25.1626 53.0092 25.6246 52.7502 26.3453C52.4912 27.066 51.2644 34.1032 53.6866 34.8054C56.1089 35.5077 60.9188 34.6021 67.7439 34.4357C74.569 34.2695 82.3445 32.9583 84.5638 37.5353C86.7832 42.1123 88.1706 41.8351 90.1681 38.4531" stroke="#333333" stroke-width="2" stroke-miterlimit="10"/>
</g>
<defs>
<clipPath id="clip0_16_257">
<rect width="100" height="66.6102" fill="white" transform="translate(0 2.39844)"/>
</clipPath>
</defs>
</svg>
