<?xml version="1.0" encoding="UTF-8" standalone="no"?>
<!-- Created with Inkscape (http://www.inkscape.org/) -->

<svg
   version="1.1"
   id="svg2"
   xml:space="preserve"
   width="7999.9961"
   height="5333.3472"
   viewBox="0 0 7999.9961 5333.3472"
   sodipodi:docname="6f664cd531f04a166875924b2fc8ab2c.eps"
   xmlns:inkscape="http://www.inkscape.org/namespaces/inkscape"
   xmlns:sodipodi="http://sodipodi.sourceforge.net/DTD/sodipodi-0.dtd"
   xmlns="http://www.w3.org/2000/svg"
   xmlns:svg="http://www.w3.org/2000/svg"><defs
     id="defs6" /><sodipodi:namedview
     id="namedview4"
     pagecolor="#ffffff"
     bordercolor="#666666"
     borderopacity="1.0"
     inkscape:pageshadow="2"
     inkscape:pageopacity="0.0"
     inkscape:pagecheckerboard="0" /><g
     id="g8"
     inkscape:groupmode="layer"
     inkscape:label="ink_ext_XXXXXX"
     transform="matrix(1.3333333,0,0,-1.3333333,0,5333.3472)"><g
       id="g10"
       transform="scale(0.1)"><g
         id="g12"
         transform="scale(3.68098)"><path
           d="M 16300,0 H 0 V 10866.7 H 16300 V 0"
           style="fill:transparent;fill-opacity:1;fill-rule:nonzero;stroke:none"
           id="path14" /></g><g
         id="g16"
         transform="scale(3.31907)"><path
           d="m 1777.35,3954.73 c 0,0 250.77,906.12 1013.12,782.41 762.37,-123.71 675.41,-354.43 1314.06,-411.26 638.64,-56.85 10092.77,-31.78 10599.37,58.51 506.5,90.27 441.3,1369.21 -25.1,1434.41 -466.5,65.2 -10663.46,70.78 -10899.73,10.58 -236.27,-60.17 -450.27,-325.42 -477.03,-715.53 -26.75,-390.08 341.06,-677.63 728.91,-702.16 387.88,-24.52 707.76,232.93 689.92,274.17 -17.83,41.25 -230.72,235.19 -230.72,271.95 0,36.79 105.9,352.21 -76.89,465.88 -182.79,113.68 -405.72,16.72 -454.74,-209.51 -49.05,-226.27 142.66,-334.8 312.08,-301.17 169.41,33.65 225.12,177.43 168.3,337.92 -56.86,160.5 -308.73,190.6 -399.03,-1.11 -90.27,-191.68 100.33,-304.27 209.55,-268.6 109.21,35.67 450.27,-379.51 443.59,-407.92 -6.69,-28.41 -68.55,-195.59 -123.71,-197.28 -55.17,-1.66 -20.07,90.29 200.59,43.47 220.7,-46.82 372.82,-58.51 394.57,-3.34 21.73,55.17 -23.41,1344.14 6.69,1370.9 30.07,26.75 402.34,33.41 402.34,162.72 0,129.29 -62.97,691.55 12.27,706.62 75.23,15.03 388.96,-448.05 745.63,-347.75 356.63,100.33 70.2,438.01 -441.36,548.38 -511.59,110.33 -478.15,865.99 -80.27,1046.56 397.92,180.53 936.23,-83.61 952.95,-183.91 16.72,-100.33 39.02,-372.27 -41.24,-358.9 -80.24,13.38 -307.62,249.65 -590.71,189.48 -283.09,-60.19 -213.98,-387.88 151.58,-537.23 365.58,-149.35 588.48,-89.15 641.98,-367.78 53.51,-278.63 37.91,-586.25 -394.53,-641.99 -432.47,-55.71 -860.46,-80.23 -762.36,8.92 98.07,89.18 1691.86,-26.75 2204.57,-26.75 512.67,0 782.42,-20.04 809.14,33.44 26.76,53.51 -11.15,434.67 -40.1,452.51 -28.98,17.83 -881.48,-62.4 -910.47,-11.15 -28.95,51.28 -30.07,503.78 10.04,519.39 40.13,15.61 753.31,-20.06 777.83,11.15 24.5,31.18 15.58,271.94 6.66,285.32 -8.88,13.38 -739.9,-28.98 -744.36,11.15 -4.46,40.1 -101.3,275.11 -36.64,306.32 64.66,31.21 820.17,-13.38 829.09,24.52 8.92,37.91 28.98,370.02 -4.46,396.77 -33.44,26.76 -1353.06,69.12 -1415.49,0 -62.4,-69.08 -106.02,-1895.68 -16.84,-1935.78 89.15,-40.13 2294.83,-91.41 2699.43,-57.97 404.57,33.44 835.87,327.68 869.37,939.57 33.4,611.89 -155.9,1075.93 -934.99,1132.76 -779.07,56.85 -944.18,-604.48 -974.25,-1106 -30.1,-501.56 257.45,-946.6 899.44,-892.94 642,53.66 596.4,1410.46 402.5,1624.46 -193.9,213.98 -615.24,130.4 -662.06,0 -46.82,-130.39 -268.6,-1403.61 169.27,-1530.67 437.89,-127.05 1307.39,36.79 2541.19,66.89 1233.8,30.07 2639.4,267.3 3040.6,-560.79 401.2,-828.12 652,-777.96 1013.1,-166.07"
           style="fill:none;stroke:#1a1918;stroke-width:36.1547;stroke-linecap:butt;stroke-linejoin:miter;stroke-miterlimit:10;stroke-dasharray:none;stroke-opacity:1"
           id="path18" /></g></g></g></svg>
