<svg width="98" height="70" viewBox="0 0 98 70" fill="none" xmlns="http://www.w3.org/2000/svg">
<g clip-path="url(#clip0_16_249)">
<g clip-path="url(#clip1_16_249)">
<path d="M72.785 18.3728C72.8284 18.3898 73.0691 18.3119 73.6333 17.7476C73.7296 17.6513 73.8021 17.5535 73.8515 17.4552C73.6291 17.4369 73.4074 17.5369 73.1916 17.753C72.8509 18.0931 72.7647 18.3282 72.785 18.3728ZM66.6671 21.2729C67.4304 21.3702 68.2781 21.1321 69.2246 20.5588C69.5206 20.3797 69.5979 20.2614 69.5741 20.2144C69.5355 20.1381 69.2674 20.075 68.7686 20.1165C68.2936 20.156 67.7782 20.2743 67.3905 20.433C67.0065 20.59 66.7645 20.8718 66.6671 21.2729ZM74.4685 21.9151C74.4216 21.9151 74.3728 21.9255 74.3235 21.9463C74.1362 22.0245 74.0048 22.161 73.9329 22.352C73.7789 22.7585 73.9109 23.3562 74.1107 23.7682C74.2385 24.0319 74.3812 24.2918 74.6017 24.3203C74.7414 24.3384 74.912 24.264 75.1124 24.0985C75.1808 23.0139 75.0006 22.2693 74.6992 22.0086C74.6273 21.9463 74.55 21.9151 74.4685 21.9151ZM69.0688 26.9909C68.9986 26.9909 68.9535 27.0061 68.9338 27.0363C68.9089 27.0748 68.9154 27.1409 68.9362 27.2152C69.1045 27.1327 69.1889 27.0464 69.1871 27.0137C69.1812 27.007 69.1496 26.9909 69.0688 26.9909ZM69.4939 28.2282C69.6847 28.2382 69.9106 28.2263 70.099 28.1886C70.3053 28.1474 70.3422 28.1001 70.3464 28.0938C70.3458 28.071 70.3434 28.0275 70.2524 28.011C70.1306 27.9888 69.9159 28.0316 69.7061 28.1198C69.6217 28.1552 69.5509 28.1922 69.4939 28.2282ZM77.504 28.4714C77.3393 28.6086 77.2175 28.8058 77.1414 29.0603C76.9951 29.5459 77.0266 29.8595 77.1182 29.9453C77.1384 29.9642 77.1586 29.9682 77.1842 29.9586C77.2989 29.9164 77.4464 29.6519 77.4981 29.1717C77.5296 28.8785 77.5296 28.6526 77.504 28.4714ZM82.2219 30.3325C81.9906 30.3608 81.7915 30.4157 81.6357 30.4954C81.4586 30.5861 81.3403 30.7075 81.3117 30.8283C81.2933 30.9061 81.3171 30.9699 81.3759 30.9992C81.5032 31.0631 81.7635 30.9696 82.0578 30.617C82.1405 30.5184 82.1951 30.4239 82.2219 30.3325ZM66.4275 31.439C65.9002 31.9866 65.6041 32.5063 65.5411 32.8021C65.5185 32.9074 65.5334 32.9531 65.5458 32.9636C65.553 32.9699 65.5768 32.9717 65.6178 32.9559C65.9691 32.8192 66.3686 31.9866 66.4275 31.439ZM85.0707 34.2707C85.0297 34.2707 84.9934 34.2734 84.9619 34.2787C84.8971 34.2897 84.8793 34.3088 84.8793 34.3119C84.8787 34.3125 84.8805 34.3932 85.1831 34.5576L85.1932 34.5629C85.7621 34.8717 86.1729 35.0949 86.2995 34.9965C86.3471 34.9597 86.3643 34.8681 86.3613 34.7436C85.897 34.4137 85.3679 34.2707 85.0707 34.2707ZM82.0013 33.9629C81.9134 33.9629 81.7968 34.0445 81.6762 34.1915C81.238 34.7265 80.8124 36.0262 81.1619 37.2664C81.4984 37.0038 81.8058 36.4731 82.0162 35.786C82.2183 35.1227 82.2796 34.4593 82.1678 34.1355C82.1428 34.0649 82.0982 33.978 82.0239 33.9648C82.0162 33.9635 82.0091 33.9629 82.0013 33.9629ZM79.3255 35.4526C79.322 35.4526 79.3184 35.4527 79.3148 35.4529C79.2601 35.4566 79.2209 35.4897 79.1983 35.5511C79.1157 35.7707 79.2625 36.3664 80.0039 37.1076C80.222 37.3253 80.4378 37.4397 80.6501 37.4498C80.5264 37.1204 80.3475 36.7921 80.1091 36.3551C80.0663 36.2765 80.0211 36.1943 79.9747 36.1078C79.712 35.6226 79.4641 35.4526 79.3255 35.4526ZM63.8486 37.7965C64.0412 38.0877 64.2606 38.2622 64.4359 38.3236C64.5156 38.3517 64.5822 38.3512 64.606 38.3223C64.6321 38.2895 64.6262 38.1932 64.5239 38.0297C64.4121 37.8506 64.1797 37.4784 64.0442 37.5075C63.9746 37.5226 63.9092 37.6297 63.8486 37.7965ZM82.946 39.8908C83.4537 40.2104 83.9792 40.2814 84.4762 40.0951C84.7663 39.9862 84.8805 39.8763 84.89 39.8152C84.8912 39.8068 84.8947 39.7845 84.8579 39.7554C84.7087 39.6374 84.0809 39.5716 82.946 39.8908ZM80.826 37.5657C81.005 38.1259 81.0395 38.7473 80.9378 39.905C80.9188 40.1268 80.8974 40.3367 80.8754 40.5391C81.1601 40.4136 81.4217 40.3012 81.6548 40.2057C82.0168 40.0572 82.3497 39.9375 82.6529 39.8426C82.0548 39.3783 81.5335 38.6093 81.1429 37.6163C81.1239 37.5673 81.106 37.5184 81.0894 37.4692C81.0121 37.512 80.9235 37.5474 80.826 37.5657ZM87.7429 39.9304C87.7394 39.9343 87.7322 39.9443 87.7251 39.9667C87.6044 40.3281 87.7263 41.2205 87.9254 41.4357C87.9647 41.4781 87.9879 41.4724 87.9956 41.4705C88.0253 41.4629 88.1264 41.4055 88.2518 40.9916C88.1609 40.7002 88.0586 40.4384 87.9629 40.2456C87.844 40.0057 87.7673 39.9384 87.7429 39.9304ZM65.6743 42.6222C65.6059 42.6222 65.4769 42.6393 65.2557 42.7063C65.0126 42.7801 64.7225 42.8951 64.4692 43.018C64.6636 42.9905 64.88 42.9432 65.0976 42.8796C65.4382 42.7798 65.6451 42.6781 65.7093 42.6241C65.6998 42.623 65.6885 42.6222 65.6743 42.6222ZM50.3985 42.6735C50.9674 42.7756 51.7871 42.9226 52.9462 43.1309C54.443 43.4001 54.6723 43.2865 54.7017 43.2635C54.6821 43.22 54.5061 43.0724 53.8914 42.8643C53.3176 42.6698 52.584 42.4977 51.8263 42.3796C50.7292 42.2086 50.458 42.358 50.3941 42.4621C50.3581 42.5206 50.3679 42.5967 50.3985 42.6735ZM88.492 43.0829C88.3018 43.0829 88.1377 43.122 88.0069 43.2008C87.8048 43.3221 87.7518 43.4672 87.7697 43.5625C87.7822 43.63 87.8291 43.6773 87.8957 43.6891C88.017 43.7106 88.2167 43.6156 88.4129 43.2845C88.4468 43.2268 88.4736 43.159 88.4938 43.0829C88.4932 43.0829 88.4926 43.0829 88.492 43.0829ZM65.8395 43.3742C65.7628 43.3742 65.6059 43.39 65.292 43.4664C64.9151 43.558 64.6357 43.6626 64.4359 43.7645C64.5215 43.7566 64.6155 43.7463 64.7177 43.7343C65.2706 43.6696 65.7337 43.4734 65.8615 43.3747C65.855 43.3744 65.8478 43.3742 65.8395 43.3742ZM66.2093 43.781C66.2051 43.781 66.201 43.7815 66.1974 43.7825C66.1766 43.7881 66.1582 43.8143 66.1475 43.8542C66.1326 43.9094 66.1338 43.9821 66.1522 44.0623C66.2527 44.0142 66.3228 43.965 66.3484 43.9183C66.3579 43.9015 66.3633 43.885 66.3341 43.8561C66.286 43.808 66.2408 43.781 66.2093 43.781ZM67.5939 44.4391C67.5772 44.4391 67.5588 44.4409 67.5386 44.4456C67.4869 44.4571 67.3709 44.5011 67.3549 44.6581C67.4886 44.617 67.5915 44.5576 67.6456 44.5035C67.6735 44.4757 67.6735 44.4615 67.6735 44.4614C67.6694 44.4528 67.639 44.4391 67.5939 44.4391ZM87.2025 43.6529C87.0967 43.6529 86.8994 43.6867 86.5712 43.8046C85.9446 44.0292 85.2776 44.4809 84.7098 45.0604C85.2984 44.8796 85.7597 44.6897 86.0956 44.5317C86.9077 44.1492 87.2596 43.823 87.2983 43.6971C87.3 43.6899 87.303 43.6772 87.2988 43.673C87.287 43.662 87.2566 43.6529 87.2025 43.6529ZM67.3668 44.7898C67.4179 44.993 67.6188 45.3246 67.9922 45.6784C68.4856 46.1455 69.1395 46.5156 69.8333 46.7207C70.9403 47.0475 71.3796 46.888 71.9871 46.6671C72.2446 46.5737 72.5359 46.4678 72.9146 46.3898C73.4104 46.2877 74.4727 46.2266 75.818 46.1489C77.3821 46.0586 79.3945 45.9423 81.3135 45.7093C81.2957 45.3628 81.1691 44.9749 80.9259 44.5056C80.4045 43.4981 80.5199 42.4999 80.6798 41.1186C80.6941 40.9967 80.7083 40.8737 80.7226 40.7482C79.9379 41.0978 79.0009 41.5346 78.0266 41.9885C76.4541 42.7214 74.8288 43.479 73.4823 44.0434C71.9105 44.7025 71.0413 44.9612 70.7459 44.8575C69.8309 44.5363 69.2293 43.7791 68.6479 43.0469C68.1812 42.4596 67.7401 41.9049 67.192 41.6765C66.9922 41.5934 66.9185 41.6317 66.7206 41.7342C66.5434 41.8257 66.2753 41.9643 65.7646 42.0747C65.6951 42.0898 65.6249 42.1048 65.5542 42.1198C64.773 42.2866 63.8878 42.4757 63.732 42.7636C63.7053 42.8124 63.7029 42.8605 63.7237 42.915C63.7529 42.9902 63.8724 43.0361 64.0608 43.044C64.0858 43.0451 64.1119 43.0456 64.1393 43.0453C64.3652 42.9156 64.6125 42.8081 64.7314 42.759C65.0108 42.6432 65.6766 42.3903 65.8264 42.5403C65.8568 42.5707 65.8645 42.6126 65.8478 42.6527C65.7878 42.7944 65.3485 42.9393 65.1618 42.9952C64.8087 43.1011 64.4472 43.1662 64.1755 43.1738C63.886 43.3437 63.8016 43.4567 63.8016 43.5021C63.8016 43.6302 63.8081 43.6974 63.848 43.7327C63.8926 43.7724 63.9948 43.7868 64.1506 43.7832C64.3848 43.6163 64.7682 43.4608 65.2611 43.341C65.9043 43.1845 65.9703 43.2597 65.9988 43.2919C66.022 43.3185 66.028 43.3535 66.0143 43.3882C65.9739 43.4937 65.7278 43.6015 65.5845 43.6562C65.3247 43.7554 65.0227 43.8287 64.7332 43.8625C64.5067 43.8892 64.3337 43.9053 64.1987 43.9107C64.0745 44.006 64.021 44.091 64.0216 44.1514C64.0222 44.2319 64.1238 44.3005 64.2998 44.3397C64.7326 44.4359 65.5696 44.2926 66.0321 44.1135C66.0036 44.0027 66.0018 43.8999 66.0226 43.8208C66.0458 43.7337 66.0963 43.6759 66.1641 43.6576C66.2194 43.6428 66.3104 43.6493 66.4257 43.7647C66.4893 43.8282 66.5024 43.9068 66.462 43.9805C66.4186 44.0589 66.3169 44.1277 66.1921 44.1861C66.2325 44.2813 66.2949 44.3795 66.3823 44.4668C66.6147 44.6991 66.9227 44.7167 67.0856 44.7066C67.1337 44.7037 67.1801 44.6979 67.2241 44.6899C67.2259 44.5461 67.2984 44.3759 67.4958 44.3231C67.6194 44.2897 67.7419 44.321 67.7859 44.3972C67.8019 44.4256 67.8305 44.5017 67.7371 44.5949C67.6539 44.6782 67.5201 44.7469 67.3668 44.7898ZM83.7402 46.5615C83.726 46.6361 83.723 46.7028 83.7331 46.7596C83.7581 46.9042 83.8651 46.9744 84.0595 46.9744C84.7194 46.9744 85.0713 46.7451 85.0713 46.5795C85.0713 46.4793 84.9149 46.3713 84.5719 46.3713C84.3835 46.3713 84.0987 46.4371 83.7402 46.5615ZM75.3775 48.3315C74.7373 48.3315 74.4418 48.4578 74.4281 48.5548C74.4127 48.6681 74.77 48.9059 75.7937 49.0621C76.3852 49.1523 76.8382 49.1692 77.2199 49.123C77.2419 49.0387 77.2448 48.9615 77.2276 48.8919C77.1628 48.6314 76.8102 48.4607 76.1789 48.3844C75.868 48.347 75.6017 48.3315 75.3775 48.3315ZM57.6089 45.564C56.9887 45.564 56.4346 45.7048 56.0588 46.0806C54.1282 48.011 54.8326 49.9073 55.2251 50.6329C55.9932 52.0529 58.0452 53.3647 59.2 54.0203C60.8488 54.9563 62.6721 55.6875 63.6346 55.7986C65.5881 56.024 66.9607 55.6232 68.0849 54.4989C68.9148 53.6692 69.2917 52.8287 69.2037 52.0008C69.1895 51.8611 69.1609 51.7232 69.1199 51.5874C67.7865 50.6445 66.0535 49.4148 64.7611 48.4826C63.7838 47.7778 61.9902 46.7271 60.1511 46.0852C59.3625 45.8101 58.4282 45.564 57.6089 45.564ZM78.8939 57.3983C78.9373 57.4094 79.1175 57.4113 79.8261 57.1485C81.2487 56.6212 84.0173 55.5265 86.5718 54.1195C86.6669 54.0673 86.7608 54.015 86.8536 53.9628C86.3346 53.683 85.6414 53.6936 84.739 53.9946C83.7908 54.3108 82.2647 55.1294 81.153 55.7897C80.5217 56.165 79.9509 56.5321 79.5455 56.8235C78.9974 57.2179 78.9082 57.3598 78.8939 57.3983ZM87.5063 54.5946C87.2014 55.4025 87.1829 57.1094 87.5521 58.0862C87.7863 58.7063 87.9308 58.704 87.9569 58.6973C88.1395 58.6507 88.3012 57.7947 88.1502 56.7074C88.0194 55.7636 87.8095 55.0708 87.5063 54.5946ZM70.9165 54.9842C70.5509 55.4375 70.2489 55.9877 70.1763 56.6118C70.0776 57.4651 70.4326 58.3024 71.2304 59.1003C71.3956 59.2655 71.6096 59.2531 71.8029 59.0669C72.0383 58.8395 72.2755 58.29 72.1697 57.4887C72.093 56.9088 71.8094 56.0181 70.9165 54.9842ZM57.5837 56.0245C57.48 56.0245 57.3748 56.1208 57.3 56.2091C57.0314 56.5261 56.7905 57.1599 56.6864 57.8238C56.5947 58.4076 56.6155 58.9434 56.7424 59.3782C56.954 59.1509 57.1785 58.7394 57.375 58.2081C57.6199 57.5467 57.7743 56.8151 57.759 56.388C57.7518 56.1876 57.7072 56.0584 57.6369 56.0334C57.6193 56.0273 57.6015 56.0245 57.5837 56.0245ZM65.4626 57.2426C65.3497 57.443 65.2361 57.6935 65.1154 58.0066C64.7153 59.0401 64.7546 59.655 64.9603 59.7891C65.0994 59.8797 65.3437 59.7663 65.632 59.4784C65.9983 59.1121 66.0607 58.4539 65.7902 57.8017C65.7123 57.6132 65.6029 57.4209 65.4626 57.2426ZM81.3605 57.7891C81.3207 57.7891 81.2784 57.7976 81.2333 57.8144C80.7844 57.9827 80.2779 58.888 80.2292 59.6084C80.2155 59.8068 80.2333 60.0499 80.3558 60.2365C80.9467 59.8811 81.3878 59.3648 81.6007 58.8521C81.7742 58.4318 81.7612 58.0772 81.5632 57.8795C81.5026 57.8191 81.436 57.7891 81.3605 57.7891ZM77.9909 57.8814C77.9077 57.8814 77.6782 57.9221 77.0599 58.1878C76.4304 58.4589 75.5458 58.897 74.4317 59.4903C73.5174 59.9774 73.4258 60.2238 73.4526 60.3273C73.4585 60.3509 73.4722 60.3757 73.4972 60.4011C73.9139 60.2537 74.3021 60.0996 74.6469 59.9528C76.2057 59.2902 77.4416 58.5379 77.8132 58.1665C78.0004 57.9791 78.026 57.9057 78.029 57.8861C78.023 57.8839 78.0111 57.8814 77.9909 57.8814ZM67.1206 56.4402C67.101 56.5679 67.0903 56.7141 67.0885 56.877C67.0832 57.4143 67.1795 58.098 67.3531 58.753C67.5047 59.3261 67.7056 59.8349 67.9179 60.186C68.0784 60.451 68.3263 60.7599 68.5974 60.7279C69.3316 60.6411 69.6829 60.2488 69.6425 59.5622C69.6074 58.9708 69.2709 58.2052 68.7418 57.5142C68.2419 56.8617 67.686 56.4399 67.3252 56.4399C67.2544 56.4399 67.186 56.4399 67.1206 56.4402ZM97.9355 61.3094H69.6021C69.5664 61.3094 69.5378 61.2805 69.5378 61.2449C69.5378 61.2092 69.5664 61.1803 69.6021 61.1803C70.8707 61.1803 72.2202 60.8426 73.3676 60.4463C73.3491 60.4192 73.3355 60.3903 73.3277 60.3597C73.2611 60.1033 73.5929 59.7908 74.3711 59.3763C75.522 58.7633 76.4286 58.3155 77.0647 58.0453C77.8982 57.6918 78.0718 57.723 78.136 57.8094C78.2008 57.8968 78.1312 58.031 77.9047 58.2579C77.5242 58.6378 76.2716 59.4028 74.6974 60.0718C74.3758 60.2084 74.0173 60.3515 73.6321 60.4899C73.8176 60.576 74.1755 60.6558 74.8383 60.6968C75.6308 60.7457 76.6485 60.7276 77.5462 60.7116C77.9689 60.704 78.3684 60.6969 78.7192 60.6969C79.2827 60.6969 79.8011 60.5443 80.2428 60.3015C80.1293 60.1251 80.0805 59.8882 80.0996 59.5995C80.1525 58.8239 80.6917 57.8797 81.1881 57.6935C81.3646 57.6271 81.5263 57.6599 81.6548 57.7881C81.8914 58.0247 81.9145 58.4305 81.7196 58.9015C81.5228 59.3774 81.1298 59.8504 80.6423 60.1989C80.5799 60.2435 80.5115 60.2895 80.4366 60.3352C80.4753 60.3733 80.5205 60.4071 80.5728 60.4355C82.0412 61.2266 87.1169 60.6349 87.6098 60.4796C88.3422 60.249 88.8683 59.6907 89.1305 58.865C89.6013 57.3834 89.1198 55.4509 88.4034 54.5099C88.1662 54.1978 87.9605 54.0867 87.7923 54.1799C87.7079 54.2269 87.6324 54.3218 87.567 54.4533C87.907 54.9489 88.1383 55.6809 88.278 56.6897C88.4117 57.65 88.3273 58.7363 87.9891 58.8224C87.8065 58.8688 87.6246 58.643 87.4314 58.1317C87.2144 57.5581 87.111 56.6625 87.1609 55.7942C87.1782 55.4876 87.2352 54.884 87.4177 54.4657C87.2881 54.2895 87.1425 54.1482 86.9802 54.0395C86.8667 54.1038 86.7513 54.1682 86.6342 54.2326C84.072 55.6437 81.2975 56.741 79.8713 57.2696C79.0533 57.573 78.8708 57.553 78.8006 57.4934C78.7685 57.4664 78.756 57.4273 78.7643 57.3831C78.7798 57.3032 78.8731 57.1449 79.5021 56.696C79.9141 56.4014 80.4884 56.0336 81.1185 55.66C82.2272 55.0031 83.7497 54.1884 84.6979 53.8721C85.6765 53.5458 86.4244 53.5512 86.9844 53.8889C89.3385 52.5485 90.9246 51.2497 91.7034 50.025C92.8989 48.1431 92.349 45.7545 91.1274 44.5326C90.5483 43.954 89.9069 43.5052 89.3213 43.2692C89.0686 43.1675 88.8338 43.1073 88.6252 43.0889C88.602 43.186 88.5687 43.2744 88.5241 43.3503C88.3291 43.6798 88.0854 43.854 87.8731 43.8164C87.753 43.7951 87.6651 43.7067 87.6425 43.5861C87.6169 43.4482 87.6817 43.2453 87.9403 43.09C88.1008 42.9933 88.2982 42.9488 88.5211 42.9531C88.5948 42.4904 88.4837 41.8088 88.3154 41.2081C88.2268 41.4443 88.1329 41.5693 88.0265 41.5958C87.9784 41.6077 87.9058 41.6049 87.8303 41.5234C87.7192 41.4035 87.6246 41.1244 87.5771 40.7771C87.5295 40.4343 87.539 40.1159 87.6026 39.9258C87.6335 39.8322 87.6859 39.8065 87.7239 39.8015C87.7988 39.7913 87.8749 39.8493 87.9635 39.9832C88.077 40.155 88.2013 40.4362 88.3131 40.7626C88.7441 38.9041 87.5592 36.4514 87.0224 35.471C86.8833 35.2173 86.6954 35.0085 86.4886 34.8402C86.479 34.9688 86.4422 35.0497 86.3786 35.0988C86.1854 35.2486 85.8108 35.0454 85.1313 34.6765L85.1212 34.6711C84.8543 34.5261 84.733 34.4016 84.7515 34.2907C84.7598 34.2403 84.7996 34.1752 84.9405 34.1513C85.145 34.1166 85.5516 34.1754 85.9981 34.3851C86.1057 34.4357 86.2258 34.4998 86.3489 34.5799C86.3215 34.3517 86.2561 34.0661 86.1907 33.8045C85.7877 32.1927 84.607 30.3104 82.6065 30.3104C82.5203 30.3104 82.4377 30.3133 82.358 30.3193C82.3319 30.4442 82.2647 30.5715 82.1571 30.6999C81.7945 31.1339 81.4859 31.1989 81.3183 31.1147C81.2059 31.0586 81.1542 30.9345 81.1857 30.7986C81.244 30.5537 81.5567 30.2734 82.2415 30.1997C82.2415 30.161 82.2368 30.1228 82.2261 30.0848C82.0864 29.5701 81.0294 29.1921 80.1804 28.8883C79.832 28.7635 79.5021 28.6454 79.275 28.532C78.6752 28.2321 78.1276 28.1603 77.7341 28.3303C77.6949 28.3472 77.6574 28.3664 77.6217 28.3879C77.6586 28.5909 77.6633 28.847 77.6265 29.1857C77.5748 29.6657 77.4226 30.0084 77.2294 30.0798C77.158 30.1062 77.0849 30.0916 77.0296 30.0394C76.8768 29.8957 76.8721 29.5063 77.0171 29.0232C77.1099 28.7155 77.2638 28.483 77.4761 28.329C77.3923 27.9962 77.2014 27.8327 76.9595 27.6257C76.8311 27.5164 76.6866 27.3925 76.538 27.2274C75.9916 26.6198 75.6587 25.7632 75.478 25.1642C75.5927 25.966 75.8888 26.509 76.1569 27.0005C76.3703 27.3907 76.5713 27.7592 76.6325 28.1899C76.6979 28.6466 76.3703 29.8506 75.6064 30.8329C75.0999 31.4844 74.2034 32.2923 72.8087 32.4426C71.961 32.5341 71.2625 32.3509 70.731 31.8983C70.2399 31.4794 69.9879 30.9037 69.8636 30.4943C69.7293 30.0523 69.7102 29.7129 69.7097 29.6987C69.7085 29.6747 69.721 29.6522 69.7412 29.6399C69.762 29.6276 69.7875 29.6278 69.8077 29.6402C70.2387 29.9036 70.9248 29.877 71.6893 29.567C72.8176 29.1099 74.3057 27.9146 74.786 26.0501C74.9554 25.3939 75.0553 24.7961 75.0999 24.2712C74.9073 24.4098 74.7373 24.4682 74.5851 24.4485C74.3009 24.4116 74.1374 24.12 73.9941 23.8245C73.8366 23.4984 73.6208 22.8118 73.8122 22.3062C73.8972 22.0807 74.0524 21.9196 74.2736 21.8272C74.4561 21.7508 74.6326 21.7798 74.7842 21.9109C75.0904 22.1757 75.2991 22.8879 75.2503 23.9749C75.3312 23.897 75.4162 23.8061 75.5048 23.7023C76.3929 22.6662 75.3347 19.3392 74.877 18.4241C74.6166 17.9033 74.3015 17.572 73.9823 17.4796C73.927 17.6019 73.8408 17.7226 73.7248 17.839C73.4151 18.1481 73.0132 18.5027 72.7945 18.5027C72.779 18.5027 72.7647 18.501 72.7517 18.4974C72.7053 18.485 72.6726 18.4523 72.6601 18.4054C72.6209 18.2598 72.7939 17.9678 73.1 17.6616C73.3569 17.405 73.6262 17.2938 73.9008 17.3307C73.9502 17.1621 73.9299 16.9938 73.8378 16.8312C73.6487 16.4963 73.1785 16.2273 72.5489 16.0933C72.049 15.9869 71.2238 15.9168 70.1335 16.1876C67.7145 16.7885 66.7848 18.9001 66.434 19.6951C66.3977 19.7776 66.3668 19.8488 66.3407 19.9026C66.1166 20.3652 65.5393 20.5846 65.2843 20.6613C65.6754 20.976 66.0928 21.1733 66.5386 21.2533C66.6421 20.8044 66.9096 20.4901 67.3418 20.3134C67.7407 20.1501 68.2704 20.0283 68.7579 19.9878C69.0611 19.9625 69.586 19.9508 69.6894 20.1563C69.7602 20.2966 69.63 20.4644 69.2917 20.6693C68.5581 21.1134 67.8959 21.3554 67.2663 21.4093C67.0535 21.4276 66.8454 21.4233 66.6427 21.3966C66.6326 21.4571 66.626 21.52 66.6219 21.5852C66.5981 21.9979 66.6873 22.4948 66.8941 23.1043C67.0981 23.7048 67.0826 23.8576 67.0648 24.0346C67.0553 24.1279 67.0452 24.2244 67.0689 24.4068C67.101 24.6548 67.2818 24.6664 67.5748 24.6561C67.7556 24.6497 67.9268 24.6437 68.0308 24.7478C68.2841 25.0008 68.1616 26.1404 68.013 26.6517C67.9137 26.9926 67.9101 27.1983 67.9999 27.2984C68.076 27.3828 68.2353 27.4041 68.4725 27.3615C68.6057 27.3376 68.7204 27.3042 68.8167 27.267C68.7834 27.154 68.7739 27.0458 68.8256 26.966C68.8702 26.8968 68.9523 26.8617 69.0688 26.8617C69.2727 26.8617 69.3108 26.9492 69.3155 27.0014C69.3256 27.1118 69.1901 27.2378 68.979 27.3381C68.9992 27.3896 69.0218 27.4401 69.0414 27.4839C69.0617 27.5289 69.0807 27.5716 69.095 27.6082C69.1419 27.7303 69.1039 27.8298 69.073 27.9097C69.0367 28.0037 69.0171 28.0554 69.0973 28.1361C69.1294 28.1679 69.2043 28.1925 69.3036 28.2088C69.4207 28.1053 69.5913 28.028 69.6561 28.0008C69.8945 27.9005 70.1264 27.8568 70.2756 27.8839C70.4028 27.907 70.4754 27.9842 70.4754 28.0958C70.4754 28.162 70.4242 28.2169 70.3232 28.2587C70.1145 28.345 69.6722 28.386 69.3488 28.3457C69.3339 28.3633 69.3238 28.3795 69.3185 28.3937C69.2388 28.6059 69.5872 28.7391 69.5908 28.7404C69.6175 28.7506 69.6347 28.7774 69.6324 28.8062C69.63 28.8349 69.6086 28.8586 69.5807 28.8643C69.5123 28.878 69.4683 28.9084 69.4469 28.9572C69.3785 29.1093 69.5182 29.4041 69.5777 29.5049C69.5884 29.522 69.5896 29.543 69.5824 29.5614C69.5753 29.58 69.5598 29.5942 69.5402 29.5997C68.1206 30.0165 67.1676 30.727 66.6177 31.2497C66.5993 31.2672 66.5814 31.2846 66.5636 31.3019C66.5642 31.3363 66.5624 31.3728 66.5595 31.4114C66.5375 31.6893 66.4209 32.0646 66.2563 32.3905C66.1493 32.6023 65.9293 32.9731 65.6641 33.0762C65.5589 33.1172 65.4965 33.091 65.462 33.062C65.4014 33.0101 65.3853 32.9137 65.4145 32.7751C65.4852 32.4433 65.8258 31.8522 66.4316 31.2504C66.4233 31.1499 66.3948 31.0807 66.3478 31.0534C66.2777 31.012 66.1451 31.0519 65.9751 31.1657C64.9395 31.8595 63.3985 33.74 63.3985 36.0772C63.3985 36.7611 63.5567 37.2865 63.7653 37.6589C63.8397 37.4902 63.9211 37.402 64.0168 37.3813C64.2053 37.3405 64.3789 37.5537 64.6339 37.9612C64.7885 38.2085 64.7587 38.338 64.7064 38.403C64.6458 38.4788 64.5316 38.4941 64.3931 38.4455C64.1928 38.3753 63.9794 38.1952 63.7992 37.9487C63.6631 38.4111 63.5525 39.1525 63.4711 39.7615C63.2446 41.4603 63.2267 42.8215 63.2511 43.6642C63.2624 44.047 63.5168 44.3751 63.8848 44.4809C66.1897 45.1441 67.2639 45.7837 67.7591 46.2036C67.8685 46.2962 67.8994 46.4445 67.8352 46.5728C67.7716 46.7015 67.6343 46.767 67.4946 46.7359L64.0002 45.9594C63.4901 45.8461 63.0823 45.4637 62.936 44.9616L58.8861 31.035C58.7575 30.5928 58.362 30.2805 57.9019 30.2581L45.4207 29.6468C45.2352 29.638 45.0648 29.7181 44.9535 29.8669C44.8424 30.0158 44.8138 30.2019 44.8752 30.3774L48.8932 41.8466C49.0218 42.2136 49.3394 42.4841 49.7222 42.5524C49.8626 42.5776 50.038 42.609 50.2544 42.6477C50.2302 42.5508 50.24 42.4661 50.2839 42.3945C50.4296 42.1574 50.9406 42.1109 51.8462 42.2519C52.5966 42.369 53.3273 42.5394 53.9036 42.732C54.2874 42.8604 54.7589 43.0495 54.8238 43.2213C54.8403 43.2649 54.8335 43.308 54.8047 43.3426C54.7655 43.3899 54.6652 43.4506 54.2518 43.4319C53.9309 43.4173 53.4839 43.3589 52.9232 43.2581C51.831 43.0617 51.0401 42.9198 50.4765 42.8187C50.4864 42.8342 50.4968 42.849 50.5071 42.8633C50.719 43.158 51.0362 43.3658 51.4001 43.4488L71.0889 47.9339C71.2547 47.9717 71.3683 48.1056 71.3778 48.275C71.3879 48.4445 71.291 48.5908 71.1305 48.6478C70.5336 48.8598 69.7465 49.0719 68.9885 49.0719C68.7014 49.0719 68.4178 49.0414 68.1503 48.9686C67.1736 48.7021 66.8496 48.7722 66.8121 48.8558C66.8032 48.8762 66.7491 49.0719 67.6533 49.6575C68.4719 50.1878 69.0093 50.8199 69.2305 51.5071C69.3327 51.5795 69.4326 51.6502 69.5301 51.7188C69.6972 51.8372 69.9076 51.8553 70.0925 51.7676C70.2786 51.6793 70.3987 51.5036 70.4129 51.2977C70.47 50.4791 70.7072 49.6675 70.9646 49.4097C71.1103 49.2646 71.3403 49.1561 71.596 49.1118C71.8457 49.0685 72.0502 49.0979 72.1429 49.1903C72.1905 49.2382 72.2077 49.3022 72.1905 49.3705C72.175 49.4341 72.1316 49.5008 72.0579 49.5743C71.7238 49.9084 71.3094 51.4346 71.5062 52.29C71.568 52.5605 71.684 52.727 71.8504 52.785C72.499 53.0104 73.6589 52.164 74.7807 51.3456C75.0512 51.1481 75.3312 50.9439 75.6005 50.757C76.1171 50.3992 76.5213 50.0651 76.8031 49.7639C76.9779 49.5764 77.101 49.4067 77.1705 49.2564C76.7912 49.2951 76.3436 49.2765 75.7741 49.1897C74.8009 49.0414 74.264 48.8035 74.3003 48.5372C74.3413 48.2373 75.1023 48.1245 76.1944 48.2562C76.8941 48.3407 77.2728 48.5383 77.3524 48.8607C77.372 48.938 77.372 49.0193 77.3554 49.1032C78.0224 48.9912 78.4784 48.6729 79.1383 48.2125C79.3666 48.0529 79.6258 47.8721 79.9236 47.6802C80.7095 47.1735 81.1375 46.6915 81.2707 46.1633C81.2969 46.0583 81.3117 45.9508 81.3147 45.8393C79.3963 46.0717 77.3875 46.1876 75.8252 46.2777C74.4852 46.3551 73.427 46.4163 72.9407 46.5164C72.5709 46.5925 72.2844 46.6966 72.0317 46.7885C71.4242 47.0092 70.9444 47.1835 69.797 46.8445C68.8827 46.5745 68.2627 46.1124 67.9036 45.7723C67.5499 45.4377 67.3038 45.0797 67.2401 44.8182C67.192 44.8266 67.1426 44.8326 67.0933 44.8357C66.7747 44.8553 66.4899 44.7569 66.2907 44.5583C66.1915 44.4585 66.1195 44.3465 66.0738 44.2366C65.871 44.3145 65.6433 44.3686 65.512 44.3965C65.1267 44.4777 64.5988 44.5384 64.2719 44.4659C63.9437 44.3929 63.8932 44.2383 63.8926 44.1527C63.8914 44.072 63.93 43.9902 64.0043 43.9094C63.8842 43.9007 63.8129 43.8744 63.7624 43.8293C63.6791 43.755 63.672 43.6419 63.672 43.5021C63.672 43.3943 63.7903 43.2755 63.9496 43.1643C63.7618 43.1399 63.6459 43.0719 63.603 42.9615C63.5686 42.8715 63.5739 42.7843 63.6185 42.7021C63.8028 42.3617 64.6791 42.1746 65.5268 41.9935C65.5976 41.9783 65.6677 41.9635 65.7373 41.9485C66.2313 41.8417 66.4792 41.7132 66.6611 41.6194C66.8638 41.5144 66.9869 41.451 67.2413 41.5572C67.8204 41.7985 68.2716 42.3657 68.749 42.9664C69.3191 43.6845 69.9094 44.4266 70.7887 44.7356C71.0449 44.8255 71.9342 44.5526 73.4324 43.9244C74.7765 43.361 76.4012 42.6038 77.9719 41.8715C78.9754 41.4038 79.9397 40.9546 80.7392 40.5994C80.7636 40.375 80.7874 40.1416 80.8094 39.8937C80.911 38.7341 80.8801 38.1351 80.6958 37.5793C80.4687 37.5835 80.203 37.4895 79.9129 37.199C79.1739 36.4606 78.9605 35.8164 79.077 35.5057C79.1175 35.3975 79.2013 35.3313 79.3059 35.324C79.5425 35.3077 79.8344 35.5777 80.0883 36.0463C80.1346 36.1326 80.1798 36.2146 80.2226 36.2933C80.4699 36.7475 80.6566 37.0895 80.7844 37.4422C80.8736 37.428 80.9622 37.3949 81.0496 37.3432C80.6667 36.0454 81.115 34.6723 81.5763 34.1096C81.7427 33.9065 81.9056 33.8125 82.0465 33.8376C82.1214 33.8509 82.2249 33.9063 82.2897 34.0933C82.4115 34.4462 82.3527 35.1256 82.1393 35.8238C81.9145 36.5608 81.5751 37.1283 81.2018 37.3978C81.2208 37.4551 81.241 37.5121 81.2636 37.5691C81.6494 38.5518 82.1648 39.3082 82.7528 39.7565C82.7706 39.7699 82.7884 39.7831 82.8063 39.796C84.0196 39.4377 84.7301 39.49 84.9381 39.654C85 39.7029 85.0285 39.7671 85.0178 39.8351C84.991 40.0063 84.733 40.1367 84.5214 40.216C83.9531 40.4292 83.355 40.3328 82.7837 39.9381C82.4615 40.0352 82.1018 40.1619 81.7035 40.3252C81.4538 40.4279 81.1696 40.5502 80.8593 40.6874C80.8427 40.8392 80.8254 40.9873 80.8082 41.1333C80.6513 42.492 80.5371 43.4737 81.0406 44.4463C81.2903 44.9283 81.4217 45.3306 81.4419 45.6935C81.9556 45.6295 82.4621 45.557 82.9501 45.474C83.5179 45.3776 84.0226 45.2593 84.4631 45.1336C85.0749 44.4621 85.8251 43.9348 86.5278 43.6828C86.9945 43.5155 87.284 43.4806 87.388 43.5795C87.4112 43.6019 87.4469 43.6518 87.4213 43.7348C87.3529 43.9583 86.8542 44.317 86.1503 44.6487C85.771 44.8273 85.2324 45.0463 84.5345 45.2474C84.5327 45.2497 84.5303 45.2518 84.5285 45.2539C84.157 45.668 83.8889 46.0894 83.7801 46.4111C84.1154 46.3005 84.3847 46.242 84.5719 46.242C85.035 46.242 85.2003 46.4164 85.2003 46.5795C85.2003 46.8336 84.8008 47.1036 84.0595 47.1036C83.7135 47.1036 83.6267 46.9019 83.6059 46.7817C83.597 46.7299 83.5958 46.6727 83.6023 46.6107C82.3093 47.086 80.1691 48.2364 78.0183 49.7643C77.1081 50.4108 76.4262 50.9087 75.8246 51.3479C74.6118 52.2328 73.811 52.8176 72.4122 53.6843C72.1417 53.8519 71.5211 54.2721 70.9997 54.8835C71.9253 55.9485 72.2178 56.871 72.2975 57.4717C72.4098 58.3197 72.1619 58.8998 71.8926 59.1598C71.6459 59.3976 71.357 59.4099 71.1394 59.1917C70.3119 58.3644 69.9451 57.4914 70.0485 56.597C70.1157 56.0172 70.3779 55.4417 70.8291 54.8851C70.794 54.8455 70.7571 54.8056 70.7203 54.7655C70.4569 54.483 70.2976 54.3617 70.2049 54.3704C70.1294 54.378 70.064 54.4847 69.973 54.6325C69.8042 54.9069 69.5491 55.3213 68.9154 55.6279C68.3578 55.8979 68.202 55.8588 68.0439 55.7742C67.9428 55.7203 67.8483 55.6694 67.4238 55.849C67.2942 55.9037 67.1997 56.0628 67.1444 56.311C67.2033 56.3107 67.2633 56.3107 67.3252 56.3107C67.7306 56.3107 68.3132 56.7418 68.8441 57.4357C69.3886 58.1464 69.7352 58.9385 69.7715 59.5544C69.7923 59.907 69.7138 60.1963 69.539 60.4147C69.3435 60.658 69.0319 60.8066 68.6122 60.8562C68.5938 60.8584 68.5754 60.8594 68.5575 60.8594C67.9838 60.8595 67.497 59.8009 67.2283 58.7861C67.0517 58.1204 66.9536 57.4241 66.9595 56.8757C66.9607 56.7368 66.9691 56.5866 66.9899 56.4415C66.2973 56.4516 65.9067 56.5295 65.5334 57.1234C65.6867 57.3103 65.814 57.5221 65.9097 57.7522C66.1998 58.4529 66.1267 59.1664 65.723 59.5698C65.2872 60.0055 65.0292 59.9883 64.8895 59.8974C64.5768 59.6936 64.6178 58.933 64.9947 57.9599C65.1255 57.6219 65.2492 57.3524 65.3752 57.1376C65.0257 56.7431 64.5144 56.4399 63.8468 56.4399C62.4931 56.4399 61.8303 56.0833 61.1282 55.7059C60.8731 55.5688 60.6098 55.427 60.3064 55.2999C59.2611 54.8615 58.1802 54.4084 56.9266 55.293C56.306 55.7309 55.8487 56.6738 55.7613 57.6952C55.6951 58.4692 55.86 59.1359 56.2027 59.4784C56.3022 59.578 56.4031 59.6006 56.5199 59.5497C56.5582 59.5331 56.5976 59.5086 56.6376 59.4766C56.4885 59.0118 56.4598 58.4334 56.5586 57.8038C56.6664 57.1181 56.9187 56.4594 57.2013 56.1256C57.4075 55.8819 57.5753 55.8748 57.6798 55.9116C57.8085 55.957 57.8786 56.1158 57.8881 56.3833C57.9041 56.8327 57.7504 57.5665 57.4963 58.253C57.3852 58.5532 57.1202 59.1969 56.7877 59.5165C56.8225 59.6122 56.8631 59.7022 56.9093 59.7857C57.647 61.1205 62.7095 61.1793 62.8201 61.1803H62.8213C62.8576 61.1806 62.8861 61.2095 62.8861 61.2452C62.8861 61.2807 62.857 61.3094 62.8213 61.3094H41.4747C41.4391 61.3094 41.4101 61.2805 41.4101 61.2449C41.4101 61.2092 41.4391 61.1803 41.4747 61.1803C42.557 61.1803 43.4373 60.3 43.4373 59.2179V59.2072C43.4373 58.1251 42.557 57.2447 41.4747 57.2447H24.0529C24.0172 57.2447 23.9883 57.2158 23.9883 57.1801V56.5458C23.9883 56.5287 23.9952 56.5122 24.0074 56.5001C24.0195 56.488 24.036 56.4812 24.0529 56.4812C24.0534 56.4812 41.4605 56.6071 41.4605 56.6071C41.9878 56.6115 42.4835 56.4085 42.8575 56.0374C43.2314 55.6662 43.4373 55.1715 43.4373 54.6446V54.6341C43.4373 53.5599 42.5633 52.6795 41.4889 52.6717L24.0524 52.5458C24.0169 52.5455 23.9883 52.5167 23.9883 52.4812V51.8469C23.9883 51.8296 23.9952 51.813 24.0075 51.8008C24.02 51.7888 24.0371 51.7826 24.0538 51.7823L41.4463 52.0337C41.9755 52.0408 42.4753 51.8409 42.8525 51.469C43.2296 51.0973 43.4373 50.601 43.4373 50.0714V50.0613C43.4373 48.9947 42.5696 48.1145 41.503 48.0989L24.0519 47.8467C24.0167 47.8463 23.9883 47.8175 23.9883 47.7821V47.1478C23.9883 47.1304 23.9952 47.1137 24.0077 47.1016C24.0201 47.0896 24.0367 47.0829 24.0543 47.0832L41.4321 47.4601C41.9644 47.4714 42.4668 47.273 42.8474 46.9008C43.2278 46.5285 43.4373 46.0303 43.4373 45.4981V45.4884C43.4373 44.4296 42.576 43.5495 41.5172 43.5265L24.0515 43.1477C24.0164 43.1469 23.9883 43.1183 23.9883 43.0831V42.4488C23.9883 42.4313 23.9954 42.4147 24.0078 42.4024C24.0204 42.3903 24.0374 42.3837 24.0548 42.3841L41.4179 42.8862C41.9526 42.9015 42.4586 42.705 42.8424 42.3322C43.2261 41.9594 43.4373 41.4595 43.4373 40.9247V40.9158C43.4373 39.8465 42.6002 38.985 41.5315 38.954L24.0511 38.4486C24.0161 38.4476 23.9883 38.419 23.9883 38.3841V37.7498C23.9883 37.7322 23.9954 37.7155 24.008 37.7033C24.0207 37.6911 24.0379 37.6846 24.0553 37.6853L41.4038 38.3123C41.941 38.3317 42.4502 38.1367 42.8372 37.7636C43.2243 37.3904 43.4373 36.8886 43.4373 36.3511V36.3432C43.4373 35.2817 42.6064 34.4203 41.5456 34.3819L24.0506 33.7497C24.0157 33.7484 23.9883 33.7198 23.9883 33.6851V33.0508C23.9883 33.0332 23.9955 33.0162 24.0081 33.0041C24.0209 32.992 24.0382 32.9854 24.0556 32.9862L41.3896 33.7381C41.9297 33.7615 42.4418 33.5685 42.8321 33.1948C43.2224 32.8212 43.4373 32.3176 43.4373 31.7773V31.7705C43.4373 30.7168 42.6127 29.8556 41.5597 29.8099L24.0502 29.0507C24.0156 29.0492 23.9883 29.0206 23.9883 28.986V28.3517C23.9883 28.3341 23.9955 28.3171 24.0083 28.3049C24.0213 28.2928 24.0385 28.2863 24.0561 28.2873L41.3756 29.1635C41.9179 29.1911 42.4334 29.0001 42.827 28.6259C43.2206 28.2518 43.4373 27.7466 43.4373 27.2035V27.1983C43.4373 26.1519 42.6188 25.2911 41.5739 25.2383L24.0497 24.3516C24.0153 24.3498 23.9883 24.3215 23.9883 24.2871V23.6527C23.9883 23.635 23.9955 23.618 24.0087 23.6057C24.0216 23.5935 24.0389 23.5871 24.0566 23.5882L41.3614 24.5889C41.9063 24.6204 42.425 24.4314 42.8219 24.0569C43.2188 23.6823 43.4373 23.1755 43.4373 22.6297V22.6259C43.4373 21.5873 42.625 20.7267 41.5879 20.6667L24.0492 19.6525C24.0149 19.6505 23.9883 19.6222 23.9883 19.588V18.9537C23.9883 18.9359 23.9957 18.9188 24.0088 18.9066C24.0217 18.8944 24.0392 18.888 24.0571 18.8893L41.3473 20.0141C41.8946 20.0496 42.4165 19.8628 42.8167 19.4877C43.217 19.1127 43.4373 18.6042 43.4373 18.0558V18.0537C43.4373 17.0225 42.6313 16.1623 41.6021 16.0954L24.0487 14.9535C24.0148 14.9513 23.9883 14.9231 23.9883 14.889V14.2547C23.9883 14.2368 23.9957 14.2196 24.009 14.2074C24.022 14.1952 24.0398 14.189 24.0576 14.1903L41.3331 15.439C41.8829 15.4787 42.4079 15.2939 42.8115 14.9184C43.2151 14.5431 43.4373 14.0328 43.4373 13.4817C43.4373 12.4579 42.6374 11.5981 41.6162 11.5243L21.433 10.0884L20.7497 54.7008C20.749 54.736 20.7204 54.7643 20.6852 54.7645C20.6499 54.7645 20.6211 54.7364 20.6205 54.7011L19.7107 10.1065L9.39312 13.3345V61.2449C9.39312 61.2805 9.36416 61.3094 9.3285 61.3094H1.03351V61.1803H9.26387V13.287C9.26387 13.2587 9.28224 13.2338 9.30917 13.2253L19.7543 9.95743C19.7737 9.95137 19.7949 9.95482 19.8113 9.96665C19.8278 9.97854 19.8378 9.99744 19.8381 10.0178L20.6758 51.0816L21.3049 10.0181C21.3052 10.0003 21.3127 9.98347 21.3257 9.97146C21.3388 9.95951 21.3565 9.95333 21.3741 9.95464L41.6254 11.3954C42.1547 11.4337 42.645 11.6686 43.0063 12.0569C43.3675 12.4453 43.5665 12.9513 43.5665 13.4817C43.5665 14.0691 43.3298 14.613 42.8995 15.0131C42.5077 15.3775 42.0085 15.5735 41.4797 15.5735C41.4281 15.5735 41.3761 15.5717 41.3239 15.5679L24.1175 14.3241V14.8285L41.6106 15.9665C42.1427 16.0011 42.6366 16.2344 43.0011 16.6235C43.3658 17.0126 43.5665 17.5205 43.5665 18.0537V18.0558C43.5665 18.6403 43.3317 19.1823 42.905 19.582C42.4785 19.9817 41.9223 20.1808 41.3389 20.143L24.1175 19.0227V19.5271L41.5955 20.5377C42.7007 20.6017 43.5665 21.5189 43.5665 22.6259V22.6297C43.5665 23.2114 43.3337 23.7516 42.9105 24.1508C42.4875 24.5501 41.9347 24.7515 41.3539 24.7179L24.1175 23.7212V24.2257L41.5804 25.1092C42.6941 25.1656 43.5665 26.0832 43.5665 27.1983V27.2035C43.5665 27.7823 43.3356 28.3207 42.916 28.7196C42.4966 29.1183 41.947 29.3218 41.3689 29.2925L24.1175 28.4197V28.9242L41.5653 29.6809C42.1065 29.7043 42.6109 29.9328 42.9856 30.3239C43.3603 30.7152 43.5665 31.2289 43.5665 31.7705V31.7773C43.5665 32.3533 43.3375 32.8898 42.9215 33.2882C42.5055 33.6864 41.9595 33.892 41.384 33.8671L24.1175 33.1183V33.6228L41.5503 34.2529C42.0944 34.2724 42.6024 34.4992 42.9804 34.8911C43.3583 35.283 43.5665 35.7986 43.5665 36.3432V36.3511C43.5665 36.924 43.3395 37.4587 42.927 37.8566C42.5332 38.2362 42.021 38.4428 41.477 38.4428C41.4511 38.4428 41.4252 38.4423 41.3992 38.4413L24.1175 37.8167V38.3214L41.5351 38.825C42.0823 38.8408 42.5936 39.0656 42.9751 39.4582C43.3566 39.8508 43.5665 40.3683 43.5665 40.9158V40.9247C43.5665 41.4947 43.3414 42.0276 42.9323 42.4249C42.5234 42.8221 41.9843 43.032 41.4142 43.0154L24.1175 42.5153V43.0199L41.5201 43.3973C42.0702 43.4093 42.5851 43.6323 42.9698 44.0255C43.3546 44.4187 43.5665 44.9384 43.5665 45.4884V45.4981C43.5665 46.0654 43.3433 46.5964 42.9378 46.9931C42.5323 47.3897 41.9964 47.6011 41.4294 47.5892L24.1175 47.2138V47.7185L41.5049 47.9698C42.0579 47.9779 42.5763 48.1991 42.9646 48.593C43.3527 48.9868 43.5665 49.5083 43.5665 50.0613V50.0714C43.5665 50.6359 43.3451 51.1649 42.9431 51.5611C42.5411 51.9574 42.009 52.1715 41.4444 52.1629L24.1175 51.9124V52.4171L41.4898 52.5426C42.0456 52.5466 42.5677 52.7661 42.9592 53.1606C43.3509 53.5549 43.5665 54.0783 43.5665 54.6341V54.6446C43.5665 55.2062 43.347 55.7334 42.9484 56.129C42.5536 56.5211 42.0309 56.7363 41.4752 56.7363C41.4699 56.7363 41.4647 56.7363 41.4596 56.7363L24.1175 56.6109V57.1155H41.4747C42.6282 57.1155 43.5665 58.0539 43.5665 59.2072V59.2179C43.5665 60.1167 42.9964 60.8851 42.1988 61.1803H60.6603C60.4826 61.1618 60.3005 61.1407 60.1171 61.1166C58.2428 60.8709 57.1255 60.4442 56.7962 59.8482C56.7539 59.7718 56.7161 59.6902 56.6829 59.6043C56.6464 59.6302 56.6092 59.6518 56.5716 59.6681C56.4067 59.7398 56.2474 59.7059 56.1113 59.5698C55.7366 59.195 55.562 58.5078 55.6326 57.6843C55.6749 57.1887 55.8035 56.6986 56.004 56.2669C56.2214 55.7989 56.5147 55.4256 56.8521 55.1875C57.4284 54.7808 58.0188 54.6109 58.6574 54.6679C59.217 54.7179 59.7579 54.9298 60.3564 55.1807C60.6657 55.3104 60.932 55.4535 61.1894 55.5921C61.8766 55.9617 62.5258 56.3107 63.8468 56.3107C64.3188 56.3107 64.7665 56.461 65.141 56.7455C65.2504 56.8285 65.352 56.9212 65.446 57.0228C65.5993 56.7866 65.7575 56.6273 65.9376 56.5208C66.2271 56.3491 66.5696 56.3178 67.013 56.312C67.0683 56.0449 67.1753 55.8138 67.3733 55.73C67.8198 55.541 67.9583 55.5819 68.1045 55.6602C68.2139 55.7187 68.3174 55.7739 68.8589 55.5116C69.4588 55.2215 69.7019 54.8263 69.863 54.5649C69.973 54.3854 70.0533 54.2558 70.1924 54.2419C70.3368 54.2276 70.5057 54.3455 70.8148 54.6776C70.8481 54.7134 70.8808 54.7491 70.9129 54.7848C71.3968 54.2183 71.9568 53.8148 72.3444 53.5744C73.7385 52.7102 74.5381 52.1267 75.7479 51.2436C76.3501 50.8042 77.0326 50.306 77.9433 49.6591C79.2548 48.7273 80.6768 47.8577 81.9472 47.2102C82.5923 46.8817 83.1654 46.628 83.6296 46.463C83.7111 46.1442 83.9501 45.7358 84.308 45.3106C83.9097 45.4177 83.4644 45.5178 82.9716 45.6014C82.4775 45.6854 81.9651 45.7587 81.4449 45.8233C81.4425 45.9511 81.4259 46.0741 81.3956 46.1947C81.2547 46.7567 80.8088 47.2633 79.9932 47.7889C79.6977 47.9793 79.4397 48.1593 79.212 48.3183C78.5331 48.7922 78.0504 49.1296 77.3168 49.2381C77.1152 49.7711 76.3525 50.3932 75.6742 50.8631C75.4061 51.0491 75.1267 51.253 74.8568 51.45C73.8021 52.2194 72.7992 52.9513 72.0876 52.9515C71.9883 52.9515 71.895 52.9372 71.8082 52.9069C71.5966 52.8334 71.4527 52.6356 71.3802 52.3189C71.1852 51.4705 71.5692 49.8801 71.9669 49.4829C72.0359 49.4136 72.0585 49.3666 72.065 49.3395C72.0728 49.3085 72.0626 49.2928 72.0514 49.2817C71.936 49.1661 71.3463 49.2115 71.0562 49.5011C70.8219 49.7355 70.596 50.5285 70.5419 51.3065C70.5241 51.5597 70.3773 51.7756 70.1484 51.8844C69.9207 51.9924 69.6615 51.97 69.4552 51.8243C69.3993 51.7847 69.3429 51.7447 69.2846 51.7038C69.3066 51.7975 69.3226 51.8919 69.3322 51.9872C69.3767 52.4063 69.306 52.8351 69.1217 53.2618C68.9297 53.7087 68.611 54.1555 68.1765 54.5904C67.5861 55.1803 66.9304 55.572 66.1712 55.7876C65.44 55.9951 64.606 56.0407 63.6197 55.9268C62.6263 55.8123 60.8244 55.0913 59.1363 54.1327C58.2226 53.614 57.3893 53.0503 56.7262 52.5027C55.9625 51.8718 55.4194 51.2634 55.1116 50.6944C54.7298 49.9888 54.5755 49.2199 54.6654 48.4704C54.7718 47.5816 55.21 46.7467 55.9674 45.9892C56.8871 45.0696 58.7733 45.4675 60.1938 45.9633C62.0461 46.6097 63.8521 47.668 64.8366 48.3779C66.0809 49.2752 67.7336 50.4486 69.045 51.376C68.8025 50.783 68.3073 50.2348 67.5832 49.7658C66.8947 49.3201 66.604 49.0051 66.6944 48.803C66.7913 48.5868 67.2925 48.6007 68.1842 48.8439C69.1229 49.0997 70.281 48.8123 71.0871 48.5261C71.2143 48.4809 71.2535 48.3667 71.2488 48.2826C71.244 48.1946 71.1917 48.0897 71.0603 48.0599L51.3713 43.5748C50.9768 43.4848 50.6326 43.2589 50.4021 42.9387C50.3647 42.8866 50.3337 42.8365 50.3091 42.7888C50.0567 42.7436 49.8563 42.7078 49.6995 42.6797C49.2708 42.603 48.9152 42.3002 48.7713 41.8892L44.7532 30.42C44.6784 30.2065 44.7147 29.9709 44.85 29.7896C44.9853 29.6084 45.2012 29.5066 45.427 29.5178L57.9082 30.129C58.4234 30.1542 58.866 30.5039 59.0101 30.9989L63.0603 44.9256C63.1928 45.3823 63.5638 45.7302 64.0281 45.8333L67.5225 46.6097C67.6224 46.632 67.6914 46.5728 67.7199 46.5155C67.7478 46.4583 67.7538 46.368 67.6759 46.3021C67.1902 45.8905 66.132 45.2618 63.8492 44.6051C63.4271 44.4837 63.1346 44.107 63.1221 43.668C63.0971 42.8205 63.1156 41.4517 63.3433 39.7444C63.4538 38.9143 63.5525 38.3554 63.6536 37.9858C63.6714 37.9223 63.6887 37.8643 63.7065 37.8114C63.6946 37.7919 63.6821 37.7719 63.6708 37.752C63.4877 37.4374 63.2695 36.8914 63.2695 36.0772C63.2695 35.024 63.5811 33.9471 64.1714 32.9628C64.6446 32.1726 65.2759 31.4786 65.9031 31.0584C66.1225 30.9114 66.2943 30.8722 66.4132 30.9418C66.4774 30.9796 66.5214 31.0469 66.5446 31.1409C67.0969 30.6193 68.0385 29.9212 69.4279 29.4986C69.3607 29.3668 69.2454 29.0916 69.3286 28.9045C69.344 28.8701 69.3702 28.8304 69.4148 28.7971C69.2685 28.707 69.1217 28.5507 69.1978 28.3483C69.2014 28.3391 69.2055 28.3301 69.2103 28.3212C69.1193 28.2995 69.0474 28.2687 69.0064 28.2274C68.8661 28.0874 68.9136 27.9632 68.9523 27.8634C68.9796 27.792 69.0034 27.7303 68.9743 27.6546C68.9612 27.6212 68.9428 27.5801 68.9237 27.5367C68.9023 27.4896 68.8803 27.4395 68.8595 27.3886C68.7496 27.4304 68.6259 27.4651 68.4957 27.4886C68.2068 27.5404 68.0136 27.5065 67.9042 27.3849C67.7443 27.2073 67.812 26.8806 67.8887 26.6158C68.0588 26.0308 68.1134 25.0131 67.9399 24.8392C67.8751 24.7748 67.7318 24.7798 67.5796 24.7852C67.3305 24.7939 66.9899 24.8059 66.9405 24.4234C66.9155 24.2262 66.9262 24.1175 66.9358 24.0216C66.9524 23.8596 66.9667 23.7197 66.7717 23.1459C66.5285 22.4297 66.4429 21.8391 66.5155 21.3768C66.0095 21.2859 65.5375 21.053 65.1047 20.6801C65.0863 20.6642 65.0786 20.6391 65.0845 20.6154C65.0905 20.5917 65.1095 20.5734 65.1333 20.5681C65.1416 20.5663 65.9661 20.3785 66.2242 19.8462C66.2491 19.7946 66.28 19.7244 66.3163 19.6431C66.673 18.8322 67.6224 16.6784 70.1026 16.0622C71.9961 15.592 73.5459 16.0516 73.9508 16.7676C74.0584 16.9587 74.0833 17.1594 74.0268 17.3581C74.3788 17.4647 74.7182 17.8178 74.9923 18.3663C75.1897 18.7605 75.588 19.8167 75.8175 20.9734C76.0059 21.9228 76.1212 23.1815 75.6028 23.7864C75.4744 23.9365 75.3532 24.0608 75.2396 24.1598C75.201 24.7141 75.0981 25.3577 74.9114 26.0823C74.698 26.909 74.2587 27.6953 73.6392 28.3563C73.0941 28.9383 72.4193 29.4109 71.7381 29.6869C70.9955 29.9877 70.3172 30.0302 69.8505 29.8096C69.8922 30.1533 70.0759 31.1706 70.8154 31.8006C71.3183 32.2288 71.9842 32.4016 72.7945 32.3142C74.1446 32.1688 75.0131 31.3854 75.5042 30.7537C76.3085 29.719 76.5564 28.5673 76.5047 28.2082C76.4464 27.8008 76.2597 27.4586 76.0439 27.0624C75.695 26.4239 75.3002 25.7002 75.3002 24.4495C75.3002 24.4161 75.3258 24.3882 75.3591 24.3852C75.3924 24.3824 75.4221 24.405 75.4281 24.4378C75.4316 24.4549 75.7538 26.1625 76.6343 27.1411C76.777 27.2998 76.9184 27.4207 77.0433 27.5275C77.2894 27.7381 77.4945 27.9133 77.5914 28.2563C77.6211 28.2402 77.6515 28.2253 77.683 28.2116C78.1122 28.0263 78.6978 28.0992 79.3327 28.4165C79.5532 28.5264 79.879 28.6432 80.2244 28.7666C81.1471 29.0968 82.1934 29.4712 82.3509 30.0508C82.3634 30.0964 82.3699 30.1423 82.3705 30.1886C82.4454 30.1838 82.5239 30.1812 82.6065 30.1812C83.5357 30.1812 84.39 30.587 85.0778 31.355C85.6444 31.9875 86.0843 32.8464 86.3162 33.7731C86.4172 34.1784 86.4737 34.4693 86.4874 34.6767C86.7252 34.8534 86.9618 35.092 87.1354 35.409C87.473 36.0246 87.9385 36.9825 88.2417 38.0496C88.5598 39.1675 88.618 40.1238 88.4141 40.8915C88.4052 40.9256 88.3963 40.9584 88.3874 40.9899C88.4486 41.1901 88.5039 41.4008 88.5491 41.6094C88.624 41.9576 88.7161 42.5193 88.6501 42.9605C89.3808 43.0301 90.3462 43.5687 91.2183 44.4413C91.8568 45.0797 92.3045 46.018 92.4465 47.016C92.5214 47.5432 92.5101 48.0671 92.4132 48.5736C92.3086 49.1194 92.1065 49.631 91.8122 50.0943C91.0287 51.3269 89.4461 52.6291 87.1044 53.9688C87.2418 54.0685 87.3672 54.1907 87.4819 54.3367C87.5497 54.2167 87.6312 54.1214 87.7299 54.0669C87.9629 53.938 88.2239 54.0605 88.5063 54.4316C88.898 54.9464 89.2066 55.7051 89.3522 56.513C89.5068 57.3687 89.4717 58.218 89.2535 58.9041C88.9777 59.7716 88.423 60.3591 87.6484 60.6028C87.4053 60.6797 85.9826 60.8712 84.4833 60.9416C83.1226 61.0054 81.3284 60.9892 80.5115 60.5492C80.439 60.5099 80.3754 60.461 80.3213 60.4027C79.9242 60.6254 79.382 60.8261 78.7192 60.8261C78.3696 60.8261 77.9707 60.8332 77.5486 60.8408C75.494 60.8775 73.949 60.8754 73.4722 60.5466C72.7326 60.8051 71.9057 61.0412 71.0675 61.1803H97.9355V61.3094Z" fill="#333333" stroke="#333333" stroke-width="2"/>
</g>
</g>
<defs>
<clipPath id="clip0_16_249">
<rect width="96.902" height="70" fill="white" transform="translate(0.549011)"/>
</clipPath>
<clipPath id="clip1_16_249">
<rect width="96.902" height="51.355" fill="white" transform="translate(1.03351 9.95447)"/>
</clipPath>
</defs>
</svg>
