<?xml version="1.0" encoding="UTF-8" standalone="no"?>
<!-- Created with Inkscape (http://www.inkscape.org/) -->

<svg
   version="1.1"
   id="svg2"
   xml:space="preserve"
   width="7999.9961"
   height="4240.2134"
   viewBox="0 0 7999.9961 4240.2134"
   sodipodi:docname="fb7ff87283ddb25ba794eb04c0d4dfb6.eps"
   xmlns:inkscape="http://www.inkscape.org/namespaces/inkscape"
   xmlns:sodipodi="http://sodipodi.sourceforge.net/DTD/sodipodi-0.dtd"
   xmlns="http://www.w3.org/2000/svg"
   xmlns:svg="http://www.w3.org/2000/svg"><defs
     id="defs6" /><sodipodi:namedview
     id="namedview4"
     pagecolor="#ffffff"
     bordercolor="#666666"
     borderopacity="1.0"
     inkscape:pageshadow="2"
     inkscape:pageopacity="0.0"
     inkscape:pagecheckerboard="0" /><g
     id="g8"
     inkscape:groupmode="layer"
     inkscape:label="ink_ext_XXXXXX"
     transform="matrix(1.3333333,0,0,-1.3333333,0,4240.2135)"><g
       id="g10"
       transform="scale(0.1)"><g
         id="g12"
         transform="scale(3.68098)"><path
           d="m 12069.4,7223.22 c 7.3,-2.86 47.8,10.25 142.7,105.18 16.2,16.2 28.4,32.66 36.7,49.19 -37.4,3.08 -74.7,-13.75 -111,-50.09 -57.3,-57.23 -71.8,-96.78 -68.4,-104.28 z m -1029.1,-487.88 c 128.4,-16.36 271,23.68 430.2,120.14 49.8,30.12 62.8,50.03 58.8,57.93 -6.5,12.83 -51.6,23.45 -135.5,16.47 -79.9,-6.65 -166.6,-26.55 -231.8,-53.24 -64.6,-26.41 -105.3,-73.82 -121.7,-141.3 z m 1312.3,-108.03 c -7.9,0 -16.1,-1.75 -24.4,-5.26 -31.5,-13.15 -53.6,-36.11 -65.7,-68.24 -25.9,-68.39 -3.7,-168.94 29.9,-238.25 21.5,-44.37 45.5,-88.08 82.6,-92.89 23.5,-3.04 52.2,9.48 85.9,37.32 11.5,182.46 -18.8,307.72 -69.5,351.58 -12.1,10.48 -25.1,15.74 -38.8,15.74 z m -908.3,-853.9 c -11.8,0 -19.4,-2.56 -22.7,-7.64 -4.2,-6.49 -3.1,-17.6 0.4,-30.1 28.3,13.88 42.5,28.39 42.2,33.9 -1,1.12 -6.3,3.84 -19.9,3.84 z m 71.5,-208.15 c 32.1,-1.69 70.1,0.32 101.8,6.65 34.7,6.93 40.9,14.89 41.6,15.95 -0.1,3.83 -0.5,11.16 -15.8,13.93 -20.5,3.73 -56.6,-3.47 -91.9,-18.31 -14.2,-5.95 -26.1,-12.17 -35.7,-18.22 z m 1347.4,-40.92 c -27.7,-23.09 -48.2,-56.26 -61,-99.08 -24.6,-81.68 -19.3,-134.44 -3.9,-148.87 3.4,-3.18 6.8,-3.86 11.1,-2.25 19.3,7.11 44.1,51.61 52.8,132.38 5.3,49.33 5.3,87.34 1,117.82 z m 793.6,-313.09 c -38.9,-4.76 -72.4,-14 -98.6,-27.41 -29.8,-15.25 -49.7,-35.68 -54.5,-56 -3.1,-13.09 0.9,-23.82 10.8,-28.76 21.4,-10.74 65.2,4.99 114.7,64.3 13.9,16.6 23.1,32.49 27.6,47.87 z M 11000,5025.1 c -88.7,-92.12 -138.5,-179.55 -149.1,-229.31 -3.8,-17.72 -1.3,-25.41 0.8,-27.17 1.2,-1.06 5.2,-1.36 12.1,1.3 59.1,22.99 126.3,163.06 136.2,255.18 z m 3136,-476.37 c -6.9,0 -13,-0.46 -18.3,-1.36 -10.9,-1.84 -13.9,-5.05 -13.9,-5.57 -0.1,-0.1 0.2,-13.69 51.1,-41.34 l 1.7,-0.9 c 95.7,-51.94 164.8,-89.49 186.1,-72.94 8,6.19 10.9,21.6 10.4,42.54 -78.1,55.5 -167.1,79.57 -217.1,79.57 z m -516.3,51.78 c -14.8,0 -34.4,-13.74 -54.7,-38.47 -73.7,-90 -145.3,-308.64 -86.5,-517.28 56.6,44.18 108.3,133.45 143.7,249.04 34,111.6 44.3,223.2 25.5,277.67 -4.2,11.87 -11.7,26.49 -24.2,28.72 -1.3,0.21 -2.5,0.32 -3.8,0.32 z m -450.1,-250.61 c -0.6,0 -1.2,-0.03 -1.8,-0.06 -9.2,-0.62 -15.8,-6.19 -19.6,-16.51 -13.9,-36.95 10.8,-137.17 135.5,-261.86 36.7,-36.62 73,-55.86 108.7,-57.57 -20.8,55.42 -50.9,110.65 -91,184.16 -7.2,13.23 -14.8,27.06 -22.6,41.6 -44.2,81.63 -85.9,110.24 -109.2,110.24 z m -2603.4,-394.32 c 32.4,-48.99 69.3,-78.35 98.8,-88.68 13.4,-4.72 24.6,-4.64 28.6,0.22 4.4,5.52 3.4,21.73 -13.8,49.23 -18.8,30.13 -57.9,92.74 -80.7,87.85 -11.7,-2.55 -22.7,-20.56 -32.9,-48.62 z m 3212.4,-352.33 c 85.4,-53.76 173.8,-65.71 257.4,-34.37 48.8,18.32 68,36.82 69.6,47.09 0.2,1.41 0.8,5.16 -5.4,10.07 -25.1,19.84 -130.7,30.92 -321.6,-22.79 z M 13422,3994.4 c 30.1,-94.24 35.9,-198.78 18.8,-393.54 -3.2,-37.3 -6.8,-72.62 -10.5,-106.66 47.9,21.11 91.9,40.02 131.1,56.08 60.9,24.99 116.9,45.12 167.9,61.09 -100.6,78.11 -188.3,207.48 -254,374.52 -3.2,8.24 -6.2,16.47 -9,24.75 -13,-7.2 -27.9,-13.15 -44.3,-16.24 z m 1163.5,-397.81 c -0.6,-0.65 -1.8,-2.33 -3,-6.11 -20.3,-60.8 0.2,-210.92 33.7,-247.13 6.6,-7.12 10.5,-6.17 11.8,-5.84 5,1.27 22,10.92 43.1,80.55 -15.3,49.03 -32.5,93.07 -48.6,125.51 -20,40.36 -32.9,51.67 -37,53.02 z m -3712.2,-452.84 c -11.5,0 -33.2,-2.88 -70.4,-14.15 -40.9,-12.41 -89.7,-31.76 -132.3,-52.43 32.7,4.62 69.1,12.58 105.7,23.28 57.3,16.79 92.1,33.9 102.9,42.98 -1.6,0.19 -3.5,0.32 -5.9,0.32 z m -2569.56,-8.63 c 95.71,-17.17 233.58,-41.9 428.55,-76.94 251.78,-45.29 290.36,-26.19 295.3,-22.31 -3.29,7.31 -32.9,32.14 -136.29,67.16 -96.53,32.71 -219.92,61.67 -347.38,81.53 -184.55,28.77 -230.16,3.64 -240.92,-13.88 -6.05,-9.84 -4.4,-22.63 0.74,-35.56 z m 6407.76,-68.87 c -32,0 -59.6,-6.58 -81.6,-19.83 -34,-20.41 -42.9,-44.83 -39.9,-60.86 2.1,-11.35 10,-19.31 21.2,-21.3 20.4,-3.61 54,12.37 87,68.08 5.7,9.7 10.2,21.11 13.6,33.91 -0.1,0 -0.2,0 -0.3,0 z m -3810.4,-49.01 c -12.9,0 -39.3,-2.66 -92.1,-15.51 -63.4,-15.41 -110.4,-33.01 -144,-50.15 14.4,1.33 30.2,3.07 47.4,5.08 93,10.89 170.9,43.9 192.4,60.5 -1.1,0.05 -2.3,0.08 -3.7,0.08 z m 62.2,-68.43 c -0.7,0 -1.4,-0.09 -2,-0.25 -3.5,-0.95 -6.6,-5.35 -8.4,-12.06 -2.5,-9.29 -2.3,-21.52 0.8,-35.02 16.9,8.1 28.7,16.38 33,24.23 1.6,2.83 2.5,5.6 -2.4,10.46 -8.1,8.1 -15.7,12.64 -21,12.64 z m 232.9,-110.71 c -2.8,0 -5.9,-0.3 -9.3,-1.09 -8.7,-1.95 -28.2,-9.34 -30.9,-35.75 22.5,6.9 39.8,16.9 48.9,26 4.7,4.68 4.7,7.07 4.7,7.09 -0.7,1.44 -5.8,3.75 -13.4,3.75 z m 3298.4,132.25 c -17.8,0 -51,-5.68 -106.2,-25.51 -105.4,-37.79 -217.6,-113.77 -313.1,-211.27 99,30.42 176.6,62.37 233.1,88.94 136.6,64.36 195.8,119.23 202.3,140.42 0.3,1.2 0.8,3.34 0.1,4.05 -2,1.85 -7.1,3.37 -16.2,3.37 z M 11158,2779.1 c 8.6,-34.18 42.4,-89.98 105.2,-149.5 83,-78.57 193,-140.83 309.7,-175.34 186.2,-54.98 260.1,-28.14 362.3,9.02 43.3,15.71 92.3,33.53 156,46.65 83.4,17.17 262.1,27.46 488.4,40.53 263.1,15.19 601.6,34.75 924.4,73.95 -3,58.3 -24.3,123.55 -65.2,202.5 -87.7,169.49 -68.3,337.41 -41.4,569.79 2.4,20.51 4.8,41.21 7.2,62.32 -132,-58.81 -289.6,-132.3 -453.5,-208.66 -264.5,-123.29 -537.9,-250.75 -764.4,-345.7 -264.4,-110.87 -410.6,-154.39 -460.3,-136.95 -153.9,54.04 -255.1,181.42 -352.9,304.6 -78.5,98.8 -152.7,192.12 -244.9,230.53 -33.6,13.99 -46,7.55 -79.3,-9.7 -29.8,-15.4 -74.9,-38.71 -160.8,-57.29 -11.7,-2.53 -23.5,-5.05 -35.4,-7.58 -131.4,-28.06 -280.3,-59.88 -306.5,-108.31 -4.5,-8.21 -4.9,-16.3 -1.4,-25.46 4.9,-12.66 25,-20.37 56.7,-21.71 4.2,-0.18 8.6,-0.27 13.2,-0.21 38,21.81 79.6,39.9 99.6,48.16 47,19.48 159,62.02 184.2,36.79 5.1,-5.11 6.4,-12.17 3.6,-18.91 -10.1,-23.83 -84,-48.22 -115.4,-57.62 -59.4,-17.82 -120.2,-28.77 -165.9,-30.05 -48.7,-28.58 -62.9,-47.59 -62.9,-55.23 0,-21.54 1.1,-32.84 7.8,-38.79 7.5,-6.68 24.7,-9.1 50.9,-8.5 39.4,28.09 103.9,54.25 186.8,74.4 108.2,26.33 119.3,13.67 124.1,8.26 3.9,-4.48 4.9,-10.37 2.6,-16.21 -6.8,-17.74 -48.2,-35.87 -72.3,-45.07 -43.7,-16.69 -94.5,-29.02 -143.2,-34.72 -38.1,-4.49 -67.2,-7.2 -89.9,-8.1 -20.9,-16.03 -29.9,-30.34 -29.8,-40.5 0.1,-13.53 17.2,-25.08 46.8,-31.68 72.8,-16.17 213.6,7.93 291.4,38.06 -4.8,18.64 -5.1,35.94 -1.6,49.25 3.9,14.65 12.4,24.37 23.8,27.44 9.3,2.5 24.6,1.41 44,-18.01 10.7,-10.68 12.9,-23.91 6.1,-36.3 -7.3,-13.2 -24.4,-24.77 -45.4,-34.6 6.8,-16.01 17.3,-32.52 32,-47.22 39.1,-39.07 90.9,-42.03 118.3,-40.34 8.1,0.49 15.9,1.46 23.3,2.82 0.3,24.18 12.5,52.81 45.7,61.7 20.8,5.62 41.4,0.35 48.8,-12.47 2.7,-4.78 7.5,-17.58 -8.2,-33.25 -14,-14.02 -36.5,-25.57 -62.3,-32.79 z m 2754.2,-298.05 c -2.4,-12.55 -2.9,-23.77 -1.2,-33.33 4.2,-24.32 22.2,-36.14 54.9,-36.14 111,0 170.2,38.58 170.2,66.43 0,16.87 -26.3,35.04 -84,35.04 -31.7,0 -79.6,-11.08 -139.9,-32 z m -1406.7,-297.77 c -107.7,0 -157.4,-21.25 -159.7,-37.57 -2.6,-19.05 57.5,-59.07 229.7,-85.34 99.5,-15.18 175.7,-18.01 239.9,-10.24 3.7,14.18 4.2,27.17 1.3,38.88 -10.9,43.82 -70.2,72.53 -176.4,85.36 -52.3,6.3 -97.1,8.91 -134.8,8.91 z m -2988.88,465.58 c -104.32,0 -197.53,-23.69 -260.75,-86.91 -324.75,-324.75 -206.25,-643.77 -140.23,-765.83 129.2,-238.9 474.36,-459.57 668.62,-569.87 277.34,-157.46 584.04,-280.469 745.94,-299.16 328.6,-37.925 559.5,29.502 748.6,218.64 139.6,139.58 203,280.98 188.2,420.27 -2.4,23.49 -7.2,46.7 -14.1,69.54 -224.3,158.63 -515.8,365.5 -733.2,522.31 -164.4,118.58 -466.1,295.33 -775.45,403.32 -132.66,46.29 -289.81,87.69 -427.63,87.69 z M 13097,657.977 c 7.3,-1.874 37.6,-2.2 156.8,42.026 239.3,88.699 705,272.863 1134.7,509.567 16,8.77 31.8,17.58 47.4,26.35 -87.3,47.08 -203.9,45.29 -355.7,-5.35 -159.5,-53.19 -416.2,-190.9 -603.2,-301.986 -106.2,-63.136 -202.2,-124.886 -270.4,-173.922 -92.2,-66.34 -107.2,-90.219 -109.6,-96.685 z m 1448.7,471.663 c -51.3,-135.911 -54.4,-423.063 7.7,-587.393 39.4,-104.32 63.7,-103.94 68.1,-102.799 30.7,7.825 57.9,151.834 32.5,334.748 -22,158.789 -57.3,275.334 -108.3,355.444 z m -2790.6,-65.55 c -61.5,-76.256 -112.3,-168.813 -124.5,-273.812 -16.6,-143.548 43.1,-284.407 177.3,-418.638 27.8,-27.792 63.8,-25.7 96.3,5.623 39.6,38.251 79.5,130.7 61.7,265.5 -12.9,97.556 -60.6,247.407 -210.8,421.327 z M 9512.38,889.084 c -17.44,0 -35.15,-16.191 -47.73,-31.052 -45.18,-53.328 -85.69,-159.957 -103.21,-271.64 -15.43,-98.207 -11.92,-188.345 9.43,-261.506 35.59,38.251 73.35,107.471 106.41,196.85 41.19,111.275 67.16,234.34 64.58,306.196 -1.2,33.713 -8.7,55.446 -20.54,59.658 -2.96,1.032 -5.95,1.494 -8.94,1.494 z M 10837.7,684.165 c -19,-33.713 -38.1,-75.849 -58.4,-128.525 -67.3,-173.867 -60.7,-277.318 -26.1,-299.866 23.4,-15.241 64.5,3.831 113,52.269 61.6,61.614 72.1,172.345 26.6,282.072 -13.1,31.703 -31.5,64.058 -55.1,94.05 z m 2674.2,-91.932 c -6.7,0 -13.8,-1.439 -21.4,-4.265 -75.5,-28.307 -160.7,-180.604 -168.9,-301.795 -2.3,-33.387 0.7,-74.273 21.3,-105.677 99.4,59.793 173.6,146.645 209.4,232.899 29.2,70.715 27,130.373 -6.3,163.625 -10.2,10.161 -21.4,15.213 -34.1,15.213 z m -566.8,-15.539 c -14,0 -52.6,-6.846 -156.6,-51.535 -105.9,-45.612 -254.7,-119.316 -442.1,-219.127 -153.8,-81.934 -169.2,-123.39 -164.7,-140.805 1,-3.965 3.3,-8.15 7.5,-12.415 70.1,24.804 135.4,50.72 193.4,75.416 262.2,111.464 470.1,238.034 532.6,300.517 31.5,31.513 35.8,43.874 36.3,47.162 -1,0.38 -3,0.787 -6.4,0.787 z m -1828.5,242.463 c -3.3,-21.49 -5.1,-46.075 -5.4,-73.486 -0.9,-90.383 15.3,-205.408 44.5,-315.595 25.5,-96.415 59.3,-182.017 95,-241.078 27,-44.58 68.7,-96.5496 114.3,-91.1704 123.5,14.6154 182.6,80.6034 175.8,196.1154 -5.9,99.484 -62.5,228.282 -151.5,344.529 -84.1,109.78 -177.6,180.739 -238.3,180.739 -11.9,0 -23.4,0 -34.4,-0.054 z M 16300,0 h -4766 c -6,0 -10.8,4.86241 -10.8,10.8667 0,6.0042 4.8,10.8666 10.8,10.8666 213.4,0 440.4,56.806 633.4,123.4727 -3.1,4.564 -5.4,9.426 -6.7,14.562 -11.2,43.14 44.6,95.707 175.5,165.445 193.6,103.124 346.1,178.457 453.1,223.907 140.2,59.469 169.4,54.224 180.2,39.691 10.9,-14.698 -0.8,-37.272 -38.9,-75.442 -64,-63.923 -274.7,-192.612 -539.5,-305.163 -54.1,-22.983 -114.4,-47.054 -179.2,-70.335 31.2,-14.48 91.4,-27.9 202.9,-34.8 133.3,-8.2317 304.5,-5.1893 455.5,-2.499 71.1,1.276 138.3,2.471 197.3,2.471 94.8,0 182,25.673 256.3,66.531 -19.1,29.666 -27.3,69.52 -24.1,118.094 8.9,130.481 99.6,289.325 183.1,320.648 29.7,11.166 56.9,5.651 78.5,-15.919 39.8,-39.799 43.7,-108.069 10.9,-187.314 -33.1,-80.06 -99.2,-159.632 -181.2,-218.257 -10.5,-7.498 -22,-15.241 -34.6,-22.929 6.5,-6.411 14.1,-12.089 22.9,-16.871 247,-133.0893 1100.8,-33.55 1183.7,-7.416 123.2,38.793 211.7,132.709 255.8,271.612 79.2,249.254 -1.8,574.357 -122.3,732.658 -39.9,52.51 -74.5,71.2 -102.8,55.53 -14.2,-7.91 -26.9,-23.88 -37.9,-46 57.2,-83.37 96.1,-206.516 119.6,-376.226 22.5,-161.56 8.3,-344.311 -48.6,-358.79 -30.7,-7.796 -61.3,30.182 -93.8,116.192 -36.5,96.496 -53.9,247.162 -45.5,393.237 2.9,51.591 12.5,153.137 43.2,223.497 -21.8,29.64 -46.3,53.41 -73.6,71.7 -19.1,-10.82 -38.5,-21.65 -58.2,-32.49 -431,-237.388 -897.7,-421.985 -1137.6,-510.902 -137.6,-51.045 -168.3,-47.677 -180.1,-37.652 -5.4,4.537 -7.5,11.111 -6.1,18.555 2.6,13.446 18.3,40.071 124.1,115.594 69.3,49.552 165.9,111.438 271.9,174.273 186.5,110.512 442.6,247.572 602.1,300.792 164.6,54.88 290.4,53.98 384.6,-2.83 396,225.49 662.8,443.99 793.8,650.02 201.1,316.6 108.6,718.42 -96.9,923.99 -97.4,97.34 -205.3,172.84 -303.8,212.53 -42.5,17.11 -82,27.24 -117.1,30.34 -3.9,-16.33 -9.5,-31.21 -17,-43.98 -32.8,-55.42 -73.8,-84.73 -109.5,-78.4 -20.2,3.58 -35,18.44 -38.8,38.74 -4.3,23.2 6.6,57.32 50.1,83.45 27,16.28 60.2,23.75 97.7,23.04 12.4,77.83 -6.3,192.5 -34.6,293.56 -14.9,-39.74 -30.7,-60.77 -48.6,-65.23 -8.1,-2 -20.3,-1.52 -33,12.18 -18.7,20.18 -34.6,67.13 -42.6,125.56 -8,57.67 -6.4,111.22 4.3,143.2 5.2,15.75 14,20.07 20.4,20.91 12.6,1.72 25.4,-8.04 40.3,-30.56 19.1,-28.9 40,-76.2 58.8,-131.11 72.5,312.64 -126.8,725.27 -217.1,890.2 -23.4,42.68 -55,77.81 -89.8,106.12 -1.6,-21.63 -7.8,-35.24 -18.5,-43.5 -32.5,-25.21 -95.5,8.97 -209.8,71.04 l -1.7,0.9 c -44.9,24.4 -65.3,45.34 -62.2,64 1.4,8.48 8.1,19.43 31.8,23.45 34.4,5.84 102.8,-4.05 177.9,-39.34 18.1,-8.5 38.3,-19.29 59,-32.76 -4.6,38.39 -15.6,86.44 -26.6,130.45 -67.8,271.15 -266.4,587.81 -602.9,587.81 -14.5,0 -28.4,-0.49 -41.8,-1.5 -4.4,-21.02 -15.7,-42.43 -33.8,-64.03 -61,-73.02 -112.9,-83.94 -141.1,-69.79 -18.9,9.45 -27.6,30.32 -22.3,53.19 9.8,41.19 62.4,88.35 177.6,100.74 0,6.52 -0.8,12.95 -2.6,19.34 -23.5,86.58 -201.3,150.18 -344.1,201.28 -58.6,21 -114.1,40.86 -152.3,59.95 -100.9,50.45 -193,62.52 -259.2,33.93 -6.6,-2.85 -12.9,-6.08 -18.9,-9.69 6.2,-34.15 7,-77.24 0.8,-134.21 -8.7,-80.76 -34.3,-138.41 -66.8,-150.42 -12,-4.45 -24.3,-1.98 -33.6,6.79 -25.7,24.18 -26.5,89.68 -2.1,170.96 15.6,51.76 41.5,90.88 77.2,116.79 -14.1,55.99 -46.2,83.49 -86.9,118.31 -21.6,18.39 -45.9,39.23 -70.9,67 -91.9,102.23 -147.9,246.33 -178.3,347.09 19.3,-134.88 69.1,-226.23 114.2,-308.92 35.9,-65.64 69.7,-127.63 80,-200.09 11,-76.82 -44.1,-279.38 -172.6,-444.63 -85.2,-109.59 -236,-245.51 -470.6,-270.8 -142.6,-15.38 -260.1,15.43 -349.5,91.58 -82.6,70.47 -125,167.32 -145.9,236.18 -22.6,74.36 -25.8,131.46 -25.9,133.85 -0.2,4.03 1.9,7.83 5.3,9.89 3.5,2.07 7.8,2.04 11.2,-0.05 72.5,-44.31 187.9,-39.83 316.5,12.31 189.8,76.91 440.1,277.99 520.9,591.65 28.5,110.39 45.3,210.96 52.8,299.26 -32.4,-23.31 -61,-33.13 -86.6,-29.82 -47.8,6.21 -75.3,55.27 -99.4,104.98 -26.5,54.85 -62.8,170.36 -30.6,255.42 14.3,37.93 40.4,65.04 77.6,80.58 30.7,12.86 60.4,7.98 85.9,-14.08 51.5,-44.55 86.6,-164.36 78.4,-347.22 13.6,13.1 27.9,28.39 42.8,45.86 149.4,174.29 -28.6,733.99 -105.6,887.94 -43.8,87.61 -96.8,143.35 -150.5,158.9 -9.3,-20.58 -23.8,-40.89 -43.3,-60.46 -52.1,-52.01 -119.7,-111.66 -156.5,-111.66 -2.6,0 -5,0.29 -7.2,0.89 -7.8,2.09 -13.3,7.59 -15.4,15.48 -6.6,24.5 22.5,73.61 74,125.13 43.2,43.17 88.5,61.88 134.7,55.67 8.3,28.36 4.9,56.68 -10.6,84.03 -31.8,56.34 -110.9,101.59 -216.8,124.14 -84.1,17.9 -222.9,29.68 -406.3,-15.87 -406.9,-101.09 -563.3,-456.33 -622.3,-590.07 -6.1,-13.88 -11.3,-25.86 -15.7,-34.91 -37.7,-77.82 -134.8,-114.72 -177.7,-127.63 65.8,-52.94 136,-86.14 211,-99.59 17.4,75.52 62.4,128.39 135.1,158.11 67.1,27.48 156.2,47.97 238.2,54.79 51,4.25 139.3,6.22 156.7,-28.36 11.9,-23.6 -10,-51.83 -66.9,-86.29 -123.4,-74.71 -234.8,-115.43 -340.7,-124.5 -35.8,-3.07 -70.8,-2.35 -104.9,2.14 -1.7,-10.17 -2.8,-20.76 -3.5,-31.73 -4,-69.43 11,-153.02 45.8,-255.56 34.3,-101.01 31.7,-126.73 28.7,-156.5 -1.6,-15.7 -3.3,-31.93 0.7,-62.62 5.4,-41.71 35.8,-43.66 85.1,-41.93 30.4,1.08 59.2,2.09 76.7,-15.43 42.6,-42.57 22,-234.27 -3,-320.3 -16.7,-57.35 -17.3,-91.94 -2.2,-108.78 12.8,-14.21 39.6,-17.79 79.5,-10.62 22.4,4.02 41.7,9.64 57.9,15.89 -5.6,19.02 -7.2,37.22 1.5,50.64 7.5,11.65 21.3,17.55 40.9,17.55 34.3,0 40.7,-14.72 41.5,-23.5 1.7,-18.58 -21.1,-39.77 -56.6,-56.64 3.4,-8.67 7.2,-17.17 10.5,-24.53 3.4,-7.58 6.6,-14.76 9,-20.92 7.9,-20.54 1.5,-37.28 -3.7,-50.72 -6.1,-15.81 -9.4,-24.51 4.1,-38.09 5.4,-5.35 18,-9.48 34.7,-12.22 19.7,17.41 48.4,30.42 59.3,34.98 40.1,16.88 79.1,24.24 104.2,19.67 21.4,-3.88 33.6,-16.87 33.6,-35.64 0,-11.14 -8.6,-20.37 -25.6,-27.41 -35.1,-14.51 -109.5,-21.41 -163.9,-14.64 -2.5,-2.96 -4.2,-5.68 -5.1,-8.07 -13.4,-35.7 45.2,-58.11 45.8,-58.33 4.5,-1.71 7.4,-6.22 7,-11.06 -0.4,-4.83 -4,-8.82 -8.7,-9.78 -11.5,-2.3 -18.9,-7.41 -22.5,-15.62 -11.5,-25.59 12,-75.19 22,-92.15 1.8,-2.87 2,-6.41 0.8,-9.5 -1.2,-3.13 -3.8,-5.52 -7.1,-6.44 -238.8,-70.12 -399.1,-189.65 -491.6,-277.59 -3.1,-2.94 -6.1,-5.87 -9.1,-8.78 0.1,-5.78 -0.2,-11.92 -0.7,-18.41 -3.7,-46.76 -23.3,-109.89 -51,-164.72 -18,-35.64 -55,-98.01 -99.6,-115.35 -17.7,-6.9 -28.2,-2.5 -34,2.39 -10.2,8.73 -12.9,24.94 -8,48.25 11.9,55.83 69.2,155.26 171.1,256.51 -1.4,16.9 -6.2,28.55 -14.1,33.14 -11.8,6.96 -34.1,0.25 -62.7,-18.9 -174.2,-116.71 -433.4,-433.07 -433.4,-826.25 0,-115.05 26.6,-203.45 61.7,-266.1 12.5,28.39 26.2,43.22 42.3,46.7 31.7,6.87 60.9,-28.99 103.8,-97.55 26,-41.6 21,-63.38 12.2,-74.33 -10.2,-12.74 -29.4,-15.32 -52.7,-7.15 -33.7,11.82 -69.6,42.11 -99.9,83.59 -22.9,-77.8 -41.5,-202.52 -55.2,-304.97 -38.1,-285.79 -41.1,-514.78 -37,-656.56 1.9,-64.39 44.7,-119.59 106.6,-137.38 387.7,-111.58 568.4,-219.18 651.7,-289.82 18.4,-15.57 23.6,-40.53 12.8,-62.1 -10.7,-21.65 -33.8,-32.68 -57.3,-27.44 l -587.8,130.62 c -85.8,19.07 -154.4,83.4 -179,167.86 l -681.25,2342.88 c -21.62,74.38 -88.15,126.92 -165.55,130.7 L 7466.43,5326.6 c -31.21,1.49 -59.87,-11.99 -78.59,-37.03 -18.69,-25.05 -23.5,-56.35 -13.18,-85.88 l 675.88,-1929.46 c 21.63,-61.74 75.06,-107.25 139.45,-118.74 23.61,-4.24 53.11,-9.51 89.51,-16.03 -4.07,16.3 -2.41,30.56 4.97,42.6 24.51,39.88 110.46,47.7 262.79,23.99 126.24,-19.7 249.14,-48.36 346.08,-80.77 64.57,-21.6 143.87,-53.41 154.79,-82.31 2.77,-7.34 1.63,-14.59 -3.21,-20.41 -6.6,-7.96 -23.47,-18.17 -93.01,-15.02 -53.98,2.45 -129.16,12.28 -223.48,29.23 -183.72,33.04 -316.76,56.92 -411.57,73.92 1.68,-2.61 3.42,-5.1 5.16,-7.5 35.64,-49.57 89,-84.54 150.2,-98.5 l 3311.88,-754.53 c 27.9,-6.36 47,-28.88 48.6,-57.37 1.7,-28.53 -14.6,-53.14 -41.6,-62.73 -100.4,-35.65 -232.8,-71.34 -360.3,-71.34 -48.3,0 -96,5.13 -141,17.38 -164.3,44.83 -218.8,33.04 -225.1,18.97 -1.5,-3.43 -10.6,-36.35 141.5,-134.86 137.7,-89.21 228.1,-195.55 265.3,-311.17 17.2,-12.17 34,-24.07 50.4,-35.61 28.1,-19.92 63.5,-22.96 94.6,-8.21 31.3,14.86 51.5,44.42 53.9,79.06 9.6,137.71 49.5,274.25 92.8,317.61 24.5,24.42 63.2,42.67 106.2,50.12 42,7.28 76.4,2.33 92,-13.21 8,-8.06 10.9,-18.82 8,-30.31 -2.6,-10.71 -9.9,-21.93 -22.3,-34.29 -56.2,-56.21 -125.9,-312.96 -92.8,-456.86 10.4,-45.5 29.9,-73.51 57.9,-83.27 109.1,-37.92 304.2,104.46 492.9,242.14 45.5,33.23 92.6,67.59 137.9,99.02 86.9,60.2 154.9,116.41 202.3,167.08 29.4,31.54 50.1,60.09 61.8,85.38 -63.8,-6.52 -139.1,-3.39 -234.9,11.22 -163.7,24.94 -254,64.96 -247.9,109.76 6.9,50.45 134.9,69.43 318.6,47.27 117.7,-14.21 181.4,-47.46 194.8,-101.69 3.3,-13.01 3.3,-26.68 0.5,-40.8 112.2,18.85 188.9,72.4 299.9,149.85 38.4,26.84 82,57.27 132.1,89.54 132.2,85.25 204.2,166.34 226.6,255.2 4.4,17.66 6.9,35.75 7.4,54.5 -322.7,-39.09 -660.6,-58.6 -923.4,-73.76 -225.4,-13.01 -403.4,-23.31 -485.2,-40.15 -62.2,-12.8 -110.4,-30.32 -152.9,-45.78 -102.2,-37.13 -182.9,-66.45 -375.9,-9.42 -153.8,45.42 -258.1,123.17 -318.5,180.38 -59.5,56.29 -100.9,116.52 -111.6,160.51 -8.1,-1.42 -16.4,-2.42 -24.7,-2.94 -53.6,-3.31 -101.5,13.26 -135,46.67 -16.7,16.79 -28.8,35.62 -36.5,54.12 -34.1,-13.12 -72.4,-22.22 -94.5,-26.9 -64.8,-13.66 -153.6,-23.88 -208.6,-11.68 -55.2,12.28 -63.7,38.28 -63.8,52.68 -0.2,13.58 6.3,27.35 18.8,40.94 -20.2,1.46 -32.2,5.89 -40.7,13.47 -14,12.5 -15.2,31.52 -15.2,55.04 0,18.15 19.9,38.12 46.7,56.84 -31.6,4.1 -51.1,15.54 -58.3,34.12 -5.8,15.13 -4.9,29.8 2.6,43.63 31,57.26 178.4,88.75 321,119.2 11.9,2.56 23.7,5.06 35.4,7.58 83.1,17.96 124.8,39.58 155.4,55.37 34.1,17.66 54.8,28.33 97.6,10.46 97.4,-40.59 173.3,-136.02 253.6,-237.08 95.9,-120.79 195.2,-245.65 343.1,-297.62 43.1,-15.13 192.7,30.78 444.7,136.46 226.1,94.79 499.4,222.17 763.6,345.37 168.8,78.68 331,154.25 465.5,213.99 4.1,37.76 8.1,77.02 11.8,118.72 17.1,195.09 11.9,295.85 -19.1,389.35 -38.2,-0.7 -82.9,15.11 -131.7,63.98 -124.3,124.23 -160.2,232.6 -140.6,284.87 6.8,18.2 20.9,29.34 38.5,30.56 39.8,2.75 88.9,-42.67 131.6,-121.51 7.8,-14.51 15.4,-28.31 22.6,-41.54 41.6,-76.42 73,-133.96 94.5,-193.29 15,2.39 29.9,7.96 44.6,16.65 -64.4,218.34 11,449.34 88.6,543.99 28,34.17 55.4,49.98 79.1,45.77 12.6,-2.25 30,-11.57 40.9,-43.03 20.5,-59.36 10.6,-173.65 -25.3,-291.12 -37.8,-123.98 -94.9,-219.45 -157.7,-264.79 3.2,-9.64 6.6,-19.23 10.4,-28.82 64.9,-165.31 151.6,-292.56 250.5,-367.98 3,-2.25 6,-4.48 9,-6.65 204.1,60.28 323.6,51.48 358.6,23.9 10.4,-8.23 15.2,-19.04 13.4,-30.48 -4.5,-28.79 -47.9,-50.74 -83.5,-64.08 -95.6,-35.86 -196.2,-19.64 -292.3,46.75 -54.2,-16.33 -114.7,-37.65 -181.7,-65.12 -42,-17.27 -89.8,-37.84 -142,-60.93 -2.8,-25.54 -5.7,-50.45 -8.6,-75.01 -26.4,-228.58 -45.6,-393.73 39.1,-557.35 42,-81.09 64.1,-148.76 67.5,-209.81 86.4,10.76 171.6,22.96 253.7,36.92 95.5,16.22 180.4,36.13 254.5,57.27 102.9,112.96 229.1,201.68 347.3,244.06 78.5,28.15 127.2,34.02 144.7,17.39 3.9,-3.78 9.9,-12.17 5.6,-26.13 -11.5,-37.6 -95.4,-97.94 -213.8,-153.74 -63.8,-30.05 -154.4,-66.89 -271.8,-100.73 -0.3,-0.39 -0.7,-0.74 -1,-1.09 -62.5,-69.66 -107.6,-140.56 -125.9,-194.68 56.4,18.61 101.7,28.45 133.2,28.45 77.9,0 105.7,-29.34 105.7,-56.78 0,-42.74 -67.2,-88.16 -191.9,-88.16 -58.2,0 -72.8,33.93 -76.3,54.15 -1.5,8.71 -1.7,18.33 -0.6,28.77 -217.5,-79.96 -577.5,-273.49 -939.3,-530.54 -153.1,-108.75 -267.8,-192.51 -369,-266.4 -204,-148.87 -338.7,-247.24 -574,-393.05 -45.5,-28.2 -149.9,-98.88 -237.6,-201.74 155.7,-179.161 204.9,-334.364 218.3,-435.424 18.9,-142.652 -22.8,-240.234 -68.1,-283.974 -41.5,-40.015 -90.1,-42.08 -126.7,-5.378 -139.2,139.174 -200.9,286.038 -183.5,436.513 11.3,97.53 55.4,194.351 131.3,287.993 -5.9,6.66 -12.1,13.37 -18.3,20.11 -44.3,47.54 -71.1,67.94 -86.7,66.47 -12.7,-1.27 -23.7,-19.23 -39,-44.09 -28.4,-46.16 -71.3,-115.87 -177.9,-167.455 -93.8,-45.422 -120,-38.848 -146.6,-24.612 -17,9.073 -32.9,17.63 -104.3,-12.579 -21.8,-9.21 -37.7,-35.969 -47,-77.724 9.9,0.054 20,0.054 30.4,0.054 68.2,0 166.2,-72.535 255.5,-189.27 91.6,-119.561 149.9,-252.813 156,-356.426 3.5,-59.306 -9.7,-107.988 -39.1,-144.717 -32.9,-40.941 -85.3,-65.9334 -155.9,-74.2744 -3.1,-0.3799 -6.2,-0.5433 -9.2,-0.5433 -96.5,-0.0265 -178.4,178.0777 -223.6,348.7937 -29.7,111.981 -46.2,229.123 -45.2,321.381 0.2,23.364 1.6,48.629 5.1,73.051 -116.5,-1.712 -182.2,-14.806 -245,-114.724 25.8,-31.433 47.2,-67.075 63.3,-105.787 48.8,-117.876 36.5,-237.899 -31.4,-305.761 -73.3,-73.296 -116.7,-70.416 -140.2,-55.121 -52.6,34.284 -45.7,162.239 17.7,325.945 22,56.86 42.8,102.201 64,138.332 -58.8,66.37 -144.8,117.388 -257.1,117.388 -227.7,0 -339.2,59.984 -457.3,123.472 -42.9,23.065 -87.2,46.918 -138.24,68.297 -175.83,73.76 -357.65,149.99 -568.52,1.17 -104.38,-73.678 -181.31,-232.303 -196.01,-404.132 -11.14,-130.21 16.6,-242.355 74.25,-299.975 16.73,-16.761 33.71,-20.566 53.36,-12.007 6.43,2.797 13.06,6.928 19.8,12.306 -25.08,78.186 -29.91,175.496 -13.29,281.419 18.12,115.35 60.56,226.162 108.1,282.317 34.69,40.994 62.92,42.189 80.49,35.995 21.66,-7.634 33.45,-34.339 35.05,-79.354 2.69,-75.604 -23.17,-199.05 -65.91,-314.535 -18.69,-50.503 -63.27,-158.79 -119.2,-212.552 5.86,-16.11 12.68,-31.242 20.45,-45.287 124.1,-224.56 975.67,-234.4482 994.27,-234.6117 h 0.2 c 6.1,-0.0541 10.9,-4.9165 10.9,-10.9208 C 10404.3,4.83588 10399.4,0 10393.4,0 H 6802.67 c -6,0 -10.87,4.86241 -10.87,10.8667 0,6.0042 4.87,10.8666 10.87,10.8666 182.04,0 330.13,148.0857 330.13,330.1307 v 1.792 c 0,182.044 -148.09,330.157 -330.13,330.157 H 3872.12 c -6,0 -10.87,4.862 -10.87,10.866 V 801.39 c 0,2.879 1.17,5.65 3.21,7.687 2.04,2.038 4.81,3.18 7.66,3.18 0.08,0 2928.16,-21.19 2928.16,-21.19 88.7,-0.735 172.07,33.415 234.99,95.844 62.89,62.456 97.53,145.669 97.53,234.309 v 1.77 c 0,180.71 -147.03,328.82 -327.74,330.13 l -2933.02,21.19 c -5.98,0.05 -10.79,4.89 -10.79,10.87 v 106.71 c 0,2.9 1.17,5.7 3.24,7.74 2.09,2.03 4.97,3.07 7.79,3.12 l 2925.61,-42.3 c 89.02,-1.19 173.08,32.44 236.54,95 63.43,62.54 98.37,146.03 98.37,235.13 v 1.69 c 0,179.43 -145.97,327.52 -325.38,330.13 l -2935.46,42.43 c -5.93,0.08 -10.71,4.92 -10.71,10.87 v 106.71 c 0,2.93 1.17,5.73 3.26,7.77 2.1,2.03 4.89,3.15 7.85,3.1 l 2923.14,-63.41 c 89.54,-1.9 174.05,31.48 238.06,94.1 64,62.62 99.24,146.43 99.24,235.97 v 1.63 c 0,178.13 -144.88,326.19 -322.99,330.05 l -2937.93,63.73 c -5.9,0.14 -10.63,4.95 -10.63,10.87 v 106.71 c 0,2.94 1.2,5.73 3.29,7.8 2.12,2.03 4.97,3.15 7.9,3.07 l 2920.67,-84.46 c 89.94,-2.58 175.06,30.48 239.61,93.2 64.55,62.71 100.08,146.81 100.08,236.79 v 1.49 c 0,179.88 -140.81,324.81 -320.59,330.03 l -2940.39,85.03 c -5.89,0.16 -10.57,4.97 -10.57,10.84 v 106.71 c 0,2.96 1.2,5.78 3.32,7.82 2.14,2.06 5.02,3.15 7.96,3.04 L 6790.74,3868.8 c 90.36,-3.26 176.02,29.54 241.11,92.32 65.12,62.78 100.95,147.19 100.95,237.62 v 1.33 c 0,178.57 -139.77,323.48 -318.21,329.94 l -2942.85,106.36 c -5.87,0.22 -10.49,5.03 -10.49,10.87 v 106.71 c 0,2.96 1.22,5.81 3.34,7.85 2.15,2.04 5.06,3.15 7.99,3.02 l 2915.77,-126.49 c 90.85,-3.94 176.99,28.52 242.65,91.39 65.64,62.86 101.8,147.57 101.8,238.47 v 1.14 c 0,177.26 -138.71,322.14 -315.84,329.83 l -2945.3,127.73 c -5.82,0.25 -10.41,5.06 -10.41,10.87 v 106.71 c 0,2.96 1.22,5.82 3.37,7.88 2.18,2.04 5.08,3.13 8.04,2.96 L 6785.99,5407.9 c 91.23,-4.64 177.94,27.5 244.15,90.44 66.2,62.95 102.66,147.93 102.66,239.29 v 0.89 c 0,176.02 -137.68,320.84 -313.45,329.73 l -2947.77,149.17 c -5.79,0.29 -10.33,5.06 -10.33,10.85 v 106.71 c 0,2.99 1.22,5.85 3.43,7.91 2.17,2.05 5.08,3.14 8.06,2.94 L 6783.6,6177.49 c 91.66,-5.3 178.92,26.49 245.67,89.5 66.77,63.02 103.53,148.28 103.53,240.09 v 0.64 c 0,174.73 -136.65,319.51 -311.09,329.6 l -2950.22,170.62 c -5.76,0.33 -10.24,5.09 -10.24,10.85 v 106.71 c 0,3 1.25,5.87 3.45,7.93 2.18,2.05 5.11,3.12 8.13,2.91 l 2908.41,-189.23 c 92.06,-5.98 179.84,25.46 247.16,88.55 67.34,63.09 104.4,148.64 104.4,240.9 v 0.34 c 0,173.48 -135.59,318.19 -308.7,329.45 l -2952.69,192.11 c -5.7,0.37 -10.16,5.11 -10.16,10.84 v 106.71 c 0,3.02 1.25,5.9 3.48,7.96 2.2,2.05 5.19,3.1 8.18,2.88 l 2905.93,-210.07 c 92.48,-6.69 180.8,24.41 248.69,87.57 67.89,63.15 105.27,148.99 105.27,241.71 0,172.23 -134.56,316.87 -306.33,329.29 L 3431.42,8616.91 3316.48,1111.77 c -0.11,-5.92 -4.92,-10.68 -10.84,-10.71 -5.95,0 -10.78,4.73 -10.89,10.66 L 3141.72,8613.87 1406.18,8070.82 V 10.8667 C 1406.18,4.86241 1401.31,0 1395.31,0 H 0 V 21.7333 H 1384.44 V 8078.81 c 0,4.75 3.09,8.95 7.62,10.37 l 1756.99,549.76 c 3.26,1.02 6.82,0.44 9.59,-1.55 2.77,-2 4.46,-5.18 4.51,-8.6 l 140.91,-6908.16 105.82,6908.1 c 0.05,2.99 1.3,5.83 3.5,7.85 2.2,2.01 5.17,3.05 8.13,2.83 l 3406.51,-242.38 c 89.02,-6.44 171.5,-45.96 232.27,-111.29 60.77,-65.33 94.24,-150.45 94.24,-239.68 0,-98.82 -39.82,-190.32 -112.2,-257.63 -65.9,-61.31 -149.88,-94.28 -238.82,-94.28 -8.69,0 -17.44,0.31 -26.21,0.95 l -2894.31,209.23 v -84.85 l 2942.53,-191.44 c 89.51,-5.83 172.59,-45.08 233.9,-110.53 61.34,-65.46 95.11,-150.91 95.11,-240.61 v -0.34 c 0,-98.34 -39.5,-189.52 -111.27,-256.76 -71.75,-67.24 -165.31,-100.74 -263.44,-94.37 L 3882.99,7113.9 v -84.86 l 2940,-170.02 c 185.9,-10.76 331.54,-165.06 331.54,-351.3 v -0.64 c 0,-97.85 -39.17,-188.73 -110.35,-255.89 -71.15,-67.17 -164.14,-101.05 -261.83,-95.4 l -2899.36,167.68 v -84.87 l 2937.45,-148.64 c 187.34,-9.49 334.09,-163.85 334.09,-351.44 v -0.89 c 0,-97.37 -38.85,-187.94 -109.42,-255.04 -70.56,-67.08 -163,-101.31 -260.24,-96.39 l -2901.88,146.83 v -84.86 l 2934.92,-127.31 c 91.03,-3.94 175.88,-42.38 238.9,-108.17 63.03,-65.83 97.72,-152.25 97.72,-243.36 v -1.14 c 0,-96.91 -38.52,-187.16 -108.5,-254.18 -69.98,-66.99 -161.81,-101.57 -258.63,-97.39 l -2904.41,125.97 v -84.87 l 2932.39,-106 c 91.53,-3.29 176.97,-41.43 240.56,-107.36 63.57,-65.93 98.59,-152.68 98.59,-244.29 v -1.33 c 0,-96.38 -38.19,-186.33 -107.58,-253.27 -66.23,-63.87 -152.4,-98.62 -243.9,-98.62 -4.35,0 -8.72,0.09 -13.09,0.25 l -2906.97,105.08 v -84.9 l 2929.84,-84.73 c 92.04,-2.66 178.05,-40.48 242.22,-106.52 64.17,-66.04 99.48,-153.11 99.48,-245.21 v -1.49 c 0,-95.9 -37.87,-185.55 -106.68,-252.38 -68.79,-66.83 -159.47,-102.14 -255.37,-99.35 l -2909.49,84.14 v -84.9 l 2927.31,-63.49 c 92.53,-2.01 179.14,-39.52 243.85,-105.67 64.74,-66.15 100.38,-153.58 100.38,-246.11 v -1.63 c 0,-95.43 -37.54,-184.76 -105.76,-251.51 -68.21,-66.72 -158.35,-102.28 -253.73,-100.27 l -2912.05,63.14 v -84.9 l 2924.76,-42.27 c 93.02,-1.36 180.22,-38.58 245.53,-104.84 65.28,-66.26 101.25,-153.98 101.25,-247.02 v -1.69 c 0,-94.97 -37.24,-183.97 -104.86,-250.61 -67.62,-66.67 -157.13,-102.69 -252.11,-101.25 l -2914.57,42.14 v -84.9 l 2922.21,-21.11 c 93.5,-0.68 181.31,-37.6 247.18,-103.97 65.88,-66.34 102.15,-154.38 102.15,-247.89 v -1.77 c 0,-94.48 -36.92,-183.155 -103.97,-249.713 -66.42,-65.96 -154.33,-102.174 -247.81,-102.174 -0.9,0 -1.77,0 -2.63,0 l -2917.13,21.109 v -84.896 h 2919.68 c 194.02,0 351.86,-157.866 351.86,-351.89 v -1.792 c 0,-151.211 -95.9,-280.4698 -230.07,-330.1307 h 3105.44 c -29.9,3.0977 -60.52,6.6559 -91.38,10.7043 -315.27,41.3475 -503.21,113.1214 -558.6,213.3944 -7.12,12.85 -13.48,26.569 -19.07,41.02 -6.14,-4.345 -12.39,-7.986 -18.72,-10.729 -27.74,-12.063 -54.53,-6.358 -77.43,16.544 -63.02,63.054 -92.39,178.648 -80.52,317.198 7.12,83.374 28.74,165.825 62.48,238.442 36.57,78.729 85.9,141.538 142.66,181.583 96.93,68.43 196.25,97.01 303.66,87.42 94.14,-8.42 185.12,-44.06 285.8,-86.28 52.02,-21.81 96.82,-45.885 140.12,-69.194 115.6,-62.184 224.8,-120.892 447,-120.892 79.4,0 154.7,-25.291 217.7,-73.16 18.4,-13.963 35.5,-29.556 51.3,-46.645 25.8,39.745 52.4,66.532 82.7,84.461 48.7,28.878 106.3,34.149 180.9,35.128 9.3,44.933 27.3,83.808 60.6,97.908 75.1,31.785 98.4,24.912 123,11.736 18.4,-9.834 35.8,-19.126 126.9,24.993 100.9,48.815 141.8,115.295 168.9,159.275 18.5,30.19 32,52 55.4,54.34 24.3,2.39 52.7,-17.44 104.7,-73.3 5.6,-6.03 11.1,-12.03 16.5,-18.04 81.4,95.3 175.6,163.19 240.8,203.62 234.5,145.39 369,243.55 572.5,392.12 101.3,73.92 216.1,157.73 369.3,266.56 220.6,156.75 459.8,303.04 673.5,411.98 108.5,55.26 204.9,97.94 283,125.7 13.7,53.63 53.9,122.33 114.1,193.86 -67,-18.01 -141.9,-34.85 -224.8,-48.92 -83.1,-14.13 -169.3,-26.46 -256.8,-37.33 -0.4,-21.49 -3.2,-42.19 -8.3,-62.48 -23.7,-94.54 -98.7,-179.77 -235.9,-268.19 -49.7,-32.03 -93.1,-62.32 -131.4,-89.06 -114.2,-79.73 -195.4,-136.48 -318.8,-154.74 -33.9,-89.67 -162.2,-194.32 -276.3,-273.37 -45.1,-31.3 -92.1,-65.59 -137.5,-98.73 -177.4,-129.45 -346.1,-252.57 -465.8,-252.6 -16.7,0 -32.4,2.4 -47,7.5 -35.6,12.36 -59.8,45.64 -72,98.92 -32.8,142.73 31.8,410.27 98.7,477.1 11.6,11.65 15.4,19.56 16.5,24.12 1.3,5.22 -0.4,7.85 -2.3,9.73 -19.4,19.45 -118.6,11.81 -167.4,-36.92 -39.4,-39.42 -77.4,-172.84 -86.5,-303.72 -3,-42.6 -27.7,-78.92 -66.2,-97.21 -38.3,-18.17 -81.9,-14.4 -116.6,10.11 -9.4,6.65 -18.9,13.39 -28.7,20.27 3.7,-15.76 6.4,-31.65 8,-47.68 7.5,-70.5 -4.4,-142.65 -35.4,-214.43 -32.3,-75.17 -85.9,-150.34 -159,-223.5 -99.3,-99.24 -209.6,-165.146 -337.3,-201.412 -123,-34.911 -263.3,-42.57 -429.2,-23.419 -167.1,19.262 -470.2,140.561 -754.16,301.821 -153.69,87.26 -293.87,182.1 -405.41,274.22 -128.45,106.14 -219.81,208.48 -271.59,304.21 -64.22,118.7 -90.17,248.06 -75.06,374.14 17.9,149.53 91.61,289.98 219.02,417.42 154.71,154.69 471.99,87.75 710.92,4.35 311.58,-108.75 615.38,-286.78 780.98,-406.2 209.3,-150.96 487.3,-348.36 707.9,-504.38 -40.8,99.76 -124.1,191.99 -245.9,270.88 -115.8,74.98 -164.7,127.98 -149.5,161.97 16.3,36.38 100.6,34.04 250.6,-6.87 157.9,-43.04 352.7,5.32 488.3,53.46 21.4,7.61 28,26.81 27.2,40.97 -0.8,14.8 -9.6,32.44 -31.7,37.46 L 8467.39,2983.5 c -66.37,15.13 -124.26,53.14 -163.03,107.01 -6.3,8.77 -11.52,17.19 -15.65,25.21 -42.46,7.61 -76.17,13.64 -102.55,18.36 -72.1,12.91 -131.92,63.84 -156.13,132.98 l -675.88,1929.46 c -12.58,35.92 -6.49,75.55 16.28,106.06 22.76,30.48 59.08,47.6 97.06,45.72 l 2099.47,-102.82 c 86.66,-4.24 161.12,-63.06 185.36,-146.35 l 681.28,-2342.88 c 22.3,-76.83 84.7,-135.35 162.8,-152.7 l 587.8,-130.62 c 16.8,-3.75 28.4,6.22 33.2,15.86 4.7,9.62 5.7,24.81 -7.4,35.89 -81.7,69.25 -259.7,175.01 -643.7,285.49 -71,20.43 -120.2,83.79 -122.3,157.65 -4.2,142.57 -1.1,372.84 37.2,660.07 18.6,139.64 35.2,233.66 52.2,295.85 3,10.67 5.9,20.43 8.9,29.34 -2,3.28 -4.1,6.63 -6,9.99 -30.8,52.92 -67.5,144.78 -67.5,281.75 0,177.18 52.4,358.35 151.7,523.93 79.6,132.93 185.8,249.69 291.3,320.38 36.9,24.72 65.8,31.32 85.8,19.62 10.8,-6.36 18.2,-17.69 22.1,-33.5 92.9,87.75 251.3,205.19 485,276.28 -11.3,22.17 -30.7,68.47 -16.7,99.95 2.6,5.79 7,12.47 14.5,18.07 -24.6,15.16 -49.3,41.45 -36.5,75.49 0.6,1.55 1.3,3.07 2.1,4.57 -15.3,3.64 -27.4,8.83 -34.3,15.78 -23.6,23.55 -15.6,44.44 -9.1,61.23 4.6,12.01 8.6,22.39 3.7,35.13 -2.2,5.62 -5.3,12.53 -8.5,19.83 -3.6,7.93 -7.3,16.36 -10.8,24.91 -18.5,-7.03 -39.3,-12.87 -61.2,-16.81 -48.6,-8.72 -81.1,-3.02 -99.5,17.44 -26.9,29.88 -15.5,84.84 -2.6,129.39 28.6,98.41 37.8,269.61 8.6,298.88 -10.9,10.83 -35,9.98 -60.6,9.08 -41.9,-1.47 -99.2,-3.49 -107.5,60.87 -4.2,33.17 -2.4,51.45 -0.8,67.58 2.8,27.26 5.2,50.79 -27.6,147.33 -40.9,120.48 -55.3,219.84 -43.1,297.61 -85.1,15.3 -164.5,54.48 -237.3,117.21 -3.1,2.68 -4.4,6.9 -3.4,10.88 1,3.99 4.2,7.07 8.2,7.96 1.4,0.31 140.1,31.89 183.5,121.44 4.2,8.68 9.4,20.5 15.5,34.18 60,136.41 219.7,498.75 636.9,602.4 318.5,79.1 579.2,1.79 647.3,-118.66 18.1,-32.15 22.3,-65.91 12.8,-99.35 59.2,-17.93 116.3,-77.32 162.4,-169.61 33.2,-66.31 100.2,-244 138.8,-438.58 31.7,-159.72 51.1,-371.48 -36.1,-473.23 -21.6,-25.25 -42,-46.17 -61.1,-62.82 -6.5,-93.25 -23.8,-201.53 -55.2,-323.43 -35.9,-139.07 -109.8,-271.34 -214,-382.54 -91.7,-97.91 -205.2,-177.42 -319.8,-223.85 -124.9,-50.61 -239,-57.76 -317.5,-20.65 7,-57.81 37.9,-228.96 162.3,-334.94 84.6,-72.04 196.6,-101.11 332.9,-86.41 227.1,24.47 373.2,156.26 455.8,262.53 135.3,174.06 177,367.82 168.3,428.23 -9.8,68.54 -41.2,126.11 -77.5,192.75 -58.7,107.42 -125.1,229.17 -125.1,439.57 0,5.62 4.3,10.31 9.9,10.82 5.6,0.47 10.6,-3.33 11.6,-8.85 0.6,-2.88 54.8,-290.14 202.9,-454.77 24,-26.7 47.8,-47.05 68.8,-65.01 41.4,-35.42 75.9,-64.9 92.2,-122.6 5,2.71 10.1,5.21 15.4,7.52 72.2,31.16 170.7,18.91 277.5,-34.47 37.1,-18.5 91.9,-38.14 150,-58.9 155.2,-55.56 331.2,-118.53 357.7,-216.05 2.1,-7.67 3.2,-15.38 3.3,-23.18 12.6,0.82 25.8,1.25 39.7,1.25 156.3,0 300,-68.27 415.7,-197.47 95.3,-106.41 169.3,-250.89 208.3,-406.8 17,-68.18 26.5,-117.11 28.8,-152 40,-29.74 79.8,-69.87 109,-123.2 56.8,-103.56 135.1,-264.71 186.1,-444.23 53.5,-188.07 63.3,-348.95 29,-478.1 -1.5,-5.73 -3,-11.25 -4.5,-16.54 10.3,-33.69 19.6,-69.14 27.2,-104.22 12.6,-58.59 28.1,-153.08 17,-227.3 122.9,-11.71 285.3,-102.31 432,-249.12 107.4,-107.39 182.7,-265.25 206.6,-433.14 12.6,-88.68 10.7,-176.83 -5.6,-262.03 -17.6,-91.82 -51.6,-177.88 -101.1,-255.83 -131.8,-207.36 -398,-426.43 -791.9,-651.81 23.1,-16.76 44.2,-37.32 63.5,-61.88 11.4,20.19 25.1,36.21 41.7,45.39 39.2,21.68 83.1,1.07 130.6,-61.36 65.9,-86.61 117.8,-214.241 142.3,-350.155 26,-143.957 20.1,-286.826 -16.6,-402.258 -46.4,-145.939 -139.7,-244.771 -270,-285.765 -40.9,-12.932 -280.2,-45.151 -532.4,-56.9961 -228.9,-10.7309 -530.7,-8.0142 -668.1,66.0151 -12.2,6.602 -22.9,14.832 -32,24.64 -66.8,-37.463 -158,-71.231 -269.5,-71.231 -58.8,0 -125.9,-1.1949 -196.9,-2.4715 -345.6,-6.1677 -605.5,-5.8143 -685.7,49.4975 -124.4,-43.4943 -263.5,-83.2117 -404.5,-106.6027 H 16300 V 0"
           style="fill:#000000;fill-opacity:1;fill-rule:nonzero;stroke:none"
           id="path14" /></g></g></g></svg>
