<?xml version="1.0" encoding="UTF-8" standalone="no"?>
<!-- Created with Inkscape (http://www.inkscape.org/) -->

<svg
   version="1.1"
   id="svg2"
   xml:space="preserve"
   width="7999.9961"
   height="5333.3472"
   viewBox="0 0 7999.9961 5333.3472"
   sodipodi:docname="9566f2da99c3e03573b2255324410637.eps"
   xmlns:inkscape="http://www.inkscape.org/namespaces/inkscape"
   xmlns:sodipodi="http://sodipodi.sourceforge.net/DTD/sodipodi-0.dtd"
   xmlns="http://www.w3.org/2000/svg"
   xmlns:svg="http://www.w3.org/2000/svg"><defs
     id="defs6" /><sodipodi:namedview
     id="namedview4"
     pagecolor="#ffffff"
     bordercolor="#666666"
     borderopacity="1.0"
     inkscape:pageshadow="2"
     inkscape:pageopacity="0.0"
     inkscape:pagecheckerboard="0" /><g
     id="g8"
     inkscape:groupmode="layer"
     inkscape:label="ink_ext_XXXXXX"
     transform="matrix(1.3333333,0,0,-1.3333333,0,5333.3472)"><g
       id="g10"
       transform="scale(0.1)"><g
         id="g12"
         transform="scale(3.68098)"><path
           d="M 0,0 H 16300 V 10866.7 H 0 V 0"
           style="fill:transparent;fill-opacity:1;fill-rule:evenodd;stroke:none"
           id="path14" /></g><g
         id="g16"
         transform="scale(3.35202)"><path
           d="m 1599.66,8362.69 c 754.42,545.32 1755.24,490.69 2508.82,-55.75 872.4,-632.58 1981.7,-844.96 3047.78,-687.62 733.35,-171.45 1126.69,-270.55 1180.09,-297.31 -147.02,-534.43 -274.01,-890.63 -380.96,-1068.58 -636.37,221 -977.06,360.38 -1022.13,418.16 -291.68,159.49 -154.66,748.6 132.27,935.32 79.81,45.61 130.19,11.04 151.17,-103.7 -7.52,-323.6 -112.83,-552.8 -315.93,-687.58 645.67,-302.48 1035.97,-457.34 1170.85,-464.62 209.06,117 1315.77,4983.39 -529.63,3428.7 C 6266.34,8705.02 5784.78,6887.07 5943.79,5226.64 6191.43,2640.56 8957.8,5930.37 8777.85,8943.48 9653.14,7730.12 10573.1,7048.71 11537.6,6899.25 c 364,-684.84 174.7,-1532.78 -446,-1997.78 -1030.1,471.2 -2197.53,547.28 -3280.07,213.72 -53.99,-97.35 -119.51,-187.8 -195.13,-269.48 1090.03,440.63 2319.73,372.49 3354.4,-185.83 135.4,-64.08 296.4,-11.43 483.2,157.96 789.6,-191.46 1198.5,-318.46 1226.6,-380.96 -59.1,-305.37 -142.7,-543.85 -250.9,-715.48 -526.6,582.28 -789.8,873.44 -789.8,873.44 -127.8,-97.01 -319.8,-134.18 -576.1,-111.51 791,-319.06 1131.7,-582.31 1022.1,-789.82 -480.1,-982.34 -802.2,-1546.03 -966.4,-1691.13 -188.1,490.95 -434.3,743.37 -738.6,757.21 -130.3,-86.39 -195.3,-148.36 -195.2,-185.83 170.4,-508.2 333,-749.78 487.8,-724.76 117.7,0 199.8,0 246.3,0 -562.5,515.9 -706.5,851.97 -432.1,1008.17 475.9,742.42 697.4,1230.25 664.4,1463.51 -172.7,247.73 -96.8,438.21 227.6,571.45 451.9,555.66 572.4,1310.43 316,1979.19 1235.9,-392.06 1940.6,-633.65 2113.9,-724.78 221.2,-386.82 245.8,-855.58 66.2,-1263.36 -179.6,-407.79 -542,-706.17 -976.7,-804.11 -120.8,52.65 -181.2,78.96 -181.2,78.96 601.4,473.39 892.6,1239.85 757.3,1993.13 -757.6,298.54 -1367.8,504.5 -1588.9,525 66.8,-381.27 113.2,-765.15 -7.8,-1043.64 1007.5,-259.82 1669.9,-462.17 2046.1,-622.22 489.8,-162.98 1011.9,-192.58 1520.5,-104.24 310.3,53.88 627.2,-51.94 854.9,-269.48"
           style="fill:none;stroke:#000000;stroke-width:44.7492;stroke-linecap:round;stroke-linejoin:round;stroke-miterlimit:2.6131;stroke-dasharray:none;stroke-opacity:1"
           id="path18" /></g></g></g></svg>
