<?xml version="1.0" encoding="UTF-8" standalone="no"?>
<!-- Created with Inkscape (http://www.inkscape.org/) -->

<svg
   version="1.1"
   id="svg2"
   xml:space="preserve"
   width="4737.9463"
   height="2236.988"
   viewBox="0 0 4737.9463 2236.988"
   sodipodi:docname="a189f292e4c0447cb325de475e0a6e6d.eps"
   xmlns:inkscape="http://www.inkscape.org/namespaces/inkscape"
   xmlns:sodipodi="http://sodipodi.sourceforge.net/DTD/sodipodi-0.dtd"
   xmlns="http://www.w3.org/2000/svg"
   xmlns:svg="http://www.w3.org/2000/svg"><defs
     id="defs6" /><sodipodi:namedview
     id="namedview4"
     pagecolor="#ffffff"
     bordercolor="#666666"
     borderopacity="1.0"
     inkscape:pageshadow="2"
     inkscape:pageopacity="0.0"
     inkscape:pagecheckerboard="0" /><g
     id="g8"
     inkscape:groupmode="layer"
     inkscape:label="ink_ext_XXXXXX"
     transform="matrix(1.3333333,0,0,-1.3333333,-378.66706,3672.7682)"><g
       id="g10"
       transform="scale(0.1)"><g
         id="g12"
         transform="scale(2.35427)"><path
           d="m 1206.32,4617.14 c 0,0 10286.98,0 10296.18,0 -96.8,0 -439.7,393.67 -540.9,470 -209.9,158.18 -434.7,298.1 -677.9,399.23 C 9616.27,5764.04 8849.2,5751 8142.1,5685.54 7432.79,5619.92 6684.87,5475.71 6099,5025.55 c -133.54,-102.58 -514.21,-526.87 -718.27,-410.32 -125,71.4 -59.59,265.9 9.48,358.71 126.19,169.56 360.06,287.95 530.78,407.69 255.45,179.2 495.73,368.73 710.24,596.66 33.6,35.68 68.51,76.62 69.62,125.68 2.12,92.56 -108.53,140.26 -199.26,158.69 -313.85,63.76 -637.82,77.4 -955.92,40.23 -234.55,-27.4 -467.41,-82.28 -703.49,-75.91 -215.31,5.87 -421.4,75.23 -585.45,218.03 -33.68,29.27 -66.31,63.08 -78.8,105.9 -23.92,82.06 37.07,169.56 114.65,205.37 77.61,35.81 166.76,32.96 252.14,29.48 2677.48,-108.83 5357.67,-149.86 8037.18,-122.97 92.5,0.93 195.9,6.54 259,74.08 54.1,57.89 61.6,144.07 65.6,223.25 29.5,596.32 18.7,1194.64 -32.5,1789.51 -6,70 -16.6,147.78 -71,192.17 -39.3,31.94 -92.7,38.86 -143.1,44.13 -516.2,54.32 -1036.3,71.44 -1555,51.18 -39.8,-1.53 -83.4,-4.84 -112.1,-32.45 -28.4,-27.18 -33.8,-69.79 -37.6,-108.82 -18.8,-194.54 -37.6,-389.04 -56.4,-583.58 -5.4,-55.56 -10.2,-114.39 14.2,-164.6 37.4,-76.71 129.2,-107.67 212.5,-125.85 171.3,-37.38 347.4,-52.5 522.6,-44.94 84.5,3.65 178.5,17.67 230.3,84.48 30.9,39.89 40.8,91.75 48.5,141.62 30.3,196.66 41,396.34 32,595.13 -1.9,42.01 -5.6,86.65 -30.7,120.46 -29.7,40.18 -82.4,55.47 -131.8,62.99 -265.8,40.44 -587.5,-53.73 -772.1,141.79 -104.7,110.82 -119.7,277.11 -120.5,429.56 -1.2,228.6 16.9,457.3 53.9,682.9 7.7,46.7 17.8,96.6 52.1,129.3 34.3,32.8 84.8,40.6 132,45.9 192.8,21.4 387.4,26.2 581,14.2 44.2,-2.7 91.6,-7.7 125.1,-36.6 38,-32.9 47.5,-87.1 53.7,-137 33.9,-273.43 39.3,-550.42 16,-824.98 -740.4,-7.99 -1480.8,-15.97 -2221.22,-23.96 -48.84,-0.51 -102.7,0.72 -139.06,33.39 -30.38,27.22 -40.83,69.74 -48.77,109.76 -48.25,242.28 -60.91,491.69 -37.46,737.59 5.52,57.9 16.1,121.5 60.99,158.5 36.75,30.3 87.72,35.1 135.33,37.4 177.38,8.4 355.59,-0.6 531.19,-26.9 66.2,-9.9 138.2,-25.8 179.1,-78.8 34.7,-45 38.3,-105.8 40.3,-162.5 23.8,-672.01 20.7,-1344.91 -9.4,-2016.58 -2,-45.67 -6.5,-96.43 -40.4,-127.14 -32.3,-29.22 -80.3,-30.24 -123.9,-29.64 -198.6,2.71 -397.26,5.48 -595.92,8.19 -81.42,1.15 -173.85,7.22 -225.67,70.05 -33.34,40.39 -41.54,95.44 -45.96,147.64 -18.35,216.72 7.01,437.12 74.12,644.02 15.93,49.06 35.89,99.82 76.16,132.02 46.77,37.38 110.99,42.09 170.84,42.99 193.52,2.97 387.43,-17.29 576.13,-60.15 15.7,-3.57 14.2,-26.42 -1.7,-28.12 -618.27,-64.94 -1237.57,-119.23 -1857.67,-162.89 -182.23,-12.83 -383.22,-19.29 -526.54,93.99 -155.33,122.72 -224.27,371.63 -420.3,399.36 -205.33,29.06 -343.54,-214.16 -541.4,-276.39 -187.66,-58.95 -409.55,52.5 -580.94,-44.09 -68.39,-38.52 -116.47,-104.87 -179.84,-151.17 -63.38,-46.3 -159.67,-67.83 -215.87,-13 -26.04,25.45 -37.55,61.89 -47.27,96.98 -55.65,200.95 -74.68,438.82 61.33,596.91 124.54,144.76 336.2,172.62 527.13,172.16 155.16,-0.39 315.34,-14.28 452.75,-86.44 137.41,-72.13 247.42,-214.55 240.58,-369.59 10.33,142.85 28.72,290.33 102.5,413.13 77.56,129.12 231.79,224.01 379.01,181.33 16.91,-4.93 32.75,-13.26 45.45,-25.41 77.35,-73.78 -27.86,-194.83 -129.17,-219.85 -210.98,-52.12 -450.58,51.48 -557.15,240.84 -106.62,189.35 -70.86,447.95 83.16,601.25 107.51,-115.8 58.79,-317.9 -63.37,-418.2 -122.12,-100.31 -290.2,-121.67 -448.25,-122.52 -50.04,-0.3 -102.49,1.7 -145.86,26.67 -69.37,39.97 -95.87,126.65 -104.71,206.15 -10.57,95.7 -3.9,193.2 18.86,286.7 29.91,123 208.14,112.4 225.04,-13 12.15,-90.4 -9.13,-188.8 -62.78,-263 -108.69,-150.29 -303.66,-213.54 -488.73,-226.41 -86.73,-6.03 -180.01,-1.14 -250.65,49.57 -70.59,50.64 -103.43,161.24 -46.55,227.04 60.91,70.4 185.66,44.1 241.81,-30.2 56.16,-74.2 59.94,-175.22 50.72,-267.9 -19.71,-197.6 -127.56,-422.72 -325.15,-442.26 -199.98,-19.75 -345.72,177.98 -447.02,351.49 108.91,80.24 275.29,24.51 354.93,-84.82 79.64,-109.38 92.64,-252.86 91.19,-388.15 -1.18,-110.61 -12.1,-227.03 -74.84,-318.15 -62.74,-91.15 -192.75,-144.37 -288.33,-88.64 -95.57,55.73 -89.28,233.44 18.78,257.02 53.77,11.72 107.63,-15.25 155.84,-41.76 120.72,-66.3 243.65,-138.21 325.33,-249.12 81.64,-110.9 111.71,-271.38 35.68,-386.19 -47.15,-71.23 -126.45,-114.51 -181.84,-179.46 -55.43,-64.99 -77.99,-176.83 -9.56,-227.93 27.99,-20.89 64.31,-25.99 98.93,-30.37 662.11,-83.84 1326.78,-147.73 1992.72,-191.52 89.92,-5.9 186.25,-9.98 263.26,36.74 108.53,65.84 140.17,206.86 154.83,332.93 12.57,108.36 19.2,222.49 -24.72,322.39 -4.38,9.98 -9.43,19.75 -15.08,29.27 -50.97,85.71 -181.08,11.72 -134.52,-76.5 214.76,-407.13 385.97,-837.25 509.5,-1280.7 27.99,-100.45 52.96,-210.81 10.83,-306.21 -72.34,-163.83 -289.73,-190.46 -468.85,-192.11 -685.74,-6.25 -1371.68,4.75 -2056.86,32.91 -350.6,14.4 -700.98,33.3 -1051.03,56.71 -173.34,11.6 -352.97,12.78 -524.83,38.48 -214.46,32.11 -189.91,31.99 -192.71,255.58 -17.65,1390.71 -4.77,2784.09 47.14,4173.97 4.12,109.9 14.61,233.6 99.02,304.3 69.06,57.8 167.01,61.7 257.06,62.7 2695.1,31.3 5390.91,1.9 8084.71,-88.3 60,-1.9 123.3,-5 173.7,-37.6 92.4,-59.9 102.5,-188.9 102.7,-299.1 3.4,-1588.09 -15.5,-3176.27 -56.6,-4763.86 -1.6,-61.84 -7,-131.84 -55.1,-170.83 -35.5,-28.93 -84.8,-32.2 -130.6,-34.15 -1964,-83.81 -3944.44,30.45 -5903.39,-98.76 1138.91,20.39 2279.39,37.55 3417.59,-17.42 297.6,-14.35 543.8,-231.36 759.9,-415.07 163.1,-138.52 318.3,-286.16 468.6,-438.31 95.6,-96.68 377.3,-302.01 382.7,-448.59 4.3,-114.69 -331.8,-230.52 -395,-237.87 H 16300"
           style="fill:none;stroke:#000000;stroke-width:42.476;stroke-linecap:butt;stroke-linejoin:miter;stroke-miterlimit:10;stroke-dasharray:none;stroke-opacity:1"
           id="path14" /></g></g></g></svg>
