<?xml version="1.0" encoding="UTF-8" standalone="no"?>
<!-- Created with Inkscape (http://www.inkscape.org/) -->

<svg
   version="1.1"
   id="svg2"
   xml:space="preserve"
   width="6666.6562"
   height="4666.6597"
   viewBox="0 0 6666.6562 4666.6597"
   sodipodi:docname="885883f5dc5905c357b3cba22fe5739d.eps"
   xmlns:inkscape="http://www.inkscape.org/namespaces/inkscape"
   xmlns:sodipodi="http://sodipodi.sourceforge.net/DTD/sodipodi-0.dtd"
   xmlns="http://www.w3.org/2000/svg"
   xmlns:svg="http://www.w3.org/2000/svg"><defs
     id="defs6" /><sodipodi:namedview
     id="namedview4"
     pagecolor="#ffffff"
     bordercolor="#666666"
     borderopacity="1.0"
     inkscape:pageshadow="2"
     inkscape:pageopacity="0.0"
     inkscape:pagecheckerboard="0" /><g
     id="g8"
     inkscape:groupmode="layer"
     inkscape:label="ink_ext_XXXXXX"
     transform="matrix(1.3333333,0,0,-1.3333333,0,4666.6595)"><g
       id="g10"
       transform="scale(0.1)"><g
         id="g12"
         transform="scale(3.06748)"><path
           d="M 16300,0 H 0 V 11410 H 16300 V 0"
           style="fill:transparent;fill-opacity:1;fill-rule:nonzero;stroke:none"
           id="path14" /></g><g
         id="g16"
         transform="scale(2.7683)"><path
           d="M 16300,1925.51 H 8402.16 c 983.45,443.05 1976.14,1290.14 2003.24,2346.35 27.1,1056.17 622.9,1706.14 1086.4,1931.15 122.1,59.28 158.8,144.31 103.9,268.43 -54.8,124.12 -144.3,158.76 -268.4,103.93 -124.1,-54.87 -158.8,-144.35 -103.9,-268.43 298.2,-766.18 -862.4,-1294.01 -1261.58,-779.98 l -1010.34,1279.31 421.02,186.03 605.93,-779.07 -168.04,972.55 246.51,108.91 604.1,-783.66 -157.8,980.9 165,72.93 244.5,-1617.71 -272.9,-120.58 -549.1,699.2 144,-878.23 C 10342.4,4990.86 8503.48,4357.98 8163.2,4732.22 l -1010.29,1279.3 420.98,186.04 605.93,-779.07 -168.01,972.54 246.43,108.91 604.2,-783.65 -157.82,980.89 165.01,72.93 244.52,-1617.71 -272.91,-120.58 -549.18,699.2 144.05,-878.22 C 8558.17,4108.69 6633.6,3541.38 6364.63,3937.47 l -1010.33,1279.3 420.98,186.04 605.96,-779.07 -168.04,972.54 246.43,108.92 604.2,-783.66 -157.82,980.89 165.01,72.93 244.52,-1617.7 -272.92,-120.62 -549.18,699.24 144.06,-878.23 C 6850.99,2745.58 5375.07,2187.12 5084.31,2878.26 L 3556.3,6336.27 10556.6,9429.51 C 8784.96,8674.17 7308.96,8620.63 7739.8,8837.55 c 504.43,253.96 551.03,80.95 186.61,-64.7 l -157.38,-69.53 c -176.47,-77.99 -382.73,1.84 -460.68,178.3 -77.99,176.47 1.84,382.72 178.3,460.69 l 157.39,69.55 c 176.46,77.97 391.76,1.85 460.68,-178.32 92.51,-241.71 654.23,31.55 912.33,160.59 258.06,129.04 275.98,-24.99 52.16,-116.31 l -157.39,-69.54 c -176.46,-77.97 -382.72,1.86 -460.68,178.32 -77.99,176.46 1.88,382.72 178.3,460.68 l 157.43,69.55 c 176.43,77.97 389.63,1.03 460.68,-178.32 88.28,-222.93 718.35,88.29 870.15,156.61 151.8,68.32 212.5,-60.1 94.3,-112.32 l -157.4,-69.55 c -176.45,-77.97 -382.67,1.86 -460.66,178.32 -77.96,176.43 1.87,382.73 178.34,460.73 l 157.39,69.5 c 176.43,78 658.63,179.3 1124.73,-772.36 l 1793,-4058 c 132,-298.63 -3.6,-648.91 -302.2,-780.87 L 6481.88,2131.34 C 5689.92,1803.31 4700.9,1952.24 4127.8,3284.98 L 2745.37,6413.57 c -140.62,318.25 -148.9,672.22 -23.3,996.68 125.6,324.46 370.04,580.61 688.29,721.24 L 9825.27,10966 c 318.23,140.7 672.23,148.9 996.63,23.3 324.5,-125.6 580.7,-370 721.3,-688.2 l 1954.1,-4422.51 c 140.7,-318.25 148.9,-672.22 23.3,-996.68 -125.6,-324.46 -370,-580.61 -688.3,-721.23 L 6417.44,1326.12 c -318.25,-140.63 -672.22,-148.9 -996.68,-23.3 -250.84,97.1 -460.82,265.22 -608.2,483.55 -86.19,127.69 -229.71,204.78 -383.81,204.82 l -3049.93,1.01"
           style="fill:none;stroke:#1a1a1a;stroke-width:54.1849;stroke-linecap:round;stroke-linejoin:round;stroke-miterlimit:10;stroke-dasharray:none;stroke-opacity:1"
           id="path18" /></g></g></g></svg>
