<svg width="100" height="70" viewBox="0 0 100 70" fill="none" xmlns="http://www.w3.org/2000/svg">
<path d="M90.2467 59.3392H46.5195C51.9644 56.8862 57.4606 52.1962 57.6106 46.3484C57.7606 40.5008 61.0594 36.9021 63.6256 35.6563C64.3016 35.3281 64.5048 34.8574 64.2008 34.1702C63.8974 33.483 63.4019 33.2912 62.7148 33.5947C62.0277 33.8985 61.8356 34.3939 62.1395 35.0809C63.7906 39.323 57.3648 42.2454 55.1547 39.3994L49.5608 32.3163L51.8918 31.2864L55.2466 35.5998L54.3163 30.2151L55.6811 29.6121L59.0258 33.951L58.1521 28.5201L59.0656 28.1163L60.4193 37.0729L58.9084 37.7405L55.8682 33.8694L56.6655 38.7318C57.2618 42.3675 47.0804 45.8716 45.1964 43.7995L39.6028 36.7166L41.9336 35.6865L45.2884 39.9999L44.3582 34.6154L45.7226 34.0124L49.0678 38.3511L48.1941 32.9203L49.1076 32.5165L50.4615 41.4732L48.9505 42.1408L45.9099 38.2696L46.7074 43.1319C47.3832 47.2518 36.7276 50.3928 35.2384 48.1998L29.6446 41.1168L31.9754 40.0867L35.3304 44.4001L34.4 39.0156L35.7644 38.4125L39.1096 42.7513L38.2359 37.3205L39.1495 36.9168L40.5033 45.8733L38.9922 46.5412L35.9516 42.6697L36.7492 47.5322C37.9312 54.7988 29.7596 57.8908 28.1498 54.0642L19.6898 34.9185L58.4477 17.7925C48.6389 21.9745 40.4668 22.2709 42.8522 21.0699C45.6451 19.6639 45.9031 20.6217 43.8854 21.4282L43.0141 21.8131C42.037 22.2449 40.895 21.8029 40.4635 20.8259C40.0317 19.8489 40.4736 18.707 41.4506 18.2753L42.322 17.8902C43.299 17.4585 44.4911 17.88 44.8726 18.8775C45.3848 20.2157 48.4949 18.7028 49.9239 17.9884C51.3526 17.2739 51.4518 18.1267 50.2126 18.6323L49.3412 19.0173C48.3642 19.449 47.2223 19.007 46.7906 18.0301C46.3588 17.0531 46.801 15.9111 47.7778 15.4795L48.6494 15.0944C49.6263 14.6627 50.8067 15.0887 51.2 16.0817C51.6888 17.3159 55.1773 15.5928 56.0177 15.2146C56.8582 14.8363 57.1942 15.5473 56.5398 15.8365L55.6684 16.2215C54.6914 16.6532 53.5497 16.2112 53.1179 15.2342C52.6862 14.2574 53.1282 13.1152 54.1053 12.6834L54.9767 12.2986C55.9535 11.8667 58.6232 11.3058 61.2039 16.5748L71.131 39.0424C71.8618 40.6958 71.1111 42.6351 69.4578 43.3657L35.8876 58.1996C31.5028 60.0158 26.027 59.1912 22.854 51.8123L15.2 34.4906C14.4215 32.7285 14.3756 30.7687 15.071 28.9723C15.7664 27.1759 17.1198 25.7577 18.8818 24.9791L54.3986 9.28554C56.1606 8.50654 58.1205 8.46114 59.9166 9.15654C61.7132 9.85194 63.1317 11.2051 63.9102 12.9668L74.7292 37.4525C75.5082 39.2146 75.5536 41.1744 74.8582 42.9708C74.1628 44.7672 72.8097 46.1854 71.0474 46.9639L35.5308 62.6578C33.7688 63.4364 31.809 63.4822 30.0126 62.7868C28.6238 62.2492 27.4612 61.3184 26.6452 60.1096C26.168 59.4026 25.3734 58.9758 24.5202 58.9755L7.63397 58.97" stroke="#333333" stroke-width="2" stroke-miterlimit="10" stroke-linecap="round" stroke-linejoin="round"/>
</svg>
