<?xml version="1.0" encoding="UTF-8" standalone="no"?>
<!-- Created with Inkscape (http://www.inkscape.org/) -->

<svg
   version="1.1"
   id="svg2"
   xml:space="preserve"
   width="7999.9961"
   height="5333.3472"
   viewBox="0 0 7999.9961 5333.3472"
   sodipodi:docname="af884f8cecb4713d4f64df7b77170f7e.eps"
   xmlns:inkscape="http://www.inkscape.org/namespaces/inkscape"
   xmlns:sodipodi="http://sodipodi.sourceforge.net/DTD/sodipodi-0.dtd"
   xmlns="http://www.w3.org/2000/svg"
   xmlns:svg="http://www.w3.org/2000/svg"><defs
     id="defs6" /><sodipodi:namedview
     id="namedview4"
     pagecolor="#ffffff"
     bordercolor="#666666"
     borderopacity="1.0"
     inkscape:pageshadow="2"
     inkscape:pageopacity="0.0"
     inkscape:pagecheckerboard="0" /><g
     id="g8"
     inkscape:groupmode="layer"
     inkscape:label="ink_ext_XXXXXX"
     transform="matrix(1.3333333,0,0,-1.3333333,0,5333.3472)"><g
       id="g10"
       transform="scale(0.1)"><g
         id="g12"
         transform="scale(3.68098)"><path
           d="M 16300,10866.7 H 0 V 0 h 16300 v 10866.7"
           style="fill:transparent;fill-opacity:1;fill-rule:nonzero;stroke:none"
           id="path14" /></g><g
         id="g16"
         transform="scale(3.53517)"><path
           d="m 672.132,4094.31 c 298.584,-27.62 597.438,-55.31 842.788,-55.32 118.79,0.01 225.05,6.47 313.15,22.83 44.05,8.2 83.58,18.87 117.96,32.65 34.36,13.79 63.63,30.69 86.8,51.65 16.2,14.66 29.12,31.12 39.25,48.68 15.2,26.35 24.15,55.06 29.34,84.33 5.18,29.28 6.63,59.21 6.63,88.4 -0.01,40.97 -2.85,80.62 -2.84,114.61 0,17.1 0.72,32.73 2.7,46.17 1.48,10.08 3.67,18.9 6.59,26.2 2.18,5.48 4.76,10.1 7.71,13.95 2.23,2.9 4.66,5.38 7.44,7.56 4.17,3.25 9.12,5.86 15.54,7.77 6.41,1.89 14.3,3.03 23.96,3.03 18.35,0.03 42.99,-4.19 74.54,-14.07 35.37,-11.05 79.57,-29.17 129.68,-52.39 87.76,-40.64 193.81,-96.87 305.32,-158.3 167.32,-92.17 346.98,-196.04 497.05,-277.02 75.07,-40.49 142.7,-75.27 198.03,-100.11 27.68,-12.42 52.27,-22.36 73.42,-29.31 10.58,-3.48 20.31,-6.22 29.25,-8.13 8.95,-1.89 17.09,-3 24.77,-3.01 3.11,0 6.14,0.19 9.14,0.63 h 0.01 c 4.53,0.66 8.96,1.9 13.14,4 3.12,1.56 6.09,3.62 8.64,6.13 3.85,3.75 6.65,8.45 8.27,13.23 1.65,4.8 2.25,9.65 2.25,14.44 -0.02,8.06 -1.65,16.11 -4.23,24.69 -4.88,16.02 -13.34,34.04 -24.38,54.43 -19.33,35.59 -46.7,78.14 -76.99,124.56 -45.41,69.56 -97.33,147.71 -137.63,221.67 -20.14,36.97 -37.36,72.88 -49.4,105.85 -12.08,32.96 -18.85,63 -18.81,87.66 0,8.49 0.78,16.33 2.33,23.5 2.33,10.77 6.32,19.97 12.19,28.03 5.9,8.04 13.75,15.08 24.54,21.11 12.88,7.21 30.32,12.94 51.75,16.7 21.42,3.79 46.77,5.65 75.38,5.64 43.45,0.01 94.41,-4.26 151,-12.09 99.06,-13.7 215.39,-38.27 340,-69.46 186.94,-46.78 392.6,-108.41 587.65,-170.37 195.07,-61.98 379.54,-124.28 524.37,-172.46 257.06,-85.51 388.78,-126.36 458.18,-146.19 34.72,-9.91 53.86,-14.58 65.57,-16.97 5.84,-1.19 9.9,-1.81 12.89,-2.18 1.48,-0.19 2.67,-0.31 3.52,-0.41 0.87,-0.09 1.35,-0.15 1.62,-0.19 1.11,-0.18 2.85,-0.71 4.98,-1.74 3.2,-1.52 7.17,-4.12 11.29,-7.2 4.14,-3.07 8.42,-6.57 12.85,-9.9 0.67,-0.5 1.64,-1.23 2.91,-2.04 1.18,-0.76 2.6,-1.57 4.16,-2.29 2.93,-1.36 6.18,-2.39 9.9,-3.21 6.55,-1.43 14.89,-2.42 28.07,-3.31 19.74,-1.32 50.32,-2.3 99.98,-2.96 49.64,-0.67 118.29,-1.01 213.83,-1.01 31.9,0 66.81,0.04 105,0.12 434.7,0.87 1295.54,6.79 1736.54,10.8 110.25,1 194.27,1.88 258.82,2.98 48.42,0.83 85.89,1.77 115.32,2.99 44.17,1.85 70.17,4.21 88.68,8.04 9.23,1.92 16.7,4.3 23.15,7.24 6.45,2.92 11.68,6.33 16.33,9.61 8.31,5.87 16.97,12.83 25.69,20.41 13.05,11.36 26.19,24.09 37.88,36.43 11.7,12.35 21.9,24.21 29.27,34.25 5.16,7.05 8.89,13.15 11.54,18.93 1.32,2.89 2.37,5.72 3.11,8.59 0.74,2.87 1.19,5.8 1.19,8.83 0,2.73 -0.38,5.55 -1.21,8.23 -1.23,4.05 -3.52,7.66 -6.03,10.24 -2.52,2.62 -5.13,4.31 -7.36,5.51 -2.07,1.11 -4.46,2.09 -7.04,2.75 -2.57,0.67 -5.32,1.01 -8.03,1.01 -5.56,-0.01 -10.83,-1.31 -16.19,-3.35 -5.38,-2.06 -10.99,-4.91 -17.51,-8.74 -9.67,-5.7 -21.18,-13.47 -32.89,-21.33 -11.68,-7.85 -23.51,-15.78 -32.97,-21.39 -2.39,-1.41 -3.77,-2.18 -5.73,-2.97 -1.72,-0.69 -4.03,-1.44 -7.76,-2.24 -6.51,-1.4 -17.21,-2.83 -34.7,-4.12 -26.26,-1.94 -67.75,-3.63 -134.46,-5.25 -66.74,-1.62 -158.75,-3.19 -286.4,-4.95 -444.59,-6.14 -1321.31,-14.63 -1766.61,-17.99 -222.65,-1.68 -337.44,-2.07 -398.63,-2.25 -30.61,-0.09 -47.79,-0.12 -58.51,-0.24 -5.36,-0.06 -9.13,-0.13 -12.23,-0.26 -3.08,-0.12 -5.55,-0.31 -7.87,-0.54 -9.25,-0.93 -18.67,-2.75 -28.06,-4.93 -9.38,-2.18 -18.73,-4.73 -27.68,-7.19 -8.67,-2.39 -16.94,-4.67 -24.02,-6.29 -3.54,-0.81 -6.78,-1.46 -9.55,-1.88 -2.76,-0.42 -5.06,-0.6 -6.58,-0.6 l -0.55,0.01 h 0.03 c -0.68,0.01 -1.06,0.07 -1.19,0.09 l -0.04,0.01 -0.18,-0.76 0.24,0.74 -0.06,0.02 -0.18,-0.76 0.24,0.74 -0.77,-2.36 1.2,2.17 -0.43,0.19 -0.77,-2.36 1.2,2.17 -0.88,-1.59 1.14,1.43 -0.26,0.16 -0.88,-1.59 1.14,1.43 -0.06,-0.07 0.06,0.07 v 0 l -0.06,-0.07 0.06,0.07 c -0.02,0.01 -0.3,0.26 -0.81,0.92 -0.75,0.99 -1.96,2.91 -3.42,5.82 -1.46,2.91 -3.2,6.78 -5.21,11.62 -4.56,10.96 -10.36,26.41 -15.71,43.33 -5.36,16.92 -10.26,35.35 -13.11,52.16 -2.37,13.94 -3.41,27.02 -3.41,39.89 0,18.14 2.07,35.91 5.6,54.97 3.01,16.29 7.06,33.34 11.53,49.1 4.46,15.76 9.37,30.28 13.93,41.33 4.53,11.05 8.77,18.46 12.11,22.43 1.66,2.01 3.02,3.17 4.07,3.85 1.06,0.68 1.8,0.96 2.8,1.18 0.62,0.13 1.41,0.22 2.39,0.22 2.69,0.03 6.81,-0.77 11.39,-2.46 4.6,-1.67 9.63,-4.15 14.41,-6.92 5.67,-3.26 11,-6.89 16.23,-10.58 5.23,-3.67 10.32,-7.4 15.71,-10.81 0.66,-0.41 1.75,-1.1 3.16,-1.82 1.31,-0.67 2.86,-1.34 4.48,-1.89 3.08,-1.05 6.36,-1.75 10.46,-2.36 7.18,-1.05 17.21,-1.84 33.78,-2.55 24.82,-1.05 64.25,-1.84 128.8,-2.38 64.53,-0.54 154.12,-0.82 279.04,-0.82 4.54,0 9.12,0 13.75,0 446.69,0.08 1331.49,3.58 1780.27,4.59 224.4,0.5 339.74,0.38 403.07,0.86 31.69,0.24 50.37,0.63 63.51,1.35 6.57,0.36 11.78,0.81 16.43,1.38 4.65,0.57 8.68,1.26 12.73,2.02 16.18,3.02 36.56,7.81 56.31,13.11 9.87,2.65 19.56,5.42 28.47,8.17 8.92,2.76 17.03,5.48 23.87,8.09 6.39,2.45 11.63,4.78 16.16,7.26 3.39,1.87 6.4,3.84 9.14,6.13 2.04,1.71 3.93,3.63 5.57,5.78 2.47,3.22 4.26,7.03 5.16,10.56 0.92,3.54 1.07,6.65 1.07,9.09 0,0.85 -0.02,1.58 -0.03,2.19 l -0.01,0.09 c -0.18,5.29 -0.77,11.12 -2,17.02 -0.62,2.95 -1.39,5.92 -2.44,8.9 -1.05,2.98 -2.35,5.97 -4.24,9 -0.42,0.67 -1.46,2.31 -3.15,4 -1.56,1.59 -3.58,3.03 -5.48,4 -1.8,0.93 -3.5,1.54 -5.16,2.02 -3.1,0.88 -6.16,1.37 -10.1,1.83 -6.85,0.77 -16.42,1.33 -31.44,1.81 -22.49,0.7 -57.09,1.18 -111.19,1.48 -54.1,0.3 -127.67,0.42 -227.93,0.42 -31.34,0 -65.29,-0.01 -102.07,-0.03 -286.28,-0.18 -743.87,-1.02 -1165.61,-1.02 -273.46,0 -531.84,0.36 -718.62,1.46 -237.39,1.42 -359.15,4.05 -423.46,6.37 -32.16,1.15 -49.93,2.23 -60.64,3.02 -5.37,0.39 -8.96,0.72 -11.93,0.97 -2.94,0.25 -5.42,0.44 -8.19,0.49 -0.43,0.01 -0.88,0.02 -1.34,0.02 -10.71,-0.03 -21.14,-2.08 -31.37,-4.41 -10.19,-2.36 -20.15,-5.08 -29.09,-6.97 -10.6,-2.25 -20.27,-3.47 -28.97,-3.47 -6.27,0 -12.03,0.62 -17.43,1.89 -3.23,0.77 -5.82,1.65 -8.2,2.86 -1.78,0.91 -3.48,2.01 -5.32,3.59 -2.74,2.37 -5.84,5.89 -9.28,11.53 -3.44,5.63 -7.15,13.35 -10.96,23.7 -3.4,9.21 -6.88,20.52 -10.15,33.17 -9.84,37.96 -17.68,88.02 -17.65,132.23 0,29.46 3.42,56.79 9.17,80.92 5.73,24.13 13.81,45.07 22.93,61.66 9.11,16.58 19.35,29.09 29.36,38.42 10,9.31 19.82,15.45 27.9,19.12 4,1.81 7.45,2.98 10.46,3.69 3.03,0.71 5.62,0.99 8.08,0.99 2.51,0 4.9,-0.29 7.46,-0.87 2.56,-0.58 5.28,-1.46 8.31,-2.66 5.99,-2.36 12.86,-5.89 20.1,-9.63 7.27,-3.74 14.88,-7.68 23.08,-10.73 2.02,-0.76 5.06,-1.75 8.55,-2.41 5.3,-1.01 11.62,-1.56 22.37,-1.97 10.75,-0.39 25.99,-0.59 48.79,-0.59 61.62,0 178.52,1.46 407.65,4.68 455.08,6.4 1352.7,19.79 1804.4,24.81 127.63,1.41 219.65,2.16 286.55,2.16 42.47,0 74.81,-0.3 99.67,-0.92 37.27,-0.91 57.77,-2.61 69.63,-4.78 5.94,-1.08 9.64,-2.19 12.74,-3.39 3.09,-1.2 5.82,-2.62 9.74,-4.7 14.42,-7.63 34.5,-18.19 54.33,-28.93 19.81,-10.73 39.45,-21.68 52.52,-29.78 5.61,-3.48 10.01,-6.42 13.33,-8.86 5,-3.64 7.46,-6.23 8,-7.03 l 0.15,-0.2 0.02,-0.03 0.59,0.36 -0.61,-0.32 0.02,-0.04 0.59,0.36 -0.61,-0.32 3.83,2.03 -4.19,-1.06 c 0.12,-0.49 0.3,-0.86 0.36,-0.97 l 3.83,2.03 -4.19,-1.06 5.85,1.47 h -6.03 c -0.01,-0.4 0.06,-0.98 0.18,-1.47 l 5.85,1.47 h -6.03 4.22 l -4.19,0.53 -0.03,-0.53 h 4.22 l -4.19,0.53 1.15,-0.15 -1.14,0.21 -0.01,-0.06 1.15,-0.15 -1.14,0.21 -0.02,-0.1 v 0.04 c -0.14,-0.71 -0.76,-2.24 -2.14,-3.77 -1.38,-1.54 -3.44,-3.14 -6.6,-4.35 -2.49,-0.94 -5.35,-1.63 -10.33,-1.65 -3.79,0 -8.75,0.47 -15.18,1.73 -6.42,1.27 -14.3,3.33 -23.86,6.42 -15.84,5.11 -36.48,13.1 -56.49,21.26 -20.03,8.16 -39.49,16.51 -53.51,22.46 -2.51,1.07 -5.12,2.18 -8.1,3.28 -5.23,1.93 -11.41,3.64 -19.33,4.92 -11.94,1.92 -28.13,3.14 -55.19,3.97 -27.05,0.81 -64.97,1.19 -119.95,1.19 -66.35,0 -157.52,-0.55 -284.14,-1.55 -446.34,-3.53 -1333.23,-12.69 -1783.14,-15.19 -91.13,-0.5 -164.33,-0.74 -223.24,-0.74 -115.92,0 -176.59,0.91 -209.3,2.38 -16.33,0.73 -25.66,1.62 -30.98,2.46 -2.67,0.42 -4.3,0.81 -5.53,1.15 -1.23,0.35 -2.16,0.69 -3.7,1.27 -7.66,2.89 -16.33,6.36 -25.1,9.43 -4.39,1.54 -8.82,2.98 -13.24,4.19 -4.42,1.21 -8.83,2.2 -13.32,2.79 -2.29,0.3 -4.68,0.5 -7.21,0.5 -4.3,0.01 -9.11,-0.62 -13.83,-2.45 -3.54,-1.36 -6.93,-3.36 -9.92,-5.8 -4.51,-3.69 -8.11,-8.22 -11.31,-13.44 -3.19,-5.23 -6.02,-11.23 -8.86,-18.37 -5.75,-14.52 -11.63,-34.22 -16.27,-57.32 -4.62,-23.08 -7.95,-49.48 -8.27,-77.05 -0.01,-1.43 -0.02,-2.87 -0.02,-4.31 0,-26.88 2.77,-54.04 6.63,-78.43 3.86,-24.41 8.81,-45.97 13.39,-61.77 2.21,-7.6 4.34,-13.94 6.61,-19.43 1.71,-4.11 3.49,-7.75 5.55,-11.1 1.55,-2.5 3.27,-4.84 5.28,-6.99 2.99,-3.22 6.79,-6.02 10.97,-7.73 4.18,-1.75 8.46,-2.33 12.07,-2.32 1.21,0 2.35,0.06 3.42,0.15 h 0.02 c 4.2,0.37 8.03,1.26 11.72,2.34 5.53,1.63 10.79,3.73 15.83,5.83 5.03,2.11 9.83,4.22 14.07,5.88 1.43,0.55 1.69,0.66 3.1,1 2.4,0.58 8.49,1.48 22.11,2.27 20.45,1.23 57.65,2.38 126.81,3.55 69.18,1.18 170.4,2.38 319.31,3.75 453.83,4.16 1350.59,9.81 1804.54,11 67.32,0.18 124.9,0.26 174.23,0.26 141.64,0 215.25,-0.65 255.9,-1.47 20.32,-0.41 32.37,-0.85 40.55,-1.28 8.18,-0.43 12.53,-0.83 18.05,-1.2 11.43,-0.76 25.27,-1.18 39.06,-1.18 8.6,0 17.17,0.16 25.1,0.52 7.95,0.36 15.22,0.9 21.5,1.72 4.17,0.55 7.98,1.22 11.77,2.32 2.84,0.84 5.7,1.92 8.58,3.59 2.14,1.25 4.3,2.86 6.21,4.86 2.91,2.97 5.08,6.82 6.22,10.51 1.17,3.71 1.49,7.19 1.5,10.41 -0.03,5.48 -0.88,10.48 -1.96,16.13 -1.06,5.36 -2.42,11.34 -3.88,17.83 -2.2,9.71 -4.65,20.54 -6.6,31.46 -1.96,10.91 -3.42,21.91 -3.72,31.68 -0.05,1.44 -0.08,2.86 -0.08,4.26 0.03,24.02 6.56,43.53 15.52,59.33 4.73,8.35 10.63,16.25 16.61,25.44 2.97,4.59 5.94,9.52 8.61,14.97 2.67,5.45 5.04,11.44 6.76,18.02 1.69,6.48 2.67,13.09 3.27,19.7 0.59,6.61 0.79,13.21 0.79,19.6 -0.01,13.17 -0.83,25.61 -1.03,34.59 -0.05,1.78 -0.07,3.43 -0.07,4.96 0,3.44 0.11,6.3 0.29,8.57 0.24,3.38 0.75,5.43 0.86,5.7 l 0.01,0.03 -2.56,0.95 2.44,-1.23 0.12,0.28 -2.56,0.95 2.44,-1.23 -7.07,3.59 6.06,-5.08 c 0.56,0.67 0.86,1.2 1.01,1.49 l -7.07,3.59 6.06,-5.08 -8.5,7.12 6.05,-9.27 c 1.07,0.69 1.9,1.49 2.45,2.15 l -8.5,7.12 6.05,-9.27 h 0.01 l -5.72,8.76 3.56,-9.86 c 0.38,0.15 1.15,0.44 2.16,1.1 l -5.72,8.76 3.56,-9.86 -2.07,5.73 1.79,-5.82 0.28,0.09 -2.07,5.73 1.79,-5.82 -0.4,1.31 0.38,-1.32 0.02,0.01 -0.4,1.31 0.38,-1.32 c 0.02,0.01 0.19,0.06 0.58,0.17 0.31,0.08 0.74,0.2 1.4,0.43 0.51,0.18 1.14,0.41 2,0.82 0.65,0.3 1.43,0.71 2.36,1.33 1.37,0.94 3.23,2.41 4.92,4.98 0.84,1.27 1.59,2.81 2.08,4.46 0.51,1.66 0.75,3.41 0.74,5.02 0,2.51 -0.54,4.62 -1.14,6.21 -0.57,1.49 -1.2,2.59 -1.76,3.46 -1.07,1.61 -1.93,2.5 -2.65,3.24 -1.27,1.24 -2.21,1.96 -3.21,2.74 -1.49,1.12 -3.09,2.22 -5.17,3.63 -2.08,1.4 -4.61,3.07 -7.77,5.15 -10.01,6.57 -26.49,17.31 -44.05,28.5 -17.57,11.19 -36.17,22.82 -50.66,31.28 -3.08,1.8 -6.43,3.74 -10.43,5.59 -3.5,1.62 -7.44,3.14 -11.92,4.44 -7.88,2.29 -17.33,3.98 -30.4,5.35 -19.62,2.05 -47.63,3.38 -91.33,4.25 -43.69,0.86 -103.03,1.22 -184.9,1.22 -48.84,0 -105.7,-0.13 -172.02,-0.36 -453.52,-1.61 -1349.61,-8.09 -1811.28,-14.9 -230.85,-3.41 -353.06,-6.9 -420.17,-9.63 -33.55,-1.36 -53.35,-2.54 -66.02,-3.42 -6.33,-0.43 -10.87,-0.8 -14.34,-1.06 -3.46,-0.27 -5.78,-0.43 -7.76,-0.49 -0.77,-0.03 -1.52,-0.04 -2.25,-0.04 -7.15,-0.01 -11.89,1.21 -14.6,2.54 -1.37,0.68 -2.29,1.35 -3.03,2.07 -0.73,0.72 -1.32,1.49 -1.87,2.57 -0.75,1.47 -1.51,3.74 -2.04,7.64 -0.53,3.86 -0.78,9.2 -0.77,16 0,6.99 0.23,15.51 0.45,25.69 0.32,15.01 0.58,33.2 1.25,50.61 0.34,8.7 0.78,17.2 1.37,24.95 0.58,7.74 1.33,14.75 2.22,20.31 0.22,1.39 0.4,2.3 0.52,2.71 l 0.09,0.29 -1.3,0.5 1.22,-0.66 0.08,0.16 -1.3,0.5 1.22,-0.66 -2.18,1.18 1.77,-1.75 0.41,0.57 -2.18,1.18 1.77,-1.75 -0.39,0.39 0.36,-0.41 0.03,0.02 -0.39,0.39 0.36,-0.41 c 0.01,0.01 0.25,0.22 0.9,0.58 1.21,0.68 3.9,1.82 8.34,2.96 7.77,2.04 20.69,4.08 40.08,5.81 29.12,2.63 72.89,4.67 137.82,6.31 64.95,1.65 151.11,2.91 265.38,4.03 457.5,4.5 1365.19,6.75 1822.86,7.29 61.22,0.07 114.39,0.11 160.57,0.11 149.51,0 225.91,-0.43 264.93,-1.6 9.73,-0.29 17.12,-0.63 22.63,-1 4.12,-0.28 7.19,-0.59 9.31,-0.87 1.59,-0.21 2.64,-0.42 3.13,-0.54 l 0.31,-0.08 0.15,0.49 -0.17,-0.49 h 0.02 l 0.15,0.49 -0.17,-0.49 1.99,5.85 -2.83,-5.47 c 0.47,-0.25 0.77,-0.35 0.84,-0.38 l 1.99,5.85 -2.83,-5.47 5.05,9.75 -7.66,-7.85 c 0.82,-0.81 1.91,-1.56 2.61,-1.9 l 5.05,9.75 -7.66,-7.85 7.82,8.02 -8.78,-6.95 c 0.22,-0.28 0.55,-0.67 0.96,-1.07 l 7.82,8.02 -8.78,-6.95 6.99,5.53 -7.23,-5.22 0.24,-0.31 6.99,5.53 -7.23,-5.22 3.36,2.42 -3.42,-2.33 0.06,-0.09 3.36,2.42 -3.42,-2.33 c 0.11,-0.14 0.67,-1.11 1.38,-2.97 1.09,-2.76 2.5,-7.35 4.44,-13.22 1.95,-5.89 4.48,-13.08 8.09,-21.42 4.79,-11.08 11,-23.29 16.24,-35.19 2.61,-5.93 4.97,-11.74 6.78,-17.09 1.81,-5.35 3.03,-10.23 3.53,-14.1 0.22,-1.71 0.32,-3.33 0.32,-4.78 0,-1.83 -0.16,-3.4 -0.39,-4.52 -0.16,-0.84 -0.35,-1.43 -0.45,-1.67 l -0.06,-0.13 5.12,-2.62 -3.41,4.45 c -1.37,-1.07 -1.69,-1.83 -1.71,-1.83 l 5.12,-2.62 -3.41,4.45 6.12,-7.99 -3.37,9.47 c -1.13,-0.4 -2.08,-0.96 -2.75,-1.48 l 6.12,-7.99 -3.37,9.47 3.6,-10.12 v 10.75 c -1.18,0 -2.47,-0.22 -3.6,-0.63 l 3.6,-10.12 v 10.75 -9.39 l 3.27,8.83 c -0.75,0.28 -1.91,0.56 -3.27,0.56 v -9.39 l 3.27,8.83 -1.99,-5.36 3.07,4.84 c -0.16,0.11 -0.51,0.31 -1.08,0.52 l -1.99,-5.36 3.07,4.84 -1.09,-1.73 1.21,1.66 -0.12,0.07 -1.09,-1.73 1.21,1.66 -0.15,-0.21 0.15,0.2 v 0.01 l -0.15,-0.21 0.15,0.2 c -0.04,0.02 -0.98,0.84 -2.23,2.63 -1.86,2.59 -4.51,7.37 -7.06,13.12 -3.87,8.65 -7.69,19.58 -10.43,30.12 -1.37,5.27 -2.48,10.45 -3.23,15.17 -0.74,4.71 -1.12,8.97 -1.11,12.23 -0.03,3.02 0.37,5.17 0.54,5.64 l 0.01,0.01 0.04,0.13 0.01,0.01 -2.9,1.24 2.36,-2.03 c 0.37,0.42 0.53,0.77 0.54,0.79 l -2.9,1.24 2.36,-2.03 -3.97,3.41 1.89,-4.9 c 0.56,0.19 1.56,0.84 2.08,1.49 l -3.97,3.41 1.89,-4.9 -0.8,2.08 0.37,-2.22 c 0,0.01 0.16,0.03 0.43,0.14 l -0.8,2.08 0.37,-2.22 c 0,0.01 0.16,0.03 0.49,0.03 0.89,0.02 2.98,-0.24 5.72,-1.05 4.14,-1.18 9.73,-3.52 15.88,-6.66 6.16,-3.15 12.94,-7.07 19.87,-11.35 14.23,-8.76 28.97,-18.87 42.64,-28.25 6.84,-4.7 13.42,-9.21 19.6,-13.31 6.18,-4.11 11.94,-7.79 17.27,-10.87 7.11,-4.09 13.33,-7.05 19.4,-9.03 6.03,-1.99 11.98,-2.9 17.42,-2.88 5.49,0.01 10.23,0.81 14.56,1.59 6.51,1.2 14.11,2.82 21.67,5.09 3.79,1.13 7.58,2.43 11.27,3.98 3.71,1.56 7.33,3.35 10.83,5.66 2.76,1.85 5.97,4.26 8.9,8.26 1.43,1.98 2.74,4.38 3.62,7.03 0.89,2.65 1.34,5.53 1.34,8.31 -0.01,4.24 -0.97,8.16 -2.38,11.74 -2.14,5.39 -5.26,10.27 -9.42,15.66 -4.18,5.37 -9.46,11.21 -16.22,17.97 -7.47,7.47 -16.68,15.99 -26.83,25.04 -15.22,13.56 -32.54,28.29 -48.85,41.93 -16.31,13.63 -31.61,26.16 -42.71,35.25 -3,2.46 -6.29,4.95 -10.08,7.27 -3.31,2.04 -6.99,3.92 -11.06,5.57 -7.14,2.89 -15.36,5.05 -25.62,6.74 -15.39,2.54 -35.57,4.11 -64.84,5.12 -29.26,1 -67.58,1.41 -118.91,1.41 -71.39,0 -167.93,-0.79 -299.84,-1.9 -462.22,-3.86 -1386.6,-11.59 -1860.2,-18.28 -228.05,-3.22 -351.58,-6.2 -420.24,-8.38 -34.32,-1.09 -54.95,-1.98 -68,-2.6 -13.03,-0.62 -18.6,-0.95 -21.71,-0.94 -0.48,0 -0.92,0.01 -1.36,0.02 h 0.02 c -2.9,0.07 -4.41,0.46 -4.87,0.66 -0.37,0.18 -0.33,0.13 -0.68,0.46 -0.25,0.26 -0.7,0.79 -1.32,1.91 -0.92,1.65 -2.14,4.62 -3.26,9.1 -1.14,4.47 -2.2,10.42 -3.08,17.92 -1.07,9.17 -1.89,20.69 -2.42,33.25 -0.53,12.56 -0.79,26.17 -0.79,39.67 -0.01,25.48 0.93,50.69 2.51,67.42 0.2,2.15 0.4,3.88 0.62,5.11 0.2,1.16 0.41,1.86 0.54,2.22 0.14,0.34 0.18,0.39 0.24,0.47 0.06,0.08 0.15,0.21 0.55,0.53 0.72,0.59 2.7,1.83 6.66,3.17 3.45,1.18 8.33,2.42 14.76,3.57 11.27,2.03 27.27,3.8 49.08,5.26 32.75,2.2 78.64,3.76 142.42,5.02 63.78,1.26 145.49,2.23 250.1,3.28 471.67,4.76 1408.55,11.3 1879.97,14.72 120.21,0.87 210.14,1.54 277.87,1.54 49.46,0 87.08,-0.36 115.91,-1.24 21.61,-0.67 38.28,-1.63 51.18,-2.93 9.67,-0.96 17.2,-2.12 23.08,-3.41 4.41,-0.96 7.88,-1.99 10.69,-3.05 4.23,-1.6 6.99,-3.18 9.8,-5.2 2.78,-2.02 5.67,-4.65 9.41,-8.22 15.84,-15.11 38.59,-38.3 61.05,-61.8 22.48,-23.51 44.75,-47.42 59.83,-64.11 7.53,-8.34 13.26,-14.88 17.56,-19.98 6.45,-7.62 9.68,-12.16 10.73,-14 0.26,-0.45 0.39,-0.71 0.43,-0.79 l 0.01,-0.02 2.44,1.06 -2.53,-0.82 0.09,-0.24 2.44,1.06 -2.53,-0.82 5.74,1.86 -6.04,-0.19 c -0.03,-0.01 0.12,-1.22 0.3,-1.67 l 5.74,1.86 -6.04,-0.19 -0.01,0.07 1.5,0.04 h -1.5 v -0.04 l 1.5,0.04 h -1.5 10.1 l -9.92,1.79 c -0.18,-1.05 -0.17,-1.58 -0.18,-1.79 h 10.1 l -9.92,1.79 13.48,-2.44 -12.43,5.74 c -0.64,-1.4 -0.9,-2.51 -1.05,-3.3 l 13.48,-2.44 -12.43,5.74 13.5,-6.23 -11.29,9.67 c -1.01,-1.18 -1.72,-2.39 -2.21,-3.44 l 13.5,-6.23 -11.29,9.67 11.47,-9.82 -5.64,14.01 c -2.1,-0.82 -4.33,-2.4 -5.83,-4.19 l 11.47,-9.82 -5.64,14.01 5.23,-12.99 v 14.02 c -1.26,0 -3.11,-0.18 -5.23,-1.03 l 5.23,-12.99 v 14.02 -10.46 l 2.31,10.23 c -0.41,0.09 -1.14,0.23 -2.31,0.23 v -10.46 l 2.31,10.23 -1.2,-5.3 1.56,5.21 -0.36,0.09 -1.2,-5.3 1.56,5.21 -0.64,-2.13 0.69,2.11 -0.05,0.02 -0.64,-2.13 0.69,2.11 v 0 c -0.21,0.05 -2.36,1 -5.71,3.09 -3.38,2.09 -8.09,5.29 -14.22,9.8 -6.76,4.97 -15.32,11.58 -24.78,19.04 -14.2,11.2 -30.45,24.31 -46.09,36.92 -15.66,12.62 -30.7,24.72 -42.64,34.01 -3.97,3.07 -8.17,6.33 -13.42,9.42 -4.58,2.71 -9.86,5.17 -16.01,7.23 -10.8,3.6 -24.14,6.1 -43.6,8.1 -29.18,2.99 -72.44,4.8 -141.77,6.03 -69.31,1.22 -164.61,1.82 -297.3,2.26 -462.1,1.52 -1377.81,1 -1843.39,2.63 -232.75,0.81 -353.07,2.18 -416.71,4.91 -15.9,0.68 -28.23,1.44 -37.8,2.29 -14.35,1.25 -22.45,2.75 -26.66,4.03 -2.12,0.64 -3.25,1.15 -4.15,1.63 -0.9,0.48 -1.68,1 -3.06,2.03 -7.28,5.45 -14.41,12.23 -21.35,23.74 -6.89,11.52 -13.49,27.97 -18.15,52.43 -3.18,16.67 -5.46,37.32 -6.9,58.83 -1.45,21.52 -2.07,43.94 -2.07,64.44 -0.01,19.16 0.54,36.66 1.45,50.08 0.69,10.51 1.67,18.26 2.94,23.05 0.46,1.79 0.95,3.17 1.39,4.16 0.8,1.77 1.3,2.3 1.83,2.8 0.42,0.37 0.98,0.78 2.18,1.31 1.76,0.79 5.02,1.7 9.88,2.34 4.86,0.67 11.25,1.1 19.11,1.4 21.27,0.82 52.63,0.72 136.73,0.9 84.13,0.19 221.1,0.66 454.41,2.66 466.58,3.99 1318.5,14.09 1751.9,15.98 43.32,0.19 82.46,0.3 117.84,0.3 79.62,0 140.23,-0.55 186.67,-1.91 34.83,-1.02 61.68,-2.51 82.49,-4.54 15.6,-1.52 27.79,-3.35 37.33,-5.43 7.15,-1.56 12.8,-3.25 17.34,-5.02 6.82,-2.68 11.12,-5.38 15.09,-8.64 3.94,-3.26 7.65,-7.36 12.27,-12.87 16.22,-19.27 37.4,-47.33 57.87,-75.48 20.49,-28.17 40.34,-56.52 54.25,-76.7 11.96,-17.35 19.49,-28.66 23.63,-35.72 2.07,-3.51 3.25,-5.93 3.72,-7.13 0.12,-0.3 0.2,-0.52 0.24,-0.65 l 0.05,-0.16 2.47,0.62 -2.52,-0.34 0.05,-0.28 2.47,0.62 -2.52,-0.34 6.11,0.83 h -6.16 c -0.01,-0.34 0.02,-0.63 0.05,-0.83 l 6.11,0.83 h -6.16 7.43 l -7.09,2.26 c -0.16,-0.45 -0.36,-1.46 -0.34,-2.26 h 7.43 l -7.09,2.26 0.01,0.05 7.66,-2.47 -6.85,4.18 c -0.47,-0.76 -0.69,-1.34 -0.81,-1.71 l 7.66,-2.47 -6.85,4.18 9.04,-5.52 -5.17,9.22 c -1.81,-0.99 -3.21,-2.57 -3.87,-3.7 l 9.04,-5.52 -5.17,9.22 5,-8.91 -2.4,9.94 c -0.79,-0.19 -1.71,-0.53 -2.6,-1.03 l 5,-8.91 -2.4,9.94 1.82,-7.53 v 7.76 c -0.4,0 -1.04,-0.04 -1.82,-0.23 l 1.82,-7.53 v 7.76 -4.26 l 0.4,4.24 -0.4,0.02 v -4.26 l 0.4,4.24 -0.18,-1.91 0.26,1.9 -0.08,0.01 -0.18,-1.91 0.26,1.9 -0.02,-0.13 0.03,0.13 h -0.01 l -0.02,-0.13 0.03,0.13 c -0.07,0.01 -0.82,0.17 -2.11,0.72 -1.95,0.81 -5.09,2.46 -9.24,5.23 -4.16,2.77 -9.35,6.65 -15.59,11.85 -8.02,6.67 -17.88,15.6 -28.59,25.73 -16.09,15.19 -34.16,33.1 -51.51,50.53 -17.36,17.43 -34.02,34.38 -47.43,47.79 -4.46,4.46 -8.97,8.97 -14.47,13.39 -4.79,3.85 -10.32,7.53 -16.81,10.75 -5.68,2.82 -12.06,5.3 -19.42,7.48 -12.89,3.81 -28.75,6.76 -49.91,9.18 -31.73,3.63 -75.48,6.06 -138.77,7.68 -63.29,1.61 -146.1,2.4 -255.63,2.64 -24.83,0.06 -51.02,0.08 -78.44,0.08 -454.07,0 -1243.03,-7.04 -1671.34,-9.12 -141.69,-0.69 -243.91,-0.83 -318.26,-0.83 -55,0 -94.75,0.08 -123.98,0.08 -28.97,0 -47.59,-0.08 -60.68,-0.4 -6.55,-0.16 -11.73,-0.38 -16.18,-0.7 -4.43,-0.32 -8.17,-0.75 -11.6,-1.32 -9.95,-1.62 -17.39,-4.37 -22.58,-7.01 -2.59,-1.31 -4.63,-2.6 -6.07,-3.62 -0.71,-0.49 -1.29,-0.94 -1.58,-1.17 l -0.13,-0.1 7.75,-10.06 -7.31,10.39 c -0.42,-0.3 -0.44,-0.33 -0.44,-0.33 l 7.75,-10.06 -7.31,10.39 9.44,-13.44 -8.09,14.29 c -0.82,-0.47 -1.11,-0.69 -1.35,-0.85 l 9.44,-13.44 -8.09,14.29 8.31,-14.66 -6.28,15.64 c -1.05,-0.43 -1.6,-0.74 -2.03,-0.98 l 8.31,-14.66 -6.28,15.64 6.31,-15.71 -4.14,16.41 c -0.97,-0.24 -1.63,-0.49 -2.17,-0.7 l 6.31,-15.71 -4.14,16.41 4.14,-16.44 v 16.96 c -1.9,-0.01 -3.17,-0.28 -4.14,-0.52 l 4.14,-16.44 v 16.96 -16.97 l 5.47,16.06 c -2.08,0.71 -3.93,0.9 -5.47,0.91 v -16.97 l 5.47,16.06 -5.47,-16.06 10.25,13.52 c -1.56,1.18 -3.23,2.02 -4.78,2.54 l -5.47,-16.06 10.25,13.52 -10.25,-13.52 15.6,6.69 c -1.05,2.5 -2.99,5.08 -5.35,6.83 l -10.25,-13.52 15.6,6.69 -15.6,-6.69 h 16.97 c 0,1.84 -0.3,4.17 -1.37,6.69 l -15.6,-6.69 h 16.97 -16.95 l 16.3,-4.65 c 0.27,1 0.63,2.33 0.65,4.65 h -16.95 l 16.3,-4.65 -16.26,4.64 15.52,-6.72 c 0.21,0.49 0.46,1.11 0.74,2.08 l -16.26,4.64 15.52,-6.72 -15.38,6.66 14.49,-8.41 c 0.2,0.35 0.47,0.81 0.89,1.75 l -15.38,6.66 14.49,-8.41 -13.77,7.99 13.13,-9.02 c 0.1,0.17 0.26,0.38 0.64,1.03 l -13.77,7.99 13.13,-9.02 -9.66,6.64 9.51,-6.84 0.15,0.2 -9.66,6.64 9.51,-6.84 -0.19,0.13 0.19,-0.13 v 0 l -0.19,0.13 0.19,-0.13 c 0.05,0.06 0.3,0.41 0.6,0.83 0.93,1.31 2.37,3.5 4.02,6.54 1.07,1.97 2.15,4.12 3.32,6.52 2.04,4.19 4.33,9.13 6.85,14.53 3.77,8.08 8.05,17.17 12.5,25.88 4.44,8.69 9.1,17.01 13.34,23.25 5.8,8.55 11.4,14.3 15.66,18.19 2.15,1.97 3.91,3.42 5.52,4.79 0.83,0.72 1.59,1.34 2.73,2.48 0.59,0.61 1.28,1.3 2.32,2.77 0.52,0.75 1.13,1.71 1.79,3.23 0.63,1.51 1.37,3.68 1.39,6.8 0,1.38 -0.17,2.92 -0.6,4.5 -0.72,2.77 -2.33,5.5 -4.14,7.36 -1.35,1.42 -2.76,2.41 -3.99,3.11 -1.86,1.04 -3.35,1.49 -4.52,1.79 -1.18,0.28 -2.08,0.39 -2.82,0.45 l -1.41,-16.91 1.61,16.89 c -0.69,0.07 -1.3,0.09 -1.87,0.09 -1.27,0 -2.11,-0.09 -2.89,-0.18 -1.45,-0.16 -2.65,-0.37 -3.98,-0.62 -2.3,-0.42 -4.88,-0.96 -7.88,-1.56 -8.91,-1.8 -21.44,-4.1 -34.05,-4.66 -2.18,-0.09 -4.4,-0.14 -6.64,-0.14 -9.64,0 -19.65,0.89 -28.75,2.34 -9.08,1.43 -17.3,3.47 -23.09,5.5 -3.25,1.12 -5.04,2.04 -5.95,2.7 -0.7,0.51 -1.06,0.84 -1.68,1.67 -0.45,0.62 -1.01,1.56 -1.66,3.04 -0.97,2.21 -2.09,5.63 -3.18,10.44 -1.09,4.81 -2.16,10.99 -3.21,18.68 -3.4,24.66 -6.54,63.92 -6.53,104.27 -0.01,19.43 0.72,39.14 2.45,57.6 2.65,28.41 7.71,54.37 13.87,76.82 6.15,22.44 13.42,41.4 20.32,55.61 3.45,7.11 6.77,12.95 9.96,17.71 4.81,7.16 9.25,11.82 13.67,15.18 4.43,3.35 8.97,5.56 14.79,7.34 4.67,1.42 10,2.44 16.32,3.11 6.32,0.67 13.61,0.96 22.04,0.96 11.08,0 24.12,-0.5 39.49,-1.21 15.71,-0.72 34.14,-1.65 79.78,-2.39 45.68,-0.73 118.79,-1.29 244.63,-1.29 59.86,0 131.65,0.13 218.09,0.42 444.23,1.5 1275.4,7.37 1711.72,7.37 5.52,0 10.96,0 16.34,0 107.9,-0.04 189.81,-0.47 252.31,-1.93 46.87,-1.09 82.81,-2.77 110.44,-5.27 20.72,-1.87 36.75,-4.21 49.07,-6.98 9.25,-2.08 16.39,-4.39 21.95,-6.82 4.17,-1.83 7.46,-3.72 10.24,-5.68 4.15,-2.97 7.24,-6.12 10.37,-10.23 3.1,-4.09 6.14,-9.19 9.61,-15.47 7.32,-13.21 15.61,-29.65 24.2,-47.68 25.78,-54.1 54.34,-122.66 70.2,-165.12 7.06,-18.91 11.6,-32.63 14.27,-42.34 1.34,-4.84 2.21,-8.69 2.72,-11.59 0.52,-2.91 0.66,-4.87 0.65,-5.9 0,-0.51 -0.03,-0.79 -0.04,-0.87 v 0 l 4.28,-0.83 -3.94,1.8 c -0.22,-0.47 -0.32,-0.88 -0.34,-0.97 l 4.28,-0.83 -3.94,1.8 5.65,-2.58 -4.91,3.81 c -0.21,-0.26 -0.53,-0.76 -0.74,-1.23 l 5.65,-2.58 -4.91,3.81 0.01,0.02 7.35,-5.72 -4.8,7.9 c -1.59,-0.97 -2.29,-1.86 -2.55,-2.18 l 7.35,-5.72 -4.8,7.9 6.17,-10.15 -3.3,11.41 c -1.09,-0.31 -2.09,-0.78 -2.87,-1.26 l 6.17,-10.15 -3.3,11.41 3.31,-11.45 v 11.92 c -1.04,0.01 -2.22,-0.15 -3.31,-0.47 l 3.31,-11.45 v 11.92 -10.04 l 3.22,9.55 c -0.68,0.23 -1.81,0.5 -3.22,0.49 v -10.04 l 3.22,9.55 -1.51,-4.48 2.4,4.1 c -0.02,0.01 -0.29,0.18 -0.89,0.38 l -1.51,-4.48 2.4,4.1 -0.11,0.08 c -0.32,0.2 -1.21,0.89 -2.46,2.13 -1.89,1.86 -4.59,4.93 -7.94,9.35 -3.36,4.41 -7.4,10.17 -12.13,17.45 -6.04,9.29 -13.28,21.14 -21.12,34.31 -11.77,19.77 -24.92,42.51 -37.79,64.46 -12.88,21.96 -25.47,43.1 -36.29,59.9 -4.15,6.44 -8.06,12.27 -11.79,17.47 -5.64,7.81 -10.77,14.21 -16.39,19.41 -2.84,2.6 -5.82,4.93 -9.44,6.86 -1.81,0.96 -3.79,1.81 -6,2.44 -2.19,0.63 -4.63,1.03 -7.19,1.03 -2.52,0 -5.14,-0.4 -7.6,-1.2 -4.34,-1.41 -7.95,-3.96 -10.63,-6.7 -2.03,-2.06 -3.63,-4.25 -5.01,-6.51 -2.05,-3.39 -3.61,-6.95 -5,-10.83 -1.38,-3.89 -2.57,-8.1 -3.67,-12.77 -2.06,-8.76 -3.8,-19.11 -5.32,-30.62 -4.53,-34.44 -7.04,-79.13 -7.05,-114.55 0,-12.65 0.32,-24.09 1.03,-33.64 0.38,-5.09 0.87,-9.62 1.49,-13.69 0.46,-3.05 0.99,-5.83 1.64,-8.44 0.49,-1.97 1.04,-3.83 1.72,-5.68 0.52,-1.39 1.11,-2.77 1.87,-4.21 1.16,-2.14 2.63,-4.5 5.41,-6.95 1.4,-1.21 3.18,-2.43 5.37,-3.35 2.19,-0.92 4.8,-1.49 7.38,-1.48 2.5,-0.01 4.9,0.51 6.89,1.28 1.88,0.72 3.42,1.63 4.69,2.55 2.39,1.75 3.91,3.52 5.16,5.17 2.13,2.9 3.47,5.64 4.75,8.63 1.86,4.47 3.4,9.51 4.87,15.47 1.47,5.96 2.83,12.81 4.1,20.61 2.76,17.15 5.02,38.78 6.62,61.88 1.6,23.09 2.52,47.57 2.52,70.16 0,19.55 -0.68,37.62 -2.3,52.49 -0.34,3.08 -0.74,6.23 -1.36,9.5 -0.59,3.06 -1.38,6.25 -2.58,9.51 -1.12,3.05 -2.62,6.16 -4.58,9.15 -3.66,5.63 -8.95,10.56 -15.22,14.3 -5.51,3.3 -11.76,5.86 -19.03,8.03 -12.73,3.78 -28.72,6.43 -50.26,8.56 -32.27,3.17 -77,5.04 -140.32,6.21 -63.31,1.16 -145.17,1.59 -251.29,1.79 -53.48,0.1 -113.13,0.14 -177.5,0.14 -271.18,0 -626.13,-0.72 -956.35,-0.72 -248.77,0 -483.52,0.41 -657.75,1.84 -230.17,1.89 -354.89,5.58 -424.19,10.51 -34.62,2.45 -55.37,5.25 -67.98,8.03 -6.32,1.39 -10.54,2.74 -13.61,3.97 -3.09,1.26 -5.07,2.36 -7.41,3.81 -4.67,2.92 -8.34,5.88 -11.47,8.92 -4.67,4.56 -8.15,9.35 -11.49,14.75 -3.34,5.39 -6.47,11.41 -10.41,17.92 -2.65,4.34 -4.98,7.82 -7.11,11.66 -1.6,2.89 -3.14,6.02 -4.7,9.99 -2.33,5.95 -4.69,13.84 -6.8,25.21 -2.11,11.35 -3.94,26.12 -5.21,45.57 -1.5,23.06 -2.19,52.8 -2.19,84.6 0,31.81 0.69,65.74 1.92,97.38 1.23,31.65 3,61.05 5.14,83.66 1.6,16.95 3.41,30.11 5.34,40.24 1.44,7.6 2.96,13.48 4.44,17.97 1.11,3.36 2.2,5.93 3.2,7.91 1.53,2.97 2.78,4.58 4.08,5.95 1.3,1.36 2.82,2.56 5.19,4.21 5.57,3.9 11.69,7.41 17.57,9.87 5.88,2.49 11.5,3.88 15.94,4.04 h 0.02 c 0.39,0.02 0.78,0.03 1.17,0.03 4.26,0 8.89,-0.94 14.31,-2.79 5.41,-1.82 11.49,-4.54 18.27,-7.47 6.94,-2.97 14.39,-6.05 22.32,-8.47 7.92,-2.4 16.39,-4.2 25.42,-4.22 0.48,0 0.93,0.01 1.34,0.02 h 0.07 c 2.18,0.05 4.07,0.19 6.32,0.37 3.91,0.3 9.44,0.76 20.71,1.31 33.76,1.63 117.99,3.95 348.38,3.94 28.82,0 59.92,-0.03 93.5,-0.11 442.73,-1.03 1315.64,-9.32 1758.99,-14.31 221.66,-2.49 335.99,-4.16 396.3,-5.89 30.11,-0.85 46.79,-1.74 56.06,-2.67 4.64,-0.45 7.34,-0.91 8.87,-1.27 1.56,-0.37 1.93,-0.52 3.3,-1.06 2.72,-1.11 4.43,-1.99 6.35,-3.41 1.44,-1.08 3.04,-2.53 5.02,-4.93 2.96,-3.58 6.7,-9.34 11.06,-18.39 4.37,-9.03 9.36,-21.3 15,-37.71 10.05,-29.21 22.21,-71.66 33.71,-114.61 11.52,-42.97 22.43,-86.55 30.18,-118.5 5.41,-22.3 9.26,-38.87 11.71,-51.12 2.46,-12.22 3.41,-20.17 3.38,-24.39 0,-1.83 -0.15,-2.92 -0.27,-3.43 -0.12,-0.53 -0.15,-0.5 -0.15,-0.52 l 0.01,0.01 0.05,-0.03 -0.05,0.04 v -0.01 l 0.05,-0.03 -0.05,0.04 0.08,-0.06 -0.07,0.07 -0.01,-0.01 0.08,-0.06 -0.07,0.07 c 0,0 -0.15,-0.16 -0.68,-0.35 -0.52,-0.19 -1.41,-0.38 -2.52,-0.38 -1.63,-0.01 -3.72,0.41 -5.62,1.32 -1.3,0.65 -2.1,1.14 -3.58,2.6 -1.08,1.09 -2.47,2.79 -4.17,5.44 -2.55,3.97 -5.72,10.05 -9.45,18.81 -3.74,8.76 -8.05,20.17 -13.11,34.83 -9.01,26.09 -20.42,62.57 -32.23,98.82 -5.91,18.13 -11.92,36.23 -17.82,53.02 -5.91,16.81 -11.69,32.3 -17.22,45.38 -2.76,6.53 -5.69,13.12 -10.01,19.68 -3.76,5.72 -8.67,11.3 -14.89,16.06 -5.45,4.18 -11.8,7.74 -19.16,10.78 -12.91,5.31 -28.95,9.22 -50.57,12.53 -32.41,4.93 -77.54,8.41 -143.04,11.37 -65.48,2.94 -151.28,5.32 -264.52,7.86 -450.7,10.09 -1336.65,22.71 -1788,30.69 -112.83,2 -198.49,3.71 -263.68,5.37 -48.89,1.24 -86.27,2.45 -114.92,3.73 -21.49,0.97 -38.07,1.97 -50.84,3.03 -19.14,1.57 -29.8,3.43 -34.88,4.98 -2.55,0.77 -3.59,1.34 -4.12,1.66 -0.53,0.34 -0.78,0.53 -1.87,1.61 -5,5.05 -10.37,13.12 -15.73,24.67 -5.37,11.52 -10.74,26.41 -16.28,44.67 -11.07,36.51 -22.54,85.22 -26.64,145.09 -1.24,18.16 -1.81,37.47 -1.81,56.56 0,21.93 0.75,43.58 2.07,62.92 1.32,19.33 3.22,36.4 5.41,48.82 0.66,3.88 1.31,6.44 1.87,7.73 0.51,1.16 0.72,1.44 1.41,2.14 0.63,0.59 1.83,1.51 4.34,2.65 4.35,2 12.58,4.33 25.51,6.19 19.41,2.85 49.23,4.83 93.42,6.02 44.22,1.21 102.9,1.67 180.63,1.67 47.53,0 102.18,-0.17 165.03,-0.45 472.1,-2.06 1406.35,-9.98 1876.8,-16.01 117.61,-1.51 206.2,-2.91 273.06,-5.26 50.13,-1.75 88.05,-4.06 116.6,-7.28 21.41,-2.41 37.53,-5.37 49.39,-8.78 8.9,-2.55 15.36,-5.33 20.06,-8.15 3.54,-2.12 6.13,-4.24 8.29,-6.51 3.21,-3.4 5.64,-7.3 8.03,-12.78 2.36,-5.45 4.53,-12.39 7,-20.79 10.45,-35.39 24.56,-87.9 38.2,-140.92 13.65,-53.03 26.86,-106.66 35.58,-144.43 5.5,-23.82 9.21,-41.32 11.5,-54.12 2.3,-12.78 3.12,-20.92 3.1,-25.39 0,-2.62 -0.25,-3.88 -0.36,-4.28 -0.15,-0.42 -0.01,-0.12 -0.24,-0.51 l 0.01,0.01 c -0.33,-0.49 -0.81,-1.03 -1.54,-1.61 -1.09,-0.87 -2.8,-1.8 -4.82,-2.46 -2.02,-0.68 -4.33,-1.08 -6.34,-1.17 h 0.01 l -0.52,-0.02 h -0.07 l -0.21,-4.7 1.42,4.46 c -0.63,0.21 -1.18,0.25 -1.21,0.24 l -0.21,-4.7 1.42,4.46 -1.69,-5.34 3.11,4.68 c -0.29,0.19 -0.86,0.49 -1.42,0.66 l -1.69,-5.34 3.11,4.68 -1.37,-2.05 1.59,1.89 -0.22,0.16 -1.37,-2.05 1.59,1.89 -0.16,-0.19 0.16,0.18 v 0.01 l -0.16,-0.19 0.16,0.18 c -0.02,0.01 -0.82,0.78 -2.06,2.73 -1.87,2.92 -4.64,8.35 -8,16.75 -3.37,8.41 -7.39,19.79 -12.16,34.81 -9.76,30.76 -22.71,76.9 -36.16,123.18 -6.73,23.16 -13.6,46.37 -20.3,67.83 -6.7,21.47 -13.22,41.17 -19.34,57.45 -3.07,8.13 -6.19,15.95 -10.59,23.57 -3.83,6.63 -8.75,13.07 -15.12,18.67 -5.56,4.91 -12.14,9.13 -19.74,12.69 -13.35,6.21 -29.78,10.58 -51.63,14.13 -32.78,5.28 -78.04,8.62 -143.57,11.28 -65.51,2.66 -151.24,4.58 -264.35,6.8 -450.23,8.83 -1334.91,22.29 -1781.74,27.97 -110.36,1.4 -194.03,2.33 -257.63,2.33 -48.49,0 -85.31,-0.54 -113.56,-1.84 -21.2,-0.98 -37.57,-2.37 -50.66,-4.39 -9.83,-1.52 -17.83,-3.38 -24.79,-5.96 -5.21,-1.95 -9.89,-4.34 -14.01,-7.47 -3.08,-2.34 -5.81,-5.12 -7.98,-8.15 -3.28,-4.55 -5.19,-9.47 -6.29,-13.87 -1.12,-4.43 -1.57,-8.44 -1.98,-12.22 -1.07,-10.17 -1.82,-22.26 -2.33,-35.47 -0.5,-13.2 -0.74,-27.5 -0.74,-41.9 0,-15.56 0.28,-31.24 0.83,-45.8 0.55,-14.57 1.35,-28 2.44,-39.19 0.26,-2.7 0.55,-5.49 1.05,-8.47 0.46,-2.78 1.11,-5.73 2.16,-8.8 0.98,-2.88 2.33,-5.87 4.16,-8.75 1.71,-2.7 3.84,-5.28 6.29,-7.57 4.61,-4.33 10.19,-7.61 16.58,-10.22 11.23,-4.54 25.26,-7.45 45.11,-9.88 29.72,-3.59 72.6,-5.8 136.45,-7.37 63.82,-1.56 148.52,-2.45 261.28,-3.24 444.84,-3.13 1326.72,-4.77 1771.98,-6.03 66.26,-0.19 122.86,-0.37 171.26,-0.37 69.23,0 121.67,0.36 161.74,1.61 30.07,0.94 53.17,2.37 71.4,4.59 13.68,1.67 24.65,3.77 33.96,6.7 6.96,2.21 13.05,4.91 18.39,8.46 4,2.66 7.54,5.81 10.43,9.32 4.38,5.27 7.15,11.14 8.97,16.7 1.83,5.59 2.86,10.97 3.85,16.36 2.42,13.34 4.83,29.74 7.16,47.88 6.98,54.39 13.16,124.16 15.09,169.4 0.16,3.6 0.29,7.2 0.29,10.86 -0.01,7.19 -0.48,14.75 -3.01,22.63 -2.18,6.86 -6.19,13.77 -11.93,19.45 -5.01,5 -11.15,9.11 -18.35,12.6 -12.62,6.08 -28.62,10.55 -50.36,14.43 -32.59,5.77 -78.22,10.03 -143.63,13.58 -65.39,3.54 -150.48,6.31 -261.44,8.88 -469.62,10.86 -1403.2,17.99 -1872.19,23.49 -117.24,1.37 -205.42,2.65 -271.68,4.28 -49.68,1.22 -87.05,2.66 -114.96,4.47 -20.93,1.35 -36.56,2.93 -47.87,4.72 -8.48,1.32 -14.52,2.79 -18.35,4.13 -2.88,0.99 -4.47,1.89 -5.07,2.33 l -0.38,0.29 -0.01,0.01 -0.98,-0.97 1.2,0.65 -0.22,0.32 -0.98,-0.97 1.2,0.65 -1.03,-0.56 1.08,0.46 -0.05,0.1 -1.03,-0.56 1.08,0.46 -0.06,-0.03 0.06,0.03 v 0 l -0.06,-0.03 0.06,0.03 c -0.01,0.02 -0.15,0.44 -0.28,1.4 -0.14,0.95 -0.26,2.42 -0.37,4.32 -0.7,11.6 -1.07,27.57 -1.07,44.51 0,13.93 0.25,28.56 0.74,42.14 0.5,13.56 1.25,26.1 2.21,35.66 0.29,3.09 0.63,5.01 0.85,5.63 l 0.1,0.28 0.02,0.04 -0.52,0.28 0.44,-0.38 0.08,0.1 -0.52,0.28 0.44,-0.38 0.28,0.24 c 0.42,0.32 1.53,1.04 3.69,1.88 3.77,1.5 10.64,3.26 21.03,4.71 15.61,2.21 39.06,3.86 72.94,4.89 33.89,1.05 78.27,1.51 136.17,1.51 60.17,0 134.95,-0.5 227.86,-1.35 470.6,-4.31 1406,-17.69 1877.15,-23.49 117.79,-1.45 206.52,-2.43 273.55,-4.36 50.27,-1.44 88.33,-3.43 117.05,-6.49 21.52,-2.29 37.77,-5.2 49.76,-8.68 9.01,-2.61 15.57,-5.51 20.46,-8.54 3.68,-2.28 6.46,-4.62 8.87,-7.23 3.59,-3.91 6.46,-8.61 9.28,-15.06 2.81,-6.41 5.43,-14.48 8.41,-24.17 12.59,-40.83 29.94,-103.06 46.63,-165.66 16.69,-62.6 32.76,-125.69 42.86,-168.38 4.4,-18.62 7.68,-33.36 9.8,-44.15 1.07,-5.39 1.85,-9.8 2.33,-13.11 0.25,-1.64 0.42,-3.01 0.52,-4.04 0.1,-1.02 0.13,-1.72 0.12,-1.83 v -0.01 l 6.57,-0.13 -6.51,0.83 c -0.06,-0.47 -0.06,-0.66 -0.06,-0.7 l 6.57,-0.13 -6.51,0.83 12.27,-1.57 -11.93,3.23 c -0.22,-0.79 -0.29,-1.31 -0.34,-1.66 l 12.27,-1.57 -11.93,3.23 14.25,-3.85 -13.41,6.17 c -0.44,-0.97 -0.68,-1.73 -0.84,-2.32 l 14.25,-3.85 -13.41,6.17 14.33,-6.6 -12.83,9.18 c -0.7,-0.98 -1.16,-1.84 -1.5,-2.58 l 14.33,-6.6 -12.83,9.18 13.28,-9.5 -8.16,14.13 c -2.44,-1.41 -4.09,-3.19 -5.12,-4.63 l 13.28,-9.5 -8.16,14.13 8.25,-14.28 v 16.49 c -2.7,0.04 -5.85,-0.78 -8.25,-2.21 l 8.25,-14.28 v 16.49 -16.3 l 5.67,15.29 c -1.44,0.54 -3.37,1.01 -5.67,1.01 v -16.3 l 5.67,15.29 -5.47,-14.75 8.65,13.14 c -0.76,0.5 -1.77,1.08 -3.18,1.61 l -5.47,-14.75 8.65,13.14 -7.64,-11.6 10.22,9.44 c -0.45,0.46 -1.1,1.17 -2.58,2.16 l -7.64,-11.6 10.22,9.44 -6.37,-5.89 7.01,5.12 c -0.08,0.11 -0.25,0.34 -0.64,0.77 l -6.37,-5.89 7.01,5.12 -1.7,-1.24 1.75,1.18 -0.05,0.06 -1.7,-1.24 1.75,1.18 c -0.02,0.02 -0.26,0.4 -0.59,1 -0.59,1.07 -1.48,2.83 -2.53,5.12 -3.18,6.89 -7.87,18.43 -13.76,33.96 -12.49,32.88 -30.56,83.92 -48.62,136.16 -18.08,52.26 -36.18,105.79 -48.85,143.9 -3.17,9.53 -6.12,18.57 -10.02,27.4 -3.41,7.7 -7.61,15.28 -13.35,22.31 -5,6.15 -11.15,11.8 -18.49,16.71 -12.9,8.62 -29.16,15.06 -50.76,20.36 -32.42,7.92 -77.32,13.4 -143.19,17.87 -65.85,4.45 -152.61,7.8 -268.07,11.02 -409.94,11.45 -1182.09,21.29 -1665.88,21.29 -58.49,0 -112.76,-0.14 -161.68,-0.45 -102.46,-0.63 -181.46,-1.95 -242.68,-5.46 -45.93,-2.65 -81.85,-6.49 -110.5,-12.41 -21.47,-4.46 -38.93,-10.07 -53.4,-17.65 -10.84,-5.67 -19.99,-12.55 -27.31,-20.71 -5.49,-6.11 -9.9,-12.9 -13.3,-20.11 -5.12,-10.84 -7.98,-22.52 -9.64,-34.92 -1.64,-12.42 -2.09,-25.65 -2.1,-40.04 0,-12.94 0.38,-26.82 0.7,-41.87 1.52,-70.72 2.01,-170.41 2.01,-272.39 0,-123.12 -0.71,-249.61 -1.17,-332.87 -0.03,-6.27 -0.07,-12.33 -0.07,-18.19 0.01,-15.8 0.24,-30.13 1.42,-43.41 1.05,-11.61 2.82,-22.45 6.04,-32.67 2.81,-8.93 6.79,-17.39 12.29,-25.04 4.8,-6.7 10.74,-12.71 17.71,-17.88 12.23,-9.07 27.36,-15.59 45.97,-20.58 27.94,-7.46 64.12,-11.63 112.78,-14.13 48.64,-2.49 109.73,-3.2 186.92,-3.2 27.37,0 56.75,0.09 88.32,0.22 455.31,1.97 1365.62,13.48 1830.78,15.97 29.95,0.16 58.04,0.28 84.46,0.28 95.96,0.01 169.9,-1.64 231.04,-8.81 45.86,-5.37 84.47,-13.8 120.28,-26.86 26.86,-9.8 52.2,-22.22 77.96,-38.14 38.62,-23.87 78.21,-55.72 124.37,-98.2 46.16,-42.47 98.84,-95.51 163.62,-161.42 328.27,-334.01 964.93,-995.82 1284.52,-1338.28 148.42,-159.04 228.45,-249.26 270.95,-301.69 21.3,-26.17 33.1,-42.95 39.1,-53.45 3.1,-5.23 4.6,-8.83 5.3,-11.08 0.8,-2.28 0.8,-3.06 0.8,-3.96 0,-0.56 -0.1,-1.26 -0.2,-2.49 v 0.02 c -0.5,-4.57 -1.5,-9.42 -2.4,-14.83 -0.9,-5.41 -1.8,-11.42 -1.8,-18.15 0,-5.61 0.7,-11.72 2.5,-18 1.7,-6.29 4.6,-12.7 8.6,-19.09 4.4,-7.01 10.1,-13.82 16.5,-20.52 9.6,-10.03 21,-19.74 32.9,-28.16 12,-8.41 24.3,-15.53 36.3,-20.15 10,-3.84 19.6,-5.74 28.7,-5.73 9.9,-0.03 19.1,2.35 26.8,6.32 7.8,3.96 14,9.38 19,15.18 3.6,4.23 6.4,8.55 8.8,12.61 3.6,6.1 6.4,11.67 9,16 1.3,2.16 2.6,4.02 3.8,5.53 1.2,1.52 2.3,2.7 3.5,3.63 0.7,0.58 0.4,0.37 1.2,0.73 0.6,0.28 2.3,0.82 5.4,1.39 5.4,1.02 15,2.06 30.7,2.88 23.6,1.26 61,2.12 120.4,2.66 59.4,0.54 140.9,0.76 253,0.76 15.1,0 30.8,0 47,-0.01 436,-0.21 1287.9,-3.15 1721.3,-7.57 216.7,-2.2 328.8,-4.79 388.3,-8.09 29.7,-1.64 46.2,-3.51 55.2,-5.33 4.6,-0.9 7.1,-1.73 8.7,-2.4 1.7,-0.68 2.6,-1.2 4.5,-2.41 7.7,-4.79 15.8,-10.73 22.3,-16.64 3.3,-2.95 6.1,-5.89 8.3,-8.54 2.2,-2.64 3.7,-5.02 4.4,-6.54 l -0.1,0.01 0.1,-0.15 v -0.02 l 5.8,2.31 -6,-1.47 c 0.1,-0.55 0.2,-0.81 0.2,-0.84 l 5.8,2.31 -6,-1.47 10.6,2.58 h -10.9 c 0,-1.16 0.1,-2.03 0.3,-2.58 l 10.6,2.58 h -10.9 12.5 l -10.9,6.22 c -1.1,-1.83 -1.7,-4.41 -1.6,-6.22 h 12.5 l -10.9,6.22 8.9,-5.04 -6.2,8.19 c -0.5,-0.39 -1.7,-1.4 -2.7,-3.15 l 8.9,-5.04 -6.2,8.19 2.3,-3.08 -1.9,3.36 c 0,0 -0.1,-0.08 -0.4,-0.28 l 2.3,-3.08 -1.9,3.36 v -0.03 c -0.5,-0.24 -2.8,-1.14 -6.7,-2.03 -7,-1.62 -19.1,-3.39 -37.5,-4.99 -27.7,-2.42 -69.7,-4.56 -132.5,-6.25 -62.7,-1.68 -146.1,-2.93 -256.8,-3.61 -86.5,-0.54 -189.7,-0.73 -303.1,-0.73 -293.5,0 -655.7,1.29 -975.6,1.29 -190.9,0 -366.8,-0.46 -504.2,-1.93 -228.2,-2.45 -349.9,-7.68 -418,-13.67 -34.2,-3.01 -54.9,-6.2 -69.3,-9.52 -7.2,-1.66 -12.7,-3.38 -17.3,-5.09 -4.6,-1.7 -8.2,-3.35 -10.9,-4.59 -5.6,-2.55 -10,-4.39 -14.5,-5.62 -4.5,-1.22 -9.2,-1.96 -15.7,-1.97 -6.3,0 -14.3,0.75 -24.9,2.69 -10.6,1.94 -23.7,5.06 -40,9.65 -33.3,9.33 -79.9,24.71 -125.8,41.19 -45.9,16.46 -91.27,34.09 -121.96,47.77 -14.11,6.28 -25.11,11.73 -33.49,16.44 -6.29,3.53 -11.09,6.65 -14.61,9.3 -2.64,1.99 -4.55,3.7 -5.87,5.09 -1.99,2.12 -2.62,3.35 -2.93,4.09 -0.28,0.76 -0.4,1.25 -0.42,2.66 0,0.57 0.03,1.27 0.11,2.09 v 0.02 c 0.25,2.67 0.88,5.92 1.82,9.46 1.4,5.33 3.47,11.27 5.6,17.29 2.12,6.05 4.3,12.11 5.85,18.39 0.38,1.57 1.06,4.42 1.06,7.95 0,2.08 -0.24,4.3 -0.73,6.45 -0.91,4.06 -2.53,7.79 -4.68,11.7 -3.81,6.85 -9.49,14.72 -18.86,26.35 -14.04,17.38 -36.45,43 -72.68,82.9 -36.23,39.89 -86.24,94.02 -155.26,168.09 -248.03,266.19 -741.58,790.12 -989.98,1057.06 -62.09,66.73 -108.84,117.38 -144.13,156.51 -52.92,58.64 -80.06,91.56 -94.01,112.92 -7,10.69 -10.66,18.26 -13.14,25.17 -1.23,3.47 -2.18,6.84 -3.05,10.51 -0.86,3.67 -1.64,7.65 -2.5,12.18 -4.17,21.9 -9.54,51.64 -13.84,82.32 -4.32,30.64 -7.53,62.3 -7.52,87.39 0,5.06 0.13,9.84 0.4,14.25 v 0.01 c 0.31,5.35 0.84,10.04 1.59,13.72 0.56,2.76 1.24,4.95 1.9,6.44 0.48,1.13 0.94,1.85 1.27,2.29 0.54,0.64 0.64,0.68 1.06,0.9 0.42,0.19 1.41,0.56 3.7,0.57 3.35,0.03 9.37,-1 17.75,-4.12 12.6,-4.63 30.33,-13.76 53.54,-28.38 23.24,-14.62 52.04,-34.7 87.39,-61.18 84.83,-63.5 207.42,-163.81 337.13,-273.15 129.74,-109.36 266.69,-227.83 380.68,-327.95 227.97,-200.23 363.9,-326.96 460.46,-427.28 96.58,-100.38 153.66,-174.04 211.5,-260.87 57.83,-86.84 115.95,-186.48 155.25,-268.7 19.6,-41.1 34.6,-78.08 46.4,-108.63 5.9,-15.28 11,-28.94 15.5,-40.77 4.5,-11.83 8.3,-21.79 11.9,-29.89 4.1,-9.27 7.6,-15.7 11,-20.61 1.8,-2.47 3.5,-4.57 5.8,-6.67 1.2,-1.05 2.6,-2.11 4.6,-3.15 1,-0.52 2.2,-1.02 3.6,-1.43 1.4,-0.41 3.1,-0.73 5.1,-0.73 2.6,-0.02 5.8,0.63 8.6,2.17 2.1,1.14 3.9,2.71 5.2,4.33 2,2.46 3,4.89 3.5,6.88 0.6,2 0.7,3.66 0.7,5.09 0,1.65 -0.2,3.02 -0.4,4.29 -0.4,1.89 -1,3.52 -1.6,5.1 -0.7,1.57 -1.5,3.06 -2.4,4.52 -1.3,2.01 -2.6,3.64 -4,5.12 -2.3,2.58 -4.6,4.76 -7.2,7.32 -3.9,3.82 -8.6,8.45 -14.7,15.28 -6,6.81 -13.2,15.79 -21.9,28.02 -13.2,18.66 -29.8,45.35 -49.1,76.34 -19.3,31.01 -41.3,66.39 -65.6,102.82 -24.3,36.44 -50.81,74 -85.74,118.27 -34.95,44.27 -78.27,95.26 -136.19,158.77 -115.82,127 -290.02,304.13 -440.88,447.63 -150.88,143.5 -278.04,252.97 -406.89,370.29 -64.44,58.66 -129.41,119.38 -187.33,174.91 -57.9,55.52 -108.77,105.87 -144.86,143.62 -36.08,37.74 -57.31,62.89 -69.94,81.66 -6.33,9.38 -10.53,17.13 -13.6,24.26 -3.07,7.14 -5.07,13.75 -6.81,21.2 -3.49,14.89 -5.57,32.02 -7.62,48.84 -1.03,8.41 -2.05,16.76 -3.32,24.81 -1.26,8.06 -2.75,15.82 -4.8,23.16 -3.88,13.74 -9.36,24.57 -15.29,32.6 -3,4.02 -6.07,7.36 -9.61,10.17 -1.8,1.4 -3.72,2.68 -6.1,3.8 -2.39,1.07 -5.28,2.12 -9.39,2.16 -2.24,0 -4.98,-0.38 -7.81,-1.62 l 6.84,-15.54 -6.68,15.6 c -1.53,-0.65 -3.15,-1.59 -4.65,-2.85 -2.28,-1.87 -4.2,-4.51 -5.29,-7.19 -1.12,-2.7 -1.48,-5.32 -1.48,-7.52 0.05,-4.21 1.08,-7.13 2.19,-9.79 1.01,-2.3 2.21,-4.4 3.64,-6.59 2.51,-3.81 5.77,-7.9 10.2,-12.81 6.64,-7.34 15.93,-16.49 29.11,-28.28 13.18,-11.78 30.25,-26.17 52.35,-43.82 45.25,-36.13 111.47,-85.83 185.5,-141 74,-55.16 155.76,-115.74 231.77,-173.38 152.03,-115.29 281.14,-218.83 416.01,-339.35 134.88,-120.52 275.53,-258.05 384.99,-384.36 109.44,-126.28 188.15,-241.8 240.28,-329.75 26,-43.98 45.3,-80.94 60.8,-114.66 15.4,-33.73 27,-64.25 37.7,-95.54 10.6,-31.28 20.3,-63.25 28.6,-91.67 8.3,-28.44 15.3,-53.27 20.8,-70.74 4.2,-13.43 7.5,-22.3 9.9,-28.15 1.3,-2.94 2.3,-5.1 3.2,-6.9 0.5,-0.93 1,-1.73 1.7,-2.82 0.4,-0.57 0.8,-1.19 1.8,-2.3 0.6,-0.57 1.2,-1.28 2.7,-2.32 0.7,-0.52 1.7,-1.14 3.2,-1.79 1.5,-0.62 3.6,-1.35 6.7,-1.37 1.4,0 3,0.19 4.7,0.67 1.5,0.42 2.9,1.06 4.2,1.88 2.4,1.43 4.1,3.32 5.2,5.02 1.7,2.58 2.2,4.64 2.6,6.12 0.2,1.5 0.3,2.53 0.3,3.35 0,1.65 -0.2,2.56 -0.3,3.3 -0.3,1.25 -0.5,1.92 -0.7,2.53 -0.3,0.88 -0.6,1.5 -0.8,2.11 -0.3,0.61 -0.6,1.18 -0.9,1.76 v 0.01 c -0.6,1.15 -1.2,2.1 -1.8,3.11 -1.1,1.74 -2.3,3.63 -3.8,6.03 -2.3,3.58 -5.2,8.28 -8.9,14.65 -3.6,6.37 -8,14.39 -13.2,24.53 -7.8,15.46 -17.5,36.11 -29.1,60.62 -11.6,24.51 -25.1,52.92 -40.7,84.08 -31.1,62.37 -70.6,136.29 -141.9,238.23 -71.28,101.96 -174.19,232.01 -283.48,350.13 -109.31,118.14 -224.7,223.94 -384.61,359.13 -79.96,67.6 -171.04,142.54 -256.09,213.52 -85.03,70.95 -164.09,138 -219.66,189.45 -55.57,51.43 -87.83,87.42 -107.74,113.52 -9.97,13.07 -16.86,23.64 -22.15,32.64 -5.3,9 -9.02,16.45 -12.72,23.59 -5.73,11.05 -10.67,19.8 -14.03,25.87 -1.66,3.01 -2.95,5.39 -3.6,6.74 -0.16,0.33 -0.29,0.59 -0.36,0.75 l -0.06,0.13 -0.01,0.04 -6.74,-2.7 6.99,1.91 c -0.16,0.59 -0.25,0.77 -0.25,0.79 l -6.74,-2.7 6.99,1.91 -13.66,-3.73 h 14.14 c -0.03,2.17 -0.34,3.12 -0.48,3.73 l -13.66,-3.73 h 14.14 -16.03 l 15.46,-4.22 c 0.48,1.8 0.56,3.17 0.57,4.22 h -16.03 l 15.46,-4.22 -15.89,4.34 13.86,-8.9 c 1.05,1.63 1.66,3.22 2.03,4.56 l -15.89,4.34 13.86,-8.9 -13.97,8.97 10.96,-12.47 c 1.2,1.06 2.23,2.28 3.01,3.5 l -13.97,8.97 10.96,-12.47 -10.95,12.46 5.05,-15.8 c 1.93,0.6 4.1,1.74 5.9,3.34 l -10.95,12.46 5.05,-15.8 -4.99,15.59 v -16.37 c 1.34,0 3.04,0.16 4.99,0.78 l -4.99,15.59 v -16.37 15.72 l -3.81,-15.26 c 0.9,-0.21 2.09,-0.45 3.81,-0.46 v 15.72 l -3.81,-15.26 3.31,13.26 -5.78,-12.39 c 0.45,-0.21 1.14,-0.53 2.47,-0.87 l 3.31,13.26 -5.78,-12.39 3.41,7.31 -4.12,-6.95 c 0.07,-0.04 0.26,-0.15 0.71,-0.36 l 3.41,7.31 -4.12,-6.95 0.03,-0.01 0.65,1.1 -0.68,-1.08 0.03,-0.02 0.65,1.1 -0.68,-1.08 c 0.06,-0.04 0.97,-0.65 2.47,-1.78 2.66,-1.99 7.18,-5.48 14.48,-11 21.96,-16.6 69.3,-51.67 176.27,-126.22 82.79,-57.7 201.13,-138.93 323.22,-224.97 122.07,-86.04 247.92,-176.9 345.42,-253.6 97.48,-76.69 166.74,-139.33 220.32,-195.36 53.57,-56.06 91.52,-105.5 126.65,-156.45 70.23,-101.89 128.12,-208.47 172.74,-299.66 22.3,-45.59 41.4,-87.37 57.1,-122.23 7.9,-17.44 15,-33.15 21.2,-46.78 6.3,-13.65 11.8,-25.19 16.6,-34.46 2,-3.93 3.9,-7.43 5.7,-10.55 1.4,-2.33 2.7,-4.45 4,-6.39 1.9,-2.92 3.7,-5.39 6.1,-7.87 1.2,-1.24 2.6,-2.52 4.7,-3.88 1.1,-0.68 2.3,-1.38 4,-1.98 1.7,-0.6 3.8,-1.1 6.3,-1.1 2.1,-0.01 4.4,0.37 6.5,1.21 1.9,0.72 3.7,1.77 5.1,2.93 2.4,2.04 3.9,4.27 4.8,6.09 1.4,2.79 1.8,4.89 2.1,6.72 0.3,1.83 0.3,3.41 0.3,4.98 0,2.63 -0.2,5.22 -0.5,8.08 -0.6,4.29 -1.4,9.16 -2.6,14.85 -1.2,5.7 -2.8,12.19 -4.7,19.57 -6.7,25.86 -17.8,62.65 -34,109.92 -16.2,47.25 -37.4,104.93 -64.2,172.32 -26.7,67.39 -59.2,144.78 -105.42,238.22 -46.24,93.45 -106.24,202.97 -188.14,334.84 -81.89,131.86 -185.56,285.9 -286.56,432.06 -100.99,146.15 -199.3,284.4 -270.36,384.45 -71.07,100.06 -114.91,161.96 -144.4,201.25 -14.76,19.65 -25.92,33.67 -35.36,44.16 -4.72,5.25 -9.02,9.63 -13.16,13.36 -4.14,3.74 -8.13,6.84 -12.14,9.41 -3.89,2.49 -7.88,4.59 -12.15,6.13 -4.27,1.53 -8.85,2.5 -13.67,2.5 -3.76,0.01 -7.64,-0.62 -11.3,-1.91 -3.2,-1.14 -6.22,-2.77 -8.91,-4.75 -4.72,-3.48 -8.4,-7.91 -11.37,-12.81 -4.45,-7.39 -7.49,-15.96 -9.89,-26.12 -2.38,-10.15 -4.04,-21.93 -5.11,-35.66 -1.05,-13.56 -1.51,-28.97 -1.51,-45.52 0.02,-60.4 6.05,-136.07 13.17,-186.7 2.28,-16.11 4.71,-30.1 8.57,-43.86 2.88,-10.31 6.57,-20.42 11.42,-30.93 7.3,-15.78 17.14,-32.39 30.94,-52.85 13.82,-20.47 31.65,-44.86 55.19,-76.28 83.66,-111.69 240.11,-313.14 377.36,-482.6 68.63,-84.74 132.29,-161.26 193.63,-239.45 61.36,-78.2 120.41,-158.06 180,-249.63 119.19,-183.17 240.97,-414.16 306.77,-551.04 32.8,-68.42 51.6,-113.27 63,-144.29 5.6,-15.52 9.5,-27.56 12.3,-37.48 2.8,-9.92 4.6,-17.7 6.3,-24.96 0.9,-3.98 1.8,-7.84 2.8,-11.62 0.8,-2.84 1.6,-5.63 2.7,-8.44 0.9,-2.11 1.8,-4.24 3.1,-6.41 0.9,-1.62 2.1,-3.28 3.5,-4.91 2,-2.43 4.9,-4.85 8.4,-6.55 3.4,-1.72 7.5,-2.58 11.2,-2.56 4.9,0.02 9.1,1.26 13,2.93 5.9,2.56 11.2,6.18 17.2,11 6,4.83 12.7,10.91 20.4,18.58 11.3,11.28 24.8,25.91 40.3,42.9 23.1,25.47 50.3,56.21 79.6,88.23 29.3,32.02 60.7,65.32 91.9,95.79 83.3,81.26 166.1,143.03 270.5,197.01 104.4,53.98 230.7,100.08 350.5,133.11 59.9,16.51 117.8,29.7 191.9,41.13 74.2,11.43 164.6,21.06 288.9,30.25 124.3,9.2 282.6,17.97 433.6,26.15 151.1,8.18 294.8,15.76 390.6,22.61 45.5,3.27 80.1,6.35 103.7,9.25 11.9,1.46 20.9,2.83 27.7,4.32 1.7,0.38 3.3,0.77 4.8,1.2 1.2,0.33 2.3,0.68 3.4,1.1 0.9,0.32 1.8,0.68 2.7,1.15 1.5,0.74 3.2,1.58 5.4,3.66 1.2,1.06 2.5,2.49 3.6,4.66 1.2,2.14 2.2,5.17 2.2,8.43 0,2.12 -0.4,4.24 -1.1,6.04 -0.6,1.77 -1.5,3.25 -2.3,4.42 -1.8,2.32 -3.4,3.57 -4.7,4.49 -1.3,0.87 -2.4,1.41 -3.3,1.85 -1.9,0.84 -3.5,1.29 -5,1.71 -2.9,0.76 -5.9,1.28 -9.4,1.78 -6.2,0.86 -14,1.59 -23.9,2.24 -29.5,1.95 -77.1,3.24 -144.2,3.77 -24.5,0.19 -51.6,0.28 -80.7,0.28 -242.2,0 -626,-6.14 -837.9,-10.39 -118.7,-2.38 -183.4,-4.16 -229,-6.71 -22.8,-1.27 -40.8,-2.73 -58.2,-4.55 -17.3,-1.82 -34,-3.99 -54.2,-6.65 -40.5,-5.31 -96.5,-12.78 -156.5,-21.91 -59.9,-9.13 -123.8,-19.91 -180.2,-31.91 -112.9,-24 -196.2,-52.98 -274.2,-85.37 -77.9,-32.41 -151.6,-68.47 -208.4,-112.25 -28.4,-21.91 -52.6,-45.87 -71.7,-73.31 -19.1,-27.43 -33,-58.32 -40.9,-93.39 -6.4,-28.33 -8.9,-58.95 -8.9,-89.28 0,-44.73 5.4,-88.8 12.4,-123.54 5.8,-29.14 12.7,-51.65 19.3,-68.88 3.3,-8.61 6.5,-15.89 9.4,-21.99 2.8,-6.08 5.4,-11 7.3,-14.72 1.6,-2.9 3.4,-4.9 5.1,-6.38 1.7,-1.39 3.2,-2.38 4.7,-3.2 2.8,-1.52 5.4,-2.49 8.2,-3.36 4.9,-1.48 10.2,-2.54 16.3,-3.45 9.1,-1.35 19.9,-2.31 32,-2.95 12.2,-0.63 25.8,-0.95 40.2,-0.95 50,0.02 110.3,3.73 158.1,11.37 46.3,7.43 115.7,18.54 197.6,29.21 82,10.67 176.4,20.88 272.8,26.5 65.6,3.82 132.1,5.52 199.6,5.52 130.9,0 265.1,-6.42 401.8,-16.21 207.2,-14.83 420.2,-37.45 643.7,-48.59 111.7,-5.57 225.7,-8.24 327.7,-11.3 51,-1.52 98.9,-3.14 142,-5.25 43.1,-2.11 81.3,-4.72 112.7,-8.18 31.4,-3.46 56,-7.79 75.4,-12.7 14.5,-3.68 26.1,-7.68 35.3,-11.82 13.9,-6.25 22.6,-12.63 29.2,-19.28 6.6,-6.65 11.2,-13.87 16.2,-22.49 8.9,-15.27 17,-31.98 26.1,-48.48 9.2,-16.49 19.3,-32.83 32.6,-47.1 13.3,-14.24 28.6,-25.15 42.7,-33.58 7.1,-4.21 13.8,-7.8 19.8,-10.82 6.1,-3.02 11.4,-5.47 15.5,-7.37 3.8,-1.74 7.5,-2.74 11.4,-3.65 6.8,-1.52 14.5,-2.5 22.4,-3.26 11.9,-1.13 24.3,-1.67 33.9,-1.94 9.6,-0.28 16.2,-0.28 16.4,-0.28 h 2.3 l 2.2,0.63 c 393.1,109.69 822.3,229.48 1182.2,321.8 180,46.15 342.6,85.44 474.6,113.14 66,13.86 124.3,24.81 173.2,32.27 48.8,7.47 88.3,11.42 116,11.4 12.3,0.01 22.2,-0.8 29.1,-2.16 4.8,-0.93 8.5,-2.14 11.1,-3.39 2.1,-0.94 3.5,-1.88 4.5,-2.73 1.6,-1.3 2.2,-2.32 2.8,-3.63 0.6,-1.31 1,-3.09 1,-5.8 0.1,-3.09 -0.6,-7.33 -2.2,-12.44 -2.8,-9.6 -8.9,-22.07 -17.5,-36.1 -15.1,-24.63 -37.6,-54.17 -62.8,-85.92 -37.9,-47.7 -81.8,-100.51 -116.8,-152.25 -17.4,-25.9 -32.7,-51.54 -43.7,-76.52 -5.5,-12.5 -10,-24.83 -13.2,-37.02 -3.1,-12.18 -4.9,-24.23 -4.9,-36.09 0,-11.1 1.6,-22.06 5.2,-32.51 3.6,-10.46 9.1,-20.36 16.7,-29.24 8,-9.52 17.9,-17.96 29.2,-25.49 19.9,-13.18 44.3,-23.69 73,-32.35 42.9,-12.96 95.4,-21.7 156.1,-27.32 60.7,-5.6 129.6,-8.03 205.2,-8.03 253.2,0.01 581.4,27.26 920,55.33 l -2.8,33.83 c -338.5,-28.08 -666.3,-55.23 -917.2,-55.22 -114,-0.01 -212.2,5.64 -287.7,19.07 -37.7,6.69 -69.8,15.35 -95,25.89 -12.7,5.27 -23.6,10.99 -32.8,17.07 -9.1,6.09 -16.5,12.51 -22.1,19.17 -4.9,5.77 -8.3,11.76 -10.5,18.28 -2.2,6.53 -3.4,13.64 -3.4,21.52 0,13.65 3.5,29.61 10.2,47.07 5.8,15.29 13.9,31.68 23.8,48.69 17.4,29.77 40,61.39 64.3,92.95 36.3,47.36 76.1,94.53 107.3,136.49 15.6,21.01 29.1,40.7 38.9,58.95 5,9.14 9,17.93 11.9,26.54 2.9,8.6 4.8,17.06 4.8,25.65 0,5.77 -0.9,11.63 -3,17.24 -1.5,4.19 -3.8,8.21 -6.7,11.78 -4.3,5.39 -9.9,9.68 -16.1,12.88 -6.3,3.22 -13.3,5.44 -21.1,6.96 -10.1,1.98 -21.9,2.79 -35.6,2.8 -30.7,-0.02 -71.3,-4.2 -121.1,-11.79 -87.1,-13.31 -202.1,-37.2 -336.5,-68.57 -403.2,-94.1 -981.6,-255.53 -1497.5,-399.51 l 4.6,-16.35 v 16.98 h -0.2 c -1.6,0 -16.6,0.06 -32.8,1.01 -8.1,0.46 -16.5,1.16 -23.5,2.12 -3.5,0.48 -6.6,1.02 -9,1.58 -2.4,0.53 -4.1,1.15 -4.4,1.29 -4.1,1.89 -9,4.17 -14.5,6.9 -8.2,4.11 -17.6,9.25 -26.8,15.47 -9.3,6.21 -18.4,13.5 -26.1,21.74 -10.3,10.96 -19.1,24.88 -27.6,40.36 -8.6,15.46 -16.8,32.38 -26.5,49.07 -4.8,8.32 -10.4,17.31 -18.4,26.08 -5.9,6.57 -13.2,12.93 -22.2,18.74 -13.5,8.73 -30.6,16.24 -53.4,22.59 -22.8,6.34 -51.2,11.57 -87.8,15.61 -32.5,3.58 -71.3,6.21 -114.7,8.35 -130.4,6.38 -303,8.23 -469.7,16.54 -222.3,11.07 -435,33.65 -643,48.55 -137.2,9.83 -272.2,16.3 -404.2,16.3 -68.1,0 -135.3,-1.72 -201.5,-5.58 -97.5,-5.69 -192.7,-15.99 -275.2,-26.73 -82.5,-10.74 -152.3,-21.92 -198.7,-29.36 -45.1,-7.24 -104.4,-10.95 -152.7,-10.93 -24.1,-0.01 -45.6,0.93 -60.7,2.68 -7.6,0.85 -13.6,1.96 -17.1,2.95 -0.8,0.24 -1.5,0.46 -2,0.63 -0.3,0.13 -0.5,0.23 -0.6,0.26 v -0.04 0.04 0 -0.04 0.04 l -3.2,-5.92 4.4,5.06 c -0.7,0.62 -1.1,0.81 -1.2,0.86 l -3.2,-5.92 4.4,5.06 -8.1,-9.35 10.9,5.69 c -1,1.95 -2.1,3.04 -2.8,3.66 l -8.1,-9.35 10.9,5.69 c -1.9,3.71 -4.2,8.09 -6.7,13.53 -3.9,8.14 -8.3,18.62 -12.9,32.23 -4.5,13.6 -9.2,30.32 -13.3,50.83 -6.5,32.61 -11.6,74.89 -11.6,116.88 0,28.47 2.3,56.81 8,81.82 7,30.94 18.9,57.43 35.6,81.45 16.7,23.99 38.3,45.52 64.6,65.84 52.7,40.66 124.1,75.96 200.7,107.77 76.7,31.84 157.5,59.94 268.2,83.52 55.4,11.78 118.8,22.49 178.3,31.55 59.6,9.07 115.4,16.51 155.8,21.82 20.2,2.65 36.6,4.77 53.4,6.54 25.2,2.64 51.6,4.51 94.2,6.18 42.6,1.67 101.2,3.12 190.1,4.9 211.7,4.25 595.5,10.39 837.2,10.39 29.1,0 56.1,-0.09 80.5,-0.28 59.6,-0.47 103.7,-1.56 132.5,-3.12 14.4,-0.78 25,-1.7 31.4,-2.61 1.5,-0.22 2.8,-0.44 3.8,-0.63 0.7,-0.14 1.2,-0.27 1.4,-0.34 l 0.2,-0.04 1.5,4.83 -2,-4.64 c 0.4,-0.15 0.5,-0.19 0.5,-0.19 l 1.5,4.83 -2,-4.64 4.5,10.18 -5.7,-9.54 c 0.5,-0.34 0.9,-0.52 1.2,-0.64 l 4.5,10.18 -5.7,-9.54 7.5,12.6 -11.3,-9.26 c 1.6,-2.02 2.9,-2.82 3.8,-3.34 l 7.5,12.6 -11.3,-9.26 12.3,10.1 -14.8,-5.97 c 0.7,-1.77 1.6,-3.12 2.5,-4.13 l 12.3,10.1 -14.8,-5.97 15.1,6.08 h -16.3 c 0,-2.17 0.5,-4.34 1.2,-6.08 l 15.1,6.08 h -16.3 16.3 l -15.5,5 c -0.5,-1.48 -0.8,-3.22 -0.8,-5 h 16.3 l -15.5,5 15.1,-4.85 -11.6,10.84 c -1,-1.17 -2.5,-3.04 -3.5,-5.99 l 15.1,-4.85 -11.6,10.84 10.3,-9.67 -7.7,11.8 c -0.6,-0.4 -1.5,-0.99 -2.6,-2.13 l 10.3,-9.67 -7.7,11.8 4.4,-6.72 -2.9,7.55 c 0,-0.02 -0.4,-0.09 -1.5,-0.83 l 4.4,-6.72 -2.9,7.55 c -0.1,-0.04 -1.4,-0.46 -3.4,-0.9 -3.4,-0.79 -9.1,-1.76 -16.3,-2.76 -11,-1.52 -25.8,-3.16 -44.3,-4.87 -18.5,-1.7 -40.7,-3.49 -66.4,-5.33 -95.1,-6.82 -238.9,-14.4 -389.9,-22.58 -151.1,-8.17 -309.5,-16.95 -434.3,-26.18 -124.8,-9.24 -216.1,-18.94 -291.5,-30.56 -75.4,-11.61 -135,-25.18 -195.8,-41.96 -121.7,-33.58 -249.8,-80.24 -357.1,-135.68 -107.3,-55.44 -193.4,-119.74 -278.6,-202.86 -42.6,-41.55 -84.9,-87.67 -121.9,-128.81 -18.6,-20.56 -35.8,-39.87 -51.1,-56.7 -15.2,-16.82 -28.6,-31.18 -39.1,-41.66 -9.5,-9.48 -16.8,-15.85 -21.8,-19.33 -2.5,-1.75 -4.3,-2.75 -5.2,-3.14 l -0.5,-0.2 -0.2,-0.04 0.6,-2.08 -0.3,2.13 -0.3,-0.05 0.6,-2.08 -0.3,2.13 0.8,-5.51 v 5.56 c -0.4,0 -0.6,-0.03 -0.8,-0.05 l 0.8,-5.51 v 5.56 -8.3 l 2.9,7.75 c -1.1,0.4 -2.2,0.56 -2.9,0.55 v -8.3 l 2.9,7.75 -3,-8.06 5.3,6.77 c -0.6,0.45 -1.4,0.96 -2.3,1.29 l -3,-8.06 5.3,6.77 -3.7,-4.73 4.6,3.82 c -0.1,0.18 -0.4,0.52 -0.9,0.91 l -3.7,-4.73 4.6,3.82 -1.8,-1.54 1.9,1.39 -0.1,0.15 -1.8,-1.54 1.9,1.39 -0.1,-0.11 0.2,0.1 -0.1,0.01 -0.1,-0.11 0.2,0.1 c -0.1,0.07 -1.1,1.99 -2,5.05 -0.9,3.07 -1.9,7.24 -3,12.07 -1.7,7.25 -3.6,15.8 -6.7,26.54 -4.5,16.13 -11.5,37.1 -23.5,66.9 -11.9,29.81 -29,68.5 -53.8,120.31 -66.4,138.13 -188.44,369.67 -308.92,554.86 -60.26,92.61 -119.99,173.37 -181.74,252.07 -61.75,78.71 -125.5,155.34 -193.96,239.86 -136.9,169.03 -293.3,370.41 -376.57,481.59 -41.65,55.55 -64.75,88.41 -77.94,113.8 -6.62,12.71 -10.86,23.53 -14.1,35.07 -3.23,11.53 -5.45,23.94 -7.63,39.44 -6.88,48.67 -12.86,123.81 -12.84,181.96 0,15.92 0.44,30.56 1.4,42.9 0.84,10.87 2.09,20 3.62,27.37 1.14,5.52 2.45,10.05 3.78,13.53 0.99,2.61 1.99,4.62 2.87,6.04 1.32,2.16 2.28,2.88 2.47,2.99 v 0 0 0 0 0 c 0.2,0 0.91,-0.05 2.2,-0.51 1.27,-0.46 3.09,-1.33 5.26,-2.73 2.23,-1.44 4.74,-3.34 7.76,-6.06 5.28,-4.75 12.07,-12.05 21.07,-23.06 13.53,-16.52 32.01,-41.3 58.68,-78.28 26.68,-37 61.6,-86.22 108.23,-151.89 71.07,-100.05 169.29,-238.17 270.12,-384.09 100.82,-145.9 204.27,-299.63 285.65,-430.67 81.38,-131.04 140.81,-239.55 186.54,-331.98 45.73,-92.44 77.75,-168.79 104.35,-235.71 26.6,-66.92 47.6,-124.12 63.6,-170.78 16,-46.65 26.9,-82.82 33.2,-107.41 2.4,-9.33 4.2,-16.98 5.3,-22.82 0.5,-2.91 0.9,-5.37 1.2,-7.29 0.2,-1.91 0.3,-3.32 0.3,-3.9 v -0.25 l 2.2,-0.12 -2.2,0.25 v -0.13 l 2.2,-0.12 -2.2,0.25 8.6,-0.99 -8.3,2.32 c -0.2,-0.73 -0.3,-1.13 -0.3,-1.33 l 8.6,-0.99 -8.3,2.32 12.4,-3.45 -11.6,5.71 c -0.4,-0.97 -0.7,-1.71 -0.8,-2.26 l 12.4,-3.45 -11.6,5.71 13.2,-6.49 -11.6,9.02 c -0.7,-0.95 -1.2,-1.81 -1.6,-2.53 l 13.2,-6.49 -11.6,9.02 12.3,-9.59 -7.2,13.83 c -2.2,-1.19 -4,-2.83 -5.1,-4.24 l 12.3,-9.59 -7.2,13.83 7.3,-14.02 v 15.79 c -2.2,0.02 -5,-0.57 -7.3,-1.77 l 7.3,-14.02 v 15.79 -15.25 l 4.7,14.53 c -1.2,0.38 -2.8,0.72 -4.7,0.72 v -15.25 l 4.7,14.53 -4,-12.4 7.9,10.4 c -0.6,0.45 -1.7,1.25 -3.9,2 l -4,-12.4 7.9,10.4 -3.9,-5.09 4.6,4.46 c 0,0.02 -0.2,0.23 -0.7,0.63 l -3.9,-5.09 4.6,4.46 v 0 c 0,0.08 -0.5,0.61 -1.1,1.46 -0.9,1.28 -2.2,3.28 -3.7,5.87 -1.5,2.58 -3.2,5.76 -5.2,9.46 -4.3,8.4 -9.6,19.61 -15.8,33.04 -18.6,40.33 -44.9,100.61 -78.7,169.75 -45.1,92.21 -103.74,200.18 -175.3,304 -35.77,51.91 -75.11,103.17 -130.06,160.63 -54.95,57.49 -125.47,121.18 -223.87,198.59 -98.38,77.39 -224.54,168.46 -346.85,254.66 -122.3,86.19 -240.74,167.49 -323.36,225.08 -82.62,57.58 -129.42,91.44 -156.33,111.34 -13.45,9.95 -21.92,16.4 -27.5,20.65 -2.79,2.14 -4.86,3.72 -6.59,5 -1.74,1.29 -3.1,2.28 -4.92,3.36 l 0.03,-0.01 c -0.86,0.51 -1.81,1.04 -3.23,1.62 -0.72,0.3 -1.57,0.6 -2.68,0.89 -1.12,0.27 -2.52,0.54 -4.42,0.54 -1.74,0 -3.99,-0.25 -6.5,-1.24 -1.86,-0.74 -3.82,-1.93 -5.43,-3.46 -1.22,-1.14 -2.24,-2.43 -3,-3.71 -1.16,-1.92 -1.77,-3.76 -2.1,-5.29 -0.34,-1.54 -0.41,-2.79 -0.42,-3.84 0.02,-2.24 0.34,-3.61 0.6,-4.74 0.53,-2.05 1.06,-3.27 1.59,-4.5 0.92,-2.09 1.93,-4.01 3.14,-6.27 1.81,-3.36 4.07,-7.37 6.74,-12.21 2.66,-4.83 5.73,-10.46 9.08,-16.92 3.51,-6.77 7.66,-15.1 13.59,-25.18 8.92,-15.16 21.83,-34.14 43,-58.96 21.19,-24.84 50.68,-55.63 93.09,-94.89 56.51,-52.31 135.79,-119.51 220.97,-190.61 85.17,-71.07 176.21,-145.98 255.92,-213.37 159.44,-134.8 273.57,-239.5 381.62,-356.26 108.06,-116.78 210.31,-245.99 280.56,-346.52 70.23,-100.55 108.63,-172.32 139.33,-233.94 15.4,-30.83 28.8,-58.99 40.4,-83.46 11.6,-24.48 21.3,-45.23 29.6,-61.44 8.2,-16.21 14.7,-27.61 19.6,-35.55 2.4,-3.96 4.4,-7.06 5.8,-9.36 0.8,-1.15 1.4,-2.09 1.8,-2.79 0.4,-0.69 0.7,-1.16 0.7,-1.2 v 0.01 l 1.7,0.91 -1.7,-0.83 v -0.08 l 1.7,0.91 -1.7,-0.83 8.4,3.97 -8.8,-3.1 c 0.2,-0.56 0.3,-0.76 0.4,-0.87 l 8.4,3.97 -8.8,-3.1 13.6,4.79 -14,-3.45 c 0.2,-0.67 0.3,-1.05 0.4,-1.34 l 13.6,4.79 -14,-3.45 15.5,3.83 -15.8,-2.47 c 0.1,-0.59 0.2,-1.01 0.3,-1.36 l 15.5,3.83 -15.8,-2.47 16.4,2.56 h -16.6 c 0,-1.2 0.2,-1.96 0.2,-2.56 l 16.4,2.56 h -16.6 16.8 l -16.5,2.74 c -0.2,-1.19 -0.3,-2.04 -0.3,-2.74 h 16.8 l -16.5,2.74 16.6,-2.75 -15.7,6.06 c -0.5,-1.34 -0.8,-2.42 -0.9,-3.31 l 16.6,-2.75 -15.7,6.06 15.8,-6.08 -14,9.49 c -0.9,-1.25 -1.4,-2.41 -1.8,-3.41 l 15.8,-6.08 -14,9.49 14,-9.5 -8.1,14.9 c -2.7,-1.43 -4.7,-3.53 -5.9,-5.4 l 14,-9.5 -8.1,14.9 8.1,-14.9 v 16.94 c -2.4,0.03 -5.4,-0.59 -8.1,-2.04 l 8.1,-14.9 v 16.94 -16.91 l 6.6,15.55 c -1.4,0.62 -3.6,1.34 -6.6,1.36 v -16.91 l 6.6,15.55 -6.6,-15.46 9.7,13.73 c -0.7,0.5 -1.6,1.1 -3.1,1.73 l -6.6,-15.46 9.7,13.73 -9.5,-13.45 12,11.31 c -0.5,0.5 -1.1,1.15 -2.5,2.14 l -9.5,-13.45 12,11.31 -10.7,-10.13 12.1,8.42 c -0.2,0.32 -0.5,0.75 -1.4,1.71 l -10.7,-10.13 12.1,8.42 -7.7,-5.37 8,4.86 c 0,0.07 -0.1,0.22 -0.3,0.51 l -7.7,-5.37 8,4.86 -2.6,-1.59 2.7,1.53 -0.1,0.06 -2.6,-1.59 2.7,1.53 -0.1,0.13 c -0.2,0.33 -0.6,1.21 -1.2,2.56 -1.8,4.09 -5.1,12.46 -9.6,26.72 -5.2,16.57 -12.2,41.47 -20.5,70.08 -8.4,28.63 -18.2,61.04 -29.1,93.08 -10.9,32.05 -23,63.82 -39,98.74 -16,34.93 -35.9,73 -62.4,117.81 -53.11,89.63 -132.95,206.75 -243.83,334.69 -110.87,127.92 -252.31,266.17 -388.02,387.44 -135.71,121.26 -265.68,225.49 -418.12,341.09 -76.22,57.8 -158.04,118.43 -232,173.55 -73.94,55.1 -140.07,104.74 -184.6,140.31 -37.83,30.2 -60.2,50.38 -72.59,63.15 -6.19,6.35 -9.87,10.9 -11.59,13.43 -0.43,0.63 -0.73,1.12 -0.92,1.45 l -0.24,0.45 v 0 l -8.68,-3.72 h 9.3 c -0.05,2.64 -0.6,3.59 -0.62,3.72 l -8.68,-3.72 h 9.3 -14.03 l 13.6,-3.43 c 0.33,1.32 0.43,2.49 0.43,3.43 h -14.03 l 13.6,-3.43 -14.64,3.69 11.39,-9.88 c 1.66,1.89 2.77,4.22 3.25,6.19 l -14.64,3.69 11.39,-9.88 -11.48,9.95 5.98,-13.97 c 1.8,0.75 3.86,2.11 5.5,4.02 l -11.48,9.95 5.98,-13.97 0.07,0.02 0.09,0.04 -5.86,13.32 v -14.57 c 1.52,0 3.6,0.26 5.86,1.25 l -5.86,13.32 v -14.57 11.55 l -4.89,-10.56 c 0.7,-0.29 2.09,-0.94 4.89,-0.99 v 11.55 l -4.89,-10.56 2.39,5.17 -2.98,-4.86 c 0.1,-0.06 0.28,-0.16 0.59,-0.31 l 2.39,5.17 -2.98,-4.86 1.09,1.77 -1.17,-1.72 0.08,-0.05 1.09,1.77 -1.17,-1.72 0.11,0.16 -0.11,-0.15 v -0.01 l 0.11,0.16 -0.11,-0.15 c 0.05,-0.03 0.86,-0.68 1.88,-1.87 1.55,-1.77 3.63,-4.72 5.66,-8.66 2.05,-3.95 4.07,-8.9 5.73,-14.79 1.51,-5.38 2.81,-11.95 3.95,-19.23 1.72,-10.94 3.09,-23.48 4.74,-36.49 1.67,-13.02 3.61,-26.52 6.68,-39.64 2.03,-8.74 4.67,-17.58 8.68,-26.89 3.01,-6.99 6.77,-14.21 11.53,-21.92 14.33,-23.17 37.42,-50.86 78.66,-94.03 36.65,-38.35 87.75,-88.92 145.9,-144.67 58.15,-55.75 123.31,-116.65 187.97,-175.51 129.33,-117.75 256.14,-226.93 406.34,-369.79 150.21,-142.86 324.17,-319.77 439.2,-445.91 57.51,-63.06 100.28,-113.41 134.62,-156.92 34.34,-43.51 60.24,-80.16 84.13,-116.05 23.86,-35.89 45.76,-70.94 65.06,-101.96 19.3,-31.03 36.1,-57.95 50.2,-77.98 14.2,-20.03 25.5,-32.75 33.8,-41.27 4.2,-4.25 7.6,-7.45 9.9,-9.73 1.1,-1.13 2,-2.03 2.5,-2.64 0.3,-0.3 0.5,-0.53 0.6,-0.66 l 0.1,-0.14 v -0.01 l 0.9,0.61 -0.9,-0.58 v -0.03 l 0.9,0.61 -0.9,-0.58 3.5,2.25 -3.9,-1.38 c 0.2,-0.55 0.3,-0.75 0.4,-0.87 l 3.5,2.25 -3.9,-1.38 8.1,2.85 -8.4,-1.67 c 0.1,-0.54 0.2,-0.9 0.3,-1.18 l 8.1,2.85 -8.4,-1.67 11.6,2.31 h -11.9 c 0,-1.05 0.2,-1.76 0.3,-2.31 l 11.6,2.31 h -11.9 14.2 l -13.8,3.19 c -0.3,-1.34 -0.4,-2.37 -0.4,-3.19 h 14.2 l -13.8,3.19 15,-3.45 -13.7,7.02 c -0.7,-1.36 -1.1,-2.56 -1.3,-3.57 l 15,-3.45 -13.7,7.02 14.2,-7.26 -12,10.46 c -1,-1.09 -1.7,-2.19 -2.2,-3.2 l 14.2,-7.26 -12,10.46 12.1,-10.62 -6.5,14.77 c -2.2,-0.97 -4.2,-2.52 -5.6,-4.15 l 12.1,-10.62 -6.5,14.77 6.5,-14.67 v 16.03 c -1.9,0.01 -4.2,-0.37 -6.5,-1.36 l 6.5,-14.67 v 16.03 -15.46 l 4.3,14.87 c -1.1,0.32 -2.6,0.59 -4.3,0.59 v -15.46 l 4.3,14.87 -3.8,-13.05 7.7,11.21 c -0.7,0.48 -1.8,1.21 -3.9,1.84 l -3.8,-13.05 7.7,11.21 -4.8,-7.06 5.9,6.21 c -0.1,0.14 -0.4,0.42 -1.1,0.85 l -4.8,-7.06 5.9,6.21 -2,-2.08 2.1,1.97 -0.1,0.11 -2,-2.08 2.1,1.97 v 0.05 c -0.3,0.28 -1.4,1.77 -2.9,4.36 -1.5,2.61 -3.4,6.34 -5.6,11.31 -3,6.94 -6.8,16.56 -11.2,28.24 -6.6,17.54 -14.9,39.76 -25.2,65.46 -10.3,25.71 -22.7,54.91 -37.8,86.53 -40.2,84.29 -99,184.8 -157.6,272.89 -58.63,88.1 -117.61,164.13 -215.29,265.6 -97.72,101.51 -234.26,228.75 -462.52,429.25 -114.14,100.25 -251.23,218.83 -381.2,328.39 -129.99,109.57 -252.76,210.05 -338.66,274.38 -47.81,35.79 -84.16,60.39 -112.43,76.38 -14.15,7.99 -26.29,13.84 -37.08,17.84 -10.81,3.97 -20.31,6.19 -29.52,6.22 -3.67,0 -7.3,-0.38 -10.83,-1.23 -6.17,-1.46 -12.02,-4.55 -16.5,-8.74 -3.39,-3.12 -6.01,-6.74 -8.01,-10.45 -3.01,-5.59 -4.73,-11.37 -5.91,-17.26 -1.17,-5.89 -1.78,-11.92 -2.16,-18.14 v 0.01 c -0.31,-5.24 -0.45,-10.68 -0.45,-16.31 0.01,-27.85 3.42,-60.57 7.84,-92.11 4.43,-31.52 9.89,-61.75 14.12,-83.96 1.16,-6.1 2.3,-12 3.96,-18.21 1.46,-5.43 3.33,-11.05 5.9,-16.97 4.51,-10.4 11.04,-21.55 21.01,-35.45 14.97,-20.85 37.85,-48.23 74.88,-89.73 37.03,-41.47 88.21,-97 159.57,-173.7 248.53,-267.08 742.08,-791 990,-1057.07 112.08,-120.3 173.97,-187.91 207.5,-226.72 16.74,-19.37 26.4,-31.61 31.34,-38.95 2.47,-3.65 3.71,-6.04 4.13,-7.07 0.11,-0.26 0.17,-0.43 0.2,-0.52 l 0.02,-0.06 v -0.01 l 3.85,0.98 h -3.95 c 0,-0.46 0.08,-0.94 0.1,-0.98 l 3.85,0.98 h -3.95 4.3 l -4.25,0.69 c -0.01,-0.06 -0.05,-0.35 -0.05,-0.69 h 4.3 l -4.25,0.69 0.05,-0.01 -0.05,0.01 v 0 l 0.05,-0.01 -0.05,0.01 c -0.01,-0.04 -0.05,-0.23 -0.13,-0.59 -0.61,-2.49 -1.63,-5.74 -2.88,-9.39 -1.88,-5.49 -4.25,-11.87 -6.39,-18.69 -2.13,-6.83 -4.07,-14.11 -4.82,-21.92 v 0.01 c -0.16,-1.66 -0.26,-3.43 -0.26,-5.31 -0.01,-2.73 0.23,-5.72 0.89,-8.83 1.13,-5.46 3.68,-11.11 7.41,-16.1 2.79,-3.77 6.18,-7.25 10.2,-10.65 6.04,-5.09 13.51,-10.04 23.09,-15.4 9.59,-5.37 21.32,-11.13 35.86,-17.61 32.05,-14.27 77.81,-32.03 124.27,-48.71 46.5,-16.68 93.6,-32.22 128.1,-41.92 17,-4.78 31.1,-8.15 43.1,-10.35 12,-2.21 22,-3.25 31,-3.26 9.2,-0.01 17.4,1.17 24.7,3.18 7.3,2.01 13.5,4.72 19.6,7.45 2.9,1.36 5.4,2.49 8.6,3.68 2.8,1.03 6.2,2.14 11,3.33 16.9,4.19 50.4,9.12 123.1,13.27 72.8,4.18 184.7,7.69 359.1,9.56 137.1,1.47 312.9,1.93 503.8,1.93 319.8,0 682,-1.29 975.6,-1.29 113.5,0 216.7,0.19 303.3,0.72 201.5,1.26 313,4.34 374.9,8.65 15.5,1.09 27.9,2.25 37.9,3.5 7.5,0.95 13.7,1.94 19,3.04 3.9,0.82 7.3,1.7 10.4,2.74 2.3,0.78 4.5,1.65 6.6,2.74 1.6,0.82 3.2,1.77 4.8,2.97 2.3,1.79 4.7,4.25 6.4,7.46 1.7,3.18 2.6,6.98 2.5,10.11 0,2.75 -0.5,4.99 -1,6.72 -0.5,1.75 -1.1,3.03 -1.5,4.02 v 0.01 c -2.4,5.2 -5.5,9.76 -9,14.07 -5.3,6.44 -11.6,12.31 -18.3,17.75 -6.7,5.43 -13.7,10.38 -20.6,14.67 -2.3,1.42 -5.5,3.38 -9.6,5.05 -3.6,1.47 -7.7,2.73 -12.7,3.81 -8.8,1.9 -20.4,3.42 -38.4,4.83 -26.8,2.09 -67.9,3.87 -133.5,5.46 -65.6,1.59 -155.6,2.98 -280.1,4.25 -433.7,4.41 -1285.5,7.36 -1721.7,7.57 -16.2,0.01 -31.9,0.01 -47,0.01 -195.4,0 -297.7,-0.67 -353.3,-2.55 -13.9,-0.47 -24.9,-1.01 -33.8,-1.66 -13.4,-0.99 -21.9,-2.11 -28.8,-3.88 -3.4,-0.9 -6.6,-2.02 -9.4,-3.45 -2.8,-1.41 -5.2,-3.12 -6.8,-4.45 -4.6,-3.7 -8.1,-7.87 -11,-11.96 -4.4,-6.16 -7.4,-12.15 -10.3,-17.33 -2.8,-5.21 -5.5,-9.58 -8.3,-12.84 -2.5,-3.01 -5.4,-5.36 -8.5,-6.97 -3.2,-1.6 -6.7,-2.59 -11.4,-2.61 -4.4,0 -9.8,0.89 -16.6,3.49 -5.4,2.07 -11.9,5.37 -18.6,9.47 -10.1,6.16 -20.7,14.13 -29.7,22.37 -9.1,8.2 -16.7,16.83 -20.8,23.37 -2.4,3.96 -3.8,7.24 -4.7,10.23 -0.8,2.99 -1.1,5.74 -1.1,8.78 0,3.63 0.5,7.69 1.3,12.5 0.8,4.79 1.9,10.28 2.6,16.58 v 0.02 c 0.2,1.61 0.4,3.77 0.4,6.35 0.1,4.22 -0.7,9.27 -2.4,14.49 -3,9.23 -8.7,19.46 -19.1,34.56 -15.7,22.6 -42.8,56.22 -90.4,110.55 -47.6,54.3 -115.78,129.2 -213.34,233.74 -319.98,342.87 -956.54,1004.59 -1285.12,1338.91 -76.87,78.2 -137,138.65 -190.41,185.64 -40.05,35.23 -76.38,62.93 -113.12,84.61 -27.54,16.25 -55.31,29.07 -84.76,39.04 -44.19,14.97 -92.03,23.51 -148.92,28.33 -56.91,4.82 -122.98,5.96 -204.27,5.97 -26.52,0 -54.67,-0.13 -84.64,-0.29 -465.39,-2.48 -1375.7,-13.99 -1830.75,-15.96 -31.54,-0.14 -60.88,-0.23 -88.17,-0.23 -87.54,0 -154.02,0.94 -204.03,4.25 -37.49,2.47 -65.71,6.32 -86.2,11.74 -15.39,4.05 -26.29,8.94 -33.91,14.3 -5.73,4.04 -9.74,8.28 -12.97,13.27 -2.42,3.75 -4.39,7.99 -6.01,12.99 -2.44,7.49 -4.03,16.72 -4.93,27.8 -0.91,11.08 -1.14,23.96 -1.13,38.62 0,5.73 0.03,11.73 0.06,18.01 0.46,83.25 1.18,209.81 1.18,333.05 0,102.1 -0.49,201.91 -2.02,273.12 -0.33,15.16 -0.69,28.87 -0.69,41.14 -0.01,14.38 0.52,26.79 2.02,37.16 1.32,9.1 3.36,16.58 6.23,22.81 2.52,5.45 5.63,10.01 9.85,14.27 3.69,3.71 8.3,7.21 14.3,10.53 10.47,5.83 25.26,11.02 45.4,15.24 30.2,6.35 72.22,10.51 129.02,13.1 56.81,2.6 128.45,3.69 218.37,4.25 48.83,0.3 103.04,0.44 161.47,0.44 483.34,0.01 1255.56,-9.83 1664.94,-21.27 114.7,-3.2 200.87,-6.53 265.77,-10.89 48.66,-3.27 85.36,-7.13 112.92,-11.85 20.66,-3.53 36.16,-7.55 47.61,-11.92 8.6,-3.28 14.9,-6.71 19.71,-10.23 3.61,-2.64 6.42,-5.32 8.86,-8.26 3.65,-4.4 6.55,-9.48 9.34,-15.96 2.78,-6.45 5.38,-14.24 8.4,-23.33 12.71,-38.27 30.85,-91.89 48.98,-144.3 18.13,-52.42 36.22,-103.56 48.96,-137.11 5.77,-15.18 10.41,-26.72 14.13,-34.93 0.93,-2.06 1.81,-3.92 2.67,-5.62 0.64,-1.27 1.26,-2.45 1.9,-3.59 0.49,-0.85 0.98,-1.68 1.54,-2.52 0.86,-1.27 1.73,-2.56 3.44,-4.29 0.89,-0.86 2,-1.87 3.89,-2.98 0.95,-0.55 2.11,-1.13 3.59,-1.6 1.47,-0.47 3.28,-0.83 5.34,-0.83 2.41,-0.02 5.15,0.56 7.47,1.68 2.04,0.96 3.73,2.27 4.98,3.54 2.2,2.27 3.19,4.31 3.85,5.88 0.94,2.37 1.16,3.94 1.34,5.28 0.16,1.34 0.19,2.42 0.2,3.47 -0.01,1.75 -0.12,3.38 -0.29,5.14 -0.3,3.07 -0.81,6.53 -1.51,10.64 -2.1,12.27 -6.03,30.39 -11.89,55.17 -10.23,43.2 -26.33,106.44 -43.09,169.3 -16.77,62.88 -34.15,125.27 -46.99,166.92 -3.22,10.41 -6.25,20 -10.35,29.13 -3.59,7.98 -8.1,15.65 -14.29,22.52 -5.39,6.01 -12.01,11.27 -19.75,15.6 -6.78,3.8 -14.41,6.93 -23.08,9.6 -15.19,4.64 -33.61,7.92 -57.13,10.47 -35.26,3.8 -82.08,5.92 -146.1,7.45 -64,1.52 -145.15,2.43 -248.7,3.7 -471.1,5.8 -1406.48,19.18 -1877.26,23.49 -92.96,0.86 -167.82,1.35 -228.17,1.35 -61.32,0 -107.66,-0.51 -142.88,-1.7 -26.43,-0.9 -46.6,-2.16 -62.34,-3.94 -11.81,-1.34 -21.14,-2.94 -28.97,-5.08 -5.87,-1.61 -10.94,-3.52 -15.54,-6.13 -3.43,-1.96 -6.59,-4.36 -9.24,-7.21 -1.99,-2.14 -3.66,-4.51 -4.95,-6.91 -1.95,-3.62 -3.02,-7.2 -3.67,-10.32 -0.65,-3.14 -0.93,-5.88 -1.18,-8.34 -1.08,-10.69 -1.84,-23.76 -2.36,-37.82 -0.51,-14.04 -0.76,-29.04 -0.76,-43.37 0,-17.45 0.37,-33.87 1.13,-46.55 0.13,-2.1 0.27,-4.42 0.64,-7.06 0.35,-2.46 0.91,-5.23 1.98,-8.19 0.99,-2.76 2.47,-5.67 4.47,-8.34 1.86,-2.52 4.14,-4.79 6.65,-6.72 4.73,-3.63 10.12,-6.11 16.36,-8.15 5.47,-1.78 11.69,-3.22 19.1,-4.5 12.95,-2.24 29.59,-3.98 51.78,-5.48 33.26,-2.23 78.98,-3.86 142.46,-5.25 63.48,-1.38 144.69,-2.52 248.74,-3.74 469.08,-5.5 1402.72,-12.64 1871.8,-23.49 110.26,-2.55 194.81,-5.3 259.45,-8.78 48.48,-2.61 85.77,-5.63 114.14,-9.23 21.27,-2.69 37.53,-5.72 49.55,-8.99 9.01,-2.44 15.61,-5.02 20.14,-7.45 3.41,-1.81 5.64,-3.5 7.14,-4.96 1.13,-1.11 1.87,-2.08 2.47,-3.08 0.88,-1.49 1.5,-3.14 1.98,-5.59 0.47,-2.43 0.7,-5.62 0.7,-9.55 0,-2.8 -0.11,-5.95 -0.26,-9.42 -1.24,-29.14 -4.38,-69.8 -8.37,-109.41 -1.99,-19.8 -4.19,-39.36 -6.47,-57.11 -2.28,-17.74 -4.64,-33.69 -6.9,-46.14 -0.95,-5.3 -1.85,-9.42 -2.84,-12.24 -0.87,-2.49 -1.68,-3.93 -2.65,-5.14 -0.87,-1.05 -1.94,-2.07 -4,-3.33 -1.79,-1.08 -4.35,-2.29 -7.93,-3.48 -6.24,-2.1 -15.51,-4.08 -28.32,-5.65 -19.24,-2.39 -46.36,-3.93 -83.74,-4.83 -37.4,-0.9 -85.1,-1.19 -145.86,-1.19 -48.32,0 -104.9,0.18 -171.17,0.37 -445.27,1.27 -1327.17,2.9 -1771.83,6.03 -111.15,0.78 -194.96,1.66 -258.08,3.17 -47.32,1.14 -83.03,2.64 -109.74,4.69 -20.03,1.53 -35.01,3.4 -45.81,5.53 -8.09,1.59 -13.81,3.35 -17.44,4.93 -2.73,1.19 -4.25,2.23 -5.07,2.93 -0.62,0.54 -0.88,0.88 -1.13,1.26 -0.35,0.55 -0.74,1.33 -1.16,3.14 -0.42,1.78 -0.77,4.48 -1.11,7.98 -0.99,10.21 -1.77,23.11 -2.3,37.19 -0.53,14.09 -0.8,29.38 -0.8,44.53 0,14.02 0.23,27.92 0.71,40.61 0.48,12.68 1.22,24.17 2.17,33.2 0.36,3.55 0.76,6.15 1.18,7.67 0.37,1.35 0.65,1.81 0.87,2.14 0.21,0.28 0.44,0.59 1.37,1.25 0.8,0.55 2.16,1.32 4.29,2.15 3.71,1.47 9.75,3.08 18.39,4.42 12.97,2.04 31.72,3.56 57.71,4.51 26,0.96 59.29,1.37 101.7,1.37 63.28,0 146.87,-0.92 257.2,-2.33 446.72,-5.67 1331.44,-19.13 1781.5,-27.96 112.51,-2.2 197.82,-4.12 262.7,-6.73 48.64,-1.96 85.8,-4.32 114.13,-7.42 21.24,-2.33 37.51,-5.09 49.78,-8.26 9.21,-2.38 16.13,-4.98 21.33,-7.65 3.92,-2 6.87,-4.02 9.31,-6.13 3.63,-3.16 6.26,-6.56 8.88,-11.2 2.6,-4.62 5.05,-10.51 7.77,-17.76 5.75,-15.27 12.12,-34.5 18.71,-55.61 9.88,-31.68 20.26,-67.64 30.03,-101.56 9.77,-33.94 18.92,-65.79 26.48,-89.61 4.81,-15.14 8.95,-26.98 12.7,-36.42 2.82,-7.09 5.42,-12.82 8.01,-17.66 1.95,-3.62 3.89,-6.75 6.04,-9.57 1.62,-2.11 3.36,-4.04 5.33,-5.79 2.92,-2.61 6.51,-4.76 10.16,-5.97 3.64,-1.22 7.06,-1.49 9.55,-1.48 0.78,0 1.48,0.02 2.11,0.05 h 0.01 c 6.69,0.34 13.67,1.78 20.56,4.86 3.44,1.55 6.84,3.52 10.05,6.06 3.21,2.54 6.23,5.66 8.72,9.4 l 0.01,0.01 c 1.85,2.74 3.71,6.49 4.77,10.55 1.09,4.09 1.51,8.36 1.51,13.05 -0.02,8.03 -1.18,17.59 -3.63,31.36 -2.46,13.76 -6.27,31.67 -11.84,55.79 -8.82,38.2 -22.07,91.98 -35.78,145.25 -13.71,53.27 -27.85,105.95 -38.51,142.07 -2.68,9.03 -5.23,17.57 -8.97,25.93 -3.26,7.3 -7.55,14.49 -13.52,20.89 -5.21,5.62 -11.61,10.52 -19.12,14.58 -13.2,7.12 -29.58,11.95 -51.57,15.77 -32.98,5.68 -79,9 -146.58,11.4 -67.54,2.39 -156.55,3.79 -274.79,5.31 -470.63,6.04 -1404.83,13.95 -1877.09,16.02 -62.88,0.27 -117.57,0.44 -165.18,0.44 -77.49,0 -136.19,-0.45 -180.9,-1.66 -33.54,-0.9 -59.2,-2.23 -79.19,-4.15 -15.01,-1.44 -26.82,-3.21 -36.58,-5.54 -7.32,-1.75 -13.53,-3.83 -19.04,-6.57 -4.13,-2.05 -7.87,-4.53 -11.09,-7.5 -2.42,-2.21 -4.52,-4.7 -6.22,-7.28 -2.56,-3.88 -4.2,-7.89 -5.3,-11.55 -1.1,-3.68 -1.73,-7.06 -2.29,-10.21 -2.5,-14.24 -4.46,-32.19 -5.85,-52.38 -1.37,-20.18 -2.15,-42.54 -2.15,-65.24 0,-19.77 0.59,-39.8 1.9,-58.88 4.3,-62.92 16.39,-114.29 28.02,-152.63 5.82,-19.16 11.59,-35.39 17.99,-49.15 6.42,-13.73 13.45,-25.11 22.32,-34.15 2.17,-2.24 5.67,-5.39 10.16,-7.8 3.92,-2.13 8.34,-3.75 13.55,-5.07 9.15,-2.3 21.08,-3.94 39.65,-5.48 27.8,-2.27 70.51,-4.14 138.81,-6.04 68.28,-1.9 162.09,-3.81 291.72,-6.11 451.44,-7.99 1337.41,-20.6 1787.84,-30.69 112.59,-2.52 197.94,-4.89 262.8,-7.79 48.64,-2.18 85.77,-4.66 114.08,-7.7 21.23,-2.27 37.49,-4.87 49.78,-7.77 9.22,-2.17 16.18,-4.5 21.37,-6.84 3.9,-1.76 6.8,-3.51 9.09,-5.23 3.42,-2.61 5.63,-5.13 7.85,-8.58 2.21,-3.43 4.3,-7.91 6.72,-13.64 5.09,-12.04 10.69,-27.01 16.45,-43.42 8.65,-24.62 17.69,-52.51 26.29,-79.23 8.6,-26.73 16.74,-52.26 23.7,-72.44 9.33,-26.94 16.37,-44.1 23.39,-56.45 3.53,-6.17 7.14,-11.2 11.26,-15.39 4.09,-4.18 8.78,-7.37 13.25,-9.45 6.41,-3.02 13.24,-4.57 20.12,-4.58 6.12,0.01 12.35,1.25 18.19,4.18 5.82,2.9 11.22,7.71 14.7,14.04 l 0.01,0.02 c 1.64,2.96 2.88,6.34 3.62,9.77 0.74,3.45 1.02,6.94 1.03,10.59 -0.04,8.41 -1.44,17.84 -4.05,31.03 -2.62,13.17 -6.55,30.02 -12,52.48 -7.81,32.17 -18.77,75.95 -30.38,119.28 -11.62,43.36 -23.85,86.17 -34.4,116.87 -5.29,15.38 -10.15,27.69 -14.8,37.77 -3.49,7.56 -6.86,13.86 -10.27,19.25 -5.08,8.06 -10.33,14.15 -15.91,18.7 -5.55,4.56 -11.27,7.31 -15.78,9.13 -2,0.82 -5,1.92 -8.51,2.7 -6.2,1.4 -13.88,2.25 -28.36,3.1 -21.68,1.24 -58.81,2.31 -127.06,3.49 -68.22,1.17 -167.49,2.45 -312.99,4.09 -443.44,4.99 -1316.3,13.29 -1759.29,14.31 -33.61,0.08 -64.73,0.12 -93.58,0.12 -175.72,0 -266.62,-1.34 -315.35,-2.72 -24.37,-0.69 -38.23,-1.39 -46.87,-1.95 -4.31,-0.28 -7.32,-0.52 -9.51,-0.69 -2.2,-0.17 -3.44,-0.25 -4.42,-0.27 h 0.07 c -0.28,-0.01 -0.53,-0.01 -0.74,-0.01 -4.35,-0.01 -9.66,0.94 -15.53,2.74 -5.87,1.79 -12.25,4.37 -18.79,7.19 -6.43,2.75 -13.23,5.85 -20.77,8.43 -7.54,2.55 -15.94,4.58 -25.23,4.58 -0.86,0 -1.73,-0.02 -2.61,-0.05 h 0.01 c -9.83,-0.43 -19.07,-3.06 -27.69,-6.66 -8.61,-3.63 -16.62,-8.3 -23.83,-13.33 -3.58,-2.49 -8.05,-5.84 -12.24,-10.72 -3.13,-3.64 -6.02,-8.03 -8.5,-13.16 -3.73,-7.73 -6.68,-17.09 -9.26,-29.42 -2.56,-12.34 -4.74,-27.73 -6.63,-47.63 -2.22,-23.56 -4.01,-53.42 -5.26,-85.53 -1.25,-32.09 -1.95,-66.4 -1.95,-98.7 0.01,-32.31 0.7,-62.58 2.27,-86.81 2.37,-36.32 6.69,-58.89 12.17,-75.16 2.73,-8.1 5.79,-14.58 8.74,-19.89 2.96,-5.31 5.7,-9.37 7.78,-12.81 2.1,-3.44 4.23,-7.32 6.64,-11.55 3.63,-6.33 7.93,-13.48 13.96,-20.65 6.01,-7.18 13.76,-14.29 23.79,-20.54 3.33,-2.09 7.53,-4.43 12.7,-6.5 4.54,-1.83 9.8,-3.49 16.2,-5 11.21,-2.65 25.98,-4.94 47.47,-7.04 32.23,-3.14 79.61,-5.81 152.12,-7.99 72.49,-2.18 170.06,-3.85 302.4,-4.94 174.42,-1.43 409.22,-1.84 658.03,-1.84 330.26,0 685.22,0.72 956.35,0.72 64.35,0 123.98,-0.04 177.43,-0.14 112.08,-0.21 197,-0.69 261.27,-1.99 48.19,-0.98 84.78,-2.43 112.34,-4.56 20.66,-1.59 36.25,-3.58 47.62,-5.9 8.52,-1.72 14.64,-3.65 18.68,-5.46 3.05,-1.36 4.89,-2.6 6.04,-3.58 0.86,-0.75 1.37,-1.35 1.81,-2.01 0.64,-0.97 1.21,-2.19 1.78,-4.35 0.56,-2.14 1.02,-5.15 1.43,-8.96 1.42,-12.91 2.1,-30.08 2.1,-48.79 0,-21.67 -0.9,-45.49 -2.44,-67.82 -1.55,-22.31 -3.75,-43.21 -6.27,-58.81 -0.99,-6.13 -2.03,-11.46 -3.07,-15.91 -0.77,-3.34 -1.54,-6.17 -2.26,-8.44 -0.54,-1.7 -1.04,-3.07 -1.46,-4.05 -0.31,-0.74 -0.56,-1.25 -0.69,-1.49 l -0.08,-0.13 6.42,-4.03 -4.76,5.77 c -1.4,-1.19 -1.64,-1.75 -1.66,-1.74 l 6.42,-4.03 -4.76,5.77 8.38,-10.15 -5.12,12.11 c -1.51,-0.64 -2.55,-1.38 -3.26,-1.96 l 8.38,-10.15 -5.12,12.11 5.69,-13.47 v 14.61 c -2.17,0.01 -4.19,-0.5 -5.69,-1.14 l 5.69,-13.47 v 14.61 -14.85 l 4.63,14.11 c -1.41,0.47 -3.04,0.75 -4.63,0.74 v -14.85 l 4.63,14.11 -4.32,-13.16 9.8,9.86 c -1.01,1 -2.79,2.42 -5.48,3.3 l -4.32,-13.16 9.8,9.86 -7.18,-7.24 8.73,5.3 c -0.23,0.37 -0.65,1.03 -1.55,1.94 l -7.18,-7.24 8.73,5.3 -4.53,-2.74 4.73,2.4 -0.2,0.34 -4.53,-2.74 4.73,2.4 -2.07,-1.05 2.1,0.99 -0.03,0.06 -2.07,-1.05 2.1,0.99 -0.19,-0.09 0.19,0.09 v 0 l -0.19,-0.09 0.19,0.09 c -0.03,0.05 -0.25,0.63 -0.51,1.57 -0.39,1.41 -0.86,3.66 -1.28,6.56 -0.43,2.9 -0.82,6.46 -1.13,10.64 -0.62,8.29 -0.94,19.06 -0.94,31.11 0,22.53 1.1,49.59 3.11,74.71 1,12.56 2.23,24.64 3.65,35.4 1.42,10.75 3.04,20.21 4.71,27.28 0.89,3.81 1.8,6.92 2.65,9.26 0.62,1.76 1.22,3.07 1.66,3.9 0.33,0.62 0.57,0.96 0.62,1.03 l 0.01,0.01 -4.3,3.58 2.6,-4.85 c 1.17,0.63 1.68,1.24 1.7,1.27 l -4.3,3.58 2.6,-4.85 -4.37,8.14 v -9.22 c 1.44,-0.03 3.23,0.44 4.37,1.08 l -4.37,8.14 v -9.22 7.1 l -2.49,-6.71 c 0.37,-0.14 1.26,-0.4 2.49,-0.39 v 7.1 l -2.49,-6.71 0.77,2.08 -1.01,-1.98 0.24,-0.1 0.77,2.08 -1.01,-1.98 c 0.02,0.02 1.08,-0.63 2.59,-2.06 2.3,-2.14 5.59,-5.92 9.39,-11.03 3.81,-5.1 8.17,-11.52 13.02,-19.05 13.75,-21.34 31.27,-51.32 48.42,-80.7 8.58,-14.71 17.08,-29.28 25.03,-42.64 7.97,-13.37 15.37,-25.51 21.83,-35.46 4.72,-7.24 8.9,-13.28 12.71,-18.35 5.73,-7.61 10.47,-13.02 15.38,-17.22 2.47,-2.1 5.02,-3.92 8.06,-5.4 3.02,-1.46 6.69,-2.6 10.84,-2.6 2.05,0 4.15,0.29 6.12,0.86 2.96,0.85 5.53,2.3 7.47,3.82 1.96,1.53 3.37,3.1 4.47,4.5 l 0.01,0.02 c 1.79,2.27 3.58,5.46 4.62,8.88 1.06,3.44 1.48,6.99 1.48,10.6 -0.01,3.66 -0.41,7.47 -1.17,11.78 -1.14,6.45 -3.08,14.07 -6.08,23.79 -3.01,9.72 -7.08,21.53 -12.55,36.14 -10.87,29.1 -27.24,69.38 -44.76,109.43 -8.76,20.02 -17.8,39.97 -26.59,58.42 -8.8,18.45 -17.33,35.39 -25.15,49.52 -3.91,7.05 -7.88,13.9 -13,20.5 -4.47,5.77 -9.88,11.28 -16.49,16.04 -5.78,4.18 -12.41,7.78 -20.01,10.83 -13.33,5.33 -29.58,9.13 -50.98,12.1 -32.1,4.42 -76.01,6.95 -139.17,8.45 -63.15,1.49 -145.51,1.91 -254.01,1.95 -5.39,0 -10.84,0 -16.36,0 -436.55,0 -1267.71,-5.87 -1711.83,-7.37 -86.41,-0.29 -158.17,-0.41 -217.98,-0.41 -125.74,0 -198.71,0.55 -244.08,1.28 -45.41,0.74 -63.01,1.64 -78.77,2.36 -15.51,0.71 -28.96,1.24 -41.05,1.24 -9.21,0 -17.63,-0.31 -25.59,-1.14 -7.95,-0.84 -15.44,-2.21 -22.61,-4.38 -5.94,-1.8 -11.76,-4.19 -17.34,-7.39 -8.38,-4.8 -16.04,-11.4 -22.85,-19.76 -6.84,-8.37 -12.94,-18.44 -18.92,-30.74 -7.96,-16.41 -15.86,-37.15 -22.53,-61.46 -6.66,-24.31 -12.08,-52.17 -14.93,-82.64 -1.85,-19.8 -2.6,-40.49 -2.6,-60.76 0.01,-42.13 3.21,-82.36 6.85,-108.89 1.35,-9.84 2.77,-17.92 4.54,-24.93 1.34,-5.26 2.88,-9.94 4.88,-14.29 1.5,-3.25 3.29,-6.31 5.42,-9.1 3.18,-4.21 7.18,-7.67 11.25,-10.14 4.08,-2.5 8.12,-4.13 12.04,-5.5 8.33,-2.9 18.17,-5.26 28.94,-6.98 10.76,-1.71 22.4,-2.75 34.08,-2.75 2.71,0 5.43,0.06 8.14,0.17 12.7,0.57 24.43,2.47 33.46,4.16 4.5,0.85 8.34,1.65 11.11,2.2 1.37,0.27 2.49,0.48 3.14,0.59 0.33,0.05 0.53,0.08 0.53,0.08 l -0.94,8.33 v -8.37 c 0.74,0 0.93,0.04 0.94,0.04 l -0.94,8.33 v -8.37 14.14 l -1.35,-14.08 c 0.54,-0.05 0.97,-0.06 1.35,-0.06 v 14.14 l -1.35,-14.08 h 0.04 l 0.17,-0.02 1.29,15.5 -3.72,-15.1 c 1.08,-0.26 1.84,-0.34 2.43,-0.4 l 1.29,15.5 -3.72,-15.1 3.9,15.84 -6.94,-14.76 c 1.23,-0.57 2.23,-0.87 3.04,-1.08 l 3.9,15.84 -6.94,-14.76 7.06,15.03 -10.15,-13.14 c 1.12,-0.87 2.18,-1.46 3.09,-1.89 l 7.06,15.03 -10.15,-13.14 10.24,13.25 -14.97,-7.49 c 1.23,-2.49 3.06,-4.49 4.73,-5.76 l 10.24,13.25 -14.97,-7.49 14.98,7.49 h -16.75 c -0.02,-2.23 0.51,-5.02 1.77,-7.49 l 14.98,7.49 h -16.75 16.55 l -15.24,6.48 c -0.57,-1.39 -1.29,-3.44 -1.31,-6.48 h 16.55 l -15.24,6.48 14.61,-6.21 -13.09,8.99 c -0.41,-0.6 -0.94,-1.42 -1.52,-2.78 l 14.61,-6.21 -13.09,8.99 11,-7.55 -9.57,9.32 c -0.22,-0.24 -0.63,-0.62 -1.43,-1.77 l 11,-7.55 -9.57,9.32 4.94,-4.81 -4.75,4.99 -0.19,-0.18 4.94,-4.81 -4.75,4.99 1.05,-1.1 -1.04,1.12 -0.01,-0.02 1.05,-1.1 -1.04,1.12 c -0.02,-0.03 -0.43,-0.39 -1.01,-0.88 -1.03,-0.87 -2.63,-2.21 -4.53,-3.89 -5.74,-5.09 -14.18,-13.39 -22.49,-25.69 -4.2,-6.2 -8.17,-13.06 -11.96,-20.14 -5.68,-10.61 -10.94,-21.71 -15.43,-31.3 -2.24,-4.79 -4.29,-9.2 -6.05,-12.92 -1.76,-3.71 -3.28,-6.78 -4.28,-8.61 -0.85,-1.56 -1.44,-2.47 -1.77,-2.96 -0.18,-0.26 -0.27,-0.38 -0.42,-0.58 -0.08,-0.12 -0.15,-0.21 -0.42,-0.6 -0.14,-0.21 -0.33,-0.46 -0.74,-1.16 -0.22,-0.38 -0.49,-0.84 -0.92,-1.82 -0.22,-0.5 -0.48,-1.13 -0.76,-2.12 -0.27,-1 -0.63,-2.34 -0.66,-4.66 0.01,-1.64 0.24,-3.66 1.05,-5.87 0.6,-1.64 1.55,-3.37 2.82,-4.91 1.89,-2.34 4.48,-4.09 6.85,-5 2.4,-0.95 4.54,-1.19 6.26,-1.2 2.54,0.03 3.97,0.46 5.03,0.76 1.04,0.33 1.68,0.62 2.2,0.85 0.99,0.48 1.45,0.77 1.83,1 0.69,0.44 0.92,0.63 1.13,0.78 0.36,0.26 0.44,0.33 0.53,0.4 l 0.31,0.23 c 0.38,0.26 1.42,1 3.73,1.98 2.3,0.96 5.82,2.13 10.96,2.98 2.29,0.37 4.9,0.68 8.57,0.95 5.48,0.4 13.28,0.66 25.09,0.82 11.81,0.15 27.64,0.19 49.31,0.19 29.17,0 68.95,-0.08 123.98,-0.08 74.4,0 176.68,0.15 318.43,0.84 428.42,2.08 1217.38,9.12 1671.17,9.12 27.39,0 53.57,-0.03 78.37,-0.08 108.87,-0.24 191.21,-1.02 253.91,-2.61 47.02,-1.19 83.01,-2.84 110.74,-5.03 20.8,-1.64 36.96,-3.58 49.59,-5.81 9.46,-1.66 16.93,-3.49 22.9,-5.4 8.98,-2.89 14.49,-5.82 19.28,-9.19 2.4,-1.7 4.64,-3.56 7.01,-5.72 2.37,-2.16 4.86,-4.63 7.65,-7.42 17.66,-17.66 41.4,-41.93 65.01,-65.36 11.81,-11.71 23.59,-23.23 34.62,-33.64 11.03,-10.42 21.27,-19.72 30.18,-27.14 10.56,-8.77 19.04,-14.78 26.49,-18.9 3.73,-2.06 7.22,-3.66 10.73,-4.82 3.51,-1.15 7.08,-1.9 10.95,-1.9 2.66,-0.01 5.47,0.38 8.21,1.31 2.05,0.69 4.04,1.68 5.8,2.9 2.65,1.83 4.73,4.12 6.19,6.34 1.47,2.22 2.38,4.37 3,6.28 l 0.02,0.05 c 0.74,2.28 1.28,5.17 1.27,8.08 0,2.22 -0.29,4.4 -0.75,6.43 -0.82,3.58 -2.11,6.72 -3.72,10.04 -2.44,4.96 -5.71,10.41 -10.39,17.65 -4.66,7.22 -10.73,16.17 -18.67,27.69 -14.05,20.39 -34.03,48.91 -54.75,77.4 -20.74,28.51 -42.13,56.9 -59.34,77.37 -3.88,4.6 -7.85,9.2 -12.62,13.66 -4.16,3.9 -8.95,7.64 -14.53,10.94 -4.88,2.89 -10.33,5.44 -16.47,7.66 -10.76,3.89 -23.6,6.81 -40.11,9.16 -24.77,3.51 -57.94,5.73 -105.08,7.14 -47.13,1.39 -108.19,1.94 -188.36,1.94 -35.45,0 -74.63,-0.11 -117.99,-0.3 -433.66,-1.89 -1285.54,-11.98 -1752.04,-15.98 -233.24,-1.99 -370.12,-2.47 -454.19,-2.65 -84.1,-0.19 -115.29,-0.07 -137.96,-0.93 -11.33,-0.45 -20.69,-1.08 -29.32,-2.86 -6.45,-1.35 -12.67,-3.43 -18.41,-7.15 -4.27,-2.77 -8.09,-6.5 -10.97,-10.71 -2.17,-3.16 -3.84,-6.54 -5.15,-10.01 -1.96,-5.22 -3.17,-10.64 -4.08,-16.52 -0.9,-5.89 -1.48,-12.27 -1.97,-19.45 -0.97,-14.44 -1.53,-32.55 -1.53,-52.36 0,-21.19 0.64,-44.29 2.15,-66.72 1.51,-22.44 3.87,-44.17 7.42,-62.89 5.23,-27.48 13.03,-47.92 22.38,-63.53 9.3,-15.6 20.25,-26.17 30.21,-33.54 2.45,-1.84 6,-4.3 10.47,-6.28 3.92,-1.75 8.38,-3.14 13.72,-4.3 9.36,-2.02 21.69,-3.48 40.82,-4.73 28.64,-1.87 72.56,-3.19 142.87,-4.18 70.29,-0.99 166.92,-1.64 300.64,-2.1 465.71,-1.63 1381.42,-1.11 1843.4,-2.63 115.49,-0.38 202.6,-0.89 268.73,-1.82 49.59,-0.7 87.38,-1.63 116.4,-2.91 43.51,-1.89 67.38,-4.72 80.9,-8.18 6.79,-1.73 10.9,-3.45 14.38,-5.36 1.75,-0.96 3.38,-2.01 5.14,-3.25 1.76,-1.24 3.65,-2.7 5.82,-4.38 15.45,-12.01 36.89,-29.39 57.94,-46.34 10.54,-8.48 20.99,-16.86 30.61,-24.44 9.63,-7.59 18.4,-14.37 25.69,-19.74 8.63,-6.33 15.03,-10.61 20.36,-13.61 2.68,-1.5 5.09,-2.7 7.66,-3.68 2.59,-0.93 5.31,-1.8 9.3,-1.85 1.27,0 2.68,0.11 4.2,0.43 2.64,0.53 5.68,1.84 8.14,3.88 1.86,1.51 3.32,3.33 4.33,5.05 1.52,2.62 2.11,4.91 2.43,6.67 0.31,1.77 0.34,3.1 0.35,4.16 0,0.31 -0.01,0.61 -0.01,0.91 l -0.01,0.07 c -0.03,1.16 -0.16,2.82 -0.51,4.6 -0.31,1.56 -0.79,3.17 -1.39,4.7 -1.05,2.7 -2.4,5.15 -4.06,7.76 -2.52,3.9 -5.85,8.27 -10.79,14.24 -4.93,5.94 -11.47,13.44 -20.32,23.24 -15.4,17.05 -37.8,41.09 -60.48,64.81 -22.69,23.74 -45.58,47.09 -62.16,62.9 -3.09,2.95 -6.23,5.91 -9.89,8.84 -3.19,2.55 -6.78,5.04 -10.85,7.27 -3.57,1.95 -7.48,3.69 -11.77,5.2 -7.53,2.64 -16.2,4.6 -26.96,6.16 -16.15,2.33 -37.13,3.78 -66.65,4.7 -29.5,0.92 -67.51,1.28 -117.38,1.28 -67.94,0 -157.9,-0.67 -278.11,-1.55 -471.42,-3.42 -1408.29,-9.96 -1880.08,-14.71 -117.95,-1.19 -206.85,-2.27 -274,-3.79 -50.38,-1.14 -88.51,-2.52 -117.64,-4.41 -21.86,-1.41 -38.63,-3.1 -51.92,-5.27 -9.98,-1.63 -18,-3.52 -24.92,-6.01 -5.17,-1.88 -9.77,-4.13 -13.87,-7.1 -3.06,-2.22 -5.81,-4.87 -8.01,-7.81 -3.34,-4.42 -5.27,-9.32 -6.31,-13.57 -1.06,-4.29 -1.41,-8.04 -1.74,-11.43 -1.74,-18.51 -2.66,-44.27 -2.66,-70.61 0,-13.93 0.26,-27.98 0.82,-41.11 0.55,-13.15 1.4,-25.35 2.62,-35.76 1.19,-10.13 2.71,-18.51 4.83,-25.8 1.6,-5.46 3.53,-10.34 6.13,-14.79 1.95,-3.32 4.29,-6.39 7.07,-9.03 4.13,-3.99 9.24,-6.8 14.12,-8.3 4.92,-1.54 9.54,-1.99 13.82,-2.11 h 0.01 c 0.74,-0.02 1.5,-0.03 2.28,-0.03 5.08,0.01 10.39,0.37 23.31,0.97 38.63,1.83 145.22,6.12 487.12,10.95 473.4,6.69 1397.8,14.42 1860,18.28 131.91,1.1 228.41,1.89 299.56,1.89 44.53,0 79.13,-0.31 106.19,-1.03 40.57,-1.07 64.26,-3.2 78.27,-6.2 7.02,-1.5 11.52,-3.12 14.98,-4.81 3.46,-1.71 6.11,-3.56 9.56,-6.38 14.78,-12.11 36.9,-30.22 58.8,-48.79 10.94,-9.29 21.83,-18.69 31.69,-27.47 9.85,-8.78 18.68,-16.97 25.41,-23.7 8.1,-8.08 13.23,-14.21 15.85,-18.14 1.31,-1.95 1.98,-3.33 2.21,-3.92 l 0.1,-0.29 0.01,-0.03 1.98,0.54 -2.03,-0.29 0.05,-0.25 1.98,0.54 -2.03,-0.29 5.29,0.76 h -5.34 c 0,-0.33 0.03,-0.59 0.05,-0.76 l 5.29,0.76 h -5.34 7.76 l -7.34,2.46 c -0.3,-0.87 -0.42,-1.8 -0.42,-2.46 h 7.76 l -7.34,2.46 6.63,-2.22 -5.17,4.8 c -0.29,-0.29 -1.03,-1.26 -1.46,-2.58 l 6.63,-2.22 -5.17,4.8 1.92,-1.79 -1.78,1.93 -0.14,-0.14 1.92,-1.79 -1.78,1.93 0.34,-0.37 -0.33,0.38 -0.01,-0.01 0.34,-0.37 -0.33,0.38 c -0.01,-0.01 -0.23,-0.19 -0.66,-0.48 -1.1,-0.73 -2.95,-1.71 -5.23,-2.66 -3.43,-1.45 -7.82,-2.85 -12.37,-4.03 -4.56,-1.19 -9.29,-2.18 -13.56,-2.96 -3.83,-0.71 -6.4,-1.04 -8.45,-1.03 -2.06,0.02 -3.85,0.23 -6.89,1.2 -3.02,0.98 -7.21,2.84 -12.96,6.16 -4.33,2.49 -9.61,5.85 -15.47,9.75 -8.8,5.84 -18.94,12.89 -29.68,20.21 -10.75,7.33 -22.11,14.94 -33.52,21.97 -9.91,6.1 -19.88,11.81 -29.59,16.22 -4.86,2.21 -9.67,4.09 -14.54,5.5 -4.87,1.4 -9.81,2.37 -15.15,2.38 -2.86,0 -5.86,-0.29 -8.94,-1.09 -2.3,-0.6 -4.64,-1.49 -6.89,-2.73 -3.39,-1.84 -6.51,-4.51 -8.9,-7.64 -2.41,-3.13 -4.08,-6.63 -5.18,-10.16 v 0.01 c -1.63,-5.35 -2.05,-10.46 -2.08,-15.73 0.01,-7.54 1.03,-15.44 2.61,-23.61 2.4,-12.22 6.16,-24.97 10.53,-36.58 2.19,-5.81 4.54,-11.32 7.01,-16.36 2.48,-5.05 5.04,-9.61 7.93,-13.71 2.93,-4.11 6.08,-7.64 10.1,-10.55 2.01,-1.45 4.27,-2.74 6.85,-3.7 2.57,-0.95 5.48,-1.55 8.51,-1.55 2.68,0 5.41,0.48 7.9,1.38 4.38,1.59 7.81,4.33 10.25,7.17 1.85,2.14 3.22,4.38 4.32,6.62 1.63,3.37 2.65,6.79 3.33,10.3 0.67,3.51 0.98,7.13 0.98,10.86 0,2.98 -0.2,6.04 -0.6,9.16 -0.92,6.99 -2.76,13.81 -5.03,20.57 -3.42,10.12 -7.87,20.12 -12.24,29.52 -4.38,9.39 -8.69,18.19 -11.78,25.36 -4.12,9.56 -6.56,17.17 -8.73,23.85 -1.09,3.36 -2.1,6.5 -3.33,9.66 -1.24,3.16 -2.69,6.41 -4.95,9.75 -0.48,0.71 -1.45,2.09 -2.92,3.56 -1.36,1.37 -3.12,2.71 -4.88,3.69 -3.35,1.86 -6.41,2.69 -9.65,3.37 -2.87,0.58 -6,0.99 -9.9,1.37 -6.81,0.64 -15.98,1.13 -29.23,1.54 -39.67,1.22 -116.03,1.65 -267.06,1.65 -46.2,0 -99.38,-0.04 -160.61,-0.11 -457.74,-0.53 -1365.39,-2.79 -1823.16,-7.28 -114.45,-1.13 -200.79,-2.39 -266.08,-4.05 -48.97,-1.24 -86.08,-2.7 -114.43,-4.51 -21.27,-1.36 -37.6,-2.9 -50.45,-4.75 -9.65,-1.39 -17.34,-2.94 -23.87,-4.86 -4.9,-1.46 -9.16,-3.12 -13.07,-5.3 -2.92,-1.63 -5.64,-3.58 -8.02,-5.91 -3.59,-3.47 -6.16,-7.82 -7.55,-11.65 -1.42,-3.85 -1.92,-7.05 -2.32,-9.51 -1.11,-6.95 -1.92,-14.74 -2.55,-23.09 -0.95,-12.51 -1.5,-26.25 -1.88,-39.7 -0.38,-13.44 -0.59,-26.58 -0.83,-37.71 -0.21,-10.06 -0.45,-18.69 -0.45,-26.41 0,-7.52 0.21,-14.17 1.07,-20.56 0.86,-6.36 2.43,-12.6 5.44,-18.49 2.14,-4.22 5,-8.16 8.46,-11.51 5.2,-5.07 11.66,-8.72 18.64,-10.97 7,-2.26 14.54,-3.23 22.64,-3.23 1.1,0 2.22,0.01 3.35,0.05 2.91,0.1 5.71,0.3 9.26,0.57 6.2,0.48 15,1.2 31.29,2.13 48.82,2.8 164.38,7.42 467.14,11.89 461.39,6.81 1357.54,13.29 1810.9,14.89 66.29,0.24 123.12,0.37 171.9,0.37 71.2,0 125.28,-0.28 166.64,-0.91 31.02,-0.48 54.89,-1.16 73.42,-2.06 27.78,-1.33 43.53,-3.25 52.88,-5.42 4.7,-1.08 7.76,-2.16 10.45,-3.33 2.69,-1.18 5.15,-2.56 8.47,-4.5 13.76,-8.03 32.17,-19.53 49.54,-30.6 17.38,-11.07 33.75,-21.74 43.66,-28.25 5.39,-3.53 8.87,-5.86 10.49,-7.03 0.39,-0.28 0.66,-0.49 0.76,-0.57 l 0.05,-0.03 v -0.01 l 6.66,8 -8.04,-6.55 c 0.99,-1.18 1.34,-1.39 1.38,-1.45 l 6.66,8 -8.04,-6.55 11.9,9.69 -13.83,-6.64 c 0.76,-1.56 1.44,-2.44 1.93,-3.05 l 11.9,9.69 -13.83,-6.64 14.63,7.02 -15.7,-4.1 c 0.31,-1.18 0.7,-2.14 1.07,-2.92 l 14.63,7.02 -15.7,-4.1 15.96,4.17 h -16.49 c 0,-1.57 0.22,-2.99 0.53,-4.17 l 15.96,4.17 h -16.49 16.61 l -15.44,6.13 c -0.78,-1.95 -1.18,-4.16 -1.17,-6.13 h 16.61 l -15.44,6.13 15.41,-6.12 -12.69,10.68 c -0.99,-1.18 -2,-2.73 -2.72,-4.56 l 15.41,-6.12 -12.69,10.68 12.4,-10.43 -7.76,14.23 c -1.08,-0.61 -2.74,-1.59 -4.64,-3.8 l 12.4,-10.43 -7.76,14.23 7.09,-13.02 -5.09,13.92 c -0.41,-0.15 -1.03,-0.38 -2,-0.9 l 7.09,-13.02 -5.09,13.92 3.9,-10.65 -3.26,10.87 c -0.09,-0.03 -0.28,-0.09 -0.64,-0.22 l 3.9,-10.65 -3.26,10.87 1.36,-4.54 -1.3,4.56 -0.06,-0.02 1.36,-4.54 -1.3,4.56 c -0.01,-0.01 -0.9,-0.23 -2.22,-0.67 -1.33,-0.47 -3.17,-1.19 -5.26,-2.56 l 0.01,0.01 c -1.88,-1.23 -3.5,-2.7 -4.82,-4.23 -2.3,-2.7 -3.72,-5.47 -4.74,-8.12 -1.51,-3.99 -2.22,-7.84 -2.73,-12.11 -0.48,-4.26 -0.68,-8.94 -0.68,-14.34 0,-1.85 0.02,-3.76 0.07,-5.76 0.25,-10.11 1.03,-22.01 1.02,-33.79 0,-5.69 -0.18,-11.32 -0.65,-16.56 -0.47,-5.24 -1.24,-10.08 -2.3,-14.15 -1.09,-4.13 -2.56,-7.91 -4.4,-11.68 -2.76,-5.65 -6.41,-11.27 -10.65,-17.5 -4.23,-6.22 -9.02,-13.03 -13.59,-21.05 -11.49,-20.14 -19.98,-45.79 -19.96,-76.12 0,-1.77 0.03,-3.56 0.09,-5.36 0.54,-16.29 3.38,-33.01 6.48,-48.24 1.56,-7.6 3.19,-14.81 4.66,-21.3 1.47,-6.48 2.78,-12.26 3.67,-16.84 0.96,-4.8 1.36,-8.24 1.33,-9.62 l -0.01,-0.51 -0.01,-0.11 v -0.01 l 3.66,-0.56 -3.47,1.25 c -0.15,-0.4 -0.19,-0.66 -0.19,-0.69 l 3.66,-0.56 -3.47,1.25 6.78,-2.44 -5.17,4.99 c -0.72,-0.71 -1.39,-1.85 -1.61,-2.55 l 6.78,-2.44 -5.17,4.99 3.82,-3.69 -2.66,4.64 c -0.15,-0.08 -0.64,-0.4 -1.16,-0.95 l 3.82,-3.69 -2.66,4.64 0.74,-1.28 -0.68,1.31 -0.06,-0.03 0.74,-1.28 -0.68,1.31 h -0.01 c -0.1,-0.05 -0.82,-0.35 -2.14,-0.66 -1.32,-0.31 -3.22,-0.66 -5.61,-0.97 -4.76,-0.63 -11.3,-1.14 -18.59,-1.46 -7.3,-0.33 -15.41,-0.48 -23.58,-0.48 -13.08,-0.01 -26.36,0.4 -36.79,1.1 -4.96,0.33 -9.87,0.78 -18.55,1.23 -26.05,1.35 -85.57,2.79 -298.22,2.79 -49.37,0 -106.97,-0.08 -174.32,-0.26 -454.09,-1.19 -1350.82,-6.83 -1804.76,-11 -226.99,-2.08 -343.22,-3.79 -404.56,-5.6 -30.7,-0.91 -47.62,-1.82 -58.35,-2.91 -5.37,-0.55 -9.28,-1.15 -12.65,-1.92 -3.35,-0.76 -6.18,-1.81 -7.87,-2.49 -6.82,-2.68 -13.43,-5.69 -19.24,-7.98 -2.89,-1.14 -5.56,-2.1 -7.81,-2.75 -2.24,-0.67 -4.05,-1.01 -5.06,-1.09 h 0.02 c -0.29,-0.02 -0.47,-0.03 -0.56,-0.03 l -0.08,0.01 -0.01,-0.31 0.03,0.3 -0.02,0.01 -0.01,-0.31 0.03,0.3 -0.31,-3.19 1.02,3.03 c -0.35,0.12 -0.64,0.16 -0.71,0.16 l -0.31,-3.19 1.02,3.03 -1.36,-4.06 2.22,3.66 c -0.23,0.14 -0.56,0.3 -0.86,0.4 l -1.36,-4.06 2.22,3.66 -1.14,-1.88 1.47,1.65 -0.33,0.23 -1.14,-1.88 1.47,1.65 -0.22,0.24 c -0.55,0.61 -1.98,2.72 -3.66,6.63 -1.7,3.9 -3.67,9.53 -5.84,17 -4.11,14.17 -8.83,34.64 -12.47,57.63 -3.64,22.99 -6.21,48.58 -6.21,73.12 0,1.31 0.01,2.62 0.03,3.93 0.28,25.06 3.34,49.51 7.6,70.76 4.25,21.24 9.74,39.38 14.54,51.47 2.09,5.27 4.01,9.3 5.67,12.17 1.24,2.16 2.32,3.65 3.14,4.59 1.26,1.43 1.73,1.58 1.87,1.67 l 0.4,0.11 c 0.23,0.05 0.63,0.1 1.29,0.1 0.67,0 1.62,-0.06 2.81,-0.22 2.35,-0.3 5.38,-0.94 8.75,-1.87 5.07,-1.39 10.92,-3.4 16.96,-5.64 6.05,-2.24 12.29,-4.7 18.37,-7 1.6,-0.6 3.77,-1.42 6.44,-2.17 2.34,-0.66 5.01,-1.27 8.14,-1.8 5.49,-0.93 12.44,-1.67 22.65,-2.34 15.3,-0.98 37.96,-1.76 73.54,-2.3 35.58,-0.53 84.04,-0.83 150.72,-0.83 59,0 132.25,0.23 223.43,0.74 450.07,2.5 1336.95,11.66 1783.22,15.18 126.58,1.01 217.7,1.55 283.87,1.55 41.76,0 73.59,-0.21 98.06,-0.67 36.69,-0.68 56.93,-1.94 68.83,-3.63 5.96,-0.84 9.75,-1.73 12.87,-2.68 3.11,-0.96 5.76,-2.06 9.53,-3.67 13.95,-5.92 33.59,-14.34 53.98,-22.65 20.41,-8.32 41.5,-16.52 58.88,-22.13 10.52,-3.4 19.62,-5.82 27.72,-7.42 8.09,-1.59 15.21,-2.37 21.74,-2.37 8.5,-0.03 16.07,1.41 22.48,3.89 8.08,3.09 14.8,7.85 19.81,13.48 5.01,5.65 8.38,12.11 9.92,18.97 l 0.01,0.04 c 0.41,1.88 0.77,4.18 0.77,6.8 0,2.01 -0.22,4.17 -0.72,6.32 -0.87,3.77 -2.57,7.35 -4.68,10.42 -3.2,4.64 -7.17,8.42 -12.22,12.47 -5.06,4.02 -11.32,8.28 -19.38,13.28 -14.26,8.83 -34.15,19.9 -54.23,30.78 -20.07,10.86 -40.25,21.48 -54.63,29.09 -2.57,1.36 -5.25,2.79 -8.36,4.22 -2.71,1.25 -5.71,2.48 -9.07,3.59 -5.89,1.95 -12.72,3.49 -21.46,4.73 -13.14,1.86 -30.77,3.11 -57.44,3.95 -26.67,0.84 -62.36,1.23 -111.32,1.24 -67.15,0 -159.24,-0.75 -286.93,-2.17 -451.83,-5.02 -1349.44,-18.41 -1804.5,-24.81 -229.08,-3.22 -346.03,-4.67 -407.17,-4.67 -30.11,-0.01 -46.72,0.36 -55.95,0.98 -4.6,0.3 -7.27,0.67 -8.77,0.96 -1.53,0.31 -1.86,0.43 -3.23,0.93 -5.48,2.01 -12.13,5.35 -19.29,9.05 -7.18,3.69 -14.88,7.74 -23.16,11.02 -4.18,1.66 -8.59,3.14 -13.3,4.21 -4.7,1.07 -9.72,1.71 -14.96,1.71 -5.13,0 -10.46,-0.62 -15.89,-1.91 -5.44,-1.28 -10.98,-3.22 -16.69,-5.82 -11.54,-5.25 -24.32,-13.39 -36.99,-25.18 -12.66,-11.79 -25.17,-27.23 -35.98,-46.92 -10.81,-19.69 -19.83,-43.35 -26.21,-70.14 -6.37,-26.78 -10.08,-56.69 -10.08,-88.78 0.01,-32.08 3.69,-65.86 9.22,-96.87 2.77,-15.5 6,-30.3 9.51,-43.85 3.5,-13.56 7.27,-25.84 11.16,-36.41 3.89,-10.57 7.91,-19.39 12.2,-26.88 3.21,-5.62 6.6,-10.5 10.21,-14.73 5.39,-6.35 11.39,-11.21 17.55,-14.64 6.15,-3.44 12.3,-5.42 17.85,-6.73 8.29,-1.96 16.72,-2.8 25.23,-2.8 11.83,0 23.78,1.61 36.01,4.2 10.29,2.19 20.4,4.97 29.68,7.1 9.24,2.16 17.67,3.57 23.74,3.54 h 0.73 c 1.47,-0.03 3.1,-0.14 5.93,-0.38 4.97,-0.42 13,-1.17 28.27,-2.04 45.93,-2.62 158.59,-6.58 470.43,-8.44 186.91,-1.11 445.33,-1.46 718.82,-1.46 421.78,0 879.39,0.83 1165.63,1.02 36.77,0.02 70.72,0.03 102.05,0.03 185.34,0 279.46,-0.43 327.28,-1.59 11.94,-0.29 20.98,-0.63 27.74,-1 5.06,-0.28 8.84,-0.59 11.52,-0.89 2,-0.22 3.38,-0.44 4.12,-0.59 0.27,-0.06 0.46,-0.11 0.55,-0.13 l 0.06,-0.02 1.53,5.16 -2.28,-4.85 c 0.5,-0.24 0.75,-0.31 0.75,-0.31 l 1.53,5.16 -2.28,-4.85 4.95,10.52 -8.11,-8.29 c 1.07,-1.07 2.42,-1.91 3.16,-2.23 l 4.95,10.52 -8.11,-8.29 8.65,8.84 -9.91,-7.41 c 0.28,-0.38 0.72,-0.91 1.26,-1.43 l 8.65,8.84 -9.91,-7.41 8.35,6.25 -8.66,-5.81 0.31,-0.44 8.35,6.25 -8.66,-5.81 4.61,3.09 -4.7,-2.95 0.09,-0.14 4.61,3.09 -4.7,-2.95 c 0.12,-0.17 0.55,-0.99 0.97,-2.2 0.64,-1.83 1.29,-4.5 1.73,-7.34 0.45,-2.84 0.72,-5.86 0.81,-8.47 l -0.01,0.09 c 0.02,-0.55 0.03,-0.96 0.03,-1.23 0,-0.53 -0.03,-0.78 -0.03,-0.79 l 2.57,-0.32 -2.47,0.76 c -0.08,-0.27 -0.1,-0.44 -0.1,-0.44 l 2.57,-0.32 -2.47,0.76 3.75,-1.15 -3.12,2.41 c -0.14,-0.15 -0.5,-0.8 -0.63,-1.26 l 3.75,-1.15 -3.12,2.41 0.7,-0.54 -0.67,0.58 -0.03,-0.04 0.7,-0.54 -0.67,0.58 c 0,0 -0.21,-0.24 -0.77,-0.67 -0.83,-0.64 -2.45,-1.69 -4.96,-2.96 -2.52,-1.27 -5.92,-2.77 -10.29,-4.43 -5.79,-2.22 -13.33,-4.76 -21.75,-7.36 -25.26,-7.81 -58.64,-16.19 -81,-20.36 -3.72,-0.69 -6.89,-1.22 -10.64,-1.69 -6.53,-0.8 -15.16,-1.4 -30.72,-1.82 -23.31,-0.63 -61.82,-0.85 -131.21,-0.99 -69.41,-0.13 -169.74,-0.2 -317.01,-0.53 -448.83,-1.01 -1333.64,-4.51 -1780.2,-4.58 -4.63,0 -9.22,0 -13.75,0 -216.46,-0.01 -326.8,0.84 -383.78,2.4 -14.24,0.39 -25.13,0.82 -33.44,1.29 -12.45,0.69 -19.19,1.53 -22.12,2.15 -0.73,0.15 -1.21,0.27 -1.49,0.35 l -0.34,0.11 -0.01,0.01 -0.4,-0.94 0.45,0.91 -0.05,0.03 -0.4,-0.94 0.45,0.91 -0.38,-0.78 0.41,0.77 -0.03,0.01 -0.38,-0.78 0.41,0.77 c 0,0 -0.11,0.06 -0.52,0.32 -3.99,2.51 -8.78,5.97 -14.26,9.84 -5.5,3.87 -11.73,8.15 -18.83,12.24 -6.01,3.46 -12.62,6.8 -19.72,9.4 -7.11,2.57 -14.73,4.49 -23.03,4.52 -3.02,0 -6.14,-0.28 -9.29,-0.93 -5.09,-1.04 -10.08,-3.12 -14.48,-6.01 -3.31,-2.17 -6.31,-4.76 -9.02,-7.64 -4.08,-4.34 -7.55,-9.32 -10.79,-14.96 -3.22,-5.65 -6.21,-11.98 -9.17,-19.15 -5.25,-12.74 -10.45,-28.25 -15.21,-45.01 -4.75,-16.76 -9.02,-34.72 -12.25,-52.18 -3.78,-20.42 -6.17,-40.4 -6.17,-61.15 0,-14.71 1.21,-29.79 3.9,-45.58 3.24,-19.03 8.52,-38.72 14.2,-56.71 5.69,-17.98 11.78,-34.19 16.74,-46.12 2.48,-5.97 4.72,-10.99 7.05,-15.45 1.76,-3.33 3.56,-6.37 5.69,-9.22 1.6,-2.14 3.4,-4.18 5.49,-6.04 3.11,-2.8 7,-5.09 10.94,-6.41 3.95,-1.34 7.75,-1.78 11.16,-1.88 h 0.03 c 0.46,-0.01 0.93,-0.01 1.42,-0.01 3.92,0 7.75,0.39 11.68,0.98 5.87,0.9 11.95,2.27 18.24,3.85 6.29,1.58 12.76,3.37 19.24,5.15 8.89,2.45 17.82,4.88 26.36,6.86 8.52,1.99 16.65,3.51 23.75,4.21 1.77,0.18 3.32,0.3 5.87,0.4 4.44,0.19 11.78,0.28 26.16,0.34 43.22,0.2 149.81,0.19 442.08,2.39 445.4,3.35 1322.08,11.85 1766.83,17.99 222.42,3.07 336.72,5.54 398.58,8.78 30.97,1.64 48.81,3.41 61.32,5.82 6.24,1.22 11.26,2.66 15.59,4.4 4.33,1.73 7.76,3.7 10.42,5.28 10.72,6.38 22.85,14.53 34.57,22.4 11.67,7.85 22.98,15.44 31.17,20.25 5.47,3.22 9.62,5.24 12.4,6.29 2.8,1.08 4.08,1.13 4.09,1.12 v 1.06 l -0.13,-1.05 0.13,-0.01 v 1.06 l -0.13,-1.05 0.33,2.66 -0.83,-2.55 0.5,-0.11 0.33,2.66 -0.83,-2.55 0.53,1.63 -0.81,-1.52 0.28,-0.11 0.53,1.63 -0.81,-1.52 1.65,3.1 -2.2,-2.71 c 0.36,-0.29 0.54,-0.38 0.54,-0.39 l 1.66,3.1 -2.2,-2.71 4.88,6.02 -6.91,-3.43 c 0.6,-1.24 1.51,-2.19 2.03,-2.59 l 4.88,6.02 -6.91,-3.43 6.02,2.99 h -6.81 c -0.02,-0.45 0.16,-1.78 0.79,-2.99 l 6.02,2.99 h -6.81 2.47 l -2.46,0.17 -0.01,-0.17 h 2.47 l -2.46,0.17 0.78,-0.05 -0.78,0.08 v -0.03 l 0.78,-0.05 -0.78,0.08 -0.05,-0.26 c -0.13,-0.64 -0.69,-2.45 -2.14,-5.21 -1.45,-2.75 -3.74,-6.45 -7.09,-11.01 -4.02,-5.49 -9.61,-12.31 -16.12,-19.64 -9.78,-11.01 -21.66,-23.22 -33.79,-34.55 -12.12,-11.32 -24.55,-21.78 -35.12,-29.23 -3.53,-2.49 -6.33,-4.28 -9.56,-5.86 -2.84,-1.39 -6.1,-2.66 -10.67,-3.92 -7.96,-2.2 -19.93,-4.22 -38.59,-5.86 -28.01,-2.49 -70.9,-4.2 -138.28,-5.53 -67.4,-1.35 -159.35,-2.34 -285.94,-3.49 -440.9,-4.01 -1301.78,-9.92 -1736.3,-10.8 -38.17,-0.08 -73.05,-0.11 -104.93,-0.11 -165.46,-0.01 -250.17,1.03 -294.11,2.95 -10.96,0.48 -19.37,1.01 -25.76,1.58 -9.57,0.82 -14.62,1.82 -16.53,2.42 -0.98,0.29 -1.13,0.41 -1.15,0.41 -0.03,0.02 -0.1,0.04 -0.94,0.67 -4.83,3.6 -11,8.8 -18.12,13.67 -3.58,2.44 -7.42,4.82 -11.68,6.87 -4.25,2.03 -8.94,3.77 -14.22,4.64 -1.33,0.21 -2.44,0.34 -3.42,0.44 -1.83,0.2 -3.41,0.35 -6.39,0.83 -10.31,1.63 -36.93,7.43 -113.31,30.36 -76.43,22.92 -202.73,62.93 -413.41,133.02 -220.53,73.36 -533.74,179.75 -836.62,267.85 -151.46,44.06 -300.34,83.55 -433.96,112.09 -66.82,14.26 -129.82,25.79 -187.5,33.76 -57.68,7.98 -110,12.41 -155.65,12.42 -30.07,-0.01 -57.25,-1.93 -81.27,-6.16 -24.02,-4.25 -44.94,-10.76 -62.41,-20.49 -9.71,-5.42 -18.24,-11.82 -25.5,-19.13 -10.89,-10.96 -18.8,-23.94 -23.78,-38.04 -5.01,-14.11 -7.17,-29.28 -7.17,-45.11 0.02,-24.94 5.31,-51.62 14.17,-79.69 15.53,-49.08 42.12,-102.57 73.17,-156.88 46.57,-81.41 103.33,-164.58 148.2,-234.46 22.42,-34.91 41.87,-66.52 55.43,-92.46 6.78,-12.96 12.08,-24.5 15.54,-34.06 1.73,-4.78 3,-9.05 3.8,-12.66 0.81,-3.62 1.13,-6.58 1.13,-8.65 0,-1.67 -0.21,-2.74 -0.36,-3.23 l -0.12,-0.35 -0.02,-0.04 0.39,-0.21 -0.36,0.26 -0.03,-0.05 0.39,-0.21 -0.36,0.26 0.88,-0.63 -0.71,0.81 -0.17,-0.18 0.88,-0.63 -0.71,0.81 v 0 c -0.14,-0.08 -0.98,-0.53 -2.97,-0.83 v 0.01 c -1.09,-0.16 -2.52,-0.27 -4.24,-0.27 -6.55,-0.04 -17.14,1.68 -30.29,5.41 -24.77,6.94 -58.75,20.59 -99.02,39.26 -70.58,32.68 -160.78,80.71 -259.89,135.46 -148.7,82.14 -317.54,179.42 -471.86,263.29 -77.18,41.94 -150.72,80.53 -216.43,112.24 -65.75,31.71 -123.54,56.55 -169.91,71.06 -33.67,10.5 -61.27,15.59 -84.66,15.61 -9.72,0 -18.73,-0.89 -27.08,-2.74 -7.3,-1.62 -14.1,-3.98 -20.34,-7.09 -10.92,-5.41 -19.99,-13.18 -26.88,-22.37 -5.19,-6.9 -9.21,-14.54 -12.33,-22.63 -4.69,-12.17 -7.42,-25.37 -9.07,-39.38 -1.64,-14.02 -2.18,-28.88 -2.18,-44.41 0.01,-35.78 2.85,-75.2 2.84,-114.61 0.01,-37.41 -2.57,-74.71 -11.93,-108.33 -4.67,-16.82 -11.01,-32.72 -19.5,-47.43 -8.5,-14.72 -19.14,-28.26 -32.63,-40.49 -19.28,-17.46 -45.01,-32.62 -76.65,-45.3 -47.45,-19.05 -108.06,-32.45 -178.77,-40.93 -70.72,-8.49 -151.56,-12.12 -239.71,-12.12 -242.88,-0.01 -541.136,27.55 -839.661,55.18 l -3.127,-33.8 v 0"
           style="fill:#000000;fill-opacity:1;fill-rule:nonzero;stroke:none"
           id="path18" /></g></g></g></svg>
