<?xml version="1.0" encoding="UTF-8" standalone="no"?>
<!-- Created with Inkscape (http://www.inkscape.org/) -->

<svg
   version="1.1"
   id="svg2"
   xml:space="preserve"
   width="2799.9922"
   height="2799.9922"
   viewBox="0 0 2799.9922 2799.9922"
   sodipodi:docname="7d32eacc1d094dc41e84d6b570664fe6.eps"
   xmlns:inkscape="http://www.inkscape.org/namespaces/inkscape"
   xmlns:sodipodi="http://sodipodi.sourceforge.net/DTD/sodipodi-0.dtd"
   xmlns="http://www.w3.org/2000/svg"
   xmlns:svg="http://www.w3.org/2000/svg"><defs
     id="defs6" /><sodipodi:namedview
     id="namedview4"
     pagecolor="#ffffff"
     bordercolor="#666666"
     borderopacity="1.0"
     inkscape:pageshadow="2"
     inkscape:pageopacity="0.0"
     inkscape:pagecheckerboard="0" /><g
     id="g8"
     inkscape:groupmode="layer"
     inkscape:label="ink_ext_XXXXXX"
     transform="matrix(1.3333333,0,0,-1.3333333,0,2799.9922)"><g
       id="g10"
       transform="scale(0.1)"><g
         id="g12"
         transform="scale(1.28834)"><path
           d="M 16300,0 H 0 V 16300 H 16300 V 0"
           style="fill:transparent;fill-opacity:1;fill-rule:nonzero;stroke:none"
           id="path14" /></g><path
         d="m 11372.4,11882.6 c 40.8,13 91.4,29.2 148.8,46.5 131.1,22.8 489.3,68.6 596.5,11.8 6,-3.2 12.4,-6.8 12.5,-6.9 42.9,-24.3 71.4,-48.6 82.2,-57.8 l 3.5,-2.9 c 37.6,-30.9 89.5,-19.6 149.6,-6.6 52.7,11.4 112.5,24.3 176.6,13.9 96.5,-15.8 160.4,-77.9 194.7,-111.2 51.4,-50 39.9,-123.5 15.8,-159.3 -17.9,-19.7 -190.1,-77.7 -536.6,-40.9 -370.7,39.4 -629.6,149.9 -801,223 -62.1,26.5 -112,47.8 -149.6,57.4 25.8,7 60.3,18 107,33 z m -49.3,55.8 c 38.9,31.9 61,49.2 77.1,61.8 20.9,16.4 30.4,23.9 49.9,42.5 l 3.8,3.6 c 12.2,11.7 32.7,31.3 62.2,55 0.2,0.1 19.3,15.5 39.3,29.8 229.4,164.1 481.1,171.2 483.6,171.3 h 1.2 c 71.6,4.8 128.1,8.6 192.4,-19.1 33.8,-14.5 53.4,-30.8 72.4,-46.4 23,-19.1 46.8,-38.8 89.5,-47.7 57.2,-12.1 95.3,5.2 128.9,20.5 26.5,12.1 47.5,21.7 76.2,17.1 98.7,-15.5 157.6,-180.1 192.8,-278.5 20.6,-57.6 27.9,-124.1 22.2,-211.1 -8.1,24.3 -22,47.7 -42.9,68 -35.6,34.6 -109.5,106.4 -221.6,124.7 -19.4,3.2 -38.4,4.5 -56.8,4.5 -51.4,0 -98.5,-10.2 -138.4,-18.9 -47.4,-10.2 -88.4,-19.1 -107.3,-3.6 l -2.8,2.4 c -11.7,10 -42.9,36.5 -89.9,63.2 0,0 -7.2,4.1 -13.7,7.5 -144.8,76.7 -610.3,-3.4 -630.1,-6.9 l -2.9,-0.7 c -58.4,-17.6 -109.7,-34 -151,-47.2 -25.2,-8.1 -49.9,-15.9 -71.4,-22.5 11.7,9.7 24.4,20.1 37.3,30.7 z m -91.1,-96.3 c -2.1,-2.7 -3.6,-6 -4.4,-9.5 -3,-13.5 5.5,-26.8 19,-29.8 33.9,-7.6 84.6,-29.2 148.8,-56.6 163.5,-69.8 437.2,-186.5 815.4,-226.7 329.1,-34.9 549.9,13.6 582.7,62 0.4,0.5 0.7,1.1 1.1,1.6 -28.3,-138.9 -116.5,-343 -255.4,-367.2 -66.1,-11.6 -109.9,25.9 -170.4,77.8 -63.7,54.7 -143,122.7 -277.9,157.6 -312.2,80.8 -578.8,-105.4 -590,-113.4 -100.9,-71.8 -302.6,-264.5 -244.8,-368.7 38.5,-69.4 144.4,-43 304.7,-3 214.4,53.5 538.5,134.4 858.3,7.9 40,-15.8 146.3,-57.9 248.6,-134.5 4.5,-3.4 9.8,-5 15,-5 7.6,0 15.1,3.5 20,10 8.3,11.1 6,26.7 -5,35 -107.7,80.6 -218.5,124.5 -260.2,141 -334.7,132.3 -668.2,49.1 -888.8,-5.9 -122.9,-30.7 -229,-57.2 -248.9,-21.3 -30,54 101.5,212.2 230.1,303.8 10.4,7.4 258.6,180.7 548.5,105.7 123.7,-32 195,-93.2 257.9,-147.1 65.5,-56.2 122.2,-104.8 211.4,-89.2 174.4,30.4 275.4,275.8 300.8,433.4 26.5,164.2 23.8,273.4 -9,365.2 -41.5,115.8 -104.1,290.9 -232.1,311 -43.5,6.9 -76.1,-7.9 -104.7,-20.9 -30.5,-13.9 -56.8,-25.9 -97.9,-17.2 -30.6,6.4 -46.3,19.4 -67.9,37.3 -19.7,16.2 -44.1,36.5 -84.6,53.9 -75.2,32.3 -139.9,28 -214.9,23 -17.7,-0.4 -272.1,-9.6 -511,-180.5 -21.2,-15.2 -40.8,-30.9 -41.6,-31.5 -31.2,-25.1 -52.7,-45.6 -65.5,-57.9 l -3.7,-3.5 c -17.7,-16.9 -26.1,-23.5 -46.3,-39.3 -15.4,-12.1 -38.6,-30.3 -77.9,-62.6 -36.3,-29.8 -59.6,-48.9 -75.7,-63.2 -20,-17.7 -38.8,-34.3 -28.7,-55.4 7.3,-15.1 18.3,-20.4 45,-16.3"
         style="fill:#000000;fill-opacity:1;fill-rule:nonzero;stroke:none"
         id="path16" /><g
         id="g18"
         transform="scale(1.05203)"><path
           d="m 16110.2,5574.65 c -174.6,-301.7 -670.6,-567.86 -1326.9,-712.05 -682.2,-149.9 -1391.9,-138.69 -1947.1,30.79 -261,79.75 -548.2,125.29 -829.3,133.74 250.2,358.36 438.6,751.03 532.3,1110.43 11.9,45.63 22.5,91.63 32.8,136.12 36.7,159.4 74.6,324.13 184.6,542.19 107.7,213.39 224.9,361.11 319.1,479.83 66.6,83.93 120.1,151.42 145.9,213.59 731.3,-221.67 2057.9,-628.6 2721.1,-1250.25 242.5,-227.18 298.8,-457.5 167.5,-684.39 z M 12732,7719.26 c -220.7,100.09 -400.7,203.61 -561.9,383.54 -46.1,51.53 -87.7,103.23 -125,155.23 7.1,1.61 14.2,2.85 21.2,3.52 91.8,9.31 169.2,-66.73 259,-154.75 51.8,-50.86 105.4,-103.42 169.7,-149.14 142.2,-101.14 294.7,-145.15 417.4,-180.51 133.2,-38.4 238.5,-68.82 270.5,-151.99 7.1,-18.35 9,-36.98 6.4,-56.37 -212.7,64.45 -380.1,115.49 -457.3,150.47 z M 11232,4317.27 c -98.8,-51.61 -182.5,-67.21 -242,-45.15 -108.7,40.21 -181.8,216.63 -142.1,343.15 52,166.06 316.4,294.76 707.5,344.19 114.9,14.54 234.3,21.67 355.6,21.67 1.3,0 2.8,0 4.2,0 -228.2,-311.97 -478.7,-557.31 -683.2,-663.86 z M 6790.64,13012.2 c -11.32,6.5 -21.53,8.9 -30.37,8.9 -9.77,0 -17.89,-2.9 -24,-6.3 -57.78,-31.6 -68.53,-184 -79.36,-431.2 -5.41,-123.1 -13.49,-307.6 -38.87,-334.7 -2.49,1.6 -7.31,5.5 -14.47,14.6 -424.84,538.6 -360.84,1092.9 -208.89,1226.7 112.48,99 308.17,118.8 445.48,44.9 89.32,-48 128.39,-124.8 278.96,-717.5 108.12,-425.6 138.63,-580.4 132.53,-786.1 -1.49,-50.1 -3.09,-103.9 -7.32,-156.2 -69.55,104.8 -155.66,197.5 -266.69,271.4 -165.77,110.3 -147.8,352.7 -133.37,547.4 11.4,153.8 20.4,275.3 -53.63,318.1 z m 374.54,-182.9 c -147.99,582.6 -190.39,687.4 -302.51,747.7 -153.64,82.6 -373.01,60.1 -499.4,-51.2 -95.48,-84 -145.57,-280.5 -127.61,-500.5 21.86,-267.7 139.27,-548.7 330.6,-791.3 21.99,-27.8 44,-38.4 65.47,-31.6 51.7,16.7 61.41,122.8 72.65,379.1 6.08,138.6 16.26,370.6 54.73,391.7 1.7,0.9 5.15,-0.7 7.73,-2.2 48.23,-27.9 39.39,-147.1 30.03,-273.3 -15.34,-207.2 -34.44,-464.9 154.45,-590.6 121.86,-81 212.68,-187.2 284.45,-307.9 -14.33,-94.9 -42.96,-174.7 -103.73,-203.2 -88.12,-41.4 -217.92,29.5 -412.33,166.1 -255.94,179.7 -424.5,503.6 -502.19,680.6 -109,248.4 -172.41,512.3 -154.2,641.7 3.01,21.3 5.84,42.3 8.62,63 28.16,208.7 50.39,373.6 190.47,511.8 160.46,158.4 459.38,261.5 662.54,152.1 117.73,-63.3 170.73,-214.6 279.38,-550.8 95.84,-296.5 117.14,-543.4 131.23,-706.8 1.73,-20 3.36,-39 5.02,-56.7 9.84,-105.7 16.26,-237.7 23.05,-377.5 8.77,-180.5 18.32,-377.1 37.04,-557.6 -32.93,86 -70.33,169.2 -115.25,247 9.27,70.9 11.56,147.9 13.74,221.2 6.27,211.5 -24.58,368.6 -133.98,799.2 z m 524.22,-175.8 c -57.09,-102.5 -112.58,-165.5 -147.05,-159 -28.42,5.5 -66.78,73.9 -81.82,179.1 -13.15,92.1 1.46,145.6 15.49,152.7 1.56,0.8 4.01,1.3 7.33,1.3 6.49,0 16.29,-1.9 29.26,-7.4 48.61,-20.7 120.54,-82.7 176.79,-166.7 z m 3949.1,-4731.87 c -210.7,-313.11 -313.3,-603.88 -355.7,-749.31 -44.4,-152.94 -51.2,-233.74 -60.6,-345.52 -7.7,-91.35 -17.2,-205.13 -50.1,-399.8 -91.2,-540.58 -139.4,-788.19 -324.7,-992.75 -210.8,-232.78 -562.7,-391.53 -672.5,-303.22 -77.4,62.26 -8.9,235.45 77.7,454.74 129.2,326.79 306.1,774.5 127.6,1196.06 -124.8,294.58 -437.81,598.75 -772.21,582.41 -180.2,-8.94 -361.88,-112.93 -511.52,-292.96 -138,-165.97 -232.73,-377.18 -259.92,-579.55 -34.75,-258.45 52.92,-440 145.72,-632.11 96.74,-200.38 206.39,-427.36 206.59,-790.85 0.08,-151.33 -19.14,-319.1 -51.4,-448.85 -39.49,-158.74 -83.12,-203.22 -102.67,-204.55 -0.41,0 -0.84,0 -1.26,0 -59.14,0 -141.2,268.9 -220.58,528.97 -12.9,42.3 -26.32,86.22 -40.32,131.56 -95.47,308.83 -226.22,731.82 -353.85,1078.67 -205.59,558.64 -294.62,626.7 -354.61,619.76 -80.03,-9.42 -79.94,-156.56 -79.79,-423.76 0.27,-478.5 0.74,-1279.24 -506.37,-1744.81 C 7279.13,4423.16 7013,4341.6 6429.97,4174.31 5716.95,3969.65 5172.59,3515.58 4812.01,2824.63 c -9.28,-17.77 -23.15,-37.07 -31.7,-32.7 -30.05,15.21 -77.9,142.87 -85.18,368.53 -7.51,233.26 32.39,456.74 109.49,613.19 205.37,416.82 594.86,674.13 1087.99,999.88 280.47,185.26 598.37,395.33 929.92,668.04 555.46,456.93 703.62,1091.61 755.21,1904.03 25.24,397.62 13.12,591.53 -54.15,1667.63 -12.35,197.72 -26.56,425.18 -42.76,689.24 l -12.44,203.32 c -71.85,1176.81 -88.26,1398.51 -179.4,1404.21 -0.96,0 -1.92,0.1 -2.88,0.1 -13.97,0 -27.91,-6.3 -41.5,-18.7 -65.08,-59.3 -143.25,-296.3 -150.44,-524.8 -4.8,-152.8 24.31,-248 47.69,-324.5 23.65,-77.3 42.31,-138.3 17.71,-230.6 -41.41,-155.3 -163.94,-248.96 -262.39,-324.24 -4.6,-3.52 -9.17,-7.04 -13.69,-10.55 36.65,45.24 67.78,93.63 92.29,144.19 112.2,231.7 117.03,575.9 -54.62,719.1 -35.62,29.8 -69.53,43.5 -104.58,51 50.37,47.4 91.21,91.9 126.5,138.7 109.98,145.9 285.5,441 213.41,495.6 -27.62,20.9 -57.06,-2.6 -97.8,-35.2 -45.81,-36.6 -115.05,-91.9 -213.13,-116.8 -131.17,-33.4 -299.61,-9.9 -409.63,57.1 -17.78,10.8 -33.56,22.5 -47.23,34.9 49.32,82.7 88.72,179.9 102.69,290.3 8.51,67.1 15.23,120.2 -19.18,133.3 -17.43,6.6 -38.77,-1.5 -65.22,-24.6 -53.44,-46.7 -154.03,-185.2 -123.84,-315.3 7.37,-31.7 22.61,-61.7 45.07,-89 -45.32,-68.9 -96.96,-126.2 -143.01,-170.4 -0.32,1.6 -0.6,3.1 -0.88,4.7 -7.14,40.3 -3.51,73.1 -0.86,97 2.95,26.7 6,54.2 -19.4,64.9 -12.95,5.4 -28.56,2.9 -46.39,-7.5 -61.45,-36 -172.35,-176.7 -223.72,-358.1 -21.26,-6.8 -39.05,-7.6 -52.32,0 -96.37,55.2 -9.15,476.6 19.52,615.1 2.87,13.8 5.63,26.6 8.23,38.3 70.29,-41.3 101.28,-65.8 118,-108.2 25.93,-65.9 4.15,-134.1 -7.56,-170.7 -7.36,-23 -15.7,-49.1 8.74,-58.9 9.32,-3.7 19.6,-1.9 30.53,5.3 39.43,26 195.88,214.6 201.93,460.6 3.56,144.7 -49.76,223.1 -138.07,352.9 -62.52,91.9 -140.32,206.2 -233.97,391 -11.75,23.1 -22.57,45.1 -32.62,66 73.43,118.3 109.65,279.9 153.73,476.5 49.14,219.1 84.63,377.4 23.73,572.7 -1.09,3.5 -2.26,7.2 -3.54,11.3 26.99,75.7 67.82,145.3 132.59,194.9 64.24,49.2 130.55,62.3 183.83,72.8 55.1,10.8 102.68,20.2 115.42,68.1 18.25,68.6 -59.4,114 -166.86,177 -90.98,53.2 -205.68,120.4 -298.58,221.8 62.45,127.4 107.18,309.4 126.8,444.5 21.95,151.2 18.85,275.6 16.6,366.4 -2.99,120.3 -2.71,179.1 36.1,200.8 71.94,40.2 224.07,-64.9 303.07,-140.5 191.95,-184 197.43,-533.7 201.84,-814.7 0.26,-16.6 0.52,-33.1 0.82,-49.3 0.44,-25.2 0.55,-48.1 0.63,-69.1 0.51,-113 0.78,-175.3 55.06,-227.8 75.9,-73.4 187.83,-58.7 296.07,-44.4 93.65,12.3 182.11,24 227.75,-26.5 37.14,-41.1 27.22,-102.9 16.72,-168.4 -11.67,-72.8 -24.9,-155.3 32.02,-216.2 66.92,-71.6 179.84,-61.9 270.6,-54.1 34.68,2.9 99.33,8.5 104.61,-3.4 7.49,-16.8 -66.48,-78.2 -106.22,-111.2 -95.61,-79.3 -203.99,-169.3 -186.19,-267.7 11.96,-66.1 73.45,-91.2 144.63,-120.4 74.2,-30.3 166.52,-68.1 248.4,-163.1 14.36,-16.6 27.21,-33.6 38.72,-50.9 -22.27,-58.2 -46.21,-112.4 -70.37,-160.4 -56.95,78.7 -126.72,139.2 -183.12,163.2 -31.22,13.3 -57.08,14.9 -76.88,4.7 -60.27,-30.8 -46.52,-162.2 -40.87,-201.7 13.3,-93 52.68,-206.2 119.92,-219.1 64.1,-12.2 131.18,69.5 184.15,159.2 16.13,-29.8 29.87,-61.6 39.85,-94.6 54.13,-179.5 -15.84,-362.7 -57.65,-472.1 -29.36,-76.9 -47.07,-123.2 -11.7,-142.4 55.9,-30.3 158.95,100.6 201.69,177.4 94.17,169.3 68.31,341.5 51.2,455.5 -14.32,95.3 -32.95,219.4 -103.58,336 32.97,89.7 60.52,183.7 79.1,272 41.33,196.4 88.16,419 -9.49,646.8 -79.2,184.7 -217.2,286.4 -317.95,360.7 -91.24,67.2 -142.4,107.9 -132.75,162.2 7.66,43 51.24,90.3 113.76,123.5 73.26,38.8 187.74,64.3 289.29,19.1 183.26,-81.6 328.4,-349.1 241.86,-572.5 -69.44,-120.4 -81.58,-312.7 -34.14,-541.7 46.03,-222.2 142.78,-458.1 272.43,-664.2 54.54,-86.7 173.79,-255.5 359.68,-411.9 248.62,-209.3 531.06,-329 839.45,-355.7 34.22,-3 841.1,-67.5 1142.3,376.6 22.9,33.7 43,70.7 64.4,109.9 58.4,107.2 124.6,228.7 274.8,334.4 70,49.1 158.3,75.9 226.7,89.4 -59.9,-35.5 -133.3,-91 -185.4,-176.1 -21.1,-34.5 -122.1,-214.5 -37,-372 59,-109.3 184,-162 237.8,-165.9 6.8,-0.5 27.3,-2 38.4,12.9 2,2.6 3.8,5.9 6.8,11.3 58.1,104.1 145.9,166.7 260.9,186.1 63.6,10.8 78.9,-1.7 82.1,-5.7 12.4,-15.7 -9.2,-65.6 -22,-95.5 -9.7,-22.4 -18.1,-41.8 -20.7,-58.1 -4.9,-31.2 5.6,-60.5 29.4,-82.4 43.9,-40.4 124.7,-50.1 221.8,-26.5 80.5,19.5 144,75.2 190.4,115.8 22.1,19.4 59,51.9 68.3,47.9 7.1,-3.1 17.4,-37.5 8.5,-74.8 -16.7,-69.6 -99.2,-108.3 -153.7,-134 -38.4,-18 -66.3,-31.1 -57.9,-58.5 3.4,-11.3 13.2,-19.5 29,-24.3 46,-14 148.5,-6.1 222.8,54.8 60.6,49.8 113.7,102.3 148.9,242.1 46.9,186 -2.4,369.5 -103.5,623.8 -53.5,134.5 -130,253.7 -231.1,359 183.5,-3.2 368,-24.3 558.1,-77.6 16.2,-4.6 33,-9.1 50.3,-13.7 208,-55.6 466.7,-124.8 483.9,-483.3 5.4,-111.9 -78.4,-401.2 -175.5,-736.1 -61.6,-212.5 -131.4,-453.4 -189.6,-687.7 -16,-64.1 -31.1,-125.5 -45.6,-184.5 -153.5,-624.2 -238,-968 -510.8,-1268.58 -134.3,-148.09 -237.8,-180.98 -395.3,-222.24 -12.1,-2.56 -24.7,-4.94 -38,-7.12 -0.8,-0.1 -1.5,-0.19 -2.2,-0.29 -337.6,-54.56 -1066.4,8.84 -2168.18,188.68 -987.6,161.12 -1438.88,386.35 -1788.4,892.35 -108.7,157.4 -171.37,369.2 -237.71,593.5 -12.65,42.8 -25.38,85.8 -38.47,128.7 -44.19,231.1 -58.98,535.6 -72.05,804.4 -6.81,140.3 -13.24,272.9 -23.2,379.6 -1.63,17.7 -3.26,36.5 -4.98,56.4 -14.27,165.6 -35.85,415.7 -133.35,717.3 -104.83,324.3 -162.57,503 -302.08,578.1 -225.22,121.3 -542.16,13.8 -718.45,-160.1 -151.63,-149.7 -175.98,-330.3 -204.19,-539.4 -2.77,-20.6 -5.6,-41.5 -8.58,-62.7 -19.63,-139.5 43.76,-407.7 157.73,-667.4 79.68,-181.6 253,-514.1 518.41,-700.4 213.72,-150.1 350.32,-221.7 459.85,-170.2 65.09,30.5 100.23,97.7 119.82,180.9 69.24,-132.8 119.48,-279.8 164.96,-428.3 0.22,-1 0.51,-1.9 0.83,-2.8 13,-42.5 25.62,-85.1 38.18,-127.6 67.46,-228 131.16,-443.4 244.17,-607 358.12,-518.5 817.33,-748.71 1819.82,-912.3 1092.87,-178.33 1800.27,-241.63 2155.97,-192.87 -13.5,-385.35 18.1,-790.28 276.4,-1182 -96.6,-49.71 -203.3,-165.3 -333.9,-359.4 z m -4157.88,-89.92 c -14.67,-30.7 -31.56,-50 -46.36,-52.95 -18.35,-3.7 -63.48,12.55 -158.69,163.12 -69.84,110.45 -146.81,261.11 -221.28,406.83 -28.9,56.56 -52.68,106.56 -73.65,150.66 -71.05,149.24 -113.95,239.44 -230.11,325.94 -68.73,51.23 -120.7,69.01 -166.53,84.79 -48.57,16.63 -90.51,30.99 -146.65,81.94 -159.1,144.29 -237.36,412.91 -149.52,513.2 26.48,30.22 58.31,32.12 102.39,34.79 47.62,2.85 106.87,6.46 171.87,51.33 30.91,21.38 52.87,45.05 71.1,76.04 46.34,25.95 90.03,55.89 130.34,88.97 -10.5,-21.58 -14.03,-44.29 -7.86,-69.11 17.35,-69.76 94.58,-92.2 183.97,-118.15 103.72,-30.13 221.27,-64.26 287,-176.32 46.33,-79.09 65.21,-195.91 19.47,-243.82 -49.91,-52.28 -174.92,-17.2 -266.22,8.37 -81.78,22.91 -135.82,38.12 -156.85,3.61 -20.13,-33.08 16.62,-60.08 97.15,-119.2 92.08,-67.49 246.22,-180.6 389.27,-356.55 47.81,-58.74 85.57,-105.22 120.53,-172.14 128.18,-245.33 111.77,-553.41 50.63,-681.35 z M 6048.8,9644.97 c -131.76,53.99 -273.86,182.21 -294.33,347.23 -13.95,112.4 31.35,236.9 83.2,292.2 19.91,21.3 32.4,23.4 36.58,23.4 0.24,0 0.44,0 0.63,0 11.69,-0.7 22.23,-27.7 32.42,-53.8 17.13,-43.9 38.43,-98.5 94.01,-118.9 69.49,-25.6 132.22,24 219.05,92.7 66.7,52.8 149.71,118.5 266.43,178.6 192.26,99.3 309.45,130.9 348.27,94 19.64,-18.6 5.86,-62.4 -40.65,-197.8 -23.17,-67.4 -52.01,-151.4 -86.84,-264.3 -16.63,-53.99 -30.19,-100.09 -42.14,-140.87 -27.65,-94.11 -44.89,-152.85 -66.53,-194.29 -177.91,-96.1 -384.66,-126.04 -550.1,-58.17 z m 877.26,204.55 c 104.18,79.66 233.85,178.78 279.43,349.78 28.11,105.3 6.67,175.5 -18.17,256.7 -23.54,77 -50.21,164.2 -45.64,309.1 3.56,113.3 25.83,239 61.09,345 37.16,111.7 72.87,151.4 82.71,152.6 12.66,-5.5 37.77,-53.9 63.63,-317 21.57,-219.4 42.66,-564.8 71.84,-1042.76 l 12.44,-203.41 c 16.2,-264.06 30.41,-491.53 42.77,-689.24 13.82,-221.1 25.3,-404.74 34.61,-560.63 -11.18,28.8 -24.02,57.41 -38.66,85.45 -37.17,71.1 -76.28,119.2 -125.79,180.13 -146.89,180.6 -304.09,295.9 -398.02,364.82 -26.29,19.29 -53.19,39.07 -69.17,52.94 22.71,-3.13 59.17,-13.31 87.94,-21.39 108.62,-30.41 243.79,-68.34 313.4,4.57 63.37,66.25 43.24,204.94 -12.83,300.56 -75.29,128.51 -208.08,167.1 -314.75,198 -78.41,22.72 -140.34,40.78 -151.09,84.02 -11.09,44.49 40,86.31 124.26,150.76 z m -596.62,1610.28 c -18.47,79.6 29.17,165.4 50.5,198.5 27.9,43.4 55.46,69.4 70.71,80 0.83,-19.6 -3.72,-55.5 -6.42,-76.8 -12.23,-96.6 -46.2,-183.2 -89.26,-258.1 -12.39,17.9 -20.98,36.8 -25.53,56.4 z m 426.03,-660.4 c -4.24,0.4 -8.52,0.7 -12.83,1.1 -68.29,6.1 -145.69,13 -261.69,74.4 -147.5,78.2 -241.5,166.4 -280.37,263 51.17,46.7 110.37,109.4 162.35,186.8 14.39,-12.4 30.52,-24.1 48.28,-34.9 120.07,-73.1 303.5,-98.9 446.06,-62.6 108.02,27.4 182.09,86.6 231.09,125.8 13.18,10.5 28.81,23 38.71,28.9 1.38,-48.3 -79.49,-234.6 -221.95,-423.6 -39.83,-52.9 -87.67,-103.1 -149.65,-158.9 z m -617.94,386.6 c 1.97,-11.1 4.52,-22.1 7.65,-33 -42.99,-37.4 -76.16,-60.4 -86.3,-67.2 -38.33,-25.6 -74.55,-49.9 -106.76,-68.1 52.47,152.3 144.82,261.7 185.08,287.9 -0.31,-3 -0.65,-6.1 -0.97,-9 -2.81,-25.3 -7.04,-63.5 1.3,-110.6 z m 214.82,-709.6 c -144.77,-111.6 -251.6,-188.3 -307.86,-159.8 -23.8,12.2 -36.78,42.3 -60.33,140.5 -51.08,212.9 -76.73,319.8 -66.12,412.1 3.39,29.6 8.74,58.4 15.58,86 44.66,19.5 95.21,53.3 151.7,91.1 14.34,9.6 42.5,29.4 77.66,58.7 46.35,-101.2 145.44,-192.5 295.73,-272.1 105.82,-56.1 183.9,-70 247.42,-76.7 -88.29,-75.2 -201.96,-162.8 -353.78,-279.8 z m -585.41,1280.8 c -170.21,97.7 -263.96,151.5 -309.49,199.9 -113.51,120.4 -166.54,284.2 -134.23,314.7 5.08,4.8 12.87,6.9 22.59,6.9 49.93,0 150.79,-55.1 197.48,-82.3 181.44,-105.5 283.51,-229 303.38,-367.1 5.79,-40.2 2.02,-63 -9.27,-112.2 -3.09,1.8 -6.24,3.6 -9.43,5.4 -18.55,10.5 -38.82,22 -61.03,34.7 z m 2048.3,1052.1 c 50.5,-97.8 65.76,-199.5 78.69,-285.6 17.13,-114 40.57,-270.1 -45.72,-425.3 -42.97,-77.2 -103.38,-138.1 -131.12,-153.7 3.84,17.8 16.02,49.7 27.06,78.6 43.97,115.1 117.57,307.8 58.75,502.8 -13.6,45.1 -34.03,88.8 -58.45,129.2 2.44,4.6 4.84,9.2 7.19,13.8 22.26,43.4 43.67,90.8 63.6,140.2 z m -2186.21,-341.1 c -110.72,-57.8 -291.84,-77.9 -427.89,14.6 -140.59,95.6 -159.94,264.1 -175.5,399.4 -12.68,110.3 -28.45,247.5 39.17,298.6 20.84,15.7 48.24,22.8 79.84,22.8 104.7,0 255.53,-77.5 366.76,-173.9 94.82,-82.2 121.77,-146.2 175.48,-273.6 19.92,-47.3 43.26,-102.6 74.8,-169.7 -34.68,-49.6 -77.48,-89.3 -132.66,-118.2 z m 258.34,896.6 c -8.06,-68.6 -19.09,-162.5 -40.64,-165.5 -11.73,-1.7 -31.72,32.3 -47.84,59.6 -33.53,56.7 -79.42,134.4 -169.44,156.1 -14.63,3.6 -28.31,5.1 -41.36,5.1 -42.78,0 -78.69,-16.7 -118.78,-35.4 -49.17,-22.9 -104.89,-48.9 -194.87,-57.2 -68.42,-6.3 -171.79,-15.8 -242.26,35.6 -56.05,40.8 -94.66,124.8 -103.28,224.6 -12.21,141.1 33.61,280.2 122.52,372.2 148.74,153.8 396.16,146.5 563.06,74.7 213.08,-91.7 294.1,-295.5 325.62,-391.3 -31.1,-94.2 -42.86,-194.4 -52.73,-278.5 z m -86.46,907.6 c -34.89,0 -63.84,56.3 -94.49,115.9 -42.4,82.5 -90.45,176 -184.49,188.1 -6.53,0.9 -13.01,1.3 -19.44,1.3 -96.44,0 -180.99,-91.2 -249.77,-165.4 -34.62,-37.4 -86.95,-93.8 -103.32,-86.2 -0.23,0.2 -23.5,20.9 -2.66,183.7 33.16,258.7 67.43,526.3 260.84,613.9 34.54,15.6 154.27,62.5 244.59,9.2 75.4,-44.6 78.39,-130.2 82.54,-248.6 3.79,-108.4 8.52,-243.3 77.89,-382.1 24.6,-49.2 54.1,-92.8 86.6,-131.8 -33.48,-60.9 -67.84,-97.7 -98.29,-98 z m 5493.49,-1073.1 c -280.5,-29.1 -570.5,-59.1 -865,-35.1 -792.7,64.8 -1468.7,459.7 -1608.74,653.3 -26.97,37.3 -27.57,57.1 -25.53,65.6 3.04,12.6 17.28,23.2 28.68,29.9 65.32,38.4 214.19,57.8 411.1,57.8 351.22,0 855.09,-61.9 1309.49,-189 41.3,-11.6 82.7,-23 124,-34.4 455.7,-126 893.8,-247.1 1194.9,-505.3 -192.5,-3.8 -382.3,-23.4 -568.9,-42.8 z m 4680.8,-6905.57 c -671.2,629.17 -2004.8,1038.28 -2739.8,1261.09 5.3,29.27 3.2,57.98 -8.1,87.35 -40.5,105.32 -155.8,138.59 -301.8,180.7 -125.3,36.12 -267.3,77.09 -403.1,173.57 -61.2,43.44 -113.4,94.67 -163.8,144.2 -98.4,96.48 -183.3,179.74 -297.2,168.24 -14.8,-1.52 -29.8,-4.65 -45,-9.5 -242.9,360.63 -288.5,735.81 -272.5,1171.35 7.7,1.43 15.3,2.95 22.6,4.47 l 1.1,0.28 c 143.9,37.65 268.2,70.15 419,236.4 280.8,309.52 366.4,657.52 521.8,1289.12 14.4,59 29.5,120.4 45.5,184.4 58,233.4 127.7,473.8 189.2,685.9 102.2,353 183,631.8 177.3,751.7 -18.9,393.1 -308,470.4 -519.2,526.9 -17.1,4.6 -33.7,9 -49.7,13.5 -209.5,58.8 -415.8,78.9 -618.9,79.3 -92.7,86.5 -203.6,163 -333.3,230.6 -270.4,140.8 -585.1,227.8 -918.2,319.9 -41.3,11.4 -82.6,22.8 -123.9,34.4 -674.31,188.6 -1544.8,251.2 -1757.45,126.4 -28.13,-16.5 -45.23,-36.6 -50.82,-59.8 -7.04,-29.2 4.14,-64.4 33.23,-104.6 168.83,-233.3 893.03,-611.4 1643.44,-672.7 298.7,-24.4 591,5.9 873.7,35.2 208.6,21.6 411.6,42.6 615,43.6 106.6,-102.8 193.1,-226 253.2,-377 99.8,-251.1 145.6,-420.2 101.6,-594.6 -31.8,-126.2 -75.2,-169.5 -133,-216.9 -45.4,-37.3 -101.1,-48.6 -139.3,-49.8 59.4,28 154.1,74.3 175.6,164 10.2,42.9 5.9,111.5 -36.1,129.4 -36.7,15.8 -72.8,-15.7 -118.4,-55.7 -45.1,-39.5 -101.1,-88.7 -170.2,-105.4 -94.4,-22.9 -154,-7.1 -178.5,15.3 -12,11.1 -17,24.6 -14.5,40.1 1.6,10.3 9.6,28.7 17.3,46.6 20.2,47.1 45.6,105.7 15.8,143.6 -21.1,27 -61.6,34.4 -127.4,23.3 -129.9,-22 -229,-92.6 -294.6,-209.9 -30.4,2 -146.2,42.3 -199.6,141.2 -72.6,134.6 17,294 35.8,324.6 71.9,117.7 192.1,174.4 243.4,198.6 24.9,11.7 33.3,15.7 37.3,27.5 l 3.3,10.1 -4.4,8.9 c -2.4,4.8 -7.3,10.9 -17.4,13.5 -27,6.8 -231,-9.5 -371.4,-108.3 -159.4,-112.1 -228.4,-238.7 -289.2,-350.4 -20.8,-38.2 -40.5,-74.2 -62.1,-106 -146.2,-215.6 -428.6,-301.2 -639.8,-335.1 -242.96,-38.9 -450.27,-21.6 -458.92,-20.9 -662.5,57.4 -1034.07,540.6 -1163.07,745.6 -265.5,422 -369.39,930.8 -236.53,1158.3 l 1.59,3.3 c 98.83,251.6 -58.99,542.7 -266.13,634.9 -99.49,44.3 -223.19,36.6 -330.89,-20.6 -76.27,-40.4 -127.96,-99.2 -138.27,-157.1 -15.3,-86 58.24,-140.2 151.34,-208.8 101.74,-75 228.35,-168.3 302.48,-341.1 91.72,-214 48.47,-419.5 6.66,-618.3 -16.83,-80 -39.55,-159.2 -65.46,-233.4 -7.1,9.4 -14.6,18.7 -22.51,27.9 -89.32,103.6 -191.67,145.5 -266.39,176 -71.32,29.2 -108.87,46.2 -115.86,84.9 -12.87,71.1 88.41,155.1 169.77,222.6 79.01,65.6 141.42,117.4 119.29,167.1 -19.04,42.8 -77.76,37.8 -152.09,31.4 -80.48,-6.9 -180.68,-15.5 -231.84,39.3 -41,43.8 -30.7,108.1 -19.79,176.2 11.81,73.6 24.01,149.8 -28.39,207.8 -62.37,69 -167.53,55.1 -269.21,41.7 -97.06,-12.8 -197.43,-26 -256.84,31.5 -39.86,38.5 -40.08,87.2 -40.56,193.8 -0.08,21.2 -0.19,44.3 -0.64,69.7 -0.3,16.2 -0.56,32.7 -0.81,49.3 -4.56,289.8 -10.21,650.5 -216.49,848.2 -85.32,81.7 -257,204.8 -359.16,147.7 -65.54,-36.7 -63.5,-119 -60.4,-243.5 2.34,-94 5.25,-211.1 -16.12,-358.3 -22.8,-157.1 -66.09,-306.8 -113.87,-411.2 -25.21,32.1 -48.06,67.3 -67.49,106.1 -64.74,129.5 -69.07,253.3 -72.89,362.6 -4.32,123.4 -8.05,230 -105.86,287.8 -110.06,65 -248.55,11.2 -288.4,-6.8 -217.55,-98.6 -253.54,-379.5 -288.35,-651.2 -23.3,-181.8 1.91,-219.6 29.63,-232.7 47.76,-22.4 96.58,30.2 158.34,96.8 65.96,71.2 148.06,159.8 228.29,149.4 69.25,-9 109.43,-87.1 148.29,-162.7 37.46,-72.9 72.85,-141.8 136.66,-141.8 0.33,0 0.67,0 1.02,0 48.34,0.6 92.48,43.1 131.02,108 94.96,-99.5 207.96,-165.6 298.41,-218.6 82.58,-48.3 153.89,-90.1 144.94,-123.7 -4.87,-18.3 -30.33,-24.2 -78.69,-33.7 -55.06,-10.9 -130.46,-25.7 -203.53,-81.6 -57.97,-44.4 -98.48,-101.8 -127.5,-164.6 -43.65,111.7 -135.75,282.7 -333.2,367.7 -181.46,78.1 -451.62,84.6 -616.02,-85.4 -98.34,-101.7 -149.09,-254.7 -135.72,-409.3 9.94,-115 54.64,-209.4 122.65,-258.9 84.96,-61.9 203.68,-51 274.6,-44.5 98.22,9 160.53,38.1 210.59,61.4 49.65,23.2 82.43,38.4 128.92,27.2 70.48,-17 108.84,-81.9 139.67,-134 26.92,-45.6 52.39,-88.6 95.31,-82.6 57.92,8.1 67.73,91.5 81.28,207 6.99,59.5 14.97,127.5 30.38,194.9 32.78,-155.2 2.3,-291.2 -41.21,-485.2 -39.65,-176.8 -72.67,-324.1 -132.19,-434 -24.7,53.9 -44.01,99.7 -60.85,139.6 -52.98,125.8 -84.97,201.7 -188.16,291.1 -127.65,110.7 -378.02,250.1 -506.36,153.1 -89.3,-67.4 -71.8,-219.6 -57.74,-341.9 15.78,-137.3 37.39,-325.4 195.99,-433.3 153.02,-104 349.64,-83.7 476.61,-17.4 54.83,28.7 98.4,66 134.16,111.3 6.78,-13.8 13.91,-28.1 21.41,-42.9 95.03,-187.5 177.12,-308.1 237.07,-396.2 88.57,-130.2 133.03,-195.6 129.85,-325.1 -3.9,-158.4 -80.25,-298.9 -134.03,-371.4 9.37,42.1 13.89,96 -7.87,151.4 -23.12,58.7 -63.63,88.7 -151.13,139.3 13.93,60 20.78,91.1 13.23,143.6 -22.05,153.2 -131.91,288.2 -326.54,401.4 -106.94,62.2 -223.44,119 -276.6,68.8 -66.69,-63 17.83,-260.4 132.28,-381.8 50.36,-53.5 146.28,-108.5 320.42,-208.5 22.3,-12.8 42.64,-24.3 61.26,-34.9 7.53,-4.2 14.76,-8.3 21.71,-12.3 -3.57,-15.7 -7.47,-33.4 -11.64,-53.5 -63.82,-308.3 -107.57,-602.3 3.39,-665.9 19.16,-11 40.22,-13.8 63.26,-10.3 -4.4,-21.1 -7.93,-42.6 -10.44,-64.5 -11.56,-100.6 14.73,-210.2 67.12,-428.5 25.93,-108.1 42.67,-150.3 85.03,-171.8 81.49,-41.4 189.78,34.5 358.4,164.5 172.43,132.9 296.24,228.3 390.14,311.2 44.15,-5 80.1,-13.8 119.19,-46.4 154.6,-129.1 146.68,-446.5 42.3,-662 -58.18,-120.12 -153.4,-222.11 -265.3,-296.92 13.39,37.45 26.72,82.79 43.33,139.35 11.91,40.58 25.42,86.59 41.96,140.17 34.61,112.3 63.31,195.8 86.37,263 53.22,154.9 71.14,207.1 28.41,247.7 -73.14,69.4 -244.66,-4.6 -402.78,-86.3 -120.8,-62.2 -205.81,-129.5 -274.11,-183.5 -84.56,-66.9 -130.66,-101 -173.18,-85.5 -35.48,13.1 -51.06,53 -66.12,91.7 -15.64,40 -31.82,81.4 -73.96,83.9 -23.94,1.4 -49.85,-11.9 -74.63,-38.3 -58.53,-62.4 -111.95,-199.6 -95.68,-330.6 22.83,-184.02 178.91,-326.13 323.47,-385.35 75.65,-30.98 160.87,-44.1 249.81,-39.54 -9.89,-6.37 -19.44,-14.54 -28.51,-24.9 -106.53,-121.58 -29.15,-414.15 153.33,-579.64 63.4,-57.61 111.87,-74.14 163.18,-91.73 44.62,-15.3 90.77,-31.08 153.54,-77.95 106.72,-79.46 145.39,-160.73 215.59,-308.25 21.12,-44.4 45.03,-94.68 74.26,-151.9 196.51,-384.59 323.55,-616.62 431.64,-594.85 30.9,6.18 57.78,32.79 79.88,79.08 5.87,12.27 11.42,26.14 16.56,41.54 5.21,-192.01 1.42,-328.13 -9.76,-504.17 -60.9,-959.19 -267.8,-1483.6 -737.96,-1870.38 -329.64,-271.19 -646.43,-480.4 -925.93,-665 -499.12,-329.74 -893.36,-590.19 -1104.42,-1018.6 -80.43,-163.21 -122.12,-394.95 -114.36,-635.72 5.76,-178.61 42.37,-374.52 111.18,-409.4 6.53,-3.33 15.11,-6.27 24.96,-6.27 20.23,0 45.88,12.45 70.38,59.31 354.32,678.97 888.91,1125.16 1588.93,1326.01 549.09,157.6 851.55,244.29 1067.07,442.19 522.51,479.64 522.04,1293.5 521.76,1779.79 -0.07,115.12 -0.13,214.45 7.08,282.98 9.1,86.69 27.18,93.15 30.72,93.54 19.63,2.56 100,-33.37 304.48,-588.96 127.19,-345.62 257.72,-767.94 353.03,-1076.3 14,-45.25 27.39,-89.16 40.27,-131.37 118.36,-387.82 175.57,-562.62 265.75,-562.62 1.54,0 3.11,0 4.68,0.19 128.03,8.36 198.62,419.76 198.46,700.83 -0.2,374.33 -112.36,606.54 -211.3,811.39 -93.52,193.62 -174.27,360.82 -141.43,605.21 50.92,378.69 361.89,813.28 726.71,831.25 312.83,15.4 607.64,-273.67 726.04,-553.41 171,-403.7 -1.8,-840.85 -128,-1160.14 -97.5,-246.66 -167.9,-424.89 -63.3,-509.2 68.5,-55.13 192.1,-46.39 348.2,24.52 140.7,63.97 286.3,170.05 389.4,283.83 202.3,223.48 250,505.31 336.3,1016.8 33.1,196.67 42.8,311.49 50.5,403.69 9.5,113.12 15.8,187.83 59,336.31 41.6,142.77 142.3,428.22 349.4,736 127.9,190.02 232,302.56 321.4,346.19 40,-57.03 84.9,-113.78 135.4,-170.15 166.7,-186.21 351.5,-292.67 577.7,-395.14 80.2,-36.31 241.1,-85.45 463.5,-152.84 -23.1,-53.9 -72.7,-116.35 -137.5,-198 -95.5,-120.34 -214.3,-270.15 -324.2,-487.92 -112.7,-223.19 -151.3,-390.77 -188.6,-552.83 -10.7,-46.2 -20.6,-89.92 -32.4,-134.89 -101.2,-387.82 -308.5,-788.85 -544,-1121.16 -136.4,1.71 -270.9,-5.42 -399.8,-21.77 -416.1,-52.56 -688.3,-190.1 -746.9,-377.17 -47,-150.28 39.3,-353.13 171,-401.89 73.5,-27.19 167.8,-11.22 280.5,47.52 213.1,111.12 481.5,374.33 719.7,705.4 287.1,-5.7 581.7,-50.95 848.6,-132.5 562.8,-171.77 1281.3,-183.36 1971.3,-31.75 669,146.95 1176.6,421.57 1357.7,734.58 98.9,170.9 148.7,438.58 -176.1,742.94"
           style="fill:#000000;fill-opacity:1;fill-rule:nonzero;stroke:none"
           id="path20" /></g></g></g></svg>
