<svg width="102" height="70" viewBox="0 0 102 70" fill="none" xmlns="http://www.w3.org/2000/svg">
<g clip-path="url(#clip0_16_288)">
<path d="M51.1159 5.84807C50.7058 5.87664 50.5801 5.8895 50.3543 5.91951C48.8539 6.11956 47.5335 6.7097 46.3503 7.70707C46.1502 7.87711 45.6458 8.37866 45.47 8.58299C44.7412 9.43177 44.1625 10.3934 43.7281 11.4765C43.558 11.9009 43.3837 12.4525 43.318 12.7697C43.3008 12.8526 43.2837 12.924 43.2794 12.9297C43.2751 12.934 43.1836 12.9297 43.0779 12.9183C42.2762 12.8368 41.2488 12.8769 40.3843 13.0212C37.7192 13.4684 35.6672 14.8873 34.4183 17.1464C34.2982 17.3636 34.2839 17.3836 34.2611 17.3679C34.2468 17.3579 34.1753 17.3036 34.101 17.2479C33.0736 16.4691 31.6489 15.9576 30.1313 15.8204C29.7826 15.789 29.0824 15.7775 28.7738 15.7975C26.9018 15.9247 25.0598 16.7578 23.7366 18.0781C22.4191 19.3927 21.6417 21.1345 21.4374 23.2293C21.2087 25.5584 21.7217 27.3788 23.0578 28.9892C23.2565 29.2264 23.8009 29.7694 24.0581 29.9837C25.0084 30.7753 26.1373 31.4055 27.4334 31.8656C28.1064 32.1042 28.8481 32.2914 29.3711 32.3529C29.5068 32.37 29.9698 32.3729 31.8504 32.3743H34.161V38.3543V44.3342H32.1147C30.1927 44.3342 30.0641 44.3357 30.0184 44.36C29.9913 44.3728 29.9555 44.4028 29.9398 44.4243L29.9098 44.4643L29.9055 48.7367L29.9027 53.0077H27.2333C24.3854 53.0077 24.4154 53.0077 24.2153 53.0763C23.738 53.2421 23.3865 53.7036 23.2593 54.3323C23.2293 54.4766 23.2293 54.4909 23.2293 58.7791V63.0815L22.4205 63.0844L21.6117 63.0887L21.5631 63.1415L21.5145 63.1958V63.7531V64.3104H11.1187C1.96744 64.3104 0.717078 64.3132 0.679924 64.3318C0.614191 64.3661 0.579895 64.4204 0.579895 64.4918C0.579895 64.5704 0.614191 64.6319 0.674208 64.6605C0.715649 64.679 1.86741 64.6819 11.2358 64.6819C21.6045 64.6819 21.7503 64.6819 21.7917 64.6547C21.8718 64.6019 21.8703 64.6047 21.8718 64.006V63.453H22.5505H23.2293V63.7031V63.9531L23.2779 64.0074L23.3265 64.0603L31.6274 64.0632L39.927 64.0675L39.9741 64.0389C40.0556 63.9889 40.0627 63.9503 40.0627 63.5731C40.0627 63.2044 40.0556 63.1658 39.9799 63.1144C39.9441 63.0901 39.8627 63.0887 38.588 63.0815C37.845 63.0772 37.2319 63.0701 37.2276 63.0658C37.2234 63.0615 37.2148 61.1325 37.2076 58.7791C37.1976 54.8281 37.1948 54.4981 37.1733 54.4566C37.1205 54.358 37.3505 54.3652 34.2696 54.3652H31.4888V53.8722V53.3792L34.1796 53.3821L36.869 53.3864L36.9976 53.4264C37.2491 53.5035 37.4606 53.6264 37.5663 53.7565C37.5963 53.7922 37.6406 53.8651 37.6663 53.9179L37.7121 54.0151L37.7192 58.1232C37.7264 61.9198 37.7278 62.2342 37.7506 62.2642C37.8107 62.3513 37.7135 62.3456 39.1954 62.3499L40.5486 62.3528V63.1973C40.5486 64.1146 40.5486 64.106 40.6286 64.1603C40.6686 64.1889 40.7144 64.1889 42.9893 64.1932C45.5443 64.1975 45.3771 64.2032 45.4357 64.1075C45.4629 64.0617 45.4643 64.0374 45.4643 63.4487V62.8386H47.1191C48.7524 62.8386 48.7724 62.8386 48.8196 62.81C48.9096 62.7543 48.9082 62.78 48.9082 61.7283C48.9082 60.831 48.9067 60.771 48.8824 60.7252C48.8681 60.6981 48.8339 60.6638 48.8067 60.6495C48.761 60.6252 48.6181 60.6238 45.1757 60.6238C42.6921 60.6238 41.5603 60.6195 41.4832 60.6081C41.2217 60.5723 40.9616 60.4838 40.7544 60.3623C40.5843 60.2623 40.3543 60.0351 40.2599 59.8722C40.1456 59.6764 40.0742 59.4692 40.0242 59.1949C40.0027 59.0691 39.9999 58.6605 39.9956 53.7579C39.9913 50.0442 39.9942 48.4038 40.0056 48.278C40.0828 47.3792 40.5515 46.7734 41.3203 46.5776C41.6089 46.5048 41.4274 46.5062 46.0388 46.5062C50.8587 46.5062 50.4229 46.5162 50.48 46.4004C50.5086 46.3404 50.5086 46.3219 50.5086 44.8587V43.3769H50.9016H51.2946V44.8644C51.2946 46.4948 51.2903 46.4133 51.3774 46.4733C51.4146 46.4976 51.5904 46.499 55.5029 46.5062L59.5898 46.5133L59.7041 46.5462C59.9371 46.6134 60.1743 46.7462 60.3358 46.8963C60.6158 47.1578 60.773 47.5264 60.8116 48.0137C60.823 48.1409 60.8259 49.8413 60.823 53.415C60.8187 58.3333 60.8173 58.6376 60.793 58.7662C60.6187 59.6993 60.1886 60.1723 59.3583 60.348C59.2569 60.3694 58.8367 60.3723 54.5712 60.3766L49.8942 60.3809V59.5235V58.6662H54.9099C60.4315 58.6662 59.9957 58.6733 60.0542 58.5776C60.0828 58.5304 60.0828 58.5219 60.0828 53.0706V47.6107L60.05 47.5621C60.0314 47.535 59.9957 47.5064 59.9685 47.4964C59.8956 47.4721 41.1073 47.4721 41.0345 47.4964C41.0073 47.5064 40.9716 47.535 40.953 47.5621L40.9201 47.6107V53.0706C40.9201 57.3759 40.9244 58.5376 40.9387 58.5647C40.9473 58.5833 40.9744 58.6133 40.9959 58.629L41.0359 58.659L45.0228 58.6633L49.0082 58.6662V60.6895C49.0082 62.9115 49.0025 62.77 49.0939 62.8172C49.1311 62.8357 49.4455 62.8386 51.7876 62.8386H54.4383V63.6959C54.4383 64.6376 54.4369 64.6147 54.5241 64.6605C54.5612 64.679 55.0328 64.6819 58.8096 64.679L63.0551 64.6747L63.1008 64.6276L63.148 64.5819L63.1551 59.9479L63.1623 55.3154L63.1952 55.2082C63.2137 55.1496 63.2637 55.0282 63.3066 54.9382C63.3766 54.7953 63.4009 54.761 63.511 54.6495C63.6124 54.5466 63.6567 54.5138 63.7553 54.4666C63.9697 54.3637 63.9397 54.3652 65.2243 54.3652C66.4832 54.3652 66.4375 54.368 66.489 54.2809C66.5118 54.2423 66.5133 53.8951 66.5133 48.6853C66.5133 43.4755 66.5118 43.1283 66.489 43.0897C66.4761 43.0668 66.4447 43.0397 66.4189 43.0268C66.3789 43.0082 65.5615 43.0054 59.0197 43.0054H51.6661V42.591V42.1766H59.4469H67.2277V48.1994C67.2277 53.6107 67.2306 54.228 67.2492 54.2666C67.262 54.2894 67.2921 54.3223 67.3178 54.3366C67.3621 54.3637 67.3978 54.3652 68.551 54.3652C69.8771 54.3652 69.7913 54.3595 70.0071 54.4695C70.0914 54.5124 70.1515 54.5566 70.2358 54.6424C70.3658 54.7738 70.4358 54.8982 70.4901 55.0868L70.5216 55.2011L70.5258 59.3906L70.5287 63.5816H67.8851H65.2415V63.0244V62.4671H67.4492C69.8771 62.4671 69.717 62.4728 69.7642 62.3813C69.7828 62.3442 69.7856 61.9398 69.7856 58.8377V55.3368L69.737 55.2825L69.6885 55.2297H66.9634H64.2383L64.1897 55.2825L64.1411 55.3368V59.9465C64.1411 64.2375 64.1426 64.559 64.1654 64.5962C64.1783 64.619 64.2083 64.6476 64.2326 64.6605C64.2726 64.6805 64.6227 64.6833 68.2109 64.679L72.1463 64.6747L72.1949 64.6219L72.2435 64.5676V64.2318V63.896H72.615H72.9866V64.2103C72.9866 64.5633 72.9951 64.6033 73.0751 64.6533L73.1223 64.6819H86.7848H100.447L100.496 64.649C100.527 64.6276 100.552 64.5947 100.566 64.5561C100.585 64.5033 100.585 64.489 100.566 64.4361C100.555 64.4047 100.526 64.3632 100.505 64.3475L100.465 64.3175L86.9106 64.3132L73.3581 64.3104V63.9831C73.3581 63.6674 73.3567 63.6559 73.3252 63.6088C73.3066 63.5816 73.2709 63.553 73.2438 63.543C73.1709 63.5188 72.022 63.5173 71.9734 63.543C71.9548 63.5516 71.9248 63.5788 71.9091 63.6002C71.8805 63.6388 71.8791 63.6616 71.8748 63.976L71.8705 64.3104H68.1909H64.5127V59.9522V55.594H66.9634H69.4141V58.8448V62.0956L67.2092 62.0984C65.13 62.1027 65.0028 62.1041 64.9657 62.1284C64.8742 62.1884 64.8771 62.1527 64.8728 63.0029C64.8685 63.8588 64.8685 63.8631 64.9542 63.9203L65.0028 63.9531H67.8851H70.7673L70.8159 63.9203C70.8431 63.9017 70.8717 63.866 70.8817 63.8388C70.9031 63.776 70.9074 55.454 70.8859 55.234C70.8502 54.8682 70.7145 54.5752 70.4758 54.3509C70.3001 54.1851 70.1014 54.0751 69.8828 54.0222C69.7699 53.9951 69.7142 53.9937 68.6824 53.9937H67.5993L67.5964 47.948L67.5921 41.9022L67.5393 41.8537L67.485 41.8051H59.5755H51.6661V41.255V40.7048H54.9028C58.4752 40.7048 58.198 40.712 58.2451 40.6134C58.2666 40.5691 58.268 40.2304 58.268 36.4695V32.3743H61.1617H64.0554L64.0583 35.8894L64.0625 39.4045L64.1097 39.4502L64.1554 39.4974L69.3712 39.5017L74.587 39.5045V47.3621V55.2211L73.8482 55.2268C73.2323 55.2311 73.0894 55.2368 73.0008 55.2554C72.5907 55.3454 72.3049 55.5326 72.1034 55.8412C71.9234 56.117 71.8291 56.5157 71.8505 56.9086C71.8548 56.9987 71.8634 58.4033 71.8691 60.0308C71.8762 62.3485 71.8834 62.9958 71.8962 63.0201C71.9062 63.0372 71.932 63.0644 71.952 63.0801C71.9891 63.1101 72.0034 63.1101 72.6107 63.1101C73.2909 63.1101 73.2924 63.1101 73.3367 63.0244C73.3552 62.9872 73.3581 62.6228 73.3581 59.8522V56.7229H75.3658H77.3735V60.2737C77.3735 63.4216 77.3764 63.8303 77.395 63.8674C77.4393 63.9531 77.4393 63.9531 78.1395 63.9531H78.7768L78.8254 63.9046L78.874 63.856V60.258C78.874 57.1401 78.8711 56.6414 78.8525 56.5271C78.7654 55.9884 78.4581 55.5583 77.9923 55.324C77.7779 55.2154 77.8522 55.2225 76.8648 55.2225H75.9731V46.6734C75.9731 39.8646 75.9688 38.1185 75.9546 38.0899C75.9446 38.0713 75.9145 38.0399 75.8888 38.0228L75.8402 37.9899H70.7345H65.6273V35.1821V32.3743H66.4104C67.2706 32.3743 67.2692 32.3743 67.7608 32.2686C69.5556 31.8799 71.3589 31.0668 72.7651 30.0095C73.2238 29.6665 73.5553 29.375 73.9868 28.9363C74.7571 28.1547 75.3287 27.3603 75.8231 26.38C76.5319 24.9768 76.9205 23.4408 77.0177 21.6618C77.0277 21.4732 77.0306 21.1131 77.0263 20.7044C77.0191 20.0428 77.0049 19.7899 76.9448 19.2798C76.5404 15.849 74.7756 13.1655 71.7976 11.4537C71.4547 11.2579 70.8145 10.9393 70.4358 10.7792C69.3641 10.3248 68.2052 9.99475 67.0634 9.81614C66.8205 9.77899 66.7805 9.77613 66.3561 9.77756C64.7099 9.78042 62.7965 10.1248 61.3832 10.6735C60.683 10.945 60.0314 11.2836 59.5127 11.6451C59.4469 11.6909 59.3898 11.7252 59.3855 11.7209C59.3812 11.7152 59.344 11.6208 59.304 11.508C59.1897 11.1936 59.064 10.9078 58.8796 10.5406C57.8122 8.40581 56.176 6.91689 54.1597 6.24673C53.5824 6.05526 53.0151 5.93809 52.3492 5.87379C52.132 5.85378 51.2874 5.83521 51.1159 5.84807ZM52.3663 6.24673C53.8839 6.40105 55.1357 6.90117 56.2531 7.79852C57.1863 8.5487 57.9751 9.55751 58.5681 10.7564C58.781 11.1865 58.9268 11.5465 59.0997 12.0624C59.1411 12.1881 59.1968 12.2324 59.2983 12.2224C59.354 12.2181 59.3883 12.1996 59.4984 12.1167C61.0174 10.9807 63.318 10.2848 65.9988 10.1534C66.4389 10.1319 66.7305 10.1419 67.0277 10.1905C69.0283 10.5106 70.9588 11.2679 72.4793 12.3267C73.8482 13.2798 74.8942 14.4744 75.5873 15.8776C75.9088 16.5263 76.1275 17.1207 76.3089 17.838C76.7462 19.5584 76.7848 21.6946 76.4147 23.5508C76.0589 25.3269 75.3258 26.8616 74.2098 28.1647C73.9897 28.4234 73.5667 28.8535 73.3009 29.0921C71.7591 30.4724 69.7313 31.4684 67.5035 31.9413L67.2492 31.9942L66.3132 32.0028C65.2929 32.0099 65.3472 32.0056 65.2872 32.0914C65.2643 32.1214 65.2629 32.3586 65.2586 35.1549C65.2557 37.5627 65.2586 38.1985 65.2729 38.2414C65.2843 38.2757 65.3101 38.3085 65.3401 38.3286L65.3886 38.3614H70.4944H75.6016V46.9034C75.6016 55.1611 75.603 55.4454 75.6273 55.494C75.6831 55.5983 75.6373 55.594 76.7248 55.594H77.6993L77.8251 55.6583C78.0666 55.7784 78.2409 55.9555 78.3595 56.2013C78.4424 56.3714 78.481 56.5157 78.5024 56.73C78.511 56.8343 78.5167 58.0246 78.5167 60.2408V63.5959H78.1309H77.7451V60.0594C77.7451 56.2142 77.7508 56.4628 77.6665 56.3971L77.6265 56.3656H75.3658H73.1052L73.0651 56.3971C72.9808 56.4628 72.9866 56.2513 72.9866 59.6307V62.7386H72.615H72.2435L72.2378 59.905C72.2335 58.3475 72.2263 56.9987 72.222 56.9086C72.2006 56.5228 72.3064 56.1513 72.5021 55.9327C72.6493 55.7669 72.8965 55.6455 73.1623 55.6098C73.2309 55.5998 73.5767 55.594 74.0497 55.594H74.8257L74.8742 55.5612C74.9 55.544 74.93 55.5126 74.94 55.494C74.9671 55.4411 74.9671 39.2859 74.94 39.2331C74.93 39.2145 74.9 39.183 74.8742 39.1659L74.8257 39.133H69.627H64.4269V35.6422C64.4269 32.3486 64.4255 32.15 64.4012 32.1028C64.3869 32.0742 64.3555 32.0428 64.3269 32.0285C64.2798 32.0042 64.0983 32.0028 61.1617 32.0028C58.2251 32.0028 58.0437 32.0042 57.9965 32.0285C57.9679 32.0428 57.9365 32.0742 57.9222 32.1028C57.8979 32.15 57.8965 32.3786 57.8965 36.2495V40.3476H54.6541H51.4132L51.3746 40.3776C51.2931 40.4419 51.2946 40.4319 51.2946 41.1478V41.8051H50.9016H50.5086V40.7477V39.6903H53.6881C57.1848 39.6903 56.9276 39.6974 56.9748 39.6046C56.9934 39.5674 56.9962 39.1416 56.9962 35.8508C56.9962 32.9101 56.9919 32.1314 56.9776 32.1028C56.9676 32.0842 56.9376 32.0528 56.9119 32.0356L56.8633 32.0028H51.1017H45.34L45.2914 32.0356C45.2657 32.0528 45.2357 32.0842 45.2257 32.1028C45.2114 32.1314 45.2071 33.1573 45.2071 37.0897C45.2071 41.9665 45.2071 42.0409 45.2357 42.0866C45.25 42.1109 45.2771 42.1409 45.2957 42.1509C45.3228 42.1666 45.7787 42.1695 47.7335 42.1737L50.1371 42.1766V42.591V43.0054H47.222H44.3068V37.5712C44.3068 32.1471 44.3068 32.1385 44.2783 32.0914C44.2197 31.9956 44.5855 32.0028 39.8327 32.0028C35.8258 32.0028 35.5114 32.0042 35.4657 32.0271C35.4314 32.0428 35.4057 32.0699 35.3885 32.1085C35.3628 32.1657 35.3614 32.3757 35.3614 38.8215V45.4774H33.2951H31.2288L31.173 45.5331L31.1173 45.5888V49.2983V53.0077H30.6957H30.2742V48.8567V44.7058H32.3462H34.4183L34.4726 44.6572L34.5254 44.6086L34.5283 38.3728C34.5326 32.14 34.5326 32.1385 34.504 32.0914C34.4454 31.9971 34.6183 32.0028 31.969 32.0028C29.3539 32.0028 29.4711 32.0056 29.031 31.9228C27.6406 31.6598 26.0415 30.9754 24.8812 30.1452C24.4354 29.8251 24.1653 29.5965 23.7866 29.2178C22.8549 28.2848 22.2647 27.2588 21.9575 26.0385C21.8332 25.5413 21.7732 25.0569 21.7617 24.451C21.7374 23.1593 21.9475 21.9276 22.3791 20.843C22.4748 20.5987 22.7149 20.1014 22.8435 19.8785C23.1521 19.3412 23.5165 18.8597 23.9581 18.4082C25.227 17.1093 26.9632 16.3019 28.7666 16.1691C29.0524 16.1491 29.7941 16.1605 30.1027 16.1905C31.143 16.2948 32.0547 16.5477 32.9107 16.9721C33.3794 17.2036 33.8081 17.4779 34.1239 17.748C34.2854 17.8866 34.3268 17.9023 34.424 17.8595C34.484 17.8323 34.4897 17.8223 34.6155 17.5765C35.1842 16.4591 35.9315 15.5532 36.8547 14.8645C38.0979 13.9342 39.6641 13.3941 41.4774 13.2684C41.9719 13.2341 42.7435 13.2512 43.2022 13.3055C43.4209 13.3327 43.4837 13.3327 43.5352 13.3055C43.5938 13.2755 43.6066 13.2441 43.6366 13.064C43.7995 12.0995 44.404 10.7035 45.1042 9.67611C45.6143 8.92593 46.2445 8.24434 46.9033 7.72994C47.0891 7.58419 47.5278 7.29126 47.7421 7.16838C48.681 6.63111 49.777 6.31103 50.9659 6.2253C51.2331 6.20672 52.1034 6.21958 52.3663 6.24673ZM43.9353 37.8041C43.9353 42.6796 43.9382 43.2397 43.9567 43.2783C43.9696 43.3011 43.9996 43.334 44.0253 43.3483C44.0696 43.3769 44.1211 43.3769 47.1048 43.3769H50.1371V44.7558V46.1347H45.943C43.0808 46.1347 41.7032 46.139 41.6089 46.1504C41.0487 46.2118 40.6186 46.4033 40.2771 46.7477C39.9999 47.0263 39.8155 47.3564 39.7126 47.7608C39.6283 48.0937 39.634 47.7022 39.634 53.615C39.634 57.3187 39.6383 59.0834 39.6483 59.1663C39.7169 59.7121 39.9041 60.1151 40.2428 60.438C40.5086 60.6924 40.8258 60.8538 41.2545 60.9482L41.4274 60.9882L44.9827 60.991L48.5366 60.9953V61.7312V62.4671H46.8904C45.35 62.4671 45.24 62.4685 45.1928 62.4928C45.0928 62.5414 45.0928 62.5442 45.0928 63.2201V63.8245H43.0065H40.9201L40.9173 62.9529L40.913 62.0813L40.8658 62.0355L40.8201 61.9884L39.4554 61.9841L38.0907 61.9813V58.0117C38.0907 53.6036 38.0979 53.9436 37.9921 53.7293C37.8321 53.405 37.542 53.1963 37.0576 53.0534L36.9261 53.0149L34.2082 53.0106L31.4888 53.0077V49.4283V45.8489H33.5323C35.7529 45.8489 35.6372 45.8532 35.7015 45.7703L35.7329 45.7303V39.053V32.3743H39.8341H43.9353V37.8041ZM56.6247 35.8465V39.3188L53.4638 39.3202C51.0531 39.3202 50.29 39.3245 50.2514 39.3374C50.2243 39.3474 50.1885 39.3759 50.17 39.4031L50.1371 39.4517V40.6277V41.8051H47.8579H45.5786V37.0897V32.3743H51.1017H56.6247V35.8465ZM51.2946 42.591V43.0054H50.9016H50.5086V42.591V42.1766H50.9016H51.2946V42.591ZM66.156 48.6853V53.9937H65.1143C63.9897 53.9937 63.9382 53.9965 63.7224 54.0723C63.3395 54.2051 63.0265 54.5509 62.8693 55.0153C62.7779 55.2854 62.7836 54.9496 62.7836 59.8465V64.3104H58.7896H54.7956V63.4473C54.7956 62.5943 54.7956 62.5842 54.7656 62.5471C54.6984 62.4614 54.897 62.4671 52.0091 62.4671H49.3654V60.4452C49.3654 58.2218 49.3712 58.3633 49.2797 58.3161C49.2425 58.2975 48.7881 58.2947 45.2643 58.2947H41.2917V53.072V47.8494H50.5015H59.7113V53.072V58.2947H54.6784C49.7255 58.2947 49.6441 58.2947 49.6026 58.3218C49.5198 58.3761 49.5241 58.3247 49.5226 59.5278V60.6381L49.5712 60.6924L49.6198 60.7452L54.3197 60.7495C57.6778 60.7524 59.0697 60.7495 59.1968 60.7381C60.3129 60.6395 61.0045 59.9436 61.1688 58.7591C61.1803 58.6776 61.1846 57.1273 61.1831 53.2878C61.1831 47.4621 61.1874 47.8051 61.1045 47.4964C60.9388 46.8734 60.5172 46.4276 59.9042 46.2276C59.5998 46.1275 59.9399 46.1347 55.5944 46.1347H51.6661V44.7558V43.3769H58.9111H66.156V48.6853ZM29.9027 53.8722V54.3652H27.2162C24.2467 54.3652 24.4739 54.358 24.4154 54.4552C24.3868 54.5009 24.3868 54.5566 24.3868 58.2947C24.3868 62.0327 24.3868 62.0884 24.4154 62.1341C24.4297 62.1599 24.4625 62.1899 24.4854 62.2027C24.524 62.2213 25.1156 62.2242 30.2813 62.2242H36.033V62.6528V63.0815H29.8169H23.6008V58.7891V54.4966L23.6423 54.3309C23.7152 54.0465 23.8152 53.8465 23.9695 53.6793C24.1138 53.5221 24.2839 53.4278 24.4782 53.3949C24.5182 53.3878 25.7557 53.3821 27.2276 53.3807L29.9027 53.3792V53.8722ZM31.1202 54.0079L31.1244 54.6367L31.1716 54.6824L31.2173 54.7295L34.0239 54.7338L36.829 54.7367L36.839 59.0206C36.849 62.9886 36.8518 63.3058 36.8733 63.3444C36.8861 63.3673 36.9133 63.3973 36.9333 63.413C36.9676 63.4373 37.0333 63.4387 38.3308 63.4487L39.6912 63.4573V63.5773V63.6959H31.646H23.6008V63.5745V63.453L29.9527 63.4502L36.3045 63.4459L36.3502 63.3987L36.3974 63.353L36.4017 62.67C36.4045 62.0055 36.4045 61.987 36.376 61.9412C36.3602 61.9155 36.3245 61.8841 36.2974 61.8727C36.2545 61.8555 35.4714 61.8526 30.5028 61.8526H24.7583V58.2947V54.7367L27.4677 54.7338L30.177 54.7295L30.2256 54.6767L30.2742 54.6224V54.0008V53.3792H30.6957H31.1159L31.1202 54.0079Z" fill="#333333"/>
<path d="M51.1159 5.84807C50.7058 5.87665 50.5801 5.88951 50.3543 5.91951C48.8539 6.11956 47.5335 6.7097 46.3503 7.70708C46.1502 7.87712 45.6458 8.37866 45.47 8.583C44.7412 9.43177 44.1625 10.3934 43.7281 11.4765C43.558 11.9009 43.3837 12.4525 43.318 12.7697C43.3008 12.8526 43.2837 12.924 43.2794 12.9297C43.2751 12.934 43.1836 12.9297 43.0779 12.9183C42.2762 12.8369 41.2488 12.8769 40.3843 13.0212C37.7192 13.4684 35.6672 14.8873 34.4183 17.1464C34.2982 17.3636 34.2839 17.3836 34.2611 17.3679C34.2468 17.3579 34.1753 17.3036 34.101 17.2479C33.0736 16.4691 31.6489 15.9576 30.1313 15.8204C29.7826 15.789 29.0824 15.7775 28.7738 15.7975C26.9018 15.9247 25.0598 16.7578 23.7366 18.0781C22.4191 19.3927 21.6417 21.1345 21.4374 23.2293C21.2087 25.5584 21.7217 27.3788 23.0578 28.9892C23.2565 29.2264 23.8009 29.7694 24.0581 29.9837C25.0084 30.7754 26.1373 31.4055 27.4334 31.8656C28.1064 32.1042 28.8481 32.2914 29.3711 32.3529C29.5068 32.37 29.9698 32.3729 31.8504 32.3743H34.161V38.3543V44.3342H32.1147C30.1927 44.3342 30.0641 44.3357 30.0184 44.36C29.9913 44.3728 29.9555 44.4028 29.9398 44.4243L29.9098 44.4643L29.9055 48.7367L29.9027 53.0077H27.2333C24.3854 53.0077 24.4154 53.0077 24.2153 53.0763C23.738 53.2421 23.3865 53.7036 23.2593 54.3323C23.2293 54.4766 23.2293 54.4909 23.2293 58.7791V63.0815L22.4205 63.0844L21.6117 63.0887L21.5631 63.1415L21.5145 63.1958V63.7531V64.3104H11.1187C1.96744 64.3104 0.717078 64.3132 0.679924 64.3318C0.614191 64.3661 0.579895 64.4204 0.579895 64.4918C0.579895 64.5704 0.614191 64.6319 0.674208 64.6605C0.715649 64.679 1.86741 64.6819 11.2358 64.6819C21.6045 64.6819 21.7503 64.6819 21.7917 64.6547C21.8718 64.6019 21.8703 64.6047 21.8718 64.006V63.453H22.5505H23.2293V63.7031V63.9531L23.2779 64.0074L23.3265 64.0603L31.6274 64.0632L39.927 64.0675L39.9741 64.0389C40.0556 63.9889 40.0627 63.9503 40.0627 63.5731C40.0627 63.2044 40.0556 63.1658 39.9799 63.1144C39.9441 63.0901 39.8627 63.0887 38.588 63.0815C37.845 63.0772 37.2319 63.0701 37.2276 63.0658C37.2234 63.0615 37.2148 61.1325 37.2076 58.7791C37.1976 54.8281 37.1948 54.4981 37.1733 54.4566C37.1205 54.358 37.3505 54.3652 34.2696 54.3652H31.4888V53.8722V53.3792L34.1796 53.3821L36.869 53.3864L36.9976 53.4264C37.2491 53.5035 37.4606 53.6264 37.5663 53.7565C37.5963 53.7922 37.6406 53.8651 37.6663 53.9179L37.7121 54.0151L37.7192 58.1232C37.7264 61.9198 37.7278 62.2342 37.7506 62.2642C37.8107 62.3513 37.7135 62.3456 39.1954 62.3499L40.5486 62.3528V63.1973C40.5486 64.1146 40.5486 64.106 40.6286 64.1603C40.6686 64.1889 40.7144 64.1889 42.9893 64.1932C45.5443 64.1975 45.3771 64.2032 45.4357 64.1075C45.4629 64.0617 45.4643 64.0374 45.4643 63.4487V62.8386H47.1191C48.7524 62.8386 48.7724 62.8386 48.8196 62.81C48.9096 62.7543 48.9082 62.78 48.9082 61.7283C48.9082 60.831 48.9067 60.771 48.8824 60.7252C48.8681 60.6981 48.8339 60.6638 48.8067 60.6495C48.761 60.6252 48.6181 60.6238 45.1757 60.6238C42.6921 60.6238 41.5603 60.6195 41.4832 60.6081C41.2217 60.5723 40.9616 60.4838 40.7544 60.3623C40.5843 60.2623 40.3543 60.0351 40.2599 59.8722C40.1456 59.6764 40.0742 59.4692 40.0242 59.1949C40.0027 59.0691 39.9999 58.6605 39.9956 53.7579C39.9913 50.0442 39.9942 48.4038 40.0056 48.278C40.0827 47.3793 40.5515 46.7734 41.3203 46.5776C41.6089 46.5048 41.4274 46.5062 46.0388 46.5062C50.8587 46.5062 50.4229 46.5162 50.48 46.4004C50.5086 46.3404 50.5086 46.3219 50.5086 44.8587V43.3769H50.9016H51.2946V44.8644C51.2946 46.4948 51.2903 46.4133 51.3774 46.4733C51.4146 46.4976 51.5904 46.499 55.5029 46.5062L59.5898 46.5133L59.7041 46.5462C59.9371 46.6134 60.1743 46.7462 60.3358 46.8963C60.6158 47.1578 60.773 47.5264 60.8116 48.0137C60.823 48.1409 60.8259 49.8413 60.823 53.415C60.8187 58.3333 60.8173 58.6376 60.793 58.7662C60.6187 59.6993 60.1886 60.1723 59.3583 60.348C59.2569 60.3694 58.8367 60.3723 54.5712 60.3766L49.8942 60.3809V59.5235V58.6662H54.9099C60.4315 58.6662 59.9957 58.6733 60.0542 58.5776C60.0828 58.5304 60.0828 58.5219 60.0828 53.0706V47.6107L60.05 47.5622C60.0314 47.535 59.9957 47.5064 59.9685 47.4964C59.8956 47.4721 41.1073 47.4721 41.0345 47.4964C41.0073 47.5064 40.9716 47.535 40.953 47.5622L40.9201 47.6107V53.0706C40.9201 57.3759 40.9244 58.5376 40.9387 58.5647C40.9473 58.5833 40.9744 58.6133 40.9959 58.629L41.0359 58.659L45.0228 58.6633L49.0082 58.6662V60.6895C49.0082 62.9115 49.0025 62.77 49.0939 62.8172C49.1311 62.8357 49.4455 62.8386 51.7876 62.8386H54.4383V63.6959C54.4383 64.6376 54.4369 64.6147 54.5241 64.6605C54.5612 64.679 55.0328 64.6819 58.8096 64.679L63.0551 64.6747L63.1008 64.6276L63.148 64.5819L63.1551 59.9479L63.1623 55.3154L63.1952 55.2082C63.2137 55.1496 63.2637 55.0282 63.3066 54.9382C63.3766 54.7953 63.4009 54.761 63.511 54.6495C63.6124 54.5466 63.6567 54.5138 63.7553 54.4666C63.9697 54.3637 63.9397 54.3652 65.2243 54.3652C66.4832 54.3652 66.4375 54.368 66.489 54.2809C66.5118 54.2423 66.5133 53.8951 66.5133 48.6853C66.5133 43.4755 66.5118 43.1283 66.489 43.0897C66.4761 43.0668 66.4447 43.0397 66.4189 43.0268C66.3789 43.0082 65.5615 43.0054 59.0197 43.0054H51.6661V42.591V42.1766H59.4469H67.2277V48.1994C67.2277 53.6107 67.2306 54.228 67.2492 54.2666C67.262 54.2894 67.2921 54.3223 67.3178 54.3366C67.3621 54.3637 67.3978 54.3652 68.551 54.3652C69.8771 54.3652 69.7913 54.3595 70.0071 54.4695C70.0914 54.5124 70.1514 54.5566 70.2358 54.6424C70.3658 54.7738 70.4358 54.8982 70.4901 55.0868L70.5216 55.2011L70.5258 59.3906L70.5287 63.5816H67.8851H65.2415V63.0244V62.4671H67.4492C69.8771 62.4671 69.717 62.4728 69.7642 62.3813C69.7828 62.3442 69.7856 61.9398 69.7856 58.8377V55.3368L69.737 55.2825L69.6885 55.2297H66.9634H64.2383L64.1897 55.2825L64.1411 55.3368V59.9465C64.1411 64.2375 64.1426 64.559 64.1654 64.5962C64.1783 64.619 64.2083 64.6476 64.2326 64.6605C64.2726 64.6805 64.6227 64.6833 68.2109 64.679L72.1463 64.6747L72.1949 64.6219L72.2435 64.5676V64.2318V63.896H72.615H72.9866V64.2103C72.9866 64.5633 72.9951 64.6033 73.0751 64.6533L73.1223 64.6819H86.7848H100.447L100.496 64.649C100.527 64.6276 100.552 64.5947 100.566 64.5561C100.585 64.5033 100.585 64.489 100.566 64.4361C100.555 64.4047 100.526 64.3632 100.505 64.3475L100.465 64.3175L86.9106 64.3132L73.3581 64.3104V63.9831C73.3581 63.6674 73.3567 63.6559 73.3252 63.6088C73.3066 63.5816 73.2709 63.553 73.2438 63.543C73.1709 63.5188 72.022 63.5173 71.9734 63.543C71.9548 63.5516 71.9248 63.5788 71.9091 63.6002C71.8805 63.6388 71.8791 63.6616 71.8748 63.976L71.8705 64.3104H68.1909H64.5127V59.9522V55.594H66.9634H69.4141V58.8448V62.0956L67.2092 62.0984C65.13 62.1027 65.0028 62.1041 64.9657 62.1284C64.8742 62.1884 64.8771 62.1527 64.8728 63.0029C64.8685 63.8588 64.8685 63.8631 64.9542 63.9203L65.0028 63.9531H67.8851H70.7673L70.8159 63.9203C70.8431 63.9017 70.8717 63.866 70.8817 63.8388C70.9031 63.776 70.9074 55.454 70.8859 55.234C70.8502 54.8682 70.7145 54.5752 70.4758 54.3509C70.3001 54.1851 70.1014 54.0751 69.8828 54.0222C69.7699 53.9951 69.7142 53.9937 68.6824 53.9937H67.5993L67.5964 47.948L67.5921 41.9022L67.5393 41.8537L67.485 41.8051H59.5755H51.6661V41.255V40.7048H54.9028C58.4752 40.7048 58.198 40.712 58.2451 40.6134C58.2666 40.5691 58.268 40.2304 58.268 36.4695V32.3743H61.1617H64.0554L64.0583 35.8894L64.0625 39.4045L64.1097 39.4502L64.1554 39.4974L69.3712 39.5017L74.587 39.5045V47.3621V55.2211L73.8482 55.2268C73.2323 55.2311 73.0894 55.2368 73.0008 55.2554C72.5907 55.3454 72.3049 55.5326 72.1034 55.8412C71.9234 56.117 71.8291 56.5157 71.8505 56.9086C71.8548 56.9987 71.8634 58.4033 71.8691 60.0308C71.8762 62.3485 71.8834 62.9958 71.8962 63.0201C71.9062 63.0372 71.932 63.0644 71.952 63.0801C71.9891 63.1101 72.0034 63.1101 72.6107 63.1101C73.2909 63.1101 73.2924 63.1101 73.3367 63.0244C73.3552 62.9872 73.3581 62.6228 73.3581 59.8522V56.7229H75.3658H77.3735V60.2737C77.3735 63.4216 77.3764 63.8303 77.395 63.8674C77.4393 63.9531 77.4393 63.9531 78.1395 63.9531H78.7768L78.8254 63.9046L78.874 63.856V60.258C78.874 57.1401 78.8711 56.6414 78.8525 56.5271C78.7654 55.9884 78.4581 55.5583 77.9923 55.324C77.7779 55.2154 77.8523 55.2225 76.8648 55.2225H75.9731V46.6734C75.9731 39.8646 75.9688 38.1185 75.9546 38.0899C75.9446 38.0713 75.9145 38.0399 75.8888 38.0228L75.8402 37.9899H70.7345H65.6273V35.1821V32.3743H66.4104C67.2706 32.3743 67.2692 32.3743 67.7608 32.2686C69.5556 31.8799 71.3589 31.0668 72.7651 30.0095C73.2238 29.6665 73.5553 29.375 73.9868 28.9364C74.7571 28.1547 75.3287 27.3603 75.8231 26.38C76.5319 24.9768 76.9206 23.4408 77.0177 21.6618C77.0277 21.4732 77.0306 21.1131 77.0263 20.7044C77.0192 20.0428 77.0049 19.7899 76.9448 19.2798C76.5404 15.849 74.7756 13.1655 71.7976 11.4537C71.4547 11.2579 70.8145 10.9393 70.4358 10.7792C69.3641 10.3248 68.2052 9.99476 67.0634 9.81615C66.8205 9.77899 66.7805 9.77614 66.3561 9.77756C64.7099 9.78042 62.7965 10.1248 61.3832 10.6735C60.683 10.945 60.0314 11.2836 59.5127 11.6451C59.4469 11.6909 59.3898 11.7252 59.3855 11.7209C59.3812 11.7152 59.344 11.6209 59.304 11.508C59.1897 11.1936 59.064 10.9078 58.8796 10.5406C57.8122 8.40581 56.176 6.91689 54.1597 6.24673C53.5824 6.05526 53.0151 5.93809 52.3492 5.87379C52.1319 5.85379 51.2874 5.83521 51.1159 5.84807ZM52.3663 6.24673C53.8839 6.40106 55.1357 6.90117 56.2531 7.79853C57.1863 8.5487 57.9751 9.55751 58.5681 10.7564C58.781 11.1865 58.9268 11.5465 59.0997 12.0624C59.1411 12.1881 59.1969 12.2324 59.2983 12.2224C59.354 12.2181 59.3883 12.1996 59.4984 12.1167C61.0174 10.9807 63.318 10.2848 65.9988 10.1534C66.4389 10.1319 66.7305 10.1419 67.0277 10.1905C69.0283 10.5106 70.9588 11.2679 72.4793 12.3267C73.8482 13.2798 74.8943 14.4744 75.5873 15.8776C75.9088 16.5263 76.1275 17.1207 76.3089 17.838C76.7462 19.5584 76.7848 21.6946 76.4147 23.5508C76.0589 25.3269 75.3258 26.8616 74.2098 28.1647C73.9897 28.4234 73.5667 28.8535 73.3009 29.0921C71.7591 30.4724 69.7313 31.4684 67.5035 31.9413L67.2492 31.9942L66.3132 32.0028C65.2929 32.0099 65.3472 32.0056 65.2872 32.0914C65.2643 32.1214 65.2629 32.3586 65.2586 35.155C65.2557 37.5627 65.2586 38.1985 65.2729 38.2414C65.2843 38.2757 65.31 38.3085 65.3401 38.3286L65.3886 38.3614H70.4944H75.6016V46.9034C75.6016 55.1611 75.603 55.4454 75.6273 55.494C75.683 55.5983 75.6373 55.594 76.7248 55.594H77.6993L77.8251 55.6583C78.0666 55.7784 78.2409 55.9556 78.3595 56.2013C78.4424 56.3714 78.481 56.5157 78.5024 56.73C78.511 56.8343 78.5167 58.0246 78.5167 60.2408V63.5959H78.1309H77.7451V60.0594C77.7451 56.2142 77.7508 56.4628 77.6665 56.3971L77.6265 56.3656H75.3658H73.1052L73.0651 56.3971C72.9808 56.4628 72.9866 56.2513 72.9866 59.6307V62.7386H72.615H72.2435L72.2378 59.905C72.2335 58.3475 72.2263 56.9987 72.222 56.9086C72.2006 56.5228 72.3064 56.1513 72.5021 55.9327C72.6493 55.7669 72.8965 55.6455 73.1623 55.6098C73.2309 55.5998 73.5767 55.594 74.0497 55.594H74.8257L74.8742 55.5612C74.9 55.544 74.93 55.5126 74.94 55.494C74.9671 55.4411 74.9671 39.2859 74.94 39.2331C74.93 39.2145 74.9 39.183 74.8742 39.1659L74.8257 39.133H69.627H64.4269V35.6422C64.4269 32.3486 64.4255 32.15 64.4012 32.1028C64.3869 32.0742 64.3555 32.0428 64.3269 32.0285C64.2798 32.0042 64.0983 32.0028 61.1617 32.0028C58.2251 32.0028 58.0437 32.0042 57.9965 32.0285C57.9679 32.0428 57.9365 32.0742 57.9222 32.1028C57.8979 32.15 57.8965 32.3786 57.8965 36.2495V40.3476H54.6541H51.4132L51.3746 40.3776C51.2931 40.4419 51.2946 40.4319 51.2946 41.1478V41.8051H50.9016H50.5086V40.7477V39.6903H53.6881C57.1848 39.6903 56.9276 39.6974 56.9748 39.6046C56.9934 39.5674 56.9962 39.1416 56.9962 35.8508C56.9962 32.9101 56.9919 32.1314 56.9776 32.1028C56.9676 32.0842 56.9376 32.0528 56.9119 32.0356L56.8633 32.0028H51.1017H45.34L45.2914 32.0356C45.2657 32.0528 45.2357 32.0842 45.2257 32.1028C45.2114 32.1314 45.2071 33.1573 45.2071 37.0897C45.2071 41.9666 45.2071 42.0409 45.2357 42.0866C45.25 42.1109 45.2771 42.1409 45.2957 42.1509C45.3228 42.1666 45.7787 42.1695 47.7335 42.1737L50.1371 42.1766V42.591V43.0054H47.222H44.3068V37.5712C44.3068 32.1471 44.3068 32.1385 44.2783 32.0914C44.2197 31.9956 44.5855 32.0028 39.8327 32.0028C35.8258 32.0028 35.5114 32.0042 35.4657 32.0271C35.4314 32.0428 35.4057 32.0699 35.3885 32.1085C35.3628 32.1657 35.3614 32.3757 35.3614 38.8215V45.4774H33.2951H31.2288L31.173 45.5331L31.1173 45.5888V49.2983V53.0077H30.6957H30.2742V48.8567V44.7058H32.3462H34.4183L34.4726 44.6572L34.5254 44.6086L34.5283 38.3729C34.5326 32.14 34.5326 32.1385 34.504 32.0914C34.4454 31.9971 34.6183 32.0028 31.969 32.0028C29.3539 32.0028 29.4711 32.0056 29.031 31.9228C27.6406 31.6598 26.0415 30.9754 24.8812 30.1452C24.4354 29.8251 24.1653 29.5965 23.7866 29.2178C22.8549 28.2848 22.2647 27.2588 21.9575 26.0385C21.8332 25.5413 21.7732 25.0569 21.7617 24.451C21.7374 23.1593 21.9475 21.9276 22.3791 20.843C22.4748 20.5987 22.7149 20.1014 22.8435 19.8785C23.1521 19.3412 23.5165 18.8597 23.9581 18.4082C25.227 17.1093 26.9632 16.302 28.7666 16.1691C29.0524 16.1491 29.7941 16.1605 30.1027 16.1905C31.143 16.2948 32.0547 16.5477 32.9107 16.9721C33.3794 17.2036 33.8081 17.4779 34.1239 17.748C34.2854 17.8866 34.3268 17.9023 34.424 17.8595C34.484 17.8323 34.4897 17.8223 34.6155 17.5765C35.1842 16.4591 35.9316 15.5532 36.8547 14.8645C38.0979 13.9343 39.6641 13.3941 41.4774 13.2684C41.9719 13.2341 42.7435 13.2512 43.2022 13.3055C43.4209 13.3327 43.4837 13.3327 43.5352 13.3055C43.5938 13.2755 43.6066 13.2441 43.6366 13.0641C43.7995 12.0995 44.404 10.7035 45.1042 9.67611C45.6143 8.92594 46.2445 8.24435 46.9033 7.72994C47.0891 7.58419 47.5278 7.29127 47.7421 7.16838C48.681 6.63111 49.777 6.31103 50.9659 6.2253C51.2331 6.20672 52.1034 6.21959 52.3663 6.24673ZM43.9353 37.8041C43.9353 42.6796 43.9382 43.2397 43.9567 43.2783C43.9696 43.3011 43.9996 43.334 44.0253 43.3483C44.0696 43.3769 44.1211 43.3769 47.1048 43.3769H50.1371V44.7558V46.1347H45.943C43.0808 46.1347 41.7032 46.139 41.6089 46.1504C41.0487 46.2118 40.6186 46.4033 40.2771 46.7477C39.9999 47.0263 39.8155 47.3564 39.7126 47.7608C39.6283 48.0937 39.634 47.7022 39.634 53.615C39.634 57.3187 39.6383 59.0834 39.6483 59.1663C39.7169 59.7121 39.9041 60.1151 40.2428 60.438C40.5086 60.6924 40.8258 60.8538 41.2545 60.9482L41.4274 60.9882L44.9827 60.991L48.5366 60.9953V61.7312V62.4671H46.8904C45.35 62.4671 45.24 62.4685 45.1928 62.4928C45.0928 62.5414 45.0928 62.5442 45.0928 63.2201V63.8245H43.0065H40.9201L40.9173 62.9529L40.913 62.0813L40.8658 62.0355L40.8201 61.9884L39.4554 61.9841L38.0907 61.9813V58.0117C38.0907 53.6036 38.0979 53.9436 37.9921 53.7293C37.8321 53.405 37.542 53.1963 37.0576 53.0534L36.9261 53.0149L34.2082 53.0106L31.4888 53.0077V49.4283V45.8489H33.5323C35.7529 45.8489 35.6372 45.8532 35.7015 45.7703L35.7329 45.7303V39.053V32.3743H39.8341H43.9353V37.8041ZM56.6247 35.8465V39.3188L53.4638 39.3202C51.0531 39.3202 50.29 39.3245 50.2514 39.3374C50.2243 39.3474 50.1885 39.3759 50.17 39.4031L50.1371 39.4517V40.6277V41.8051H47.8579H45.5786V37.0897V32.3743H51.1017H56.6247V35.8465ZM51.2946 42.591V43.0054H50.9016H50.5086V42.591V42.1766H50.9016H51.2946V42.591ZM66.156 48.6853V53.9937H65.1143C63.9897 53.9937 63.9382 53.9965 63.7224 54.0723C63.3395 54.2051 63.0265 54.5509 62.8693 55.0153C62.7779 55.2854 62.7836 54.9496 62.7836 59.8465V64.3104H58.7896H54.7956V63.4473C54.7956 62.5943 54.7956 62.5842 54.7656 62.5471C54.6984 62.4614 54.897 62.4671 52.0091 62.4671H49.3654V60.4452C49.3654 58.2218 49.3712 58.3633 49.2797 58.3161C49.2425 58.2975 48.7881 58.2947 45.2643 58.2947H41.2917V53.072V47.8494H50.5015H59.7113V53.072V58.2947H54.6784C49.7255 58.2947 49.6441 58.2947 49.6026 58.3218C49.5198 58.3761 49.5241 58.3247 49.5226 59.5278V60.6381L49.5712 60.6924L49.6198 60.7452L54.3197 60.7495C57.6778 60.7524 59.0697 60.7495 59.1968 60.7381C60.3129 60.6395 61.0045 59.9436 61.1688 58.7591C61.1803 58.6776 61.1846 57.1273 61.1831 53.2878C61.1831 47.4621 61.1874 47.8051 61.1045 47.4964C60.9388 46.8734 60.5172 46.4276 59.9042 46.2276C59.5998 46.1275 59.9399 46.1347 55.5944 46.1347H51.6661V44.7558V43.3769H58.9111H66.156V48.6853ZM29.9027 53.8722V54.3652H27.2162C24.2467 54.3652 24.4739 54.358 24.4154 54.4552C24.3868 54.5009 24.3868 54.5566 24.3868 58.2947C24.3868 62.0327 24.3868 62.0884 24.4154 62.1341C24.4297 62.1599 24.4625 62.1899 24.4854 62.2027C24.524 62.2213 25.1156 62.2242 30.2813 62.2242H36.033V62.6528V63.0815H29.8169H23.6008V58.7891V54.4966L23.6423 54.3309C23.7152 54.0465 23.8152 53.8465 23.9695 53.6793C24.1138 53.5221 24.2839 53.4278 24.4782 53.3949C24.5182 53.3878 25.7557 53.3821 27.2276 53.3807L29.9027 53.3792V53.8722ZM31.1202 54.0079L31.1244 54.6367L31.1716 54.6824L31.2173 54.7295L34.0239 54.7338L36.829 54.7367L36.839 59.0206C36.849 62.9886 36.8518 63.3058 36.8733 63.3444C36.8861 63.3673 36.9133 63.3973 36.9333 63.413C36.9676 63.4373 37.0333 63.4387 38.3308 63.4487L39.6912 63.4573V63.5773V63.6959H31.646H23.6008V63.5745V63.453L29.9527 63.4502L36.3045 63.4459L36.3502 63.3987L36.3974 63.353L36.4017 62.67C36.4045 62.0055 36.4045 61.987 36.376 61.9412C36.3602 61.9155 36.3245 61.8841 36.2974 61.8727C36.2545 61.8555 35.4714 61.8526 30.5028 61.8526H24.7583V58.2947V54.7367L27.4677 54.7338L30.177 54.7295L30.2256 54.6767L30.2742 54.6224V54.0008V53.3792H30.6957H31.1159L31.1202 54.0079Z" fill="black" stroke="black" stroke-width="2"/>
</g>
<defs>
<clipPath id="clip0_16_288">
<rect width="100" height="66.6102" fill="white" transform="translate(0.5 2.39844)"/>
</clipPath>
</defs>
</svg>
