<svg width="512" height="512" viewBox="0 0 512 512" fill="none" xmlns="http://www.w3.org/2000/svg">
<rect x="12" y="6" width="500" height="500" rx="40" fill="white"/>
<path d="M269.992 380.921C269.992 369.935 278.897 361.03 289.883 361.03C300.868 361.03 309.774 369.935 309.774 380.921C309.774 391.906 300.868 400.811 289.883 400.811C278.897 400.811 269.992 391.906 269.992 380.921Z" fill="#333333"/>
<path opacity="0.946829" d="M119 142.667L224.298 142.637L222.717 266.921C223.972 306.996 171.043 374.366 123.2 374.366" stroke="#333333" stroke-width="51.3349" stroke-miterlimit="10" stroke-linecap="square"/>
<mask id="mask0_105_21" style="mask-type:luminance" maskUnits="userSpaceOnUse" x="268" y="117" width="166" height="288">
<path d="M268.965 117.156H433.975V404.309H268.965V117.156Z" fill="white"/>
</mask>
<g mask="url(#mask0_105_21)">
<path opacity="0.946829" d="M262.077 142.146L332.981 165.166L399.336 136.479L398.553 374.52" stroke="#333333" stroke-width="51.3349" stroke-miterlimit="10" stroke-linecap="square"/>
</g>
</svg>
