<?xml version="1.0" encoding="UTF-8" standalone="no"?>
<!DOCTYPE svg PUBLIC "-//W3C//DTD SVG 1.1//EN" "http://www.w3.org/Graphics/SVG/1.1/DTD/svg11.dtd">
<!-- Created with Vectornator (http://vectornator.io/) -->
<svg height="100%" stroke-miterlimit="10" style="fill-rule:nonzero;clip-rule:evenodd;stroke-linecap:round;stroke-linejoin:round;" version="1.1" viewBox="0 0 512 512" width="100%" xml:space="preserve" xmlns="http://www.w3.org/2000/svg" xmlns:vectornator="http://vectornator.io" xmlns:xlink="http://www.w3.org/1999/xlink">
<defs>
<path d="M260.518 117.156L425.528 117.156L425.528 404.309L260.518 404.309L260.518 117.156Z" id="Fill"/>
</defs>
<g id="Layer-1" vectornator:layerName="Layer 1">
<path d="M5.69862 255.763C5.69862 117.692 117.627 5.76245 255.699 5.76245C393.77 5.76245 505.699 117.692 505.699 255.763C505.699 393.835 393.77 505.764 255.699 505.764C117.627 505.764 5.69862 393.835 5.69862 255.763Z" fill="#333" fill-rule="nonzero" opacity="1" stroke="#fff" stroke-linecap="square" stroke-linejoin="miter" stroke-opacity="0" stroke-width="0.578061"/>
</g>
<g id="Layer-3" vectornator:layerName="Layer 3">
<path d="M261.545 380.921C261.545 369.935 270.45 361.03 281.436 361.03C292.421 361.03 301.327 369.935 301.327 380.921C301.327 391.906 292.421 400.811 281.436 400.811C270.45 400.811 261.545 391.906 261.545 380.921Z" fill="#fff" fill-rule="nonzero" opacity="1" stroke="#fff" stroke-linecap="square" stroke-linejoin="miter" stroke-width="0"/>
</g>
<g id="Layer-2" vectornator:layerName="Layer 2">
<path d="M110.553 142.667L215.851 142.637L214.27 266.921C215.525 306.996 162.596 374.366 114.753 374.366" fill="none" opacity="0.946829" stroke="#fff" stroke-linecap="square" stroke-linejoin="miter" stroke-width="51.3349"/>
<g opacity="1">
<use fill="#333" fill-opacity="0" fill-rule="nonzero" opacity="0.946829" stroke="#fff" stroke-linecap="square" stroke-linejoin="miter" stroke-opacity="0" stroke-width="0.1" xlink:href="#Fill"/>
<clipPath id="ClipPath">
<use xlink:href="#Fill"/>
</clipPath>
<g clip-path="url(#ClipPath)">
<path d="M253.63 142.146L324.534 165.166L390.889 136.479L390.106 374.52" fill="none" opacity="0.946829" stroke="#fff" stroke-linecap="square" stroke-linejoin="miter" stroke-width="51.3349"/>
</g>
</g>
</g>
</svg>
