<svg width="440" height="379" viewBox="0 0 440 379" fill="none" xmlns="http://www.w3.org/2000/svg">
<g clip-path="url(#clip0_16_44)">
<g clip-path="url(#clip1_16_44)">
<path d="M32.1649 137.757C52.522 122.037 79.5278 123.612 99.8623 139.364C123.403 157.6 153.336 163.722 182.103 159.187C201.891 164.129 212.505 166.986 213.946 167.757C209.979 183.163 206.552 193.432 203.666 198.561C186.495 192.191 177.302 188.173 176.085 186.507C168.215 181.909 171.912 164.927 179.655 159.544C181.808 158.229 183.168 159.226 183.734 162.534C183.531 171.862 180.689 178.469 175.209 182.355C192.631 191.074 203.163 195.539 206.803 195.749C212.444 192.376 242.307 52.0909 192.511 96.9084C158.089 127.889 145.095 180.295 149.386 228.161C156.068 302.711 230.715 207.874 225.859 121.015C249.478 155.992 274.302 175.636 300.328 179.944C310.15 199.686 305.042 224.13 288.293 237.535C260.497 223.951 228.996 221.758 199.785 231.374C198.328 234.18 196.56 236.788 194.519 239.142C223.932 226.44 257.114 228.404 285.034 244.499C288.687 246.346 293.032 244.829 298.072 239.946C319.378 245.465 330.412 249.126 331.17 250.928C329.576 259.731 327.32 266.605 324.4 271.553C310.191 254.768 303.088 246.374 303.088 246.374C299.64 249.171 294.459 250.242 287.543 249.589C308.887 258.786 318.081 266.375 315.123 272.357C302.168 300.675 293.477 316.925 289.046 321.108C283.97 306.955 277.327 299.678 269.116 299.279C265.6 301.77 263.846 303.556 263.849 304.636C268.447 319.286 272.834 326.251 277.011 325.529C280.187 325.529 282.403 325.529 283.657 325.529C268.479 310.657 264.593 300.969 271.998 296.466C284.839 275.065 290.816 261.002 289.926 254.277C285.266 247.136 287.314 241.645 296.067 237.804C308.261 221.786 311.513 200.028 304.594 180.749C337.943 192.051 356.959 199.016 361.635 201.643C367.604 212.794 368.268 226.307 363.421 238.062C358.575 249.818 348.796 258.419 337.066 261.242C333.807 259.725 332.177 258.966 332.177 258.966C348.405 245.32 356.263 223.225 352.612 201.51C332.169 192.904 315.703 186.966 309.737 186.375C311.54 197.366 312.792 208.433 309.527 216.461C336.713 223.951 354.587 229.784 364.738 234.398C377.955 239.096 392.043 239.949 405.767 237.403C414.14 235.849 422.691 238.9 428.835 245.171" stroke="#333333" stroke-miterlimit="2.6131" stroke-linecap="round" stroke-linejoin="round"/>
</g>
</g>
<defs>
<clipPath id="clip0_16_44">
<rect width="440" height="378" fill="white" transform="translate(0 0.831055)"/>
</clipPath>
<clipPath id="clip1_16_44">
<rect width="483" height="344" fill="white" transform="translate(-11 34.8311)"/>
</clipPath>
</defs>
</svg>
