<svg width="100" height="67" viewBox="0 0 100 67" fill="none" xmlns="http://www.w3.org/2000/svg">
<path fill-rule="evenodd" clip-rule="evenodd" d="M0.712036 66.3516H98.2879V-7.62939e-06H0.712036V66.3516Z" fill="white"/>
<path d="M1 52.4739C2.24146 52.3458 7.50848 51.7943 6.22687 51.7943C4.7828 51.7943 4.88141 6.34577 5.13257 5.46159C5.38367 4.57741 5.69763 4.17539 5.69763 4.17539C5.69763 4.17539 37.2442 11.8433 37.5581 12.7277C37.8721 13.6118 39.0022 42.1482 38.5627 43.1129C38.1231 44.0774 7.04316 51.7943 7.04316 50.8296C7.04316 49.8649 6.85479 48.4984 7.23153 48.3376C7.60821 48.1769 37.2442 41.8267 37.2442 41.8267C37.2442 41.8267 7.48263 48.1769 7.29432 47.2927C7.10595 46.4085 5.88601 7.23003 6.70223 6.90848C7.51844 6.58693 36.2396 13.6922 36.2396 14.1746C36.2396 14.6569 36.8047 16.0234 36.2396 16.0234C35.6745 16.0234 8.9268 10.4768 8.61279 10.6376C8.2989 10.7985 8.42448 19.5603 8.42448 19.5603L22.6774 20.525C22.6774 20.525 19.8518 21.6502 19.8518 26.6341C19.8518 31.6178 23.2426 31.5375 25.0006 31.216C26.1581 31.0045 32.1632 25.9817 36.4874 22.4154C38.7294 20.5666 40.5197 19.1094 40.9486 18.9172C40.9486 18.9172 41.9125 18.3474 42.7148 18.861C43.5165 19.3745 45.4601 20.9934 45.5833 20.5196C45.7069 20.0459 45.4601 18.9792 45.3367 19.8088C45.2135 20.6381 44.6891 25.7323 44.6891 25.7323C44.6891 25.7323 51.2903 25.6928 51.4135 25.5746C51.5369 25.4564 51.5062 16.7678 51.0742 17.1625C50.6425 17.5578 52.6166 25.1401 52.37 25.1797C52.1231 25.2193 43.2083 25.061 42.9922 25.535C42.7762 26.009 41.5137 45.6317 42.1416 46.4356C42.7695 47.2393 53.0667 47.5072 53.0667 47.5072C53.0667 47.5072 52.2293 26.8752 52.4388 26.661C52.648 26.4465 53.2759 25.8573 53.3178 26.018C53.3596 26.1788 55.7038 44.5597 55.5363 44.9349C55.3688 45.3101 54.0712 46.9711 53.6946 46.9711C53.3178 46.9711 52.1457 36.9501 52.062 37.3787C51.9782 37.8074 51.0991 46.4356 45.7413 43.5418C40.3835 40.648 43.2719 31.9127 46.4947 31.5912C49.7179 31.2696 52.3132 34.0026 51.6014 35.7175C50.8899 37.4324 51.2666 27.2504 51.6852 26.6073C52.1038 25.9644 45.7834 25.3749 45.6159 24.3566C45.4484 23.3382 45.6159 21.1412 45.6159 21.1412C45.6159 21.1412 44.4856 19.4266 44.988 18.7298C45.4903 18.033 48.2527 20.6052 47.625 21.302C46.9971 21.9988 45.9505 20.8197 45.9505 20.8197C45.9505 20.8197 47.9597 21.6773 48.0853 20.9805C48.2108 20.2837 45.6159 18.6227 46.0344 17.8188C46.4528 17.0149 49.4249 18.8367 49.4667 19.855C49.5086 20.8733 48.1272 21.302 48.6714 20.6052C49.2155 19.9089 49.383 19.6406 50.22 19.4798C51.0575 19.319 49.8853 16.3181 48.5876 16.4789C47.2902 16.6397 48.3783 18.9975 50.0944 19.2658C51.8109 19.5337 51.0575 17.2291 50.2619 16.6397C49.4667 16.0504 48.7551 15.4607 48.5876 15.9429C48.4203 16.4252 51.8945 17.7114 51.8526 17.3899C51.8109 17.0683 49.8434 15.2466 48.7132 15.4607C47.5831 15.6752 46.2017 16.586 46.16 16.2112C46.118 15.836 47.4994 14.8713 48.5876 14.8713C49.6761 14.8713 50.6387 16.1573 51.6852 15.8897C52.7317 15.6215 53.0248 14.8177 52.8572 14.4961C52.6899 14.1746 50.3875 13.3173 49.8017 12.9958C49.2155 12.6743 48.4203 11.9774 47.0807 11.9774C45.7413 11.9774 43.7693 11.9778 41.1164 13.7219C38.5678 15.3974 24.6027 20.4982 22.7191 21.5699C20.8355 22.6419 19.5797 27.7328 20.7936 29.2334C22.0075 30.7336 26.2772 31.4304 27.2398 30.8944C28.2027 30.3589 31.5514 27.9472 31.5514 27.9472C31.5514 27.9472 31.8025 35.5567 31.5514 36.3072C31.3002 37.0572 17.152 39.5226 17.152 39.5226C17.152 39.5226 16.6497 24.1958 16.8172 23.8743C16.9846 23.5527 20.5007 22.6953 19.5797 23.0169C18.6588 23.3382 9.19897 23.5527 9.19897 23.5527L9.61737 42.2019L36.4907 37.1643C36.4907 37.1643 35.9883 22.0522 36.3232 23.3382C36.658 24.6245 37.3279 42.845 37.3279 42.845C37.3279 42.845 40.5927 42.6305 39.8394 43.7026C39.0859 44.7741 7.44085 51.8479 7.44085 51.8479C7.44085 51.8479 6.77105 52.5981 6.77105 53.0271C6.77105 53.4555 35.4862 62.3516 35.4862 62.3516C35.4862 62.3516 35.8209 59.1362 35.6534 60.1009C35.4862 61.0653 34.9839 62.2442 36.072 62.03C37.1603 61.8155 62.7775 48.7397 62.8616 48.0966C62.9452 47.4535 63.3636 47.8824 62.9452 47.4535C62.5268 47.0248 55.6618 46.3819 55.6618 46.3819C54.2438 46.5492 57.7953 47.2783 60.8526 47.5608C60.541 47.9381 55.703 49.8469 55.6618 50.0257C55.4107 50.0257 45.7834 48.6326 45.5322 48.7397C45.281 48.847 36.658 52.1695 36.8256 52.4911C36.993 52.8126 45.3647 55.0633 45.6159 55.0633C45.8668 55.0633 56.2477 50.6688 54.4897 50.8833C52.7317 51.0977 36.4907 59.0289 36.1557 59.1362C35.8209 59.2431 9.28259 52.4911 9.53375 52.384C9.78491 52.2766 39.337 44.667 39.337 44.667C39.337 44.667 49.6342 45.9532 49.0482 46.3819C48.462 46.8104 26.1935 55.0633 25.6073 54.9562C25.0213 54.8488 14.6405 52.0624 14.3893 52.0624C14.1381 52.0624 8.36175 52.7055 8.36175 52.7055C8.36175 52.7055 33.8117 60.744 34.3975 60.5293C34.9839 60.3148 61.8571 47.5608 61.8571 47.5608L98.0014 47.668" stroke="#333333" stroke-width="2" stroke-miterlimit="10" stroke-linecap="round" stroke-linejoin="round"/>
</svg>
