<svg width="440" height="379" viewBox="0 0 440 379" fill="none" xmlns="http://www.w3.org/2000/svg">
<g clip-path="url(#clip0_16_3)">
<path d="M238.28 164.944C239.134 164.71 240.195 164.418 241.397 164.107C244.144 163.696 251.649 162.872 253.895 163.894C254.021 163.952 254.155 164.017 254.157 164.018C255.056 164.456 255.653 164.893 255.88 165.059L255.953 165.111C256.741 165.667 257.828 165.464 259.087 165.23C260.192 165.025 261.445 164.792 262.788 164.98C264.809 165.264 266.148 166.382 266.867 166.981C267.944 167.881 267.703 169.204 267.198 169.849C266.823 170.203 263.215 171.247 255.955 170.585C248.188 169.876 242.763 167.887 239.172 166.571C237.871 166.094 236.825 165.71 236.038 165.538C236.578 165.412 237.301 165.214 238.28 164.944ZM237.247 163.939C238.062 163.365 238.525 163.054 238.862 162.827C239.3 162.532 239.499 162.397 239.907 162.062L239.987 161.997C240.243 161.786 240.672 161.434 241.29 161.007C241.295 161.005 241.695 160.728 242.114 160.471C246.92 157.517 252.194 157.389 252.246 157.387H252.272C253.772 157.301 254.956 157.232 256.303 157.731C257.011 157.992 257.422 158.285 257.82 158.566C258.302 158.91 258.8 159.265 259.695 159.425C260.893 159.643 261.692 159.331 262.396 159.056C262.951 158.838 263.391 158.665 263.992 158.748C266.06 159.027 267.294 161.99 268.032 163.761C268.464 164.798 268.617 165.995 268.497 167.561C268.327 167.123 268.036 166.702 267.598 166.337C266.852 165.714 265.304 164.422 262.955 164.092C262.549 164.035 262.151 164.011 261.765 164.011C260.688 164.011 259.701 164.195 258.865 164.351C257.872 164.535 257.013 164.695 256.617 164.416L256.558 164.373C256.313 164.193 255.66 163.716 254.675 163.235C254.675 163.235 254.524 163.162 254.388 163.1C251.354 161.72 241.6 163.162 241.186 163.225L241.125 163.237C239.901 163.554 238.826 163.849 237.961 164.087C237.433 164.233 236.915 164.373 236.465 164.492C236.71 164.317 236.976 164.13 237.247 163.939ZM235.338 165.673C235.294 165.721 235.262 165.781 235.246 165.844C235.183 166.087 235.361 166.326 235.644 166.38C236.354 166.517 237.416 166.906 238.761 167.399C242.187 168.655 247.922 170.756 255.846 171.479C262.741 172.108 267.368 171.235 268.055 170.363C268.063 170.354 268.07 170.344 268.078 170.335C267.485 172.835 265.637 176.509 262.727 176.944C261.342 177.153 260.424 176.478 259.156 175.544C257.822 174.559 256.16 173.335 253.334 172.707C246.792 171.253 241.207 174.604 240.972 174.748C238.858 176.041 234.632 179.509 235.843 181.385C236.649 182.634 238.868 182.159 242.227 181.439C246.719 180.476 253.51 179.02 260.21 181.297C261.048 181.581 263.276 182.339 265.419 183.718C265.513 183.779 265.625 183.808 265.733 183.808C265.893 183.808 266.05 183.745 266.153 183.628C266.326 183.428 266.278 183.147 266.048 182.998C263.791 181.547 261.47 180.757 260.596 180.46C253.583 178.078 246.596 179.576 241.973 180.566C239.398 181.119 237.175 181.596 236.758 180.949C236.13 179.977 238.885 177.13 241.58 175.481C241.797 175.348 246.998 172.228 253.072 173.578C255.664 174.154 257.158 175.256 258.476 176.226C259.848 177.238 261.036 178.113 262.905 177.832C266.559 177.285 268.675 172.867 269.207 170.03C269.763 167.075 269.706 165.109 269.019 163.457C268.149 161.372 266.838 158.221 264.156 157.859C263.244 157.735 262.561 158.001 261.962 158.235C261.323 158.485 260.772 158.701 259.911 158.545C259.27 158.429 258.941 158.195 258.488 157.873C258.075 157.582 257.564 157.216 256.716 156.903C255.14 156.322 253.784 156.399 252.213 156.489C251.842 156.496 246.512 156.662 241.506 159.738C241.062 160.012 240.651 160.294 240.635 160.305C239.981 160.757 239.53 161.126 239.262 161.347L239.185 161.41C238.814 161.714 238.638 161.833 238.215 162.118C237.892 162.335 237.406 162.663 236.582 163.244C235.822 163.781 235.334 164.125 234.996 164.382C234.577 164.701 234.183 164.999 234.395 165.379C234.548 165.651 234.778 165.746 235.338 165.673Z" fill="#333333"/>
<path d="M355.111 273.266C351.262 278.979 340.329 284.019 325.862 286.75C310.825 289.589 295.181 289.376 282.943 286.167C277.19 284.657 270.859 283.794 264.663 283.634C270.178 276.848 274.331 269.412 276.397 262.607C276.659 261.742 276.892 260.871 277.12 260.029C277.928 257.01 278.764 253.891 281.189 249.762C283.563 245.721 286.146 242.923 288.222 240.675C289.69 239.086 290.87 237.808 291.438 236.631C307.558 240.828 336.8 248.534 351.419 260.306C356.764 264.608 358.005 268.97 355.111 273.266ZM280.646 232.655C275.782 230.759 271.814 228.799 268.261 225.392C267.244 224.416 266.327 223.437 265.505 222.452C265.662 222.422 265.818 222.398 265.973 222.385C267.996 222.209 269.702 223.649 271.682 225.316C272.823 226.279 274.005 227.274 275.422 228.14C278.557 230.055 281.918 230.889 284.623 231.558C287.559 232.285 289.88 232.861 290.585 234.436C290.742 234.784 290.784 235.137 290.726 235.504C286.038 234.283 282.348 233.317 280.646 232.655ZM247.582 297.077C245.405 298.054 243.56 298.349 242.248 297.932C239.852 297.17 238.241 293.829 239.116 291.434C240.262 288.289 246.09 285.852 254.711 284.916C257.244 284.64 259.876 284.505 262.549 284.505C262.578 284.505 262.611 284.505 262.642 284.505C257.612 290.413 252.09 295.059 247.582 297.077ZM149.683 132.424C149.434 132.301 149.209 132.256 149.014 132.256C148.799 132.256 148.62 132.311 148.485 132.375C147.211 132.973 146.974 135.859 146.736 140.541C146.616 142.872 146.438 146.365 145.879 146.879C145.824 146.848 145.718 146.774 145.56 146.602C136.195 136.403 137.606 125.906 140.955 123.373C143.435 121.498 147.748 121.123 150.775 122.522C152.744 123.431 153.605 124.886 156.924 136.109C159.307 144.169 159.98 147.1 159.845 150.995C159.812 151.944 159.777 152.963 159.684 153.953C158.151 151.969 156.253 150.213 153.805 148.814C150.151 146.725 150.547 142.135 150.865 138.448C151.117 135.536 151.315 133.235 149.683 132.424ZM157.939 135.888C154.677 124.855 153.742 122.871 151.271 121.729C147.884 120.165 143.049 120.591 140.263 122.698C138.158 124.289 137.054 128.01 137.45 132.176C137.932 137.246 140.52 142.567 144.737 147.161C145.222 147.687 145.707 147.888 146.181 147.759C147.32 147.443 147.534 145.434 147.782 140.58C147.916 137.956 148.14 133.562 148.988 133.163C149.026 133.146 149.102 133.176 149.159 133.204C150.222 133.733 150.027 135.99 149.821 138.38C149.483 142.304 149.061 147.183 153.225 149.564C155.911 151.098 157.913 153.109 159.495 155.394C159.179 157.191 158.548 158.703 157.209 159.242C155.266 160.026 152.405 158.684 148.12 156.097C142.478 152.694 138.763 146.56 137.05 143.209C134.648 138.505 133.25 133.507 133.651 131.057C133.718 130.654 133.78 130.256 133.841 129.864C134.462 125.912 134.952 122.789 138.04 120.172C141.577 117.173 148.166 115.22 152.644 117.292C155.239 118.491 156.407 121.356 158.802 127.722C160.915 133.337 161.384 138.012 161.695 141.107C161.733 141.485 161.769 141.845 161.805 142.18C162.022 144.182 162.164 146.682 162.314 149.329C162.507 152.747 162.717 156.47 163.13 159.888C162.404 158.259 161.58 156.684 160.59 155.211C160.794 153.868 160.844 152.41 160.892 151.022C161.031 147.017 160.351 144.042 157.939 135.888ZM169.494 139.217C168.236 141.158 167.013 142.351 166.253 142.228C165.627 142.124 164.781 140.828 164.449 138.836C164.16 137.092 164.482 136.079 164.791 135.945C164.825 135.929 164.879 135.92 164.952 135.92C165.096 135.92 165.312 135.956 165.597 136.06C166.669 136.452 168.254 137.626 169.494 139.217ZM256.543 228.822C251.898 234.752 249.637 240.258 248.702 243.012C247.723 245.908 247.574 247.438 247.366 249.555C247.197 251.285 246.987 253.439 246.262 257.126C244.252 267.362 243.189 272.051 239.105 275.925C234.458 280.333 226.701 283.339 224.281 281.667C222.575 280.488 224.085 277.208 225.994 273.056C228.842 266.867 232.741 258.389 228.807 250.406C226.056 244.828 219.156 239.068 211.785 239.377C207.813 239.547 203.808 241.516 200.51 244.925C197.468 248.068 195.38 252.068 194.78 255.9C194.015 260.794 195.947 264.232 197.993 267.87C200.125 271.664 202.542 275.963 202.546 282.846C202.548 285.711 202.124 288.888 201.413 291.345C200.543 294.351 199.581 295.194 199.15 295.219C199.141 295.219 199.132 295.219 199.122 295.219C197.819 295.219 196.01 290.127 194.26 285.202C193.976 284.401 193.68 283.569 193.372 282.711C191.267 276.863 188.385 268.853 185.572 262.284C181.04 251.706 179.078 250.417 177.755 250.548C175.991 250.727 175.993 253.513 175.996 258.573C176.002 267.634 176.013 282.797 164.835 291.614C160.451 295.071 154.585 296.616 141.733 299.784C126.016 303.659 114.017 312.258 106.069 325.342C105.865 325.679 105.559 326.044 105.37 325.961C104.708 325.673 103.653 323.256 103.493 318.983C103.327 314.566 104.207 310.334 105.906 307.371C110.433 299.478 119.019 294.605 129.888 288.437C136.071 284.928 143.078 280.95 150.386 275.786C162.63 267.134 165.896 255.115 167.033 239.73C167.589 232.201 167.322 228.529 165.839 208.151C165.567 204.407 165.254 200.1 164.897 195.099L164.623 191.249C163.039 168.964 162.677 164.766 160.668 164.658C160.647 164.658 160.626 164.656 160.605 164.656C160.297 164.656 159.99 164.776 159.69 165.01C158.255 166.133 156.532 170.621 156.374 174.948C156.268 177.842 156.91 179.645 157.425 181.093C157.946 182.557 158.358 183.712 157.815 185.46C156.903 188.401 154.202 190.174 152.032 191.6C151.93 191.667 151.83 191.733 151.73 191.8C152.538 190.943 153.224 190.027 153.764 189.069C156.237 184.682 156.344 178.164 152.56 175.452C151.775 174.888 151.028 174.628 150.255 174.486C151.365 173.589 152.266 172.746 153.043 171.86C155.468 169.097 159.337 163.509 157.748 162.475C157.139 162.079 156.49 162.524 155.592 163.141C154.582 163.834 153.056 164.882 150.894 165.353C148.003 165.986 144.29 165.541 141.865 164.272C141.473 164.067 141.125 163.846 140.824 163.611C141.911 162.045 142.779 160.204 143.087 158.114C143.275 156.843 143.423 155.837 142.664 155.589C142.28 155.464 141.81 155.618 141.227 156.055C140.049 156.94 137.831 159.562 138.497 162.026C138.659 162.626 138.995 163.194 139.49 163.711C138.491 165.016 137.353 166.101 136.338 166.938C136.331 166.908 136.325 166.879 136.319 166.849C136.161 166.086 136.241 165.465 136.3 165.012C136.365 164.507 136.432 163.986 135.872 163.783C135.587 163.681 135.243 163.728 134.85 163.925C133.495 164.607 131.05 167.271 129.918 170.706C129.45 170.835 129.057 170.85 128.765 170.706C126.641 169.661 128.563 161.681 129.195 159.059C129.258 158.797 129.319 158.555 129.377 158.333C130.926 159.115 131.609 159.579 131.978 160.382C132.549 161.63 132.069 162.922 131.811 163.615C131.649 164.05 131.465 164.545 132.004 164.73C132.209 164.8 132.436 164.766 132.677 164.63C133.546 164.137 136.994 160.566 137.128 155.908C137.206 153.167 136.031 151.683 134.084 149.225C132.706 147.485 130.991 145.32 128.927 141.821C128.668 141.383 128.429 140.967 128.208 140.571C129.826 138.331 130.625 135.27 131.596 131.548C132.68 127.399 133.462 124.401 132.12 120.703C132.096 120.636 132.07 120.566 132.042 120.489C132.636 119.055 133.536 117.737 134.964 116.798C136.38 115.866 137.842 115.618 139.016 115.419C140.231 115.215 141.28 115.037 141.56 114.13C141.963 112.831 140.251 111.971 137.882 110.778C135.877 109.77 133.349 108.498 131.301 106.578C132.677 104.165 133.663 100.719 134.096 98.1604C134.58 95.2972 134.511 92.9415 134.462 91.222C134.396 88.944 134.402 87.8305 135.258 87.4196C136.843 86.6583 140.197 88.6486 141.938 90.0802C146.169 93.5645 146.29 100.187 146.387 105.508C146.393 105.822 146.399 106.135 146.405 106.441C146.415 106.919 146.417 107.352 146.419 107.75C146.43 109.89 146.436 111.069 147.633 112.064C149.306 113.454 151.773 113.175 154.159 112.904C156.223 112.672 158.173 112.45 159.179 113.406C159.998 114.185 159.779 115.355 159.548 116.595C159.29 117.974 158.999 119.536 160.253 120.689C161.728 122.045 164.218 121.861 166.218 121.714C166.983 121.659 168.408 121.553 168.524 121.778C168.689 122.096 167.059 123.259 166.183 123.884C164.075 125.386 161.686 127.09 162.079 128.953C162.342 130.205 163.698 130.68 165.267 131.233C166.902 131.807 168.937 132.523 170.742 134.322C171.058 134.636 171.342 134.958 171.595 135.286C171.105 136.388 170.577 137.414 170.044 138.323C168.789 136.833 167.251 135.687 166.008 135.233C165.32 134.981 164.75 134.95 164.313 135.144C162.985 135.727 163.288 138.215 163.412 138.963C163.705 140.724 164.574 142.868 166.056 143.112C167.469 143.343 168.947 141.796 170.115 140.097C170.47 140.662 170.773 141.264 170.993 141.889C172.186 145.288 170.644 148.757 169.722 150.829C169.075 152.285 168.685 153.162 169.465 153.525C170.697 154.099 172.968 151.62 173.91 150.166C175.986 146.96 175.416 143.699 175.039 141.54C174.723 139.736 174.313 137.386 172.756 135.178C173.482 133.479 174.09 131.699 174.499 130.027C175.41 126.308 176.443 122.092 174.29 117.779C172.544 114.281 169.502 112.355 167.282 110.948C165.271 109.676 164.143 108.905 164.356 107.877C164.524 107.062 165.485 106.167 166.863 105.538C168.478 104.803 171.001 104.32 173.24 105.176C177.279 106.722 180.479 111.787 178.571 116.018C177.04 118.298 176.773 121.939 177.818 126.276C178.833 130.483 180.966 134.95 183.824 138.853C185.026 140.495 187.654 143.692 191.752 146.653C197.232 150.617 203.458 152.883 210.255 153.389C211.01 153.446 228.796 154.667 235.435 146.257C235.94 145.619 236.383 144.919 236.854 144.176C238.142 142.146 239.601 139.846 242.912 137.844C244.455 136.914 246.401 136.407 247.909 136.151C246.588 136.823 244.97 137.874 243.822 139.486C243.357 140.139 241.131 143.548 243.006 146.53C244.307 148.6 247.062 149.598 248.248 149.672C248.398 149.681 248.85 149.71 249.095 149.427C249.139 149.378 249.178 149.316 249.244 149.213C250.525 147.242 252.46 146.057 254.995 145.689C256.397 145.485 256.735 145.722 256.805 145.797C257.078 146.095 256.602 147.04 256.32 147.606C256.106 148.03 255.921 148.397 255.864 148.706C255.756 149.297 255.987 149.852 256.512 150.266C257.48 151.031 259.261 151.215 261.401 150.768C263.175 150.399 264.575 149.344 265.598 148.575C266.085 148.208 266.898 147.592 267.103 147.668C267.26 147.727 267.487 148.378 267.291 149.085C266.923 150.403 265.104 151.136 263.903 151.622C263.056 151.963 262.441 152.211 262.627 152.73C262.701 152.944 262.917 153.099 263.266 153.19C264.28 153.455 266.539 153.306 268.177 152.152C269.513 151.209 270.683 150.215 271.459 147.568C272.493 144.046 271.406 140.571 269.178 135.755C267.998 133.208 266.312 130.951 264.084 128.957C268.128 129.018 272.195 129.417 276.385 130.426C276.743 130.514 277.113 130.599 277.494 130.686C282.079 131.739 287.782 133.049 288.161 139.838C288.28 141.957 286.433 147.435 284.292 153.777C282.934 157.801 281.396 162.363 280.113 166.8C279.76 168.014 279.427 169.176 279.108 170.294C275.724 182.114 273.862 188.624 267.848 194.316C264.888 197.121 262.607 197.743 259.135 198.525C258.868 198.573 258.59 198.618 258.297 198.66C258.28 198.661 258.264 198.663 258.249 198.665C250.807 199.698 234.743 198.498 210.457 195.092C188.687 192.041 178.74 187.776 171.036 178.194C168.64 175.213 167.258 171.203 165.796 166.955C165.517 166.145 165.236 165.33 164.948 164.518C163.974 160.142 163.648 154.376 163.36 149.285C163.21 146.629 163.068 144.118 162.848 142.097C162.812 141.762 162.776 141.406 162.738 141.029C162.424 137.893 161.948 133.157 159.799 127.446C157.488 121.305 156.216 117.921 153.14 116.499C148.176 114.202 141.19 116.237 137.304 119.53C133.962 122.365 133.425 125.785 132.803 129.745C132.742 130.135 132.68 130.531 132.614 130.932C132.181 133.574 133.579 138.653 136.091 143.57C137.847 147.009 141.668 153.306 147.518 156.834C152.229 159.676 155.24 161.032 157.654 160.057C159.089 159.479 159.863 158.206 160.295 156.631C161.822 159.146 162.929 161.929 163.931 164.741C163.936 164.76 163.943 164.777 163.95 164.795C164.236 165.599 164.514 166.406 164.791 167.211C166.278 171.528 167.682 175.607 170.173 178.705C178.067 188.524 188.19 192.883 210.287 195.981C234.377 199.358 249.97 200.557 257.81 199.633C257.513 206.931 258.209 214.599 263.903 222.017C261.773 222.958 259.422 225.147 256.543 228.822ZM164.892 230.525C164.569 231.106 164.197 231.472 163.87 231.528C163.466 231.598 162.471 231.29 160.372 228.439C158.833 226.347 157.136 223.494 155.495 220.735C154.858 219.664 154.334 218.717 153.871 217.882C152.305 215.056 151.36 213.348 148.799 211.71C147.284 210.74 146.139 210.403 145.128 210.104C144.058 209.789 143.133 209.517 141.896 208.552C138.389 205.82 136.664 200.733 138.6 198.834C139.184 198.262 139.885 198.226 140.857 198.175C141.907 198.121 143.213 198.053 144.645 197.203C145.327 196.798 145.811 196.35 146.213 195.763C147.234 195.272 148.197 194.705 149.086 194.079C148.854 194.487 148.776 194.917 148.912 195.387C149.295 196.708 150.997 197.133 152.968 197.625C155.254 198.195 157.845 198.842 159.294 200.964C160.315 202.461 160.731 204.673 159.723 205.581C158.623 206.571 155.867 205.906 153.855 205.422C152.052 204.988 150.861 204.7 150.398 205.354C149.954 205.98 150.764 206.492 152.539 207.611C154.569 208.889 157.966 211.031 161.119 214.363C162.173 215.475 163.006 216.355 163.776 217.623C166.602 222.268 166.24 228.102 164.892 230.525ZM133.331 196.188C130.427 195.166 127.295 192.738 126.843 189.613C126.536 187.484 127.534 185.127 128.677 184.08C129.116 183.676 129.392 183.636 129.484 183.636C129.489 183.636 129.493 183.636 129.498 183.636C129.755 183.65 129.988 184.161 130.212 184.655C130.59 185.487 131.059 186.52 132.284 186.907C133.816 187.392 135.199 186.452 137.113 185.151C138.583 184.151 140.413 182.907 142.986 181.769C147.224 179.889 149.807 179.29 150.662 179.989C151.095 180.341 150.792 181.171 149.766 183.735C149.256 185.011 148.62 186.602 147.852 188.74C147.486 189.762 147.187 190.635 146.923 191.407C146.314 193.19 145.934 194.302 145.457 195.087C141.535 196.906 136.978 197.473 133.331 196.188ZM152.668 192.315C154.965 190.806 157.823 188.929 158.828 185.691C159.447 183.697 158.975 182.368 158.427 180.83C157.908 179.372 157.32 177.721 157.421 174.977C157.5 172.831 157.991 170.451 158.768 168.444C159.587 166.328 160.374 165.577 160.591 165.554C160.87 165.658 161.423 166.575 161.993 171.557C162.469 175.711 162.934 182.252 163.577 191.303L163.851 195.155C164.208 200.155 164.522 204.463 164.794 208.207C165.099 212.394 165.352 215.871 165.557 218.823C165.31 218.278 165.027 217.736 164.705 217.205C163.885 215.859 163.023 214.948 161.932 213.794C158.694 210.374 155.229 208.191 153.159 206.886C152.579 206.52 151.986 206.146 151.634 205.883C152.134 205.942 152.938 206.135 153.572 206.288C155.967 206.864 158.946 207.582 160.48 206.202C161.877 204.947 161.434 202.321 160.198 200.51C158.538 198.076 155.611 197.346 153.26 196.761C151.531 196.33 150.166 195.988 149.929 195.17C149.685 194.327 150.811 193.535 152.668 192.315ZM139.517 161.821C139.11 160.314 140.16 158.689 140.63 158.063C141.245 157.241 141.853 156.748 142.189 156.548C142.207 156.919 142.107 157.599 142.048 158.002C141.778 159.831 141.029 161.471 140.08 162.889C139.807 162.55 139.618 162.193 139.517 161.821ZM148.908 174.327C148.815 174.32 148.72 174.314 148.625 174.306C147.12 174.191 145.414 174.06 142.857 172.897C139.606 171.417 137.534 169.746 136.677 167.917C137.805 167.033 139.11 165.845 140.255 164.38C140.573 164.615 140.928 164.836 141.32 165.041C143.966 166.425 148.01 166.914 151.152 166.226C153.533 165.707 155.166 164.586 156.246 163.844C156.536 163.645 156.881 163.408 157.099 163.297C157.13 164.211 155.347 167.739 152.207 171.318C151.329 172.32 150.274 173.271 148.908 174.327ZM135.287 167.006C135.331 167.216 135.387 167.425 135.456 167.631C134.508 168.339 133.777 168.775 133.553 168.904C132.709 169.389 131.91 169.849 131.2 170.193C132.357 167.309 134.392 165.238 135.28 164.741C135.273 164.798 135.265 164.857 135.258 164.912C135.196 165.391 135.103 166.114 135.287 167.006ZM140.022 180.444C136.831 182.557 134.476 184.009 133.236 183.47C132.712 183.239 132.426 182.669 131.906 180.809C130.78 176.778 130.215 174.753 130.449 173.005C130.524 172.445 130.642 171.9 130.792 171.377C131.777 171.008 132.891 170.368 134.136 169.652C134.452 169.47 135.073 169.095 135.848 168.54C136.87 170.457 139.054 172.185 142.367 173.693C144.699 174.755 146.42 175.018 147.82 175.145C145.874 176.569 143.369 178.228 140.022 180.444ZM127.118 156.19C123.366 154.34 121.3 153.321 120.296 152.404C117.794 150.124 116.625 147.023 117.338 146.445C117.45 146.354 117.621 146.314 117.836 146.314C118.936 146.314 121.159 147.358 122.188 147.873C126.188 149.871 128.438 152.209 128.876 154.824C129.003 155.586 128.92 156.017 128.671 156.949C128.603 156.915 128.534 156.881 128.464 156.847C128.055 156.648 127.608 156.43 127.118 156.19ZM172.268 136.267C173.381 138.119 173.718 140.044 174.003 141.675C174.38 143.834 174.897 146.79 172.995 149.729C172.048 151.19 170.716 152.344 170.105 152.639C170.189 152.302 170.458 151.698 170.701 151.151C171.67 148.971 173.293 145.322 171.996 141.629C171.696 140.775 171.246 139.948 170.708 139.183C170.762 139.096 170.814 139.009 170.866 138.921C171.357 138.1 171.829 137.202 172.268 136.267ZM124.078 142.726C121.638 143.82 117.646 144.201 114.647 142.449C111.548 140.639 111.121 137.448 110.778 134.886C110.499 132.797 110.151 130.199 111.642 129.232C112.101 128.934 112.705 128.8 113.401 128.8C115.709 128.8 119.034 130.267 121.486 132.093C123.576 133.649 124.17 134.861 125.354 137.274C125.793 138.17 126.307 139.217 127.003 140.487C126.238 141.427 125.295 142.179 124.078 142.726ZM129.773 125.747C129.595 127.046 129.352 128.824 128.877 128.881C128.619 128.913 128.178 128.27 127.823 127.753C127.083 126.679 126.072 125.208 124.088 124.797C123.765 124.728 123.464 124.7 123.176 124.7C122.233 124.7 121.441 125.016 120.558 125.37C119.474 125.804 118.246 126.296 116.262 126.454C114.754 126.573 112.476 126.753 110.922 125.779C109.687 125.007 108.836 123.416 108.646 121.526C108.377 118.854 109.387 116.22 111.346 114.478C114.625 111.566 120.079 111.704 123.758 113.064C128.455 114.8 130.24 118.659 130.935 120.473C130.25 122.257 129.99 124.155 129.773 125.747ZM127.867 108.56C127.098 108.56 126.46 107.494 125.784 106.366C124.85 104.803 123.791 103.033 121.718 102.804C121.574 102.787 121.431 102.779 121.289 102.779C119.163 102.779 117.3 104.506 115.784 105.911C115.02 106.619 113.867 107.687 113.506 107.543C113.501 107.54 112.988 107.148 113.448 104.065C114.178 99.166 114.934 94.0985 119.197 92.4397C119.958 92.1443 122.598 91.2561 124.588 92.2654C126.25 93.11 126.316 94.731 126.408 96.9731C126.491 99.0258 126.596 101.58 128.125 104.209C128.667 105.14 129.317 105.966 130.034 106.705C129.296 107.858 128.538 108.555 127.867 108.56ZM248.958 128.881C242.775 129.432 236.383 130 229.891 129.546C212.418 128.319 197.517 120.841 194.43 117.175C193.836 116.468 193.823 116.093 193.867 115.932C193.934 115.694 194.248 115.493 194.5 115.366C195.939 114.639 199.221 114.272 203.561 114.272C211.303 114.272 222.41 115.444 232.426 117.851C233.336 118.07 234.249 118.286 235.159 118.502C245.204 120.888 254.861 123.181 261.498 128.071C257.255 128.143 253.071 128.514 248.958 128.881ZM352.135 259.649C337.34 247.735 307.944 239.988 291.743 235.768C291.859 235.214 291.813 234.671 291.564 234.114C290.671 232.12 288.13 231.49 284.912 230.693C282.15 230.009 279.02 229.233 276.026 227.406C274.677 226.583 273.527 225.613 272.416 224.675C270.247 222.848 268.375 221.271 265.865 221.489C265.538 221.518 265.208 221.577 264.873 221.669C259.519 214.84 258.513 207.735 258.866 199.488C259.036 199.461 259.203 199.432 259.364 199.403L259.388 199.398C262.56 198.685 265.3 198.069 268.624 194.921C274.814 189.06 276.701 182.47 280.126 170.51C280.444 169.392 280.776 168.23 281.129 167.018C282.408 162.598 283.944 158.046 285.3 154.029C287.552 147.344 289.333 142.065 289.208 139.794C288.791 132.35 282.419 130.887 277.763 129.817C277.386 129.73 277.02 129.646 276.668 129.561C272.05 128.448 267.502 128.067 263.025 128.059C260.982 126.421 258.538 124.973 255.679 123.693C249.718 121.026 242.782 119.379 235.439 117.635C234.529 117.419 233.618 117.203 232.708 116.983C217.845 113.412 198.657 112.227 193.969 114.59C193.349 114.902 192.972 115.283 192.849 115.722C192.694 116.275 192.94 116.942 193.582 117.703C197.303 122.121 213.266 129.281 229.807 130.442C236.391 130.904 242.834 130.33 249.066 129.775C253.664 129.366 258.139 128.968 262.622 128.949C264.972 130.896 266.879 133.229 268.203 136.089C270.403 140.843 271.413 144.046 270.443 147.348C269.742 149.738 268.785 150.558 267.511 151.456C266.51 152.162 265.283 152.376 264.441 152.399C265.75 151.868 267.837 150.992 268.311 149.293C268.536 148.481 268.441 147.182 267.516 146.843C266.707 146.543 265.911 147.14 264.906 147.897C263.912 148.645 262.677 149.577 261.154 149.893C259.073 150.327 257.759 150.028 257.219 149.604C256.955 149.393 256.845 149.138 256.9 148.844C256.935 148.649 257.111 148.301 257.281 147.962C257.726 147.07 258.286 145.96 257.629 145.242C257.164 144.731 256.272 144.591 254.821 144.801C251.958 145.218 249.773 146.555 248.327 148.776C247.657 148.738 245.105 147.975 243.928 146.102C242.327 143.553 244.302 140.535 244.717 139.955C246.302 137.727 248.951 136.653 250.082 136.195C250.631 135.973 250.816 135.897 250.904 135.674L250.977 135.483L250.88 135.314C250.827 135.223 250.719 135.108 250.496 135.058C249.901 134.93 245.405 135.238 242.31 137.109C238.796 139.232 237.275 141.629 235.935 143.745C235.477 144.468 235.042 145.15 234.566 145.752C231.344 149.835 225.119 151.456 220.463 152.098C215.108 152.834 210.538 152.507 210.348 152.493C195.744 151.406 187.554 142.256 184.711 138.374C178.858 130.383 176.568 120.748 179.497 116.44L179.532 116.377C181.71 111.613 178.232 106.101 173.666 104.355C171.473 103.516 168.746 103.661 166.372 104.745C164.691 105.51 163.551 106.623 163.324 107.72C162.987 109.348 164.608 110.375 166.66 111.674C168.903 113.094 171.694 114.861 173.328 118.133C175.349 122.185 174.396 126.077 173.474 129.841C173.103 131.356 172.603 132.856 172.031 134.261C171.875 134.083 171.71 133.907 171.535 133.733C169.566 131.771 167.31 130.978 165.663 130.4C164.091 129.847 163.264 129.525 163.109 128.792C162.826 127.446 165.058 125.855 166.852 124.577C168.593 123.335 169.969 122.354 169.481 121.413C169.061 120.602 167.767 120.697 166.129 120.818C164.355 120.949 162.146 121.112 161.018 120.074C160.115 119.244 160.342 118.027 160.582 116.737C160.842 115.343 161.111 113.9 159.956 112.802C158.581 111.496 156.263 111.759 154.022 112.013C151.883 112.255 149.67 112.505 148.361 111.416C147.482 110.687 147.477 109.765 147.467 107.746C147.465 107.345 147.463 106.907 147.453 106.426C147.446 106.119 147.44 105.807 147.435 105.493C147.334 100.005 147.21 93.1744 142.663 89.4306C140.782 87.8835 136.998 85.5524 134.746 86.6337C133.301 87.3287 133.346 88.8872 133.415 91.2448C133.466 93.0248 133.53 95.2423 133.059 98.0297C132.557 101.005 131.602 103.84 130.549 105.816C129.994 105.209 129.49 104.542 129.062 103.807C127.635 101.355 127.539 99.0107 127.455 96.9409C127.36 94.6041 127.277 92.5855 125.121 91.491C122.695 90.2601 119.643 91.2788 118.764 91.6197C113.969 93.4869 113.176 98.8062 112.408 103.951C111.895 107.394 112.451 108.11 113.062 108.358C114.114 108.782 115.19 107.786 116.552 106.525C118.006 105.176 119.815 103.499 121.584 103.696C123.11 103.866 123.996 105.345 124.853 106.777C125.678 108.157 126.458 109.462 127.865 109.462C127.872 109.462 127.88 109.462 127.887 109.462C128.953 109.45 129.926 108.646 130.775 107.417C132.869 109.301 135.359 110.553 137.353 111.556C139.173 112.471 140.745 113.262 140.548 113.899C140.441 114.245 139.879 114.357 138.813 114.537C137.6 114.743 135.938 115.023 134.327 116.082C133.049 116.923 132.156 118.01 131.517 119.199C130.555 117.084 128.524 113.846 124.172 112.236C120.172 110.757 114.217 110.634 110.593 113.853C108.426 115.779 107.307 118.676 107.602 121.604C107.821 123.782 108.806 125.569 110.305 126.507C112.178 127.679 114.795 127.472 116.358 127.349C118.523 127.179 119.897 126.628 121 126.187C122.095 125.747 122.817 125.459 123.842 125.672C125.395 125.993 126.241 127.222 126.921 128.209C127.514 129.073 128.075 129.887 129.021 129.773C130.298 129.62 130.514 128.04 130.813 125.853C130.967 124.727 131.143 123.439 131.483 122.163C132.205 125.102 131.533 127.677 130.574 131.351C129.7 134.699 128.973 137.488 127.661 139.569C127.116 138.548 126.69 137.681 126.319 136.926C125.151 134.543 124.446 133.106 122.172 131.413C119.358 129.317 113.839 126.677 111.01 128.514C109.042 129.79 109.428 132.672 109.738 134.988C110.085 137.588 110.562 141.15 114.058 143.194C117.431 145.163 121.765 144.779 124.563 143.523C125.772 142.98 126.732 142.273 127.521 141.415C127.67 141.677 127.827 141.947 127.993 142.228C130.087 145.778 131.897 148.062 133.218 149.73C135.17 152.196 136.15 153.434 136.08 155.887C135.994 158.886 134.311 161.547 133.126 162.92C133.333 162.123 133.432 161.102 132.953 160.053C132.443 158.941 131.55 158.373 129.621 157.415C129.928 156.279 130.079 155.69 129.913 154.696C129.427 151.795 127.005 149.238 122.715 147.094C120.358 145.917 117.79 144.841 116.618 145.792C115.148 146.985 117.011 150.723 119.534 153.022C120.644 154.035 122.758 155.076 126.597 156.97C127.088 157.212 127.537 157.43 127.947 157.631C128.113 157.71 128.272 157.788 128.426 157.864C128.347 158.161 128.261 158.496 128.169 158.877C126.762 164.715 125.798 170.282 128.244 171.487C128.666 171.695 129.13 171.748 129.638 171.682C129.541 172.081 129.463 172.488 129.408 172.903C129.153 174.808 129.733 176.884 130.888 181.017C131.459 183.065 131.828 183.864 132.762 184.271C134.558 185.055 136.945 183.617 140.662 181.156C144.463 178.639 147.192 176.832 149.262 175.263C150.235 175.357 151.027 175.524 151.889 176.141C155.297 178.586 155.122 184.596 152.821 188.677C151.539 190.952 149.44 192.883 146.973 194.3C147.269 193.591 147.562 192.732 147.929 191.661C148.191 190.893 148.489 190.021 148.853 189.007C149.616 186.88 150.249 185.299 150.757 184.026C151.93 181.093 152.325 180.105 151.383 179.336C149.771 178.022 145.991 179.423 142.505 180.97C139.842 182.148 137.969 183.422 136.463 184.445C134.599 185.712 133.583 186.358 132.646 186.064C131.864 185.816 131.52 185.06 131.188 184.328C130.844 183.57 130.487 182.786 129.558 182.739C129.03 182.712 128.459 182.964 127.913 183.464C126.623 184.646 125.445 187.244 125.804 189.725C126.307 193.209 129.748 195.9 132.934 197.022C134.602 197.608 136.48 197.857 138.44 197.77C138.222 197.891 138.012 198.046 137.812 198.242C135.464 200.544 137.17 206.085 141.192 209.218C142.589 210.309 143.658 210.622 144.789 210.955C145.772 211.245 146.79 211.544 148.173 212.432C150.526 213.936 151.378 215.475 152.925 218.269C153.391 219.11 153.918 220.062 154.562 221.145C158.894 228.428 161.694 232.822 164.077 232.41C164.758 232.293 165.35 231.789 165.837 230.912C165.967 230.68 166.089 230.417 166.202 230.126C166.317 233.762 166.234 236.339 165.987 239.673C164.645 257.837 160.084 267.767 149.721 275.091C142.455 280.227 135.472 284.189 129.311 287.684C118.309 293.928 109.619 298.86 104.967 306.973C103.194 310.064 102.275 314.452 102.446 319.011C102.573 322.394 103.38 326.104 104.897 326.764C105.04 326.827 105.23 326.883 105.447 326.883C105.893 326.883 106.458 326.647 106.998 325.76C114.808 312.902 126.592 304.453 142.022 300.65C154.126 297.665 160.793 296.024 165.543 292.276C177.061 283.193 177.05 267.782 177.044 258.573C177.043 256.393 177.041 254.512 177.2 253.214C177.401 251.573 177.799 251.45 177.877 251.443C178.31 251.394 180.082 252.075 184.589 262.596C187.392 269.141 190.27 277.138 192.371 282.977C192.679 283.834 192.974 284.666 193.258 285.465C195.867 292.809 197.128 296.119 199.116 296.119C199.15 296.119 199.185 296.119 199.219 296.115C202.041 295.957 203.597 288.167 203.594 282.844C203.589 275.756 201.117 271.358 198.936 267.479C196.875 263.813 195.095 260.646 195.819 256.018C196.941 248.847 203.796 240.618 211.837 240.277C218.733 239.986 225.231 245.46 227.841 250.757C231.61 258.402 227.801 266.68 225.02 272.726C222.87 277.397 221.319 280.772 223.624 282.369C225.134 283.413 227.859 283.247 231.3 281.904C234.401 280.693 237.61 278.684 239.883 276.53C244.342 272.298 245.394 266.961 247.296 257.275C248.025 253.551 248.239 251.376 248.409 249.63C248.618 247.488 248.757 246.074 249.71 243.262C250.627 240.558 252.846 235.153 257.411 229.325C260.23 225.726 262.525 223.595 264.496 222.769C265.377 223.849 266.367 224.923 267.48 225.991C271.155 229.517 275.228 231.533 280.214 233.474C281.982 234.161 285.529 235.092 290.431 236.368C289.922 237.388 288.829 238.571 287.4 240.117C285.295 242.396 282.676 245.233 280.254 249.357C277.77 253.583 276.919 256.757 276.097 259.826C275.861 260.7 275.643 261.528 275.383 262.38C273.152 269.724 268.582 277.318 263.391 283.611C260.385 283.578 257.42 283.713 254.579 284.023C245.407 285.018 239.407 287.623 238.115 291.165C237.079 294.011 238.981 297.852 241.884 298.776C243.505 299.291 245.583 298.988 248.067 297.876C252.765 295.772 258.681 290.787 263.931 284.518C270.26 284.626 276.754 285.483 282.637 287.027C295.042 290.28 310.88 290.499 326.089 287.628C340.836 284.846 352.025 279.645 356.017 273.718C358.197 270.482 359.294 265.413 352.135 259.649Z" fill="#333333"/>
</g>
<defs>
<clipPath id="clip0_16_3">
<rect width="440" height="378" fill="white" transform="translate(0 0.831177)"/>
</clipPath>
</defs>
</svg>
