<svg width="371" height="199" viewBox="0 0 371 199" fill="none" xmlns="http://www.w3.org/2000/svg">
<path d="M269.325 43.2329L260.587 38.5943C259.889 38.2247 260.05 37.1004 260.817 36.9764L303.587 30.0613C303.873 30.015 303.981 30.4542 303.711 30.5678L271.028 44.3205C270.723 44.4486 270.523 44.766 270.523 45.1197V57.4943C270.523 58.2258 271.313 58.6212 271.826 58.1464L279.051 51.4554C279.321 51.2055 279.712 51.1815 280.006 51.3966L290.207 58.8547C290.579 59.1265 291.084 59.0084 291.32 58.5946L307.291 30.5686C307.423 30.338 307.187 30.068 306.967 30.1992L283.446 44.2922C279.238 46.8131 275.911 50.7624 273.969 55.533C272.384 59.4243 270.453 63.7626 269.105 65.4413C254.258 83.9048 228.332 70.109 225.471 83.1248C223.1 93.9018 239.437 86.4689 232.74 73.9831C220.085 50.3872 210.932 92.5219 194.012 79.1193C170.021 60.1149 178.746 98.8406 164.026 105.053C149.703 111.098 144.108 86.3033 153.94 87.3039C162.663 88.1909 152.344 115.383 131.569 116.816C125.908 117.206 120.88 119.706 116.914 123.975C116.914 123.975 97.402 148.293 94.7715 149.245C92.1411 150.196 64.6092 128.912 65.5873 127.091C66.6346 125.14 116.475 118.741 119.105 121.596C121.736 124.45 124.715 159.29 122.613 162.035C120.42 164.898 72.3679 171.543 68.2639 167.737C64.1597 163.93 62.5602 136.259 63.9464 129.576" stroke="white" stroke-width="3" stroke-miterlimit="10" stroke-linecap="round" stroke-linejoin="round"/>
</svg>
