<svg width="101" height="70" viewBox="0 0 101 70" fill="none" xmlns="http://www.w3.org/2000/svg">
<g clip-path="url(#clip0_12_551)">
<path d="M0 65.7151C0 65.7151 68.1542 65.7151 68.2152 65.7151M68.2152 65.7151C67.5738 65.7151 65.302 63.1168 64.6316 62.613C63.2409 61.569 61.7515 60.6455 60.1403 59.9781C55.7184 58.1454 50.6363 58.2315 45.9516 58.6635C41.2522 59.0966 36.297 60.0484 32.4154 63.0195C31.5307 63.6966 29.0086 66.4969 27.6567 65.7277C26.8285 65.2564 27.2619 63.9727 27.7195 63.3601C28.5555 62.241 30.105 61.4596 31.2361 60.6694C32.9285 59.4866 34.5204 58.2357 35.9416 56.7313C36.1642 56.4958 36.3955 56.2256 36.4029 55.9018C36.4169 55.2909 35.6838 54.9761 35.0827 54.8545C33.0034 54.4336 30.857 54.3436 28.7495 54.5889C27.1955 54.7698 25.6527 55.132 24.0886 55.09C22.6621 55.0512 21.2967 54.5934 20.2099 53.6509C19.9867 53.4578 19.7705 53.2346 19.6878 52.952C19.5293 52.4104 19.9334 51.8329 20.4474 51.5965C20.9616 51.3602 21.5522 51.379 22.1179 51.402C39.8569 52.1202 57.614 52.391 75.3665 52.2136C75.9794 52.2074 76.6644 52.1704 77.0825 51.7246C77.4409 51.3426 77.4906 50.7738 77.5171 50.2512C77.7125 46.3154 77.641 42.3664 77.3018 38.4402C77.262 37.9782 77.1918 37.4649 76.8314 37.1719C76.571 36.9611 76.2172 36.9154 75.8833 36.8806C72.4633 36.5221 69.0175 36.4091 65.581 36.5428C65.3173 36.5529 65.0284 36.5748 64.8383 36.757C64.6501 36.9364 64.6143 37.2176 64.5892 37.4752C64.4646 38.7592 64.34 40.0429 64.2155 41.3269C64.1797 41.6936 64.1479 42.0819 64.3096 42.4133C64.5573 42.9196 65.1656 43.1239 65.7174 43.2439C66.8523 43.4906 68.0191 43.5904 69.1798 43.5405C69.7396 43.5164 70.3624 43.4239 70.7056 42.9829C70.9103 42.7197 70.9759 42.3774 71.0269 42.0482C71.2277 40.7503 71.2986 39.4324 71.239 38.1203C71.2264 37.843 71.2019 37.5484 71.0356 37.3253C70.8388 37.0601 70.4896 36.9592 70.1623 36.9095C68.4013 36.6426 66.27 37.2642 65.047 35.9737C64.3533 35.2423 64.2539 34.1447 64.2486 33.1386C64.2407 31.6298 64.3606 30.1203 64.6057 28.6314C64.6567 28.3231 64.7236 27.9938 64.9509 27.778C65.1781 27.5615 65.5127 27.51 65.8254 27.475C67.1028 27.3338 68.3921 27.3021 69.6747 27.3813C69.9676 27.3991 70.2816 27.4321 70.5035 27.6229C70.7553 27.84 70.8182 28.1977 70.8593 28.5271C71.0839 30.3317 71.1197 32.1599 70.9653 33.972C66.06 34.0248 61.1546 34.0774 56.2491 34.1302C55.9255 34.1335 55.5687 34.1254 55.3278 33.9098C55.1265 33.7301 55.0573 33.4495 55.0047 33.1854C54.685 31.5863 54.6011 29.9402 54.7565 28.3172C54.7931 27.935 54.8632 27.5153 55.1606 27.2711C55.404 27.0711 55.7417 27.0394 56.0572 27.0242C57.2324 26.9688 58.4131 27.0282 59.5765 27.2018C60.015 27.2671 60.4921 27.3721 60.763 27.7219C60.9929 28.0189 61.0168 28.4202 61.03 28.7944C61.1877 33.2297 61.1672 37.6709 60.9678 42.104C60.9545 42.4054 60.9247 42.7405 60.7001 42.9431C60.4861 43.136 60.1681 43.1427 59.8792 43.1388C58.5634 43.1209 57.2473 43.1026 55.9311 43.0847C55.3917 43.0771 54.7793 43.0371 54.436 42.6224C54.2151 42.3558 54.1607 41.9925 54.1315 41.6479C54.0099 40.2176 54.1779 38.7629 54.6225 37.3973C54.7281 37.0735 54.8603 36.7385 55.1271 36.526C55.437 36.2793 55.8625 36.2482 56.259 36.2423C57.5411 36.2227 58.8258 36.3564 60.076 36.6393C60.18 36.6628 60.1701 36.8136 60.0647 36.8249C55.9685 37.2535 51.8655 37.6118 47.7571 37.8999C46.5498 37.9846 45.2182 38.0273 44.2687 37.2796C43.2396 36.4696 42.7828 34.8268 41.4841 34.6438C40.1237 34.452 39.208 36.0573 37.8971 36.468C36.6538 36.8571 35.1837 36.1215 34.0482 36.759C33.5951 37.0132 33.2766 37.4511 32.8567 37.7567C32.4368 38.0623 31.7989 38.2044 31.4265 37.8425C31.254 37.6745 31.1778 37.434 31.1134 37.2024C30.7447 35.8762 30.6186 34.3062 31.5197 33.2628C32.3448 32.3073 33.7471 32.1235 35.0121 32.1265C36.0401 32.1291 37.1013 32.2208 38.0117 32.697C38.9221 33.1731 39.6509 34.1131 39.6056 35.1363C39.674 34.1935 39.7959 33.2201 40.2847 32.4096C40.7985 31.5574 41.8204 30.9312 42.7957 31.2129C42.9078 31.2454 43.0127 31.3004 43.0968 31.3806C43.6093 31.8675 42.9123 32.6665 42.2411 32.8316C40.8433 33.1756 39.2558 32.4918 38.5498 31.242C37.8434 29.9923 38.0803 28.2855 39.1007 27.2737C39.813 28.038 39.4902 29.3719 38.6809 30.0339C37.8718 30.6959 36.7582 30.8369 35.7111 30.8425C35.3796 30.8445 35.0321 30.8313 34.7447 30.6665C34.2851 30.4027 34.1096 29.8306 34.051 29.3059C33.981 28.6743 34.0252 28.0307 34.176 27.4136C34.3741 26.6018 35.5549 26.6718 35.6669 27.4994C35.7474 28.0961 35.6064 28.7455 35.251 29.2353C34.5309 30.2272 33.2391 30.6447 32.013 30.7296C31.4384 30.7694 30.8204 30.7371 30.3524 30.4024C29.8847 30.0682 29.6671 29.3382 30.044 28.9039C30.4475 28.4393 31.274 28.6129 31.646 29.1033C32.0181 29.593 32.0431 30.2597 31.9821 30.8714C31.8515 32.1756 31.1369 33.6614 29.8278 33.7904C28.5029 33.9207 27.5374 32.6157 26.8662 31.4705C27.5878 30.9409 28.6901 31.3088 29.2177 32.0303C29.7454 32.7523 29.8315 33.6992 29.8219 34.5922C29.8141 35.3222 29.7417 36.0906 29.3261 36.692C28.9104 37.2936 28.049 37.6448 27.4158 37.277C26.7826 36.9092 26.8243 35.7363 27.5402 35.5807C27.8964 35.5033 28.2533 35.6813 28.5727 35.8563C29.3725 36.2939 30.1869 36.7685 30.7281 37.5005C31.269 38.2325 31.4682 39.2916 30.9645 40.0494C30.6521 40.5195 30.1267 40.8052 29.7597 41.2338C29.3925 41.6628 29.243 42.4009 29.6964 42.7382C29.8818 42.8761 30.1225 42.9097 30.3518 42.9387C34.7385 43.492 39.1421 43.9137 43.5542 44.2027C44.1499 44.2416 44.7881 44.2686 45.2984 43.9602C46.0174 43.5257 46.227 42.5949 46.3242 41.7628C46.4074 41.0477 46.4514 40.2944 46.1604 39.635C46.1314 39.5692 46.0979 39.5047 46.0605 39.4419C45.7228 38.8762 44.8608 39.3645 45.1692 39.9468C46.5921 42.6339 47.7264 45.4727 48.5448 48.3995C48.7303 49.0625 48.8957 49.7909 48.6166 50.4205C48.1373 51.5018 46.697 51.6776 45.5103 51.6885C40.9671 51.7297 36.4225 51.6571 31.883 51.4713C29.5602 51.3762 27.2388 51.2515 24.9196 51.097C23.7712 51.0204 22.5811 51.0126 21.4425 50.843C20.0216 50.6311 20.1843 50.6319 20.1657 49.1561C20.0488 39.9773 20.1341 30.7809 20.478 21.6075C20.5053 20.8822 20.5748 20.0658 21.1341 19.5991C21.5916 19.2176 22.2406 19.1919 22.8372 19.1853C40.693 18.9787 58.5535 19.1728 76.4007 19.7681C76.7982 19.7806 77.2176 19.8011 77.5515 20.0163C78.1637 20.4116 78.2306 21.263 78.2319 21.9903C78.2545 32.4719 78.1293 42.954 77.857 53.4323C77.8464 53.8404 77.8106 54.3024 77.4919 54.5598C77.2567 54.7507 76.9301 54.7723 76.6266 54.7852C63.6146 55.3383 50.4936 54.5842 37.515 55.437C45.0606 55.3024 52.6166 55.1892 60.1575 55.552C62.1292 55.6467 63.7603 57.079 65.1921 58.2915C66.2726 59.2057 67.3009 60.1801 68.2967 61.1844C68.93 61.8225 70.7964 63.1777 70.8322 64.1451C70.8606 64.9021 68.6339 65.6665 68.2152 65.7151ZM68.2152 65.7151H100" stroke="#333333" stroke-width="2" stroke-miterlimit="10"/>
</g>
<defs>
<clipPath id="clip0_12_551">
<rect width="100" height="47.0348" fill="white" transform="translate(0 18.9652)"/>
</clipPath>
</defs>
</svg>
